%TF.GenerationSoftware,KiCad,Pcbnew,5.1.8+dfsg1-1*%
%TF.CreationDate,2020-11-26T10:16:37+01:00*%
%TF.ProjectId,ws2812b_ctrl_RF,77733238-3132-4625-9f63-74726c5f5246,rev?*%
%TF.SameCoordinates,Original*%
%TF.FileFunction,Soldermask,Bot*%
%TF.FilePolarity,Negative*%
%FSLAX46Y46*%
G04 Gerber Fmt 4.6, Leading zero omitted, Abs format (unit mm)*
G04 Created by KiCad (PCBNEW 5.1.8+dfsg1-1) date 2020-11-26 10:16:37*
%MOMM*%
%LPD*%
G01*
G04 APERTURE LIST*
%ADD10C,5.700000*%
%ADD11C,3.600000*%
%ADD12C,2.082800*%
%ADD13C,3.000000*%
%ADD14R,3.000000X3.000000*%
%ADD15R,2.500000X1.800000*%
%ADD16R,1.700000X1.700000*%
%ADD17O,1.700000X1.700000*%
%ADD18C,2.500000*%
%ADD19R,1.524000X1.524000*%
%ADD20C,1.524000*%
%ADD21R,0.900000X0.800000*%
%ADD22R,3.800000X2.000000*%
%ADD23R,1.500000X2.000000*%
G04 APERTURE END LIST*
D10*
%TO.C,H4*%
X73479000Y-131479000D03*
D11*
X73479000Y-131479000D03*
%TD*%
D10*
%TO.C,H3*%
X131479000Y-131479000D03*
D11*
X131479000Y-131479000D03*
%TD*%
D10*
%TO.C,H2*%
X131479000Y-73479000D03*
D11*
X131479000Y-73479000D03*
%TD*%
D10*
%TO.C,H1*%
X73479000Y-73479000D03*
D11*
X73479000Y-73479000D03*
%TD*%
D12*
%TO.C,B1*%
X111760000Y-74930000D03*
X111760000Y-77470000D03*
X111760000Y-80010000D03*
X111760000Y-82550000D03*
X111760000Y-85090000D03*
X111760000Y-87630000D03*
X111760000Y-90170000D03*
X111760000Y-92710000D03*
X111760000Y-95250000D03*
X111760000Y-97790000D03*
X111760000Y-100330000D03*
X111760000Y-102870000D03*
X96520000Y-102870000D03*
X96520000Y-100330000D03*
X96520000Y-97790000D03*
X96520000Y-95250000D03*
X96520000Y-92710000D03*
X96520000Y-90170000D03*
X96520000Y-87630000D03*
X96520000Y-85090000D03*
X96520000Y-82550000D03*
X96520000Y-80010000D03*
X96520000Y-77470000D03*
X96520000Y-74930000D03*
%TD*%
%TO.C,CTL1*%
X97155000Y-129540000D03*
%TD*%
D13*
%TO.C,WS2812B1*%
X81280000Y-129540000D03*
D14*
X86360000Y-129540000D03*
%TD*%
%TO.C,C1*%
G36*
G01*
X124034999Y-109235000D02*
X124885001Y-109235000D01*
G75*
G02*
X125135000Y-109484999I0J-249999D01*
G01*
X125135000Y-110385001D01*
G75*
G02*
X124885001Y-110635000I-249999J0D01*
G01*
X124034999Y-110635000D01*
G75*
G02*
X123785000Y-110385001I0J249999D01*
G01*
X123785000Y-109484999D01*
G75*
G02*
X124034999Y-109235000I249999J0D01*
G01*
G37*
G36*
G01*
X124034999Y-106535000D02*
X124885001Y-106535000D01*
G75*
G02*
X125135000Y-106784999I0J-249999D01*
G01*
X125135000Y-107685001D01*
G75*
G02*
X124885001Y-107935000I-249999J0D01*
G01*
X124034999Y-107935000D01*
G75*
G02*
X123785000Y-107685001I0J249999D01*
G01*
X123785000Y-106784999D01*
G75*
G02*
X124034999Y-106535000I249999J0D01*
G01*
G37*
%TD*%
%TO.C,C13*%
G36*
G01*
X77535000Y-78314999D02*
X77535000Y-79165001D01*
G75*
G02*
X77285001Y-79415000I-249999J0D01*
G01*
X76384999Y-79415000D01*
G75*
G02*
X76135000Y-79165001I0J249999D01*
G01*
X76135000Y-78314999D01*
G75*
G02*
X76384999Y-78065000I249999J0D01*
G01*
X77285001Y-78065000D01*
G75*
G02*
X77535000Y-78314999I0J-249999D01*
G01*
G37*
G36*
G01*
X80235000Y-78314999D02*
X80235000Y-79165001D01*
G75*
G02*
X79985001Y-79415000I-249999J0D01*
G01*
X79084999Y-79415000D01*
G75*
G02*
X78835000Y-79165001I0J249999D01*
G01*
X78835000Y-78314999D01*
G75*
G02*
X79084999Y-78065000I249999J0D01*
G01*
X79985001Y-78065000D01*
G75*
G02*
X80235000Y-78314999I0J-249999D01*
G01*
G37*
%TD*%
%TO.C,C12*%
G36*
G01*
X77735430Y-80380840D02*
X77735430Y-82179160D01*
G75*
G02*
X77633830Y-82280760I-101600J0D01*
G01*
X76036170Y-82280760D01*
G75*
G02*
X75934570Y-82179160I0J101600D01*
G01*
X75934570Y-80380840D01*
G75*
G02*
X76036170Y-80279240I101600J0D01*
G01*
X77633830Y-80279240D01*
G75*
G02*
X77735430Y-80380840I0J-101600D01*
G01*
G37*
G36*
G01*
X80534510Y-80380840D02*
X80534510Y-82179160D01*
G75*
G02*
X80432910Y-82280760I-101600J0D01*
G01*
X78835250Y-82280760D01*
G75*
G02*
X78733650Y-82179160I0J101600D01*
G01*
X78733650Y-80380840D01*
G75*
G02*
X78835250Y-80279240I101600J0D01*
G01*
X80432910Y-80279240D01*
G75*
G02*
X80534510Y-80380840I0J-101600D01*
G01*
G37*
%TD*%
D13*
%TO.C,SUPPLY1*%
X81280000Y-95250000D03*
D14*
X81280000Y-100330000D03*
%TD*%
%TO.C,C11*%
G36*
G01*
X94405001Y-87535000D02*
X93554999Y-87535000D01*
G75*
G02*
X93305000Y-87285001I0J249999D01*
G01*
X93305000Y-86384999D01*
G75*
G02*
X93554999Y-86135000I249999J0D01*
G01*
X94405001Y-86135000D01*
G75*
G02*
X94655000Y-86384999I0J-249999D01*
G01*
X94655000Y-87285001D01*
G75*
G02*
X94405001Y-87535000I-249999J0D01*
G01*
G37*
G36*
G01*
X94405001Y-90235000D02*
X93554999Y-90235000D01*
G75*
G02*
X93305000Y-89985001I0J249999D01*
G01*
X93305000Y-89084999D01*
G75*
G02*
X93554999Y-88835000I249999J0D01*
G01*
X94405001Y-88835000D01*
G75*
G02*
X94655000Y-89084999I0J-249999D01*
G01*
X94655000Y-89985001D01*
G75*
G02*
X94405001Y-90235000I-249999J0D01*
G01*
G37*
%TD*%
%TO.C,C9*%
G36*
G01*
X90595001Y-80550000D02*
X89744999Y-80550000D01*
G75*
G02*
X89495000Y-80300001I0J249999D01*
G01*
X89495000Y-79399999D01*
G75*
G02*
X89744999Y-79150000I249999J0D01*
G01*
X90595001Y-79150000D01*
G75*
G02*
X90845000Y-79399999I0J-249999D01*
G01*
X90845000Y-80300001D01*
G75*
G02*
X90595001Y-80550000I-249999J0D01*
G01*
G37*
G36*
G01*
X90595001Y-83250000D02*
X89744999Y-83250000D01*
G75*
G02*
X89495000Y-83000001I0J249999D01*
G01*
X89495000Y-82099999D01*
G75*
G02*
X89744999Y-81850000I249999J0D01*
G01*
X90595001Y-81850000D01*
G75*
G02*
X90845000Y-82099999I0J-249999D01*
G01*
X90845000Y-83000001D01*
G75*
G02*
X90595001Y-83250000I-249999J0D01*
G01*
G37*
%TD*%
%TO.C,C8*%
G36*
G01*
X78314999Y-90900000D02*
X79165001Y-90900000D01*
G75*
G02*
X79415000Y-91149999I0J-249999D01*
G01*
X79415000Y-92050001D01*
G75*
G02*
X79165001Y-92300000I-249999J0D01*
G01*
X78314999Y-92300000D01*
G75*
G02*
X78065000Y-92050001I0J249999D01*
G01*
X78065000Y-91149999D01*
G75*
G02*
X78314999Y-90900000I249999J0D01*
G01*
G37*
G36*
G01*
X78314999Y-88200000D02*
X79165001Y-88200000D01*
G75*
G02*
X79415000Y-88449999I0J-249999D01*
G01*
X79415000Y-89350001D01*
G75*
G02*
X79165001Y-89600000I-249999J0D01*
G01*
X78314999Y-89600000D01*
G75*
G02*
X78065000Y-89350001I0J249999D01*
G01*
X78065000Y-88449999D01*
G75*
G02*
X78314999Y-88200000I249999J0D01*
G01*
G37*
%TD*%
%TO.C,C5*%
G36*
G01*
X108375001Y-79440000D02*
X107524999Y-79440000D01*
G75*
G02*
X107275000Y-79190001I0J249999D01*
G01*
X107275000Y-78289999D01*
G75*
G02*
X107524999Y-78040000I249999J0D01*
G01*
X108375001Y-78040000D01*
G75*
G02*
X108625000Y-78289999I0J-249999D01*
G01*
X108625000Y-79190001D01*
G75*
G02*
X108375001Y-79440000I-249999J0D01*
G01*
G37*
G36*
G01*
X108375001Y-82140000D02*
X107524999Y-82140000D01*
G75*
G02*
X107275000Y-81890001I0J249999D01*
G01*
X107275000Y-80989999D01*
G75*
G02*
X107524999Y-80740000I249999J0D01*
G01*
X108375001Y-80740000D01*
G75*
G02*
X108625000Y-80989999I0J-249999D01*
G01*
X108625000Y-81890001D01*
G75*
G02*
X108375001Y-82140000I-249999J0D01*
G01*
G37*
%TD*%
%TO.C,R8*%
G36*
G01*
X93479620Y-113629440D02*
X93479620Y-112430560D01*
G75*
G02*
X93581220Y-112328960I101600J0D01*
G01*
X94378780Y-112328960D01*
G75*
G02*
X94480380Y-112430560I0J-101600D01*
G01*
X94480380Y-113629440D01*
G75*
G02*
X94378780Y-113731040I-101600J0D01*
G01*
X93581220Y-113731040D01*
G75*
G02*
X93479620Y-113629440I0J101600D01*
G01*
G37*
G36*
G01*
X91681300Y-113629440D02*
X91681300Y-112430560D01*
G75*
G02*
X91782900Y-112328960I101600J0D01*
G01*
X92580460Y-112328960D01*
G75*
G02*
X92682060Y-112430560I0J-101600D01*
G01*
X92682060Y-113629440D01*
G75*
G02*
X92580460Y-113731040I-101600J0D01*
G01*
X91782900Y-113731040D01*
G75*
G02*
X91681300Y-113629440I0J101600D01*
G01*
G37*
%TD*%
%TO.C,C4*%
G36*
G01*
X100065840Y-128898650D02*
X101864160Y-128898650D01*
G75*
G02*
X101965760Y-129000250I0J-101600D01*
G01*
X101965760Y-130597910D01*
G75*
G02*
X101864160Y-130699510I-101600J0D01*
G01*
X100065840Y-130699510D01*
G75*
G02*
X99964240Y-130597910I0J101600D01*
G01*
X99964240Y-129000250D01*
G75*
G02*
X100065840Y-128898650I101600J0D01*
G01*
G37*
G36*
G01*
X100065840Y-126099570D02*
X101864160Y-126099570D01*
G75*
G02*
X101965760Y-126201170I0J-101600D01*
G01*
X101965760Y-127798830D01*
G75*
G02*
X101864160Y-127900430I-101600J0D01*
G01*
X100065840Y-127900430D01*
G75*
G02*
X99964240Y-127798830I0J101600D01*
G01*
X99964240Y-126201170D01*
G75*
G02*
X100065840Y-126099570I101600J0D01*
G01*
G37*
%TD*%
%TO.C,C6*%
G36*
G01*
X106309160Y-82309970D02*
X104510840Y-82309970D01*
G75*
G02*
X104409240Y-82208370I0J101600D01*
G01*
X104409240Y-80610710D01*
G75*
G02*
X104510840Y-80509110I101600J0D01*
G01*
X106309160Y-80509110D01*
G75*
G02*
X106410760Y-80610710I0J-101600D01*
G01*
X106410760Y-82208370D01*
G75*
G02*
X106309160Y-82309970I-101600J0D01*
G01*
G37*
G36*
G01*
X106309160Y-79510890D02*
X104510840Y-79510890D01*
G75*
G02*
X104409240Y-79409290I0J101600D01*
G01*
X104409240Y-77811630D01*
G75*
G02*
X104510840Y-77710030I101600J0D01*
G01*
X106309160Y-77710030D01*
G75*
G02*
X106410760Y-77811630I0J-101600D01*
G01*
X106410760Y-79409290D01*
G75*
G02*
X106309160Y-79510890I-101600J0D01*
G01*
G37*
%TD*%
%TO.C,C7*%
G36*
G01*
X91069160Y-130440430D02*
X89270840Y-130440430D01*
G75*
G02*
X89169240Y-130338830I0J101600D01*
G01*
X89169240Y-128741170D01*
G75*
G02*
X89270840Y-128639570I101600J0D01*
G01*
X91069160Y-128639570D01*
G75*
G02*
X91170760Y-128741170I0J-101600D01*
G01*
X91170760Y-130338830D01*
G75*
G02*
X91069160Y-130440430I-101600J0D01*
G01*
G37*
G36*
G01*
X91069160Y-133239510D02*
X89270840Y-133239510D01*
G75*
G02*
X89169240Y-133137910I0J101600D01*
G01*
X89169240Y-131540250D01*
G75*
G02*
X89270840Y-131438650I101600J0D01*
G01*
X91069160Y-131438650D01*
G75*
G02*
X91170760Y-131540250I0J-101600D01*
G01*
X91170760Y-133137910D01*
G75*
G02*
X91069160Y-133239510I-101600J0D01*
G01*
G37*
%TD*%
%TO.C,C10*%
G36*
G01*
X126735840Y-105015030D02*
X128534160Y-105015030D01*
G75*
G02*
X128635760Y-105116630I0J-101600D01*
G01*
X128635760Y-106714290D01*
G75*
G02*
X128534160Y-106815890I-101600J0D01*
G01*
X126735840Y-106815890D01*
G75*
G02*
X126634240Y-106714290I0J101600D01*
G01*
X126634240Y-105116630D01*
G75*
G02*
X126735840Y-105015030I101600J0D01*
G01*
G37*
G36*
G01*
X126735840Y-107814110D02*
X128534160Y-107814110D01*
G75*
G02*
X128635760Y-107915710I0J-101600D01*
G01*
X128635760Y-109513370D01*
G75*
G02*
X128534160Y-109614970I-101600J0D01*
G01*
X126735840Y-109614970D01*
G75*
G02*
X126634240Y-109513370I0J101600D01*
G01*
X126634240Y-107915710D01*
G75*
G02*
X126735840Y-107814110I101600J0D01*
G01*
G37*
%TD*%
D15*
%TO.C,D1*%
X81280000Y-118110000D03*
X85280000Y-118110000D03*
%TD*%
%TO.C,FB1*%
G36*
G01*
X81475000Y-89805000D02*
X83625000Y-89805000D01*
G75*
G02*
X83875000Y-90055000I0J-250000D01*
G01*
X83875000Y-90805000D01*
G75*
G02*
X83625000Y-91055000I-250000J0D01*
G01*
X81475000Y-91055000D01*
G75*
G02*
X81225000Y-90805000I0J250000D01*
G01*
X81225000Y-90055000D01*
G75*
G02*
X81475000Y-89805000I250000J0D01*
G01*
G37*
G36*
G01*
X81475000Y-87005000D02*
X83625000Y-87005000D01*
G75*
G02*
X83875000Y-87255000I0J-250000D01*
G01*
X83875000Y-88005000D01*
G75*
G02*
X83625000Y-88255000I-250000J0D01*
G01*
X81475000Y-88255000D01*
G75*
G02*
X81225000Y-88005000I0J250000D01*
G01*
X81225000Y-87255000D01*
G75*
G02*
X81475000Y-87005000I250000J0D01*
G01*
G37*
%TD*%
%TO.C,FB2*%
G36*
G01*
X84015000Y-81665000D02*
X86165000Y-81665000D01*
G75*
G02*
X86415000Y-81915000I0J-250000D01*
G01*
X86415000Y-82665000D01*
G75*
G02*
X86165000Y-82915000I-250000J0D01*
G01*
X84015000Y-82915000D01*
G75*
G02*
X83765000Y-82665000I0J250000D01*
G01*
X83765000Y-81915000D01*
G75*
G02*
X84015000Y-81665000I250000J0D01*
G01*
G37*
G36*
G01*
X84015000Y-84465000D02*
X86165000Y-84465000D01*
G75*
G02*
X86415000Y-84715000I0J-250000D01*
G01*
X86415000Y-85465000D01*
G75*
G02*
X86165000Y-85715000I-250000J0D01*
G01*
X84015000Y-85715000D01*
G75*
G02*
X83765000Y-85465000I0J250000D01*
G01*
X83765000Y-84715000D01*
G75*
G02*
X84015000Y-84465000I250000J0D01*
G01*
G37*
%TD*%
D16*
%TO.C,ISP1*%
X121285000Y-93980000D03*
D17*
X118745000Y-93980000D03*
X121285000Y-91440000D03*
X118745000Y-91440000D03*
X121285000Y-88900000D03*
X118745000Y-88900000D03*
%TD*%
D18*
%TO.C,K1*%
X92410000Y-121240000D03*
D13*
X92410000Y-109040000D03*
X80360000Y-108990000D03*
D18*
X80410000Y-121240000D03*
D13*
X86360000Y-123190000D03*
%TD*%
D19*
%TO.C,nRF24L1*%
X127635000Y-100330000D03*
D20*
X127635000Y-102870000D03*
X125095000Y-100330000D03*
X125095000Y-102870000D03*
X122555000Y-100330000D03*
X122555000Y-102870000D03*
X120015000Y-100330000D03*
X120015000Y-102870000D03*
%TD*%
D21*
%TO.C,Q2*%
X89630000Y-115890000D03*
X89630000Y-117790000D03*
X87630000Y-116840000D03*
%TD*%
%TO.C,R2*%
G36*
G01*
X94015560Y-129146300D02*
X95214440Y-129146300D01*
G75*
G02*
X95316040Y-129247900I0J-101600D01*
G01*
X95316040Y-130045460D01*
G75*
G02*
X95214440Y-130147060I-101600J0D01*
G01*
X94015560Y-130147060D01*
G75*
G02*
X93913960Y-130045460I0J101600D01*
G01*
X93913960Y-129247900D01*
G75*
G02*
X94015560Y-129146300I101600J0D01*
G01*
G37*
G36*
G01*
X94015560Y-130944620D02*
X95214440Y-130944620D01*
G75*
G02*
X95316040Y-131046220I0J-101600D01*
G01*
X95316040Y-131843780D01*
G75*
G02*
X95214440Y-131945380I-101600J0D01*
G01*
X94015560Y-131945380D01*
G75*
G02*
X93913960Y-131843780I0J101600D01*
G01*
X93913960Y-131046220D01*
G75*
G02*
X94015560Y-130944620I101600J0D01*
G01*
G37*
%TD*%
%TO.C,R4*%
G36*
G01*
X90769440Y-126601220D02*
X89570560Y-126601220D01*
G75*
G02*
X89468960Y-126499620I0J101600D01*
G01*
X89468960Y-125702060D01*
G75*
G02*
X89570560Y-125600460I101600J0D01*
G01*
X90769440Y-125600460D01*
G75*
G02*
X90871040Y-125702060I0J-101600D01*
G01*
X90871040Y-126499620D01*
G75*
G02*
X90769440Y-126601220I-101600J0D01*
G01*
G37*
G36*
G01*
X90769440Y-128399540D02*
X89570560Y-128399540D01*
G75*
G02*
X89468960Y-128297940I0J101600D01*
G01*
X89468960Y-127500380D01*
G75*
G02*
X89570560Y-127398780I101600J0D01*
G01*
X90769440Y-127398780D01*
G75*
G02*
X90871040Y-127500380I0J-101600D01*
G01*
X90871040Y-128297940D01*
G75*
G02*
X90769440Y-128399540I-101600J0D01*
G01*
G37*
%TD*%
%TO.C,R5*%
G36*
G01*
X90568780Y-85689440D02*
X90568780Y-84490560D01*
G75*
G02*
X90670380Y-84388960I101600J0D01*
G01*
X91467940Y-84388960D01*
G75*
G02*
X91569540Y-84490560I0J-101600D01*
G01*
X91569540Y-85689440D01*
G75*
G02*
X91467940Y-85791040I-101600J0D01*
G01*
X90670380Y-85791040D01*
G75*
G02*
X90568780Y-85689440I0J101600D01*
G01*
G37*
G36*
G01*
X88770460Y-85689440D02*
X88770460Y-84490560D01*
G75*
G02*
X88872060Y-84388960I101600J0D01*
G01*
X89669620Y-84388960D01*
G75*
G02*
X89771220Y-84490560I0J-101600D01*
G01*
X89771220Y-85689440D01*
G75*
G02*
X89669620Y-85791040I-101600J0D01*
G01*
X88872060Y-85791040D01*
G75*
G02*
X88770460Y-85689440I0J101600D01*
G01*
G37*
%TD*%
%TO.C,R6*%
G36*
G01*
X92209620Y-85054440D02*
X92209620Y-83855560D01*
G75*
G02*
X92311220Y-83753960I101600J0D01*
G01*
X93108780Y-83753960D01*
G75*
G02*
X93210380Y-83855560I0J-101600D01*
G01*
X93210380Y-85054440D01*
G75*
G02*
X93108780Y-85156040I-101600J0D01*
G01*
X92311220Y-85156040D01*
G75*
G02*
X92209620Y-85054440I0J101600D01*
G01*
G37*
G36*
G01*
X94007940Y-85054440D02*
X94007940Y-83855560D01*
G75*
G02*
X94109540Y-83753960I101600J0D01*
G01*
X94907100Y-83753960D01*
G75*
G02*
X95008700Y-83855560I0J-101600D01*
G01*
X95008700Y-85054440D01*
G75*
G02*
X94907100Y-85156040I-101600J0D01*
G01*
X94109540Y-85156040D01*
G75*
G02*
X94007940Y-85054440I0J101600D01*
G01*
G37*
%TD*%
%TO.C,R7*%
G36*
G01*
X91681300Y-116169440D02*
X91681300Y-114970560D01*
G75*
G02*
X91782900Y-114868960I101600J0D01*
G01*
X92580460Y-114868960D01*
G75*
G02*
X92682060Y-114970560I0J-101600D01*
G01*
X92682060Y-116169440D01*
G75*
G02*
X92580460Y-116271040I-101600J0D01*
G01*
X91782900Y-116271040D01*
G75*
G02*
X91681300Y-116169440I0J101600D01*
G01*
G37*
G36*
G01*
X93479620Y-116169440D02*
X93479620Y-114970560D01*
G75*
G02*
X93581220Y-114868960I101600J0D01*
G01*
X94378780Y-114868960D01*
G75*
G02*
X94480380Y-114970560I0J-101600D01*
G01*
X94480380Y-116169440D01*
G75*
G02*
X94378780Y-116271040I-101600J0D01*
G01*
X93581220Y-116271040D01*
G75*
G02*
X93479620Y-116169440I0J101600D01*
G01*
G37*
%TD*%
D12*
%TO.C,RS485*%
X88265000Y-74295000D03*
X85725000Y-74295000D03*
X83185000Y-74295000D03*
X80645000Y-74295000D03*
%TD*%
%TO.C,U1*%
G36*
G01*
X103355000Y-114595000D02*
X103655000Y-114595000D01*
G75*
G02*
X103805000Y-114745000I0J-150000D01*
G01*
X103805000Y-116395000D01*
G75*
G02*
X103655000Y-116545000I-150000J0D01*
G01*
X103355000Y-116545000D01*
G75*
G02*
X103205000Y-116395000I0J150000D01*
G01*
X103205000Y-114745000D01*
G75*
G02*
X103355000Y-114595000I150000J0D01*
G01*
G37*
G36*
G01*
X104625000Y-114595000D02*
X104925000Y-114595000D01*
G75*
G02*
X105075000Y-114745000I0J-150000D01*
G01*
X105075000Y-116395000D01*
G75*
G02*
X104925000Y-116545000I-150000J0D01*
G01*
X104625000Y-116545000D01*
G75*
G02*
X104475000Y-116395000I0J150000D01*
G01*
X104475000Y-114745000D01*
G75*
G02*
X104625000Y-114595000I150000J0D01*
G01*
G37*
G36*
G01*
X105895000Y-114595000D02*
X106195000Y-114595000D01*
G75*
G02*
X106345000Y-114745000I0J-150000D01*
G01*
X106345000Y-116395000D01*
G75*
G02*
X106195000Y-116545000I-150000J0D01*
G01*
X105895000Y-116545000D01*
G75*
G02*
X105745000Y-116395000I0J150000D01*
G01*
X105745000Y-114745000D01*
G75*
G02*
X105895000Y-114595000I150000J0D01*
G01*
G37*
G36*
G01*
X107165000Y-114595000D02*
X107465000Y-114595000D01*
G75*
G02*
X107615000Y-114745000I0J-150000D01*
G01*
X107615000Y-116395000D01*
G75*
G02*
X107465000Y-116545000I-150000J0D01*
G01*
X107165000Y-116545000D01*
G75*
G02*
X107015000Y-116395000I0J150000D01*
G01*
X107015000Y-114745000D01*
G75*
G02*
X107165000Y-114595000I150000J0D01*
G01*
G37*
G36*
G01*
X108435000Y-114595000D02*
X108735000Y-114595000D01*
G75*
G02*
X108885000Y-114745000I0J-150000D01*
G01*
X108885000Y-116395000D01*
G75*
G02*
X108735000Y-116545000I-150000J0D01*
G01*
X108435000Y-116545000D01*
G75*
G02*
X108285000Y-116395000I0J150000D01*
G01*
X108285000Y-114745000D01*
G75*
G02*
X108435000Y-114595000I150000J0D01*
G01*
G37*
G36*
G01*
X109705000Y-114595000D02*
X110005000Y-114595000D01*
G75*
G02*
X110155000Y-114745000I0J-150000D01*
G01*
X110155000Y-116395000D01*
G75*
G02*
X110005000Y-116545000I-150000J0D01*
G01*
X109705000Y-116545000D01*
G75*
G02*
X109555000Y-116395000I0J150000D01*
G01*
X109555000Y-114745000D01*
G75*
G02*
X109705000Y-114595000I150000J0D01*
G01*
G37*
G36*
G01*
X110975000Y-114595000D02*
X111275000Y-114595000D01*
G75*
G02*
X111425000Y-114745000I0J-150000D01*
G01*
X111425000Y-116395000D01*
G75*
G02*
X111275000Y-116545000I-150000J0D01*
G01*
X110975000Y-116545000D01*
G75*
G02*
X110825000Y-116395000I0J150000D01*
G01*
X110825000Y-114745000D01*
G75*
G02*
X110975000Y-114595000I150000J0D01*
G01*
G37*
G36*
G01*
X110975000Y-109645000D02*
X111275000Y-109645000D01*
G75*
G02*
X111425000Y-109795000I0J-150000D01*
G01*
X111425000Y-111445000D01*
G75*
G02*
X111275000Y-111595000I-150000J0D01*
G01*
X110975000Y-111595000D01*
G75*
G02*
X110825000Y-111445000I0J150000D01*
G01*
X110825000Y-109795000D01*
G75*
G02*
X110975000Y-109645000I150000J0D01*
G01*
G37*
G36*
G01*
X109705000Y-109645000D02*
X110005000Y-109645000D01*
G75*
G02*
X110155000Y-109795000I0J-150000D01*
G01*
X110155000Y-111445000D01*
G75*
G02*
X110005000Y-111595000I-150000J0D01*
G01*
X109705000Y-111595000D01*
G75*
G02*
X109555000Y-111445000I0J150000D01*
G01*
X109555000Y-109795000D01*
G75*
G02*
X109705000Y-109645000I150000J0D01*
G01*
G37*
G36*
G01*
X108435000Y-109645000D02*
X108735000Y-109645000D01*
G75*
G02*
X108885000Y-109795000I0J-150000D01*
G01*
X108885000Y-111445000D01*
G75*
G02*
X108735000Y-111595000I-150000J0D01*
G01*
X108435000Y-111595000D01*
G75*
G02*
X108285000Y-111445000I0J150000D01*
G01*
X108285000Y-109795000D01*
G75*
G02*
X108435000Y-109645000I150000J0D01*
G01*
G37*
G36*
G01*
X107165000Y-109645000D02*
X107465000Y-109645000D01*
G75*
G02*
X107615000Y-109795000I0J-150000D01*
G01*
X107615000Y-111445000D01*
G75*
G02*
X107465000Y-111595000I-150000J0D01*
G01*
X107165000Y-111595000D01*
G75*
G02*
X107015000Y-111445000I0J150000D01*
G01*
X107015000Y-109795000D01*
G75*
G02*
X107165000Y-109645000I150000J0D01*
G01*
G37*
G36*
G01*
X105895000Y-109645000D02*
X106195000Y-109645000D01*
G75*
G02*
X106345000Y-109795000I0J-150000D01*
G01*
X106345000Y-111445000D01*
G75*
G02*
X106195000Y-111595000I-150000J0D01*
G01*
X105895000Y-111595000D01*
G75*
G02*
X105745000Y-111445000I0J150000D01*
G01*
X105745000Y-109795000D01*
G75*
G02*
X105895000Y-109645000I150000J0D01*
G01*
G37*
G36*
G01*
X104625000Y-109645000D02*
X104925000Y-109645000D01*
G75*
G02*
X105075000Y-109795000I0J-150000D01*
G01*
X105075000Y-111445000D01*
G75*
G02*
X104925000Y-111595000I-150000J0D01*
G01*
X104625000Y-111595000D01*
G75*
G02*
X104475000Y-111445000I0J150000D01*
G01*
X104475000Y-109795000D01*
G75*
G02*
X104625000Y-109645000I150000J0D01*
G01*
G37*
G36*
G01*
X103355000Y-109645000D02*
X103655000Y-109645000D01*
G75*
G02*
X103805000Y-109795000I0J-150000D01*
G01*
X103805000Y-111445000D01*
G75*
G02*
X103655000Y-111595000I-150000J0D01*
G01*
X103355000Y-111595000D01*
G75*
G02*
X103205000Y-111445000I0J150000D01*
G01*
X103205000Y-109795000D01*
G75*
G02*
X103355000Y-109645000I150000J0D01*
G01*
G37*
%TD*%
%TO.C,U2*%
G36*
G01*
X103355000Y-121075000D02*
X103655000Y-121075000D01*
G75*
G02*
X103805000Y-121225000I0J-150000D01*
G01*
X103805000Y-122875000D01*
G75*
G02*
X103655000Y-123025000I-150000J0D01*
G01*
X103355000Y-123025000D01*
G75*
G02*
X103205000Y-122875000I0J150000D01*
G01*
X103205000Y-121225000D01*
G75*
G02*
X103355000Y-121075000I150000J0D01*
G01*
G37*
G36*
G01*
X104625000Y-121075000D02*
X104925000Y-121075000D01*
G75*
G02*
X105075000Y-121225000I0J-150000D01*
G01*
X105075000Y-122875000D01*
G75*
G02*
X104925000Y-123025000I-150000J0D01*
G01*
X104625000Y-123025000D01*
G75*
G02*
X104475000Y-122875000I0J150000D01*
G01*
X104475000Y-121225000D01*
G75*
G02*
X104625000Y-121075000I150000J0D01*
G01*
G37*
G36*
G01*
X105895000Y-121075000D02*
X106195000Y-121075000D01*
G75*
G02*
X106345000Y-121225000I0J-150000D01*
G01*
X106345000Y-122875000D01*
G75*
G02*
X106195000Y-123025000I-150000J0D01*
G01*
X105895000Y-123025000D01*
G75*
G02*
X105745000Y-122875000I0J150000D01*
G01*
X105745000Y-121225000D01*
G75*
G02*
X105895000Y-121075000I150000J0D01*
G01*
G37*
G36*
G01*
X107165000Y-121075000D02*
X107465000Y-121075000D01*
G75*
G02*
X107615000Y-121225000I0J-150000D01*
G01*
X107615000Y-122875000D01*
G75*
G02*
X107465000Y-123025000I-150000J0D01*
G01*
X107165000Y-123025000D01*
G75*
G02*
X107015000Y-122875000I0J150000D01*
G01*
X107015000Y-121225000D01*
G75*
G02*
X107165000Y-121075000I150000J0D01*
G01*
G37*
G36*
G01*
X108435000Y-121075000D02*
X108735000Y-121075000D01*
G75*
G02*
X108885000Y-121225000I0J-150000D01*
G01*
X108885000Y-122875000D01*
G75*
G02*
X108735000Y-123025000I-150000J0D01*
G01*
X108435000Y-123025000D01*
G75*
G02*
X108285000Y-122875000I0J150000D01*
G01*
X108285000Y-121225000D01*
G75*
G02*
X108435000Y-121075000I150000J0D01*
G01*
G37*
G36*
G01*
X109705000Y-121075000D02*
X110005000Y-121075000D01*
G75*
G02*
X110155000Y-121225000I0J-150000D01*
G01*
X110155000Y-122875000D01*
G75*
G02*
X110005000Y-123025000I-150000J0D01*
G01*
X109705000Y-123025000D01*
G75*
G02*
X109555000Y-122875000I0J150000D01*
G01*
X109555000Y-121225000D01*
G75*
G02*
X109705000Y-121075000I150000J0D01*
G01*
G37*
G36*
G01*
X110975000Y-121075000D02*
X111275000Y-121075000D01*
G75*
G02*
X111425000Y-121225000I0J-150000D01*
G01*
X111425000Y-122875000D01*
G75*
G02*
X111275000Y-123025000I-150000J0D01*
G01*
X110975000Y-123025000D01*
G75*
G02*
X110825000Y-122875000I0J150000D01*
G01*
X110825000Y-121225000D01*
G75*
G02*
X110975000Y-121075000I150000J0D01*
G01*
G37*
G36*
G01*
X110975000Y-126025000D02*
X111275000Y-126025000D01*
G75*
G02*
X111425000Y-126175000I0J-150000D01*
G01*
X111425000Y-127825000D01*
G75*
G02*
X111275000Y-127975000I-150000J0D01*
G01*
X110975000Y-127975000D01*
G75*
G02*
X110825000Y-127825000I0J150000D01*
G01*
X110825000Y-126175000D01*
G75*
G02*
X110975000Y-126025000I150000J0D01*
G01*
G37*
G36*
G01*
X109705000Y-126025000D02*
X110005000Y-126025000D01*
G75*
G02*
X110155000Y-126175000I0J-150000D01*
G01*
X110155000Y-127825000D01*
G75*
G02*
X110005000Y-127975000I-150000J0D01*
G01*
X109705000Y-127975000D01*
G75*
G02*
X109555000Y-127825000I0J150000D01*
G01*
X109555000Y-126175000D01*
G75*
G02*
X109705000Y-126025000I150000J0D01*
G01*
G37*
G36*
G01*
X108435000Y-126025000D02*
X108735000Y-126025000D01*
G75*
G02*
X108885000Y-126175000I0J-150000D01*
G01*
X108885000Y-127825000D01*
G75*
G02*
X108735000Y-127975000I-150000J0D01*
G01*
X108435000Y-127975000D01*
G75*
G02*
X108285000Y-127825000I0J150000D01*
G01*
X108285000Y-126175000D01*
G75*
G02*
X108435000Y-126025000I150000J0D01*
G01*
G37*
G36*
G01*
X107165000Y-126025000D02*
X107465000Y-126025000D01*
G75*
G02*
X107615000Y-126175000I0J-150000D01*
G01*
X107615000Y-127825000D01*
G75*
G02*
X107465000Y-127975000I-150000J0D01*
G01*
X107165000Y-127975000D01*
G75*
G02*
X107015000Y-127825000I0J150000D01*
G01*
X107015000Y-126175000D01*
G75*
G02*
X107165000Y-126025000I150000J0D01*
G01*
G37*
G36*
G01*
X105895000Y-126025000D02*
X106195000Y-126025000D01*
G75*
G02*
X106345000Y-126175000I0J-150000D01*
G01*
X106345000Y-127825000D01*
G75*
G02*
X106195000Y-127975000I-150000J0D01*
G01*
X105895000Y-127975000D01*
G75*
G02*
X105745000Y-127825000I0J150000D01*
G01*
X105745000Y-126175000D01*
G75*
G02*
X105895000Y-126025000I150000J0D01*
G01*
G37*
G36*
G01*
X104625000Y-126025000D02*
X104925000Y-126025000D01*
G75*
G02*
X105075000Y-126175000I0J-150000D01*
G01*
X105075000Y-127825000D01*
G75*
G02*
X104925000Y-127975000I-150000J0D01*
G01*
X104625000Y-127975000D01*
G75*
G02*
X104475000Y-127825000I0J150000D01*
G01*
X104475000Y-126175000D01*
G75*
G02*
X104625000Y-126025000I150000J0D01*
G01*
G37*
G36*
G01*
X103355000Y-126025000D02*
X103655000Y-126025000D01*
G75*
G02*
X103805000Y-126175000I0J-150000D01*
G01*
X103805000Y-127825000D01*
G75*
G02*
X103655000Y-127975000I-150000J0D01*
G01*
X103355000Y-127975000D01*
G75*
G02*
X103205000Y-127825000I0J150000D01*
G01*
X103205000Y-126175000D01*
G75*
G02*
X103355000Y-126025000I150000J0D01*
G01*
G37*
%TD*%
D22*
%TO.C,U3*%
X88900000Y-87655000D03*
D23*
X88900000Y-93955000D03*
X86600000Y-93955000D03*
X91200000Y-93955000D03*
%TD*%
%TO.C,XnRF1*%
G36*
G01*
X83175000Y-112255000D02*
X81925000Y-112255000D01*
G75*
G02*
X81675000Y-112005000I0J250000D01*
G01*
X81675000Y-111255000D01*
G75*
G02*
X81925000Y-111005000I250000J0D01*
G01*
X83175000Y-111005000D01*
G75*
G02*
X83425000Y-111255000I0J-250000D01*
G01*
X83425000Y-112005000D01*
G75*
G02*
X83175000Y-112255000I-250000J0D01*
G01*
G37*
G36*
G01*
X83175000Y-115055000D02*
X81925000Y-115055000D01*
G75*
G02*
X81675000Y-114805000I0J250000D01*
G01*
X81675000Y-114055000D01*
G75*
G02*
X81925000Y-113805000I250000J0D01*
G01*
X83175000Y-113805000D01*
G75*
G02*
X83425000Y-114055000I0J-250000D01*
G01*
X83425000Y-114805000D01*
G75*
G02*
X83175000Y-115055000I-250000J0D01*
G01*
G37*
%TD*%
M02*
