%TF.GenerationSoftware,KiCad,Pcbnew,5.1.8+dfsg1-1*%
%TF.CreationDate,2020-11-26T10:16:37+01:00*%
%TF.ProjectId,ws2812b_ctrl_RF,77733238-3132-4625-9f63-74726c5f5246,rev?*%
%TF.SameCoordinates,Original*%
%TF.FileFunction,Copper,L1,Top*%
%TF.FilePolarity,Positive*%
%FSLAX46Y46*%
G04 Gerber Fmt 4.6, Leading zero omitted, Abs format (unit mm)*
G04 Created by KiCad (PCBNEW 5.1.8+dfsg1-1) date 2020-11-26 10:16:37*
%MOMM*%
%LPD*%
G01*
G04 APERTURE LIST*
%TA.AperFunction,ConnectorPad*%
%ADD10C,5.700000*%
%TD*%
%TA.AperFunction,ComponentPad*%
%ADD11C,3.600000*%
%TD*%
%TA.AperFunction,ComponentPad*%
%ADD12C,1.879600*%
%TD*%
%TA.AperFunction,ComponentPad*%
%ADD13C,3.000000*%
%TD*%
%TA.AperFunction,ComponentPad*%
%ADD14R,3.000000X3.000000*%
%TD*%
%TA.AperFunction,SMDPad,CuDef*%
%ADD15R,1.798320X1.597660*%
%TD*%
%TA.AperFunction,ComponentPad*%
%ADD16R,1.700000X1.700000*%
%TD*%
%TA.AperFunction,ComponentPad*%
%ADD17O,1.700000X1.700000*%
%TD*%
%TA.AperFunction,ComponentPad*%
%ADD18C,2.500000*%
%TD*%
%TA.AperFunction,ComponentPad*%
%ADD19R,1.524000X1.524000*%
%TD*%
%TA.AperFunction,ComponentPad*%
%ADD20C,1.524000*%
%TD*%
%TA.AperFunction,SMDPad,CuDef*%
%ADD21R,0.900000X0.800000*%
%TD*%
%TA.AperFunction,SMDPad,CuDef*%
%ADD22R,1.198880X0.797560*%
%TD*%
%TA.AperFunction,ViaPad*%
%ADD23C,1.200000*%
%TD*%
%TA.AperFunction,Conductor*%
%ADD24C,0.304800*%
%TD*%
%TA.AperFunction,Conductor*%
%ADD25C,0.812800*%
%TD*%
%TA.AperFunction,Conductor*%
%ADD26C,0.609600*%
%TD*%
%TA.AperFunction,Conductor*%
%ADD27C,0.406400*%
%TD*%
%TA.AperFunction,Conductor*%
%ADD28C,0.250000*%
%TD*%
%TA.AperFunction,Conductor*%
%ADD29C,0.254000*%
%TD*%
%TA.AperFunction,Conductor*%
%ADD30C,0.100000*%
%TD*%
G04 APERTURE END LIST*
D10*
%TO.P,H4,1*%
%TO.N,N/C*%
X73479000Y-131479000D03*
D11*
X73479000Y-131479000D03*
%TD*%
D10*
%TO.P,H3,1*%
%TO.N,N/C*%
X131479000Y-131479000D03*
D11*
X131479000Y-131479000D03*
%TD*%
D10*
%TO.P,H2,1*%
%TO.N,N/C*%
X131479000Y-73479000D03*
D11*
X131479000Y-73479000D03*
%TD*%
D10*
%TO.P,H1,1*%
%TO.N,N/C*%
X73479000Y-73479000D03*
D11*
X73479000Y-73479000D03*
%TD*%
D12*
%TO.P,B1,24*%
%TO.N,N/C*%
X111760000Y-74930000D03*
%TO.P,B1,23*%
%TO.N,GND*%
X111760000Y-77470000D03*
%TO.P,B1,22*%
%TO.N,/~RST*%
X111760000Y-80010000D03*
%TO.P,B1,21*%
%TO.N,+5V*%
X111760000Y-82550000D03*
%TO.P,B1,20*%
%TO.N,N/C*%
X111760000Y-85090000D03*
%TO.P,B1,19*%
%TO.N,/nRFIRQ*%
X111760000Y-87630000D03*
%TO.P,B1,18*%
%TO.N,/nRFCE*%
X111760000Y-90170000D03*
%TO.P,B1,17*%
%TO.N,/RLYCTL*%
X111760000Y-92710000D03*
%TO.P,B1,16*%
%TO.N,/SCK*%
X111760000Y-95250000D03*
%TO.P,B1,15*%
%TO.N,/MISO*%
X111760000Y-97790000D03*
%TO.P,B1,14*%
%TO.N,/MOSI*%
X111760000Y-100330000D03*
%TO.P,B1,13*%
%TO.N,/~SS*%
X111760000Y-102870000D03*
%TO.P,B1,12*%
%TO.N,N/C*%
X96520000Y-102870000D03*
%TO.P,B1,11*%
X96520000Y-100330000D03*
%TO.P,B1,10*%
X96520000Y-97790000D03*
%TO.P,B1,9*%
X96520000Y-95250000D03*
%TO.P,B1,8*%
X96520000Y-92710000D03*
%TO.P,B1,7*%
X96520000Y-90170000D03*
%TO.P,B1,6*%
%TO.N,/PWM*%
X96520000Y-87630000D03*
%TO.P,B1,5*%
%TO.N,N/C*%
X96520000Y-85090000D03*
%TO.P,B1,4*%
%TO.N,GND*%
X96520000Y-82550000D03*
%TO.P,B1,3*%
%TO.N,N/C*%
X96520000Y-80010000D03*
%TO.P,B1,2*%
%TO.N,/RX*%
X96520000Y-77470000D03*
%TO.P,B1,1*%
%TO.N,/TX*%
X96520000Y-74930000D03*
%TD*%
%TO.P,CTL1,1*%
%TO.N,/(CLK&~MOSI~&PWM)||(CLK&MOSI)*%
X97155000Y-129540000D03*
%TD*%
D13*
%TO.P,WS2812B1,2*%
%TO.N,GND*%
X81280000Y-129540000D03*
D14*
%TO.P,WS2812B1,1*%
%TO.N,Net-(K1-Pad1)*%
X86360000Y-129540000D03*
%TD*%
D13*
%TO.P,SUPPLY1,2*%
%TO.N,VCC*%
X81280000Y-95250000D03*
D14*
%TO.P,SUPPLY1,1*%
%TO.N,GND*%
X81280000Y-100330000D03*
%TD*%
D15*
%TO.P,C2,1*%
%TO.N,+5V*%
X97790000Y-115699540D03*
%TO.P,C2,2*%
%TO.N,GND*%
X97790000Y-112900460D03*
%TD*%
D16*
%TO.P,ISP1,1*%
%TO.N,/MISO*%
X121285000Y-93980000D03*
D17*
%TO.P,ISP1,2*%
%TO.N,+5V*%
X118745000Y-93980000D03*
%TO.P,ISP1,3*%
%TO.N,/SCK*%
X121285000Y-91440000D03*
%TO.P,ISP1,4*%
%TO.N,/MOSI*%
X118745000Y-91440000D03*
%TO.P,ISP1,5*%
%TO.N,/~RST*%
X121285000Y-88900000D03*
%TO.P,ISP1,6*%
%TO.N,GND*%
X118745000Y-88900000D03*
%TD*%
D18*
%TO.P,K1,2*%
%TO.N,Net-(D1-Pad2)*%
X92410000Y-121240000D03*
D13*
%TO.P,K1,3*%
%TO.N,VCC*%
X92410000Y-109040000D03*
%TO.P,K1,4*%
%TO.N,GND*%
X80360000Y-108990000D03*
D18*
%TO.P,K1,5*%
%TO.N,Net-(D1-Pad1)*%
X80410000Y-121240000D03*
D13*
%TO.P,K1,1*%
%TO.N,Net-(K1-Pad1)*%
X86360000Y-123190000D03*
%TD*%
D19*
%TO.P,nRF24L1,1*%
%TO.N,GND*%
X127635000Y-100330000D03*
D20*
%TO.P,nRF24L1,2*%
%TO.N,/3.3V*%
X127635000Y-102870000D03*
%TO.P,nRF24L1,3*%
%TO.N,/nRFCE*%
X125095000Y-100330000D03*
%TO.P,nRF24L1,4*%
%TO.N,/~SS*%
X125095000Y-102870000D03*
%TO.P,nRF24L1,5*%
%TO.N,/SCK*%
X122555000Y-100330000D03*
%TO.P,nRF24L1,6*%
%TO.N,/MOSI*%
X122555000Y-102870000D03*
%TO.P,nRF24L1,7*%
%TO.N,/MISO*%
X120015000Y-100330000D03*
%TO.P,nRF24L1,8*%
%TO.N,/nRFIRQ*%
X120015000Y-102870000D03*
%TD*%
D21*
%TO.P,Q1,3*%
%TO.N,Net-(Q1-Pad3)*%
X105410000Y-101600000D03*
%TO.P,Q1,2*%
%TO.N,+5V*%
X107410000Y-100650000D03*
%TO.P,Q1,1*%
%TO.N,/~SS*%
X107410000Y-102550000D03*
%TD*%
D22*
%TO.P,R1,2*%
%TO.N,/~SS*%
X109220000Y-102870000D03*
%TO.P,R1,1*%
%TO.N,+5V*%
X109220000Y-101071680D03*
%TD*%
%TO.P,R3,1*%
%TO.N,Net-(Q1-Pad3)*%
X103505000Y-103611680D03*
%TO.P,R3,2*%
%TO.N,Net-(R3-Pad2)*%
X103505000Y-105410000D03*
%TD*%
D12*
%TO.P,RS485,1*%
%TO.N,GND*%
X88265000Y-74295000D03*
%TO.P,RS485,2*%
%TO.N,/RX*%
X85725000Y-74295000D03*
%TO.P,RS485,3*%
%TO.N,/TX*%
X83185000Y-74295000D03*
%TO.P,RS485,4*%
%TO.N,+5V*%
X80645000Y-74295000D03*
%TD*%
%TO.P,XnRF2,1*%
%TO.N,GND*%
%TA.AperFunction,SMDPad,CuDef*%
G36*
G01*
X109845000Y-104785000D02*
X109845000Y-106035000D01*
G75*
G02*
X109595000Y-106285000I-250000J0D01*
G01*
X108845000Y-106285000D01*
G75*
G02*
X108595000Y-106035000I0J250000D01*
G01*
X108595000Y-104785000D01*
G75*
G02*
X108845000Y-104535000I250000J0D01*
G01*
X109595000Y-104535000D01*
G75*
G02*
X109845000Y-104785000I0J-250000D01*
G01*
G37*
%TD.AperFunction*%
%TO.P,XnRF2,2*%
%TO.N,Net-(R3-Pad2)*%
%TA.AperFunction,SMDPad,CuDef*%
G36*
G01*
X107045000Y-104785000D02*
X107045000Y-106035000D01*
G75*
G02*
X106795000Y-106285000I-250000J0D01*
G01*
X106045000Y-106285000D01*
G75*
G02*
X105795000Y-106035000I0J250000D01*
G01*
X105795000Y-104785000D01*
G75*
G02*
X106045000Y-104535000I250000J0D01*
G01*
X106795000Y-104535000D01*
G75*
G02*
X107045000Y-104785000I0J-250000D01*
G01*
G37*
%TD.AperFunction*%
%TD*%
D23*
%TO.N,GND*%
X113030000Y-118745000D03*
X113030000Y-110490000D03*
%TO.N,/PWM*%
X109855000Y-107950000D03*
%TO.N,/MOSI*%
X114935000Y-114300000D03*
%TO.N,+5V*%
X102870000Y-81280000D03*
X100965000Y-115570000D03*
X100965000Y-124460000D03*
%TD*%
D24*
%TO.N,/TX*%
X94615000Y-73025000D02*
X96520000Y-74930000D01*
X83820000Y-73025000D02*
X94615000Y-73025000D01*
X83185000Y-73660000D02*
X83820000Y-73025000D01*
X83185000Y-74930000D02*
X83185000Y-73660000D01*
D25*
%TO.N,GND*%
X88265000Y-74930000D02*
X88265000Y-78740000D01*
X92075000Y-82550000D02*
X96520000Y-82550000D01*
X88265000Y-78740000D02*
X92075000Y-82550000D01*
D26*
X114300000Y-77470000D02*
X111760000Y-77470000D01*
X118745000Y-86360000D02*
X118745000Y-81915000D01*
X118745000Y-81915000D02*
X114300000Y-77470000D01*
X127635000Y-100330000D02*
X127635000Y-90170000D01*
X123825000Y-86360000D02*
X118745000Y-86360000D01*
X127635000Y-90170000D02*
X123825000Y-86360000D01*
X118745000Y-88900000D02*
X118745000Y-86360000D01*
X129540000Y-100965000D02*
X129540000Y-104775000D01*
X121285000Y-118745000D02*
X129540000Y-110490000D01*
X129540000Y-110490000D02*
X129540000Y-104775000D01*
X113030000Y-118745000D02*
X121285000Y-118745000D01*
X127635000Y-100330000D02*
X128905000Y-100330000D01*
X128905000Y-100330000D02*
X129540000Y-100965000D01*
X84270460Y-112900460D02*
X80360000Y-108990000D01*
X97790000Y-112900460D02*
X84270460Y-112900460D01*
D27*
X113030000Y-106045000D02*
X113030000Y-118745000D01*
X112395000Y-105410000D02*
X113030000Y-106045000D01*
X109220000Y-105410000D02*
X112395000Y-105410000D01*
%TO.N,/PWM*%
X101600000Y-106045000D02*
X101600000Y-90805000D01*
X103505000Y-107950000D02*
X101600000Y-106045000D01*
X98425000Y-87630000D02*
X96520000Y-87630000D01*
X101600000Y-90805000D02*
X98425000Y-87630000D01*
X109855000Y-107950000D02*
X103505000Y-107950000D01*
D28*
%TO.N,/~SS*%
X111760000Y-102870000D02*
X109220000Y-102870000D01*
D27*
X107730000Y-102870000D02*
X107410000Y-102550000D01*
X109220000Y-102870000D02*
X107730000Y-102870000D01*
D26*
%TO.N,/MOSI*%
X118745000Y-91440000D02*
X117475000Y-91440000D01*
X117475000Y-91440000D02*
X116840000Y-92075000D01*
X116840000Y-92075000D02*
X116205000Y-92710000D01*
X116205000Y-92710000D02*
X116205000Y-99060000D01*
X116205000Y-99060000D02*
X118745000Y-101600000D01*
D29*
X118745000Y-101600000D02*
X121285000Y-101600000D01*
D26*
X121285000Y-101600000D02*
X122555000Y-102870000D01*
D27*
X114935000Y-114300000D02*
X114935000Y-102235000D01*
X114935000Y-102235000D02*
X113030000Y-100330000D01*
X113030000Y-100330000D02*
X111760000Y-100330000D01*
D26*
%TO.N,/MISO*%
X120015000Y-100330000D02*
X120015000Y-97155000D01*
X120015000Y-97155000D02*
X121285000Y-95885000D01*
X121285000Y-95885000D02*
X121285000Y-93980000D01*
%TO.N,/SCK*%
X121285000Y-91440000D02*
X122555000Y-91440000D01*
X123825000Y-92710000D02*
X123825000Y-99060000D01*
X123825000Y-99060000D02*
X122555000Y-100330000D01*
X122555000Y-91440000D02*
X123825000Y-92710000D01*
%TO.N,/nRFIRQ*%
X120015000Y-102870000D02*
X118110000Y-102870000D01*
X114300000Y-88900000D02*
X113030000Y-87630000D01*
X113030000Y-87630000D02*
X111760000Y-87630000D01*
X114300000Y-99060000D02*
X114300000Y-88900000D01*
X118110000Y-102870000D02*
X114300000Y-99060000D01*
D25*
%TO.N,+5V*%
X100965000Y-115570000D02*
X100965000Y-110490000D01*
X92075000Y-88265000D02*
X80645000Y-76835000D01*
X80645000Y-76835000D02*
X80645000Y-74930000D01*
X92075000Y-101600000D02*
X92075000Y-88265000D01*
X100965000Y-110490000D02*
X92075000Y-101600000D01*
D27*
X97919540Y-115570000D02*
X97790000Y-115699540D01*
D25*
X100965000Y-115570000D02*
X97919540Y-115570000D01*
X100965000Y-124460000D02*
X100965000Y-115570000D01*
D26*
X109220000Y-101071680D02*
X109220000Y-89535000D01*
X109220000Y-89535000D02*
X102870000Y-83185000D01*
X102870000Y-83185000D02*
X102870000Y-81280000D01*
D25*
X101600000Y-80010000D02*
X102870000Y-81280000D01*
X101600000Y-74930000D02*
X101600000Y-80010000D01*
X98425000Y-71755000D02*
X101600000Y-74930000D01*
X81915000Y-71755000D02*
X98425000Y-71755000D01*
X80645000Y-73025000D02*
X81915000Y-71755000D01*
X80645000Y-74930000D02*
X80645000Y-73025000D01*
D27*
X108798320Y-100650000D02*
X109220000Y-101071680D01*
X107410000Y-100650000D02*
X108798320Y-100650000D01*
%TO.N,Net-(Q1-Pad3)*%
X105410000Y-101600000D02*
X104140000Y-101600000D01*
X103505000Y-102235000D02*
X103505000Y-103611680D01*
X104140000Y-101600000D02*
X103505000Y-102235000D01*
%TO.N,Net-(R3-Pad2)*%
X106420000Y-105410000D02*
X103505000Y-105410000D01*
%TD*%
D29*
%TO.N,GND*%
X129257442Y-70772024D02*
X128772024Y-71257442D01*
X128390633Y-71828234D01*
X128127927Y-72462463D01*
X127994000Y-73135758D01*
X127994000Y-73822242D01*
X128127927Y-74495537D01*
X128390633Y-75129766D01*
X128772024Y-75700558D01*
X129257442Y-76185976D01*
X129828234Y-76567367D01*
X130462463Y-76830073D01*
X131135758Y-76964000D01*
X131822242Y-76964000D01*
X132495537Y-76830073D01*
X133129766Y-76567367D01*
X133700558Y-76185976D01*
X134185976Y-75700558D01*
X134340001Y-75470043D01*
X134340000Y-129487955D01*
X134185976Y-129257442D01*
X133700558Y-128772024D01*
X133129766Y-128390633D01*
X132495537Y-128127927D01*
X131822242Y-127994000D01*
X131135758Y-127994000D01*
X130462463Y-128127927D01*
X129828234Y-128390633D01*
X129257442Y-128772024D01*
X128772024Y-129257442D01*
X128390633Y-129828234D01*
X128127927Y-130462463D01*
X127994000Y-131135758D01*
X127994000Y-131822242D01*
X128127927Y-132495537D01*
X128390633Y-133129766D01*
X128772024Y-133700558D01*
X129257442Y-134185976D01*
X129487955Y-134340000D01*
X99441000Y-134340000D01*
X99441000Y-116611400D01*
X99923601Y-116611400D01*
X99923600Y-123795624D01*
X99870557Y-123875008D01*
X99777460Y-124099764D01*
X99730000Y-124338363D01*
X99730000Y-124581637D01*
X99777460Y-124820236D01*
X99870557Y-125044992D01*
X100005713Y-125247267D01*
X100177733Y-125419287D01*
X100380008Y-125554443D01*
X100604764Y-125647540D01*
X100843363Y-125695000D01*
X101086637Y-125695000D01*
X101325236Y-125647540D01*
X101549992Y-125554443D01*
X101752267Y-125419287D01*
X101924287Y-125247267D01*
X102059443Y-125044992D01*
X102152540Y-124820236D01*
X102200000Y-124581637D01*
X102200000Y-124338363D01*
X102152540Y-124099764D01*
X102059443Y-123875008D01*
X102006400Y-123795624D01*
X102006400Y-116234376D01*
X102059443Y-116154992D01*
X102152540Y-115930236D01*
X102200000Y-115691637D01*
X102200000Y-115448363D01*
X102152540Y-115209764D01*
X102059443Y-114985008D01*
X102006400Y-114905624D01*
X102006400Y-110541144D01*
X102011437Y-110490000D01*
X102006400Y-110438856D01*
X102006400Y-110438848D01*
X101991331Y-110285850D01*
X101931783Y-110089546D01*
X101835081Y-109908630D01*
X101737551Y-109789789D01*
X101737547Y-109789785D01*
X101704943Y-109750057D01*
X101665215Y-109717453D01*
X99441000Y-107493238D01*
X99441000Y-89831394D01*
X100761801Y-91152195D01*
X100761800Y-106003837D01*
X100757746Y-106045000D01*
X100761800Y-106086163D01*
X100761800Y-106086169D01*
X100773929Y-106209315D01*
X100821858Y-106367316D01*
X100899691Y-106512931D01*
X101004436Y-106640564D01*
X101036418Y-106666811D01*
X102883194Y-108513588D01*
X102909436Y-108545564D01*
X103037068Y-108650309D01*
X103182683Y-108728142D01*
X103340684Y-108776071D01*
X103463830Y-108788200D01*
X103463837Y-108788200D01*
X103505000Y-108792254D01*
X103546163Y-108788200D01*
X108946646Y-108788200D01*
X109067733Y-108909287D01*
X109270008Y-109044443D01*
X109494764Y-109137540D01*
X109733363Y-109185000D01*
X109976637Y-109185000D01*
X110215236Y-109137540D01*
X110439992Y-109044443D01*
X110642267Y-108909287D01*
X110814287Y-108737267D01*
X110949443Y-108534992D01*
X111042540Y-108310236D01*
X111090000Y-108071637D01*
X111090000Y-107828363D01*
X111042540Y-107589764D01*
X110949443Y-107365008D01*
X110814287Y-107162733D01*
X110642267Y-106990713D01*
X110439992Y-106855557D01*
X110247755Y-106775930D01*
X110296185Y-106736185D01*
X110375537Y-106639494D01*
X110434502Y-106529180D01*
X110470812Y-106409482D01*
X110483072Y-106285000D01*
X110480000Y-105695750D01*
X110321250Y-105537000D01*
X109347000Y-105537000D01*
X109347000Y-105557000D01*
X109093000Y-105557000D01*
X109093000Y-105537000D01*
X108118750Y-105537000D01*
X107960000Y-105695750D01*
X107956928Y-106285000D01*
X107969188Y-106409482D01*
X108005498Y-106529180D01*
X108064463Y-106639494D01*
X108143815Y-106736185D01*
X108240506Y-106815537D01*
X108350820Y-106874502D01*
X108470518Y-106910812D01*
X108595000Y-106923072D01*
X108934250Y-106920000D01*
X109092998Y-106761252D01*
X109092998Y-106920000D01*
X109173562Y-106920000D01*
X109067733Y-106990713D01*
X108946646Y-107111800D01*
X103852194Y-107111800D01*
X103187246Y-106446852D01*
X104104440Y-106446852D01*
X104228922Y-106434592D01*
X104348620Y-106398282D01*
X104458934Y-106339317D01*
X104555625Y-106259965D01*
X104565280Y-106248200D01*
X105186109Y-106248200D01*
X105224528Y-106374850D01*
X105306595Y-106528386D01*
X105417038Y-106662962D01*
X105551614Y-106773405D01*
X105705150Y-106855472D01*
X105871746Y-106906008D01*
X106045000Y-106923072D01*
X106795000Y-106923072D01*
X106968254Y-106906008D01*
X107134850Y-106855472D01*
X107288386Y-106773405D01*
X107422962Y-106662962D01*
X107533405Y-106528386D01*
X107615472Y-106374850D01*
X107666008Y-106208254D01*
X107683072Y-106035000D01*
X107683072Y-104785000D01*
X107666008Y-104611746D01*
X107615472Y-104445150D01*
X107533405Y-104291614D01*
X107422962Y-104157038D01*
X107288386Y-104046595D01*
X107134850Y-103964528D01*
X106968254Y-103913992D01*
X106795000Y-103896928D01*
X106045000Y-103896928D01*
X105871746Y-103913992D01*
X105705150Y-103964528D01*
X105551614Y-104046595D01*
X105417038Y-104157038D01*
X105306595Y-104291614D01*
X105224528Y-104445150D01*
X105186109Y-104571800D01*
X104565280Y-104571800D01*
X104555625Y-104560035D01*
X104495681Y-104510840D01*
X104555625Y-104461645D01*
X104634977Y-104364954D01*
X104693942Y-104254640D01*
X104730252Y-104134942D01*
X104742512Y-104010460D01*
X104742512Y-103212900D01*
X104730252Y-103088418D01*
X104693942Y-102968720D01*
X104634977Y-102858406D01*
X104555625Y-102761715D01*
X104458934Y-102682363D01*
X104348620Y-102623398D01*
X104343200Y-102621754D01*
X104343200Y-102582193D01*
X104487194Y-102438200D01*
X104498159Y-102438200D01*
X104508815Y-102451185D01*
X104605506Y-102530537D01*
X104715820Y-102589502D01*
X104835518Y-102625812D01*
X104960000Y-102638072D01*
X105860000Y-102638072D01*
X105984482Y-102625812D01*
X106104180Y-102589502D01*
X106214494Y-102530537D01*
X106311185Y-102451185D01*
X106321928Y-102438095D01*
X106321928Y-102950000D01*
X106334188Y-103074482D01*
X106370498Y-103194180D01*
X106429463Y-103304494D01*
X106508815Y-103401185D01*
X106605506Y-103480537D01*
X106715820Y-103539502D01*
X106835518Y-103575812D01*
X106960000Y-103588072D01*
X107295300Y-103588072D01*
X107407683Y-103648142D01*
X107565684Y-103696071D01*
X107688830Y-103708200D01*
X107688839Y-103708200D01*
X107729999Y-103712254D01*
X107771159Y-103708200D01*
X108159720Y-103708200D01*
X108169375Y-103719965D01*
X108266066Y-103799317D01*
X108376380Y-103858282D01*
X108496078Y-103894592D01*
X108557398Y-103900631D01*
X108470518Y-103909188D01*
X108350820Y-103945498D01*
X108240506Y-104004463D01*
X108143815Y-104083815D01*
X108064463Y-104180506D01*
X108005498Y-104290820D01*
X107969188Y-104410518D01*
X107956928Y-104535000D01*
X107960000Y-105124250D01*
X108118750Y-105283000D01*
X109093000Y-105283000D01*
X109093000Y-105263000D01*
X109347000Y-105263000D01*
X109347000Y-105283000D01*
X110321250Y-105283000D01*
X110480000Y-105124250D01*
X110483072Y-104535000D01*
X110470812Y-104410518D01*
X110434502Y-104290820D01*
X110375537Y-104180506D01*
X110296185Y-104083815D01*
X110199494Y-104004463D01*
X110089180Y-103945498D01*
X109969482Y-103909188D01*
X109882602Y-103900631D01*
X109943922Y-103894592D01*
X110063620Y-103858282D01*
X110173934Y-103799317D01*
X110270625Y-103719965D01*
X110344457Y-103630000D01*
X110373819Y-103630000D01*
X110536773Y-103873877D01*
X110756123Y-104093227D01*
X111014052Y-104265570D01*
X111300648Y-104384282D01*
X111604896Y-104444800D01*
X111915104Y-104444800D01*
X112219352Y-104384282D01*
X112505948Y-104265570D01*
X112763877Y-104093227D01*
X112983227Y-103873877D01*
X113155570Y-103615948D01*
X113274282Y-103329352D01*
X113334800Y-103025104D01*
X113334800Y-102714896D01*
X113274282Y-102410648D01*
X113155570Y-102124052D01*
X112983227Y-101866123D01*
X112763877Y-101646773D01*
X112693876Y-101600000D01*
X112763877Y-101553227D01*
X112915855Y-101401249D01*
X114096801Y-102582195D01*
X114096800Y-113391646D01*
X113975713Y-113512733D01*
X113840557Y-113715008D01*
X113747460Y-113939764D01*
X113700000Y-114178363D01*
X113700000Y-114421637D01*
X113747460Y-114660236D01*
X113840557Y-114884992D01*
X113975713Y-115087267D01*
X114147733Y-115259287D01*
X114350008Y-115394443D01*
X114574764Y-115487540D01*
X114813363Y-115535000D01*
X115056637Y-115535000D01*
X115295236Y-115487540D01*
X115519992Y-115394443D01*
X115722267Y-115259287D01*
X115894287Y-115087267D01*
X116029443Y-114884992D01*
X116122540Y-114660236D01*
X116170000Y-114421637D01*
X116170000Y-114178363D01*
X116122540Y-113939764D01*
X116029443Y-113715008D01*
X115894287Y-113512733D01*
X115773200Y-113391646D01*
X115773200Y-102276163D01*
X115777254Y-102235000D01*
X115773200Y-102193837D01*
X115773200Y-102193830D01*
X115761071Y-102070684D01*
X115713142Y-101912683D01*
X115635309Y-101767068D01*
X115602426Y-101727000D01*
X115556808Y-101671414D01*
X115556806Y-101671412D01*
X115530564Y-101639436D01*
X115498588Y-101613194D01*
X113651811Y-99766418D01*
X113625564Y-99734436D01*
X113497932Y-99629691D01*
X113352317Y-99551858D01*
X113194316Y-99503929D01*
X113095532Y-99494200D01*
X112983227Y-99326123D01*
X112763877Y-99106773D01*
X112693876Y-99060000D01*
X112763877Y-99013227D01*
X112983227Y-98793877D01*
X113155570Y-98535948D01*
X113274282Y-98249352D01*
X113334800Y-97945104D01*
X113334800Y-97634896D01*
X113274282Y-97330648D01*
X113155570Y-97044052D01*
X112983227Y-96786123D01*
X112763877Y-96566773D01*
X112693876Y-96520000D01*
X112763877Y-96473227D01*
X112983227Y-96253877D01*
X113155570Y-95995948D01*
X113274282Y-95709352D01*
X113334800Y-95405104D01*
X113334800Y-95094896D01*
X113274282Y-94790648D01*
X113155570Y-94504052D01*
X112983227Y-94246123D01*
X112763877Y-94026773D01*
X112693876Y-93980000D01*
X112763877Y-93933227D01*
X112983227Y-93713877D01*
X113155570Y-93455948D01*
X113274282Y-93169352D01*
X113334800Y-92865104D01*
X113334800Y-92554896D01*
X113274282Y-92250648D01*
X113155570Y-91964052D01*
X112983227Y-91706123D01*
X112763877Y-91486773D01*
X112693876Y-91440000D01*
X112763877Y-91393227D01*
X112983227Y-91173877D01*
X113155570Y-90915948D01*
X113274282Y-90629352D01*
X113334800Y-90325104D01*
X113334800Y-90014896D01*
X113274282Y-89710648D01*
X113155570Y-89424052D01*
X112983227Y-89166123D01*
X112763877Y-88946773D01*
X112693876Y-88900000D01*
X112763877Y-88853227D01*
X112844014Y-88773090D01*
X113360201Y-89289278D01*
X113360200Y-99013843D01*
X113355654Y-99060000D01*
X113360200Y-99106157D01*
X113360200Y-99106166D01*
X113373798Y-99244232D01*
X113427537Y-99421385D01*
X113514804Y-99584651D01*
X113632246Y-99727754D01*
X113668115Y-99757191D01*
X117412818Y-103501896D01*
X117442246Y-103537754D01*
X117478104Y-103567182D01*
X117478106Y-103567184D01*
X117585348Y-103655196D01*
X117684512Y-103708200D01*
X117748614Y-103742463D01*
X117925767Y-103796202D01*
X118063833Y-103809800D01*
X118063843Y-103809800D01*
X118110000Y-103814346D01*
X118156157Y-103809800D01*
X118979145Y-103809800D01*
X119124465Y-103955120D01*
X119353273Y-104108005D01*
X119607510Y-104213314D01*
X119877408Y-104267000D01*
X120152592Y-104267000D01*
X120422490Y-104213314D01*
X120676727Y-104108005D01*
X120905535Y-103955120D01*
X121100120Y-103760535D01*
X121253005Y-103531727D01*
X121285000Y-103454485D01*
X121316995Y-103531727D01*
X121469880Y-103760535D01*
X121664465Y-103955120D01*
X121893273Y-104108005D01*
X122147510Y-104213314D01*
X122417408Y-104267000D01*
X122692592Y-104267000D01*
X122962490Y-104213314D01*
X123216727Y-104108005D01*
X123445535Y-103955120D01*
X123640120Y-103760535D01*
X123793005Y-103531727D01*
X123825000Y-103454485D01*
X123856995Y-103531727D01*
X124009880Y-103760535D01*
X124204465Y-103955120D01*
X124433273Y-104108005D01*
X124687510Y-104213314D01*
X124957408Y-104267000D01*
X125232592Y-104267000D01*
X125502490Y-104213314D01*
X125756727Y-104108005D01*
X125985535Y-103955120D01*
X126180120Y-103760535D01*
X126333005Y-103531727D01*
X126365000Y-103454485D01*
X126396995Y-103531727D01*
X126549880Y-103760535D01*
X126744465Y-103955120D01*
X126973273Y-104108005D01*
X127227510Y-104213314D01*
X127497408Y-104267000D01*
X127772592Y-104267000D01*
X128042490Y-104213314D01*
X128296727Y-104108005D01*
X128525535Y-103955120D01*
X128720120Y-103760535D01*
X128873005Y-103531727D01*
X128978314Y-103277490D01*
X129032000Y-103007592D01*
X129032000Y-102732408D01*
X128978314Y-102462510D01*
X128873005Y-102208273D01*
X128720120Y-101979465D01*
X128525535Y-101784880D01*
X128437535Y-101726080D01*
X128521482Y-101717812D01*
X128641180Y-101681502D01*
X128751494Y-101622537D01*
X128848185Y-101543185D01*
X128927537Y-101446494D01*
X128986502Y-101336180D01*
X129022812Y-101216482D01*
X129035072Y-101092000D01*
X129032000Y-100615750D01*
X128873250Y-100457000D01*
X127762000Y-100457000D01*
X127762000Y-100477000D01*
X127508000Y-100477000D01*
X127508000Y-100457000D01*
X127488000Y-100457000D01*
X127488000Y-100203000D01*
X127508000Y-100203000D01*
X127508000Y-99091750D01*
X127762000Y-99091750D01*
X127762000Y-100203000D01*
X128873250Y-100203000D01*
X129032000Y-100044250D01*
X129035072Y-99568000D01*
X129022812Y-99443518D01*
X128986502Y-99323820D01*
X128927537Y-99213506D01*
X128848185Y-99116815D01*
X128751494Y-99037463D01*
X128641180Y-98978498D01*
X128521482Y-98942188D01*
X128397000Y-98929928D01*
X127920750Y-98933000D01*
X127762000Y-99091750D01*
X127508000Y-99091750D01*
X127349250Y-98933000D01*
X126873000Y-98929928D01*
X126748518Y-98942188D01*
X126628820Y-98978498D01*
X126518506Y-99037463D01*
X126421815Y-99116815D01*
X126342463Y-99213506D01*
X126283498Y-99323820D01*
X126247188Y-99443518D01*
X126238920Y-99527465D01*
X126180120Y-99439465D01*
X125985535Y-99244880D01*
X125756727Y-99091995D01*
X125502490Y-98986686D01*
X125232592Y-98933000D01*
X124957408Y-98933000D01*
X124764800Y-98971312D01*
X124764800Y-92756156D01*
X124769346Y-92709999D01*
X124764800Y-92663842D01*
X124764800Y-92663833D01*
X124751202Y-92525767D01*
X124697463Y-92348614D01*
X124610196Y-92185349D01*
X124546515Y-92107754D01*
X124522183Y-92078105D01*
X124522182Y-92078104D01*
X124492754Y-92042246D01*
X124456895Y-92012818D01*
X123252191Y-90808115D01*
X123222754Y-90772246D01*
X123079651Y-90654804D01*
X122916386Y-90567537D01*
X122739233Y-90513798D01*
X122601167Y-90500200D01*
X122601157Y-90500200D01*
X122555000Y-90495654D01*
X122508843Y-90500200D01*
X122443040Y-90500200D01*
X122438475Y-90493368D01*
X122231632Y-90286525D01*
X122057240Y-90170000D01*
X122231632Y-90053475D01*
X122438475Y-89846632D01*
X122600990Y-89603411D01*
X122712932Y-89333158D01*
X122770000Y-89046260D01*
X122770000Y-88753740D01*
X122712932Y-88466842D01*
X122600990Y-88196589D01*
X122438475Y-87953368D01*
X122231632Y-87746525D01*
X121988411Y-87584010D01*
X121718158Y-87472068D01*
X121431260Y-87415000D01*
X121138740Y-87415000D01*
X120851842Y-87472068D01*
X120581589Y-87584010D01*
X120338368Y-87746525D01*
X120131525Y-87953368D01*
X120013900Y-88129406D01*
X119842588Y-87899731D01*
X119626355Y-87704822D01*
X119376252Y-87555843D01*
X119101891Y-87458519D01*
X118872000Y-87579186D01*
X118872000Y-88773000D01*
X118892000Y-88773000D01*
X118892000Y-89027000D01*
X118872000Y-89027000D01*
X118872000Y-89047000D01*
X118618000Y-89047000D01*
X118618000Y-89027000D01*
X117424845Y-89027000D01*
X117303524Y-89256890D01*
X117348175Y-89404099D01*
X117473359Y-89666920D01*
X117647412Y-89900269D01*
X117863645Y-90095178D01*
X117980534Y-90164805D01*
X117798368Y-90286525D01*
X117591525Y-90493368D01*
X117586960Y-90500200D01*
X117521165Y-90500200D01*
X117475000Y-90495653D01*
X117428835Y-90500200D01*
X117428833Y-90500200D01*
X117290767Y-90513798D01*
X117113614Y-90567537D01*
X116950348Y-90654804D01*
X116850694Y-90736589D01*
X116807246Y-90772246D01*
X116777817Y-90808105D01*
X116208116Y-91377808D01*
X116208106Y-91377816D01*
X115573114Y-92012810D01*
X115537246Y-92042246D01*
X115419804Y-92185349D01*
X115332537Y-92348615D01*
X115278798Y-92525768D01*
X115265200Y-92663834D01*
X115265200Y-92663843D01*
X115260654Y-92710000D01*
X115265200Y-92756157D01*
X115265201Y-98696125D01*
X115239800Y-98670724D01*
X115239800Y-88946156D01*
X115244346Y-88899999D01*
X115239800Y-88853842D01*
X115239800Y-88853833D01*
X115226202Y-88715767D01*
X115173827Y-88543110D01*
X117303524Y-88543110D01*
X117424845Y-88773000D01*
X118618000Y-88773000D01*
X118618000Y-87579186D01*
X118388109Y-87458519D01*
X118113748Y-87555843D01*
X117863645Y-87704822D01*
X117647412Y-87899731D01*
X117473359Y-88133080D01*
X117348175Y-88395901D01*
X117303524Y-88543110D01*
X115173827Y-88543110D01*
X115172463Y-88538614D01*
X115085196Y-88375349D01*
X114967754Y-88232246D01*
X114931895Y-88202818D01*
X113727191Y-86998115D01*
X113697754Y-86962246D01*
X113554651Y-86844804D01*
X113391386Y-86757537D01*
X113214233Y-86703798D01*
X113076167Y-86690200D01*
X113076157Y-86690200D01*
X113030000Y-86685654D01*
X113023436Y-86686300D01*
X112983227Y-86626123D01*
X112763877Y-86406773D01*
X112693876Y-86360000D01*
X112763877Y-86313227D01*
X112983227Y-86093877D01*
X113155570Y-85835948D01*
X113274282Y-85549352D01*
X113334800Y-85245104D01*
X113334800Y-84934896D01*
X113274282Y-84630648D01*
X113155570Y-84344052D01*
X112983227Y-84086123D01*
X112763877Y-83866773D01*
X112693876Y-83820000D01*
X112763877Y-83773227D01*
X112983227Y-83553877D01*
X113155570Y-83295948D01*
X113274282Y-83009352D01*
X113334800Y-82705104D01*
X113334800Y-82394896D01*
X113274282Y-82090648D01*
X113155570Y-81804052D01*
X112983227Y-81546123D01*
X112763877Y-81326773D01*
X112693876Y-81280000D01*
X112763877Y-81233227D01*
X112983227Y-81013877D01*
X113155570Y-80755948D01*
X113274282Y-80469352D01*
X113334800Y-80165104D01*
X113334800Y-79854896D01*
X113274282Y-79550648D01*
X113155570Y-79264052D01*
X112983227Y-79006123D01*
X112763877Y-78786773D01*
X112627286Y-78695505D01*
X112672871Y-78562476D01*
X111760000Y-77649605D01*
X110847129Y-78562476D01*
X110892714Y-78695505D01*
X110756123Y-78786773D01*
X110536773Y-79006123D01*
X110364430Y-79264052D01*
X110245718Y-79550648D01*
X110185200Y-79854896D01*
X110185200Y-80165104D01*
X110245718Y-80469352D01*
X110364430Y-80755948D01*
X110536773Y-81013877D01*
X110756123Y-81233227D01*
X110826124Y-81280000D01*
X110756123Y-81326773D01*
X110536773Y-81546123D01*
X110364430Y-81804052D01*
X110245718Y-82090648D01*
X110185200Y-82394896D01*
X110185200Y-82705104D01*
X110245718Y-83009352D01*
X110364430Y-83295948D01*
X110536773Y-83553877D01*
X110756123Y-83773227D01*
X110826124Y-83820000D01*
X110756123Y-83866773D01*
X110536773Y-84086123D01*
X110364430Y-84344052D01*
X110245718Y-84630648D01*
X110185200Y-84934896D01*
X110185200Y-85245104D01*
X110245718Y-85549352D01*
X110364430Y-85835948D01*
X110536773Y-86093877D01*
X110756123Y-86313227D01*
X110826124Y-86360000D01*
X110756123Y-86406773D01*
X110536773Y-86626123D01*
X110364430Y-86884052D01*
X110245718Y-87170648D01*
X110185200Y-87474896D01*
X110185200Y-87785104D01*
X110245718Y-88089352D01*
X110364430Y-88375948D01*
X110536773Y-88633877D01*
X110756123Y-88853227D01*
X110826124Y-88900000D01*
X110756123Y-88946773D01*
X110536773Y-89166123D01*
X110364430Y-89424052D01*
X110245718Y-89710648D01*
X110185200Y-90014896D01*
X110185200Y-90325104D01*
X110245718Y-90629352D01*
X110364430Y-90915948D01*
X110536773Y-91173877D01*
X110756123Y-91393227D01*
X110826124Y-91440000D01*
X110756123Y-91486773D01*
X110536773Y-91706123D01*
X110364430Y-91964052D01*
X110245718Y-92250648D01*
X110185200Y-92554896D01*
X110185200Y-92865104D01*
X110245718Y-93169352D01*
X110364430Y-93455948D01*
X110536773Y-93713877D01*
X110756123Y-93933227D01*
X110826124Y-93980000D01*
X110756123Y-94026773D01*
X110536773Y-94246123D01*
X110364430Y-94504052D01*
X110245718Y-94790648D01*
X110185200Y-95094896D01*
X110185200Y-95405104D01*
X110245718Y-95709352D01*
X110364430Y-95995948D01*
X110536773Y-96253877D01*
X110756123Y-96473227D01*
X110826124Y-96520000D01*
X110756123Y-96566773D01*
X110536773Y-96786123D01*
X110364430Y-97044052D01*
X110245718Y-97330648D01*
X110185200Y-97634896D01*
X110185200Y-97945104D01*
X110245718Y-98249352D01*
X110364430Y-98535948D01*
X110536773Y-98793877D01*
X110756123Y-99013227D01*
X110826124Y-99060000D01*
X110756123Y-99106773D01*
X110536773Y-99326123D01*
X110364430Y-99584052D01*
X110245718Y-99870648D01*
X110189182Y-100154877D01*
X110173934Y-100142363D01*
X110159800Y-100134808D01*
X110159800Y-89581156D01*
X110164346Y-89534999D01*
X110159800Y-89488842D01*
X110159800Y-89488833D01*
X110146202Y-89350767D01*
X110092463Y-89173614D01*
X110024391Y-89046260D01*
X110005196Y-89010348D01*
X109917183Y-88903105D01*
X109917182Y-88903104D01*
X109887754Y-88867246D01*
X109851896Y-88837818D01*
X103809800Y-82795724D01*
X103809800Y-82086754D01*
X103829287Y-82067267D01*
X103964443Y-81864992D01*
X104057540Y-81640236D01*
X104105000Y-81401637D01*
X104105000Y-81158363D01*
X104057540Y-80919764D01*
X103964443Y-80695008D01*
X103829287Y-80492733D01*
X103657267Y-80320713D01*
X103454992Y-80185557D01*
X103230236Y-80092460D01*
X103136595Y-80073834D01*
X102641400Y-79578639D01*
X102641400Y-77534977D01*
X110178916Y-77534977D01*
X110221973Y-77842184D01*
X110324135Y-78135086D01*
X110409277Y-78294377D01*
X110667524Y-78382871D01*
X111580395Y-77470000D01*
X111939605Y-77470000D01*
X112852476Y-78382871D01*
X113110723Y-78294377D01*
X113245597Y-78015024D01*
X113323381Y-77714725D01*
X113341084Y-77405023D01*
X113298027Y-77097816D01*
X113195865Y-76804914D01*
X113110723Y-76645623D01*
X112852476Y-76557129D01*
X111939605Y-77470000D01*
X111580395Y-77470000D01*
X110667524Y-76557129D01*
X110409277Y-76645623D01*
X110274403Y-76924976D01*
X110196619Y-77225275D01*
X110178916Y-77534977D01*
X102641400Y-77534977D01*
X102641400Y-74981141D01*
X102646437Y-74929999D01*
X102641400Y-74878858D01*
X102641400Y-74878848D01*
X102631162Y-74774896D01*
X110185200Y-74774896D01*
X110185200Y-75085104D01*
X110245718Y-75389352D01*
X110364430Y-75675948D01*
X110536773Y-75933877D01*
X110756123Y-76153227D01*
X110892714Y-76244495D01*
X110847129Y-76377524D01*
X111760000Y-77290395D01*
X112672871Y-76377524D01*
X112627286Y-76244495D01*
X112763877Y-76153227D01*
X112983227Y-75933877D01*
X113155570Y-75675948D01*
X113274282Y-75389352D01*
X113334800Y-75085104D01*
X113334800Y-74774896D01*
X113274282Y-74470648D01*
X113155570Y-74184052D01*
X112983227Y-73926123D01*
X112763877Y-73706773D01*
X112505948Y-73534430D01*
X112219352Y-73415718D01*
X111915104Y-73355200D01*
X111604896Y-73355200D01*
X111300648Y-73415718D01*
X111014052Y-73534430D01*
X110756123Y-73706773D01*
X110536773Y-73926123D01*
X110364430Y-74184052D01*
X110245718Y-74470648D01*
X110185200Y-74774896D01*
X102631162Y-74774896D01*
X102626331Y-74725850D01*
X102566783Y-74529546D01*
X102470081Y-74348630D01*
X102339943Y-74190057D01*
X102300215Y-74157453D01*
X99441000Y-71298239D01*
X99441000Y-70660000D01*
X129425098Y-70660000D01*
X129257442Y-70772024D01*
%TA.AperFunction,Conductor*%
D30*
G36*
X129257442Y-70772024D02*
G01*
X128772024Y-71257442D01*
X128390633Y-71828234D01*
X128127927Y-72462463D01*
X127994000Y-73135758D01*
X127994000Y-73822242D01*
X128127927Y-74495537D01*
X128390633Y-75129766D01*
X128772024Y-75700558D01*
X129257442Y-76185976D01*
X129828234Y-76567367D01*
X130462463Y-76830073D01*
X131135758Y-76964000D01*
X131822242Y-76964000D01*
X132495537Y-76830073D01*
X133129766Y-76567367D01*
X133700558Y-76185976D01*
X134185976Y-75700558D01*
X134340001Y-75470043D01*
X134340000Y-129487955D01*
X134185976Y-129257442D01*
X133700558Y-128772024D01*
X133129766Y-128390633D01*
X132495537Y-128127927D01*
X131822242Y-127994000D01*
X131135758Y-127994000D01*
X130462463Y-128127927D01*
X129828234Y-128390633D01*
X129257442Y-128772024D01*
X128772024Y-129257442D01*
X128390633Y-129828234D01*
X128127927Y-130462463D01*
X127994000Y-131135758D01*
X127994000Y-131822242D01*
X128127927Y-132495537D01*
X128390633Y-133129766D01*
X128772024Y-133700558D01*
X129257442Y-134185976D01*
X129487955Y-134340000D01*
X99441000Y-134340000D01*
X99441000Y-116611400D01*
X99923601Y-116611400D01*
X99923600Y-123795624D01*
X99870557Y-123875008D01*
X99777460Y-124099764D01*
X99730000Y-124338363D01*
X99730000Y-124581637D01*
X99777460Y-124820236D01*
X99870557Y-125044992D01*
X100005713Y-125247267D01*
X100177733Y-125419287D01*
X100380008Y-125554443D01*
X100604764Y-125647540D01*
X100843363Y-125695000D01*
X101086637Y-125695000D01*
X101325236Y-125647540D01*
X101549992Y-125554443D01*
X101752267Y-125419287D01*
X101924287Y-125247267D01*
X102059443Y-125044992D01*
X102152540Y-124820236D01*
X102200000Y-124581637D01*
X102200000Y-124338363D01*
X102152540Y-124099764D01*
X102059443Y-123875008D01*
X102006400Y-123795624D01*
X102006400Y-116234376D01*
X102059443Y-116154992D01*
X102152540Y-115930236D01*
X102200000Y-115691637D01*
X102200000Y-115448363D01*
X102152540Y-115209764D01*
X102059443Y-114985008D01*
X102006400Y-114905624D01*
X102006400Y-110541144D01*
X102011437Y-110490000D01*
X102006400Y-110438856D01*
X102006400Y-110438848D01*
X101991331Y-110285850D01*
X101931783Y-110089546D01*
X101835081Y-109908630D01*
X101737551Y-109789789D01*
X101737547Y-109789785D01*
X101704943Y-109750057D01*
X101665215Y-109717453D01*
X99441000Y-107493238D01*
X99441000Y-89831394D01*
X100761801Y-91152195D01*
X100761800Y-106003837D01*
X100757746Y-106045000D01*
X100761800Y-106086163D01*
X100761800Y-106086169D01*
X100773929Y-106209315D01*
X100821858Y-106367316D01*
X100899691Y-106512931D01*
X101004436Y-106640564D01*
X101036418Y-106666811D01*
X102883194Y-108513588D01*
X102909436Y-108545564D01*
X103037068Y-108650309D01*
X103182683Y-108728142D01*
X103340684Y-108776071D01*
X103463830Y-108788200D01*
X103463837Y-108788200D01*
X103505000Y-108792254D01*
X103546163Y-108788200D01*
X108946646Y-108788200D01*
X109067733Y-108909287D01*
X109270008Y-109044443D01*
X109494764Y-109137540D01*
X109733363Y-109185000D01*
X109976637Y-109185000D01*
X110215236Y-109137540D01*
X110439992Y-109044443D01*
X110642267Y-108909287D01*
X110814287Y-108737267D01*
X110949443Y-108534992D01*
X111042540Y-108310236D01*
X111090000Y-108071637D01*
X111090000Y-107828363D01*
X111042540Y-107589764D01*
X110949443Y-107365008D01*
X110814287Y-107162733D01*
X110642267Y-106990713D01*
X110439992Y-106855557D01*
X110247755Y-106775930D01*
X110296185Y-106736185D01*
X110375537Y-106639494D01*
X110434502Y-106529180D01*
X110470812Y-106409482D01*
X110483072Y-106285000D01*
X110480000Y-105695750D01*
X110321250Y-105537000D01*
X109347000Y-105537000D01*
X109347000Y-105557000D01*
X109093000Y-105557000D01*
X109093000Y-105537000D01*
X108118750Y-105537000D01*
X107960000Y-105695750D01*
X107956928Y-106285000D01*
X107969188Y-106409482D01*
X108005498Y-106529180D01*
X108064463Y-106639494D01*
X108143815Y-106736185D01*
X108240506Y-106815537D01*
X108350820Y-106874502D01*
X108470518Y-106910812D01*
X108595000Y-106923072D01*
X108934250Y-106920000D01*
X109092998Y-106761252D01*
X109092998Y-106920000D01*
X109173562Y-106920000D01*
X109067733Y-106990713D01*
X108946646Y-107111800D01*
X103852194Y-107111800D01*
X103187246Y-106446852D01*
X104104440Y-106446852D01*
X104228922Y-106434592D01*
X104348620Y-106398282D01*
X104458934Y-106339317D01*
X104555625Y-106259965D01*
X104565280Y-106248200D01*
X105186109Y-106248200D01*
X105224528Y-106374850D01*
X105306595Y-106528386D01*
X105417038Y-106662962D01*
X105551614Y-106773405D01*
X105705150Y-106855472D01*
X105871746Y-106906008D01*
X106045000Y-106923072D01*
X106795000Y-106923072D01*
X106968254Y-106906008D01*
X107134850Y-106855472D01*
X107288386Y-106773405D01*
X107422962Y-106662962D01*
X107533405Y-106528386D01*
X107615472Y-106374850D01*
X107666008Y-106208254D01*
X107683072Y-106035000D01*
X107683072Y-104785000D01*
X107666008Y-104611746D01*
X107615472Y-104445150D01*
X107533405Y-104291614D01*
X107422962Y-104157038D01*
X107288386Y-104046595D01*
X107134850Y-103964528D01*
X106968254Y-103913992D01*
X106795000Y-103896928D01*
X106045000Y-103896928D01*
X105871746Y-103913992D01*
X105705150Y-103964528D01*
X105551614Y-104046595D01*
X105417038Y-104157038D01*
X105306595Y-104291614D01*
X105224528Y-104445150D01*
X105186109Y-104571800D01*
X104565280Y-104571800D01*
X104555625Y-104560035D01*
X104495681Y-104510840D01*
X104555625Y-104461645D01*
X104634977Y-104364954D01*
X104693942Y-104254640D01*
X104730252Y-104134942D01*
X104742512Y-104010460D01*
X104742512Y-103212900D01*
X104730252Y-103088418D01*
X104693942Y-102968720D01*
X104634977Y-102858406D01*
X104555625Y-102761715D01*
X104458934Y-102682363D01*
X104348620Y-102623398D01*
X104343200Y-102621754D01*
X104343200Y-102582193D01*
X104487194Y-102438200D01*
X104498159Y-102438200D01*
X104508815Y-102451185D01*
X104605506Y-102530537D01*
X104715820Y-102589502D01*
X104835518Y-102625812D01*
X104960000Y-102638072D01*
X105860000Y-102638072D01*
X105984482Y-102625812D01*
X106104180Y-102589502D01*
X106214494Y-102530537D01*
X106311185Y-102451185D01*
X106321928Y-102438095D01*
X106321928Y-102950000D01*
X106334188Y-103074482D01*
X106370498Y-103194180D01*
X106429463Y-103304494D01*
X106508815Y-103401185D01*
X106605506Y-103480537D01*
X106715820Y-103539502D01*
X106835518Y-103575812D01*
X106960000Y-103588072D01*
X107295300Y-103588072D01*
X107407683Y-103648142D01*
X107565684Y-103696071D01*
X107688830Y-103708200D01*
X107688839Y-103708200D01*
X107729999Y-103712254D01*
X107771159Y-103708200D01*
X108159720Y-103708200D01*
X108169375Y-103719965D01*
X108266066Y-103799317D01*
X108376380Y-103858282D01*
X108496078Y-103894592D01*
X108557398Y-103900631D01*
X108470518Y-103909188D01*
X108350820Y-103945498D01*
X108240506Y-104004463D01*
X108143815Y-104083815D01*
X108064463Y-104180506D01*
X108005498Y-104290820D01*
X107969188Y-104410518D01*
X107956928Y-104535000D01*
X107960000Y-105124250D01*
X108118750Y-105283000D01*
X109093000Y-105283000D01*
X109093000Y-105263000D01*
X109347000Y-105263000D01*
X109347000Y-105283000D01*
X110321250Y-105283000D01*
X110480000Y-105124250D01*
X110483072Y-104535000D01*
X110470812Y-104410518D01*
X110434502Y-104290820D01*
X110375537Y-104180506D01*
X110296185Y-104083815D01*
X110199494Y-104004463D01*
X110089180Y-103945498D01*
X109969482Y-103909188D01*
X109882602Y-103900631D01*
X109943922Y-103894592D01*
X110063620Y-103858282D01*
X110173934Y-103799317D01*
X110270625Y-103719965D01*
X110344457Y-103630000D01*
X110373819Y-103630000D01*
X110536773Y-103873877D01*
X110756123Y-104093227D01*
X111014052Y-104265570D01*
X111300648Y-104384282D01*
X111604896Y-104444800D01*
X111915104Y-104444800D01*
X112219352Y-104384282D01*
X112505948Y-104265570D01*
X112763877Y-104093227D01*
X112983227Y-103873877D01*
X113155570Y-103615948D01*
X113274282Y-103329352D01*
X113334800Y-103025104D01*
X113334800Y-102714896D01*
X113274282Y-102410648D01*
X113155570Y-102124052D01*
X112983227Y-101866123D01*
X112763877Y-101646773D01*
X112693876Y-101600000D01*
X112763877Y-101553227D01*
X112915855Y-101401249D01*
X114096801Y-102582195D01*
X114096800Y-113391646D01*
X113975713Y-113512733D01*
X113840557Y-113715008D01*
X113747460Y-113939764D01*
X113700000Y-114178363D01*
X113700000Y-114421637D01*
X113747460Y-114660236D01*
X113840557Y-114884992D01*
X113975713Y-115087267D01*
X114147733Y-115259287D01*
X114350008Y-115394443D01*
X114574764Y-115487540D01*
X114813363Y-115535000D01*
X115056637Y-115535000D01*
X115295236Y-115487540D01*
X115519992Y-115394443D01*
X115722267Y-115259287D01*
X115894287Y-115087267D01*
X116029443Y-114884992D01*
X116122540Y-114660236D01*
X116170000Y-114421637D01*
X116170000Y-114178363D01*
X116122540Y-113939764D01*
X116029443Y-113715008D01*
X115894287Y-113512733D01*
X115773200Y-113391646D01*
X115773200Y-102276163D01*
X115777254Y-102235000D01*
X115773200Y-102193837D01*
X115773200Y-102193830D01*
X115761071Y-102070684D01*
X115713142Y-101912683D01*
X115635309Y-101767068D01*
X115602426Y-101727000D01*
X115556808Y-101671414D01*
X115556806Y-101671412D01*
X115530564Y-101639436D01*
X115498588Y-101613194D01*
X113651811Y-99766418D01*
X113625564Y-99734436D01*
X113497932Y-99629691D01*
X113352317Y-99551858D01*
X113194316Y-99503929D01*
X113095532Y-99494200D01*
X112983227Y-99326123D01*
X112763877Y-99106773D01*
X112693876Y-99060000D01*
X112763877Y-99013227D01*
X112983227Y-98793877D01*
X113155570Y-98535948D01*
X113274282Y-98249352D01*
X113334800Y-97945104D01*
X113334800Y-97634896D01*
X113274282Y-97330648D01*
X113155570Y-97044052D01*
X112983227Y-96786123D01*
X112763877Y-96566773D01*
X112693876Y-96520000D01*
X112763877Y-96473227D01*
X112983227Y-96253877D01*
X113155570Y-95995948D01*
X113274282Y-95709352D01*
X113334800Y-95405104D01*
X113334800Y-95094896D01*
X113274282Y-94790648D01*
X113155570Y-94504052D01*
X112983227Y-94246123D01*
X112763877Y-94026773D01*
X112693876Y-93980000D01*
X112763877Y-93933227D01*
X112983227Y-93713877D01*
X113155570Y-93455948D01*
X113274282Y-93169352D01*
X113334800Y-92865104D01*
X113334800Y-92554896D01*
X113274282Y-92250648D01*
X113155570Y-91964052D01*
X112983227Y-91706123D01*
X112763877Y-91486773D01*
X112693876Y-91440000D01*
X112763877Y-91393227D01*
X112983227Y-91173877D01*
X113155570Y-90915948D01*
X113274282Y-90629352D01*
X113334800Y-90325104D01*
X113334800Y-90014896D01*
X113274282Y-89710648D01*
X113155570Y-89424052D01*
X112983227Y-89166123D01*
X112763877Y-88946773D01*
X112693876Y-88900000D01*
X112763877Y-88853227D01*
X112844014Y-88773090D01*
X113360201Y-89289278D01*
X113360200Y-99013843D01*
X113355654Y-99060000D01*
X113360200Y-99106157D01*
X113360200Y-99106166D01*
X113373798Y-99244232D01*
X113427537Y-99421385D01*
X113514804Y-99584651D01*
X113632246Y-99727754D01*
X113668115Y-99757191D01*
X117412818Y-103501896D01*
X117442246Y-103537754D01*
X117478104Y-103567182D01*
X117478106Y-103567184D01*
X117585348Y-103655196D01*
X117684512Y-103708200D01*
X117748614Y-103742463D01*
X117925767Y-103796202D01*
X118063833Y-103809800D01*
X118063843Y-103809800D01*
X118110000Y-103814346D01*
X118156157Y-103809800D01*
X118979145Y-103809800D01*
X119124465Y-103955120D01*
X119353273Y-104108005D01*
X119607510Y-104213314D01*
X119877408Y-104267000D01*
X120152592Y-104267000D01*
X120422490Y-104213314D01*
X120676727Y-104108005D01*
X120905535Y-103955120D01*
X121100120Y-103760535D01*
X121253005Y-103531727D01*
X121285000Y-103454485D01*
X121316995Y-103531727D01*
X121469880Y-103760535D01*
X121664465Y-103955120D01*
X121893273Y-104108005D01*
X122147510Y-104213314D01*
X122417408Y-104267000D01*
X122692592Y-104267000D01*
X122962490Y-104213314D01*
X123216727Y-104108005D01*
X123445535Y-103955120D01*
X123640120Y-103760535D01*
X123793005Y-103531727D01*
X123825000Y-103454485D01*
X123856995Y-103531727D01*
X124009880Y-103760535D01*
X124204465Y-103955120D01*
X124433273Y-104108005D01*
X124687510Y-104213314D01*
X124957408Y-104267000D01*
X125232592Y-104267000D01*
X125502490Y-104213314D01*
X125756727Y-104108005D01*
X125985535Y-103955120D01*
X126180120Y-103760535D01*
X126333005Y-103531727D01*
X126365000Y-103454485D01*
X126396995Y-103531727D01*
X126549880Y-103760535D01*
X126744465Y-103955120D01*
X126973273Y-104108005D01*
X127227510Y-104213314D01*
X127497408Y-104267000D01*
X127772592Y-104267000D01*
X128042490Y-104213314D01*
X128296727Y-104108005D01*
X128525535Y-103955120D01*
X128720120Y-103760535D01*
X128873005Y-103531727D01*
X128978314Y-103277490D01*
X129032000Y-103007592D01*
X129032000Y-102732408D01*
X128978314Y-102462510D01*
X128873005Y-102208273D01*
X128720120Y-101979465D01*
X128525535Y-101784880D01*
X128437535Y-101726080D01*
X128521482Y-101717812D01*
X128641180Y-101681502D01*
X128751494Y-101622537D01*
X128848185Y-101543185D01*
X128927537Y-101446494D01*
X128986502Y-101336180D01*
X129022812Y-101216482D01*
X129035072Y-101092000D01*
X129032000Y-100615750D01*
X128873250Y-100457000D01*
X127762000Y-100457000D01*
X127762000Y-100477000D01*
X127508000Y-100477000D01*
X127508000Y-100457000D01*
X127488000Y-100457000D01*
X127488000Y-100203000D01*
X127508000Y-100203000D01*
X127508000Y-99091750D01*
X127762000Y-99091750D01*
X127762000Y-100203000D01*
X128873250Y-100203000D01*
X129032000Y-100044250D01*
X129035072Y-99568000D01*
X129022812Y-99443518D01*
X128986502Y-99323820D01*
X128927537Y-99213506D01*
X128848185Y-99116815D01*
X128751494Y-99037463D01*
X128641180Y-98978498D01*
X128521482Y-98942188D01*
X128397000Y-98929928D01*
X127920750Y-98933000D01*
X127762000Y-99091750D01*
X127508000Y-99091750D01*
X127349250Y-98933000D01*
X126873000Y-98929928D01*
X126748518Y-98942188D01*
X126628820Y-98978498D01*
X126518506Y-99037463D01*
X126421815Y-99116815D01*
X126342463Y-99213506D01*
X126283498Y-99323820D01*
X126247188Y-99443518D01*
X126238920Y-99527465D01*
X126180120Y-99439465D01*
X125985535Y-99244880D01*
X125756727Y-99091995D01*
X125502490Y-98986686D01*
X125232592Y-98933000D01*
X124957408Y-98933000D01*
X124764800Y-98971312D01*
X124764800Y-92756156D01*
X124769346Y-92709999D01*
X124764800Y-92663842D01*
X124764800Y-92663833D01*
X124751202Y-92525767D01*
X124697463Y-92348614D01*
X124610196Y-92185349D01*
X124546515Y-92107754D01*
X124522183Y-92078105D01*
X124522182Y-92078104D01*
X124492754Y-92042246D01*
X124456895Y-92012818D01*
X123252191Y-90808115D01*
X123222754Y-90772246D01*
X123079651Y-90654804D01*
X122916386Y-90567537D01*
X122739233Y-90513798D01*
X122601167Y-90500200D01*
X122601157Y-90500200D01*
X122555000Y-90495654D01*
X122508843Y-90500200D01*
X122443040Y-90500200D01*
X122438475Y-90493368D01*
X122231632Y-90286525D01*
X122057240Y-90170000D01*
X122231632Y-90053475D01*
X122438475Y-89846632D01*
X122600990Y-89603411D01*
X122712932Y-89333158D01*
X122770000Y-89046260D01*
X122770000Y-88753740D01*
X122712932Y-88466842D01*
X122600990Y-88196589D01*
X122438475Y-87953368D01*
X122231632Y-87746525D01*
X121988411Y-87584010D01*
X121718158Y-87472068D01*
X121431260Y-87415000D01*
X121138740Y-87415000D01*
X120851842Y-87472068D01*
X120581589Y-87584010D01*
X120338368Y-87746525D01*
X120131525Y-87953368D01*
X120013900Y-88129406D01*
X119842588Y-87899731D01*
X119626355Y-87704822D01*
X119376252Y-87555843D01*
X119101891Y-87458519D01*
X118872000Y-87579186D01*
X118872000Y-88773000D01*
X118892000Y-88773000D01*
X118892000Y-89027000D01*
X118872000Y-89027000D01*
X118872000Y-89047000D01*
X118618000Y-89047000D01*
X118618000Y-89027000D01*
X117424845Y-89027000D01*
X117303524Y-89256890D01*
X117348175Y-89404099D01*
X117473359Y-89666920D01*
X117647412Y-89900269D01*
X117863645Y-90095178D01*
X117980534Y-90164805D01*
X117798368Y-90286525D01*
X117591525Y-90493368D01*
X117586960Y-90500200D01*
X117521165Y-90500200D01*
X117475000Y-90495653D01*
X117428835Y-90500200D01*
X117428833Y-90500200D01*
X117290767Y-90513798D01*
X117113614Y-90567537D01*
X116950348Y-90654804D01*
X116850694Y-90736589D01*
X116807246Y-90772246D01*
X116777817Y-90808105D01*
X116208116Y-91377808D01*
X116208106Y-91377816D01*
X115573114Y-92012810D01*
X115537246Y-92042246D01*
X115419804Y-92185349D01*
X115332537Y-92348615D01*
X115278798Y-92525768D01*
X115265200Y-92663834D01*
X115265200Y-92663843D01*
X115260654Y-92710000D01*
X115265200Y-92756157D01*
X115265201Y-98696125D01*
X115239800Y-98670724D01*
X115239800Y-88946156D01*
X115244346Y-88899999D01*
X115239800Y-88853842D01*
X115239800Y-88853833D01*
X115226202Y-88715767D01*
X115173827Y-88543110D01*
X117303524Y-88543110D01*
X117424845Y-88773000D01*
X118618000Y-88773000D01*
X118618000Y-87579186D01*
X118388109Y-87458519D01*
X118113748Y-87555843D01*
X117863645Y-87704822D01*
X117647412Y-87899731D01*
X117473359Y-88133080D01*
X117348175Y-88395901D01*
X117303524Y-88543110D01*
X115173827Y-88543110D01*
X115172463Y-88538614D01*
X115085196Y-88375349D01*
X114967754Y-88232246D01*
X114931895Y-88202818D01*
X113727191Y-86998115D01*
X113697754Y-86962246D01*
X113554651Y-86844804D01*
X113391386Y-86757537D01*
X113214233Y-86703798D01*
X113076167Y-86690200D01*
X113076157Y-86690200D01*
X113030000Y-86685654D01*
X113023436Y-86686300D01*
X112983227Y-86626123D01*
X112763877Y-86406773D01*
X112693876Y-86360000D01*
X112763877Y-86313227D01*
X112983227Y-86093877D01*
X113155570Y-85835948D01*
X113274282Y-85549352D01*
X113334800Y-85245104D01*
X113334800Y-84934896D01*
X113274282Y-84630648D01*
X113155570Y-84344052D01*
X112983227Y-84086123D01*
X112763877Y-83866773D01*
X112693876Y-83820000D01*
X112763877Y-83773227D01*
X112983227Y-83553877D01*
X113155570Y-83295948D01*
X113274282Y-83009352D01*
X113334800Y-82705104D01*
X113334800Y-82394896D01*
X113274282Y-82090648D01*
X113155570Y-81804052D01*
X112983227Y-81546123D01*
X112763877Y-81326773D01*
X112693876Y-81280000D01*
X112763877Y-81233227D01*
X112983227Y-81013877D01*
X113155570Y-80755948D01*
X113274282Y-80469352D01*
X113334800Y-80165104D01*
X113334800Y-79854896D01*
X113274282Y-79550648D01*
X113155570Y-79264052D01*
X112983227Y-79006123D01*
X112763877Y-78786773D01*
X112627286Y-78695505D01*
X112672871Y-78562476D01*
X111760000Y-77649605D01*
X110847129Y-78562476D01*
X110892714Y-78695505D01*
X110756123Y-78786773D01*
X110536773Y-79006123D01*
X110364430Y-79264052D01*
X110245718Y-79550648D01*
X110185200Y-79854896D01*
X110185200Y-80165104D01*
X110245718Y-80469352D01*
X110364430Y-80755948D01*
X110536773Y-81013877D01*
X110756123Y-81233227D01*
X110826124Y-81280000D01*
X110756123Y-81326773D01*
X110536773Y-81546123D01*
X110364430Y-81804052D01*
X110245718Y-82090648D01*
X110185200Y-82394896D01*
X110185200Y-82705104D01*
X110245718Y-83009352D01*
X110364430Y-83295948D01*
X110536773Y-83553877D01*
X110756123Y-83773227D01*
X110826124Y-83820000D01*
X110756123Y-83866773D01*
X110536773Y-84086123D01*
X110364430Y-84344052D01*
X110245718Y-84630648D01*
X110185200Y-84934896D01*
X110185200Y-85245104D01*
X110245718Y-85549352D01*
X110364430Y-85835948D01*
X110536773Y-86093877D01*
X110756123Y-86313227D01*
X110826124Y-86360000D01*
X110756123Y-86406773D01*
X110536773Y-86626123D01*
X110364430Y-86884052D01*
X110245718Y-87170648D01*
X110185200Y-87474896D01*
X110185200Y-87785104D01*
X110245718Y-88089352D01*
X110364430Y-88375948D01*
X110536773Y-88633877D01*
X110756123Y-88853227D01*
X110826124Y-88900000D01*
X110756123Y-88946773D01*
X110536773Y-89166123D01*
X110364430Y-89424052D01*
X110245718Y-89710648D01*
X110185200Y-90014896D01*
X110185200Y-90325104D01*
X110245718Y-90629352D01*
X110364430Y-90915948D01*
X110536773Y-91173877D01*
X110756123Y-91393227D01*
X110826124Y-91440000D01*
X110756123Y-91486773D01*
X110536773Y-91706123D01*
X110364430Y-91964052D01*
X110245718Y-92250648D01*
X110185200Y-92554896D01*
X110185200Y-92865104D01*
X110245718Y-93169352D01*
X110364430Y-93455948D01*
X110536773Y-93713877D01*
X110756123Y-93933227D01*
X110826124Y-93980000D01*
X110756123Y-94026773D01*
X110536773Y-94246123D01*
X110364430Y-94504052D01*
X110245718Y-94790648D01*
X110185200Y-95094896D01*
X110185200Y-95405104D01*
X110245718Y-95709352D01*
X110364430Y-95995948D01*
X110536773Y-96253877D01*
X110756123Y-96473227D01*
X110826124Y-96520000D01*
X110756123Y-96566773D01*
X110536773Y-96786123D01*
X110364430Y-97044052D01*
X110245718Y-97330648D01*
X110185200Y-97634896D01*
X110185200Y-97945104D01*
X110245718Y-98249352D01*
X110364430Y-98535948D01*
X110536773Y-98793877D01*
X110756123Y-99013227D01*
X110826124Y-99060000D01*
X110756123Y-99106773D01*
X110536773Y-99326123D01*
X110364430Y-99584052D01*
X110245718Y-99870648D01*
X110189182Y-100154877D01*
X110173934Y-100142363D01*
X110159800Y-100134808D01*
X110159800Y-89581156D01*
X110164346Y-89534999D01*
X110159800Y-89488842D01*
X110159800Y-89488833D01*
X110146202Y-89350767D01*
X110092463Y-89173614D01*
X110024391Y-89046260D01*
X110005196Y-89010348D01*
X109917183Y-88903105D01*
X109917182Y-88903104D01*
X109887754Y-88867246D01*
X109851896Y-88837818D01*
X103809800Y-82795724D01*
X103809800Y-82086754D01*
X103829287Y-82067267D01*
X103964443Y-81864992D01*
X104057540Y-81640236D01*
X104105000Y-81401637D01*
X104105000Y-81158363D01*
X104057540Y-80919764D01*
X103964443Y-80695008D01*
X103829287Y-80492733D01*
X103657267Y-80320713D01*
X103454992Y-80185557D01*
X103230236Y-80092460D01*
X103136595Y-80073834D01*
X102641400Y-79578639D01*
X102641400Y-77534977D01*
X110178916Y-77534977D01*
X110221973Y-77842184D01*
X110324135Y-78135086D01*
X110409277Y-78294377D01*
X110667524Y-78382871D01*
X111580395Y-77470000D01*
X111939605Y-77470000D01*
X112852476Y-78382871D01*
X113110723Y-78294377D01*
X113245597Y-78015024D01*
X113323381Y-77714725D01*
X113341084Y-77405023D01*
X113298027Y-77097816D01*
X113195865Y-76804914D01*
X113110723Y-76645623D01*
X112852476Y-76557129D01*
X111939605Y-77470000D01*
X111580395Y-77470000D01*
X110667524Y-76557129D01*
X110409277Y-76645623D01*
X110274403Y-76924976D01*
X110196619Y-77225275D01*
X110178916Y-77534977D01*
X102641400Y-77534977D01*
X102641400Y-74981141D01*
X102646437Y-74929999D01*
X102641400Y-74878858D01*
X102641400Y-74878848D01*
X102631162Y-74774896D01*
X110185200Y-74774896D01*
X110185200Y-75085104D01*
X110245718Y-75389352D01*
X110364430Y-75675948D01*
X110536773Y-75933877D01*
X110756123Y-76153227D01*
X110892714Y-76244495D01*
X110847129Y-76377524D01*
X111760000Y-77290395D01*
X112672871Y-76377524D01*
X112627286Y-76244495D01*
X112763877Y-76153227D01*
X112983227Y-75933877D01*
X113155570Y-75675948D01*
X113274282Y-75389352D01*
X113334800Y-75085104D01*
X113334800Y-74774896D01*
X113274282Y-74470648D01*
X113155570Y-74184052D01*
X112983227Y-73926123D01*
X112763877Y-73706773D01*
X112505948Y-73534430D01*
X112219352Y-73415718D01*
X111915104Y-73355200D01*
X111604896Y-73355200D01*
X111300648Y-73415718D01*
X111014052Y-73534430D01*
X110756123Y-73706773D01*
X110536773Y-73926123D01*
X110364430Y-74184052D01*
X110245718Y-74470648D01*
X110185200Y-74774896D01*
X102631162Y-74774896D01*
X102626331Y-74725850D01*
X102566783Y-74529546D01*
X102470081Y-74348630D01*
X102339943Y-74190057D01*
X102300215Y-74157453D01*
X99441000Y-71298239D01*
X99441000Y-70660000D01*
X129425098Y-70660000D01*
X129257442Y-70772024D01*
G37*
%TD.AperFunction*%
%TD*%
D29*
%TO.N,GND*%
X98933000Y-70845702D02*
X98825454Y-70788217D01*
X98629150Y-70728669D01*
X98476152Y-70713600D01*
X98476141Y-70713600D01*
X98425000Y-70708563D01*
X98373859Y-70713600D01*
X81966141Y-70713600D01*
X81914999Y-70708563D01*
X81863858Y-70713600D01*
X81863848Y-70713600D01*
X81710850Y-70728669D01*
X81514546Y-70788217D01*
X81514544Y-70788218D01*
X81333630Y-70884919D01*
X81214788Y-70982450D01*
X81214785Y-70982453D01*
X81175057Y-71015057D01*
X81142452Y-71054786D01*
X79944786Y-72252453D01*
X79905058Y-72285057D01*
X79872454Y-72324785D01*
X79872450Y-72324789D01*
X79774919Y-72443631D01*
X79678218Y-72624545D01*
X79651108Y-72713916D01*
X79618670Y-72820850D01*
X79603601Y-72973848D01*
X79598563Y-73025000D01*
X79603601Y-73076151D01*
X79603601Y-73109295D01*
X79421773Y-73291123D01*
X79249430Y-73549052D01*
X79130718Y-73835648D01*
X79070200Y-74139896D01*
X79070200Y-74450104D01*
X79130718Y-74754352D01*
X79249430Y-75040948D01*
X79421773Y-75298877D01*
X79603601Y-75480705D01*
X79603600Y-76783858D01*
X79598563Y-76835000D01*
X79603600Y-76886141D01*
X79603600Y-76886151D01*
X79618669Y-77039149D01*
X79678217Y-77235453D01*
X79774919Y-77416370D01*
X79905057Y-77574943D01*
X79944791Y-77607552D01*
X91033601Y-88696363D01*
X91033600Y-101548859D01*
X91028563Y-101600000D01*
X91033600Y-101651141D01*
X91033600Y-101651151D01*
X91048669Y-101804149D01*
X91108217Y-102000453D01*
X91204919Y-102181370D01*
X91335057Y-102339943D01*
X91374791Y-102372552D01*
X98933000Y-109930762D01*
X98933000Y-111512025D01*
X98813642Y-111475818D01*
X98689160Y-111463558D01*
X98075750Y-111466630D01*
X97917000Y-111625380D01*
X97917000Y-112773460D01*
X97937000Y-112773460D01*
X97937000Y-113027460D01*
X97917000Y-113027460D01*
X97917000Y-113047460D01*
X97663000Y-113047460D01*
X97663000Y-113027460D01*
X96414590Y-113027460D01*
X96255840Y-113186210D01*
X96252768Y-113699290D01*
X96265028Y-113823772D01*
X96301338Y-113943470D01*
X96360303Y-114053784D01*
X96439655Y-114150475D01*
X96536346Y-114229827D01*
X96646660Y-114288792D01*
X96683608Y-114300000D01*
X96646660Y-114311208D01*
X96536346Y-114370173D01*
X96439655Y-114449525D01*
X96360303Y-114546216D01*
X96301338Y-114656530D01*
X96265028Y-114776228D01*
X96252768Y-114900710D01*
X96252768Y-116498370D01*
X96265028Y-116622852D01*
X96301338Y-116742550D01*
X96360303Y-116852864D01*
X96439655Y-116949555D01*
X96536346Y-117028907D01*
X96646660Y-117087872D01*
X96766358Y-117124182D01*
X96890840Y-117136442D01*
X98689160Y-117136442D01*
X98813642Y-117124182D01*
X98933000Y-117087975D01*
X98933000Y-134340000D01*
X75470045Y-134340000D01*
X75700558Y-134185976D01*
X76185976Y-133700558D01*
X76567367Y-133129766D01*
X76830073Y-132495537D01*
X76964000Y-131822242D01*
X76964000Y-131135758D01*
X76943293Y-131031653D01*
X79967952Y-131031653D01*
X80123962Y-131347214D01*
X80498745Y-131538020D01*
X80903551Y-131652044D01*
X81322824Y-131684902D01*
X81740451Y-131635334D01*
X82140383Y-131505243D01*
X82436038Y-131347214D01*
X82592048Y-131031653D01*
X81280000Y-129719605D01*
X79967952Y-131031653D01*
X76943293Y-131031653D01*
X76830073Y-130462463D01*
X76567367Y-129828234D01*
X76403390Y-129582824D01*
X79135098Y-129582824D01*
X79184666Y-130000451D01*
X79314757Y-130400383D01*
X79472786Y-130696038D01*
X79788347Y-130852048D01*
X81100395Y-129540000D01*
X81459605Y-129540000D01*
X82771653Y-130852048D01*
X83087214Y-130696038D01*
X83278020Y-130321255D01*
X83392044Y-129916449D01*
X83424902Y-129497176D01*
X83375334Y-129079549D01*
X83245243Y-128679617D01*
X83087214Y-128383962D01*
X82771653Y-128227952D01*
X81459605Y-129540000D01*
X81100395Y-129540000D01*
X79788347Y-128227952D01*
X79472786Y-128383962D01*
X79281980Y-128758745D01*
X79167956Y-129163551D01*
X79135098Y-129582824D01*
X76403390Y-129582824D01*
X76185976Y-129257442D01*
X75700558Y-128772024D01*
X75129766Y-128390633D01*
X74495537Y-128127927D01*
X74095463Y-128048347D01*
X79967952Y-128048347D01*
X81280000Y-129360395D01*
X82592048Y-128048347D01*
X82587922Y-128040000D01*
X84221928Y-128040000D01*
X84221928Y-131040000D01*
X84234188Y-131164482D01*
X84270498Y-131284180D01*
X84329463Y-131394494D01*
X84408815Y-131491185D01*
X84505506Y-131570537D01*
X84615820Y-131629502D01*
X84735518Y-131665812D01*
X84860000Y-131678072D01*
X87860000Y-131678072D01*
X87984482Y-131665812D01*
X88104180Y-131629502D01*
X88214494Y-131570537D01*
X88311185Y-131491185D01*
X88390537Y-131394494D01*
X88449502Y-131284180D01*
X88485812Y-131164482D01*
X88498072Y-131040000D01*
X88498072Y-129384896D01*
X95580200Y-129384896D01*
X95580200Y-129695104D01*
X95640718Y-129999352D01*
X95759430Y-130285948D01*
X95931773Y-130543877D01*
X96151123Y-130763227D01*
X96409052Y-130935570D01*
X96695648Y-131054282D01*
X96999896Y-131114800D01*
X97310104Y-131114800D01*
X97614352Y-131054282D01*
X97900948Y-130935570D01*
X98158877Y-130763227D01*
X98378227Y-130543877D01*
X98550570Y-130285948D01*
X98669282Y-129999352D01*
X98729800Y-129695104D01*
X98729800Y-129384896D01*
X98669282Y-129080648D01*
X98550570Y-128794052D01*
X98378227Y-128536123D01*
X98158877Y-128316773D01*
X97900948Y-128144430D01*
X97614352Y-128025718D01*
X97310104Y-127965200D01*
X96999896Y-127965200D01*
X96695648Y-128025718D01*
X96409052Y-128144430D01*
X96151123Y-128316773D01*
X95931773Y-128536123D01*
X95759430Y-128794052D01*
X95640718Y-129080648D01*
X95580200Y-129384896D01*
X88498072Y-129384896D01*
X88498072Y-128040000D01*
X88485812Y-127915518D01*
X88449502Y-127795820D01*
X88390537Y-127685506D01*
X88311185Y-127588815D01*
X88214494Y-127509463D01*
X88104180Y-127450498D01*
X87984482Y-127414188D01*
X87860000Y-127401928D01*
X84860000Y-127401928D01*
X84735518Y-127414188D01*
X84615820Y-127450498D01*
X84505506Y-127509463D01*
X84408815Y-127588815D01*
X84329463Y-127685506D01*
X84270498Y-127795820D01*
X84234188Y-127915518D01*
X84221928Y-128040000D01*
X82587922Y-128040000D01*
X82436038Y-127732786D01*
X82061255Y-127541980D01*
X81656449Y-127427956D01*
X81237176Y-127395098D01*
X80819549Y-127444666D01*
X80419617Y-127574757D01*
X80123962Y-127732786D01*
X79967952Y-128048347D01*
X74095463Y-128048347D01*
X73822242Y-127994000D01*
X73135758Y-127994000D01*
X72462463Y-128127927D01*
X71828234Y-128390633D01*
X71257442Y-128772024D01*
X70772024Y-129257442D01*
X70660000Y-129425098D01*
X70660000Y-121054344D01*
X78525000Y-121054344D01*
X78525000Y-121425656D01*
X78597439Y-121789834D01*
X78739534Y-122132882D01*
X78945825Y-122441618D01*
X79208382Y-122704175D01*
X79517118Y-122910466D01*
X79860166Y-123052561D01*
X80224344Y-123125000D01*
X80595656Y-123125000D01*
X80959834Y-123052561D01*
X81135685Y-122979721D01*
X84225000Y-122979721D01*
X84225000Y-123400279D01*
X84307047Y-123812756D01*
X84467988Y-124201302D01*
X84701637Y-124550983D01*
X84999017Y-124848363D01*
X85348698Y-125082012D01*
X85737244Y-125242953D01*
X86149721Y-125325000D01*
X86570279Y-125325000D01*
X86982756Y-125242953D01*
X87371302Y-125082012D01*
X87720983Y-124848363D01*
X88018363Y-124550983D01*
X88252012Y-124201302D01*
X88412953Y-123812756D01*
X88495000Y-123400279D01*
X88495000Y-122979721D01*
X88412953Y-122567244D01*
X88252012Y-122178698D01*
X88018363Y-121829017D01*
X87720983Y-121531637D01*
X87371302Y-121297988D01*
X86982756Y-121137047D01*
X86570279Y-121055000D01*
X86149721Y-121055000D01*
X85737244Y-121137047D01*
X85348698Y-121297988D01*
X84999017Y-121531637D01*
X84701637Y-121829017D01*
X84467988Y-122178698D01*
X84307047Y-122567244D01*
X84225000Y-122979721D01*
X81135685Y-122979721D01*
X81302882Y-122910466D01*
X81611618Y-122704175D01*
X81874175Y-122441618D01*
X82080466Y-122132882D01*
X82222561Y-121789834D01*
X82295000Y-121425656D01*
X82295000Y-121054344D01*
X90525000Y-121054344D01*
X90525000Y-121425656D01*
X90597439Y-121789834D01*
X90739534Y-122132882D01*
X90945825Y-122441618D01*
X91208382Y-122704175D01*
X91517118Y-122910466D01*
X91860166Y-123052561D01*
X92224344Y-123125000D01*
X92595656Y-123125000D01*
X92959834Y-123052561D01*
X93302882Y-122910466D01*
X93611618Y-122704175D01*
X93874175Y-122441618D01*
X94080466Y-122132882D01*
X94222561Y-121789834D01*
X94295000Y-121425656D01*
X94295000Y-121054344D01*
X94222561Y-120690166D01*
X94080466Y-120347118D01*
X93874175Y-120038382D01*
X93611618Y-119775825D01*
X93302882Y-119569534D01*
X92959834Y-119427439D01*
X92595656Y-119355000D01*
X92224344Y-119355000D01*
X91860166Y-119427439D01*
X91517118Y-119569534D01*
X91208382Y-119775825D01*
X90945825Y-120038382D01*
X90739534Y-120347118D01*
X90597439Y-120690166D01*
X90525000Y-121054344D01*
X82295000Y-121054344D01*
X82222561Y-120690166D01*
X82080466Y-120347118D01*
X81874175Y-120038382D01*
X81611618Y-119775825D01*
X81302882Y-119569534D01*
X80959834Y-119427439D01*
X80595656Y-119355000D01*
X80224344Y-119355000D01*
X79860166Y-119427439D01*
X79517118Y-119569534D01*
X79208382Y-119775825D01*
X78945825Y-120038382D01*
X78739534Y-120347118D01*
X78597439Y-120690166D01*
X78525000Y-121054344D01*
X70660000Y-121054344D01*
X70660000Y-112101630D01*
X96252768Y-112101630D01*
X96255840Y-112614710D01*
X96414590Y-112773460D01*
X97663000Y-112773460D01*
X97663000Y-111625380D01*
X97504250Y-111466630D01*
X96890840Y-111463558D01*
X96766358Y-111475818D01*
X96646660Y-111512128D01*
X96536346Y-111571093D01*
X96439655Y-111650445D01*
X96360303Y-111747136D01*
X96301338Y-111857450D01*
X96265028Y-111977148D01*
X96252768Y-112101630D01*
X70660000Y-112101630D01*
X70660000Y-110481653D01*
X79047952Y-110481653D01*
X79203962Y-110797214D01*
X79578745Y-110988020D01*
X79983551Y-111102044D01*
X80402824Y-111134902D01*
X80820451Y-111085334D01*
X81220383Y-110955243D01*
X81516038Y-110797214D01*
X81672048Y-110481653D01*
X80360000Y-109169605D01*
X79047952Y-110481653D01*
X70660000Y-110481653D01*
X70660000Y-109032824D01*
X78215098Y-109032824D01*
X78264666Y-109450451D01*
X78394757Y-109850383D01*
X78552786Y-110146038D01*
X78868347Y-110302048D01*
X80180395Y-108990000D01*
X80539605Y-108990000D01*
X81851653Y-110302048D01*
X82167214Y-110146038D01*
X82358020Y-109771255D01*
X82472044Y-109366449D01*
X82504902Y-108947176D01*
X82490962Y-108829721D01*
X90275000Y-108829721D01*
X90275000Y-109250279D01*
X90357047Y-109662756D01*
X90517988Y-110051302D01*
X90751637Y-110400983D01*
X91049017Y-110698363D01*
X91398698Y-110932012D01*
X91787244Y-111092953D01*
X92199721Y-111175000D01*
X92620279Y-111175000D01*
X93032756Y-111092953D01*
X93421302Y-110932012D01*
X93770983Y-110698363D01*
X94068363Y-110400983D01*
X94302012Y-110051302D01*
X94462953Y-109662756D01*
X94545000Y-109250279D01*
X94545000Y-108829721D01*
X94462953Y-108417244D01*
X94302012Y-108028698D01*
X94068363Y-107679017D01*
X93770983Y-107381637D01*
X93421302Y-107147988D01*
X93032756Y-106987047D01*
X92620279Y-106905000D01*
X92199721Y-106905000D01*
X91787244Y-106987047D01*
X91398698Y-107147988D01*
X91049017Y-107381637D01*
X90751637Y-107679017D01*
X90517988Y-108028698D01*
X90357047Y-108417244D01*
X90275000Y-108829721D01*
X82490962Y-108829721D01*
X82455334Y-108529549D01*
X82325243Y-108129617D01*
X82167214Y-107833962D01*
X81851653Y-107677952D01*
X80539605Y-108990000D01*
X80180395Y-108990000D01*
X78868347Y-107677952D01*
X78552786Y-107833962D01*
X78361980Y-108208745D01*
X78247956Y-108613551D01*
X78215098Y-109032824D01*
X70660000Y-109032824D01*
X70660000Y-107498347D01*
X79047952Y-107498347D01*
X80360000Y-108810395D01*
X81672048Y-107498347D01*
X81516038Y-107182786D01*
X81141255Y-106991980D01*
X80736449Y-106877956D01*
X80317176Y-106845098D01*
X79899549Y-106894666D01*
X79499617Y-107024757D01*
X79203962Y-107182786D01*
X79047952Y-107498347D01*
X70660000Y-107498347D01*
X70660000Y-101830000D01*
X79141928Y-101830000D01*
X79154188Y-101954482D01*
X79190498Y-102074180D01*
X79249463Y-102184494D01*
X79328815Y-102281185D01*
X79425506Y-102360537D01*
X79535820Y-102419502D01*
X79655518Y-102455812D01*
X79780000Y-102468072D01*
X80994250Y-102465000D01*
X81153000Y-102306250D01*
X81153000Y-100457000D01*
X81407000Y-100457000D01*
X81407000Y-102306250D01*
X81565750Y-102465000D01*
X82780000Y-102468072D01*
X82904482Y-102455812D01*
X83024180Y-102419502D01*
X83134494Y-102360537D01*
X83231185Y-102281185D01*
X83310537Y-102184494D01*
X83369502Y-102074180D01*
X83405812Y-101954482D01*
X83418072Y-101830000D01*
X83415000Y-100615750D01*
X83256250Y-100457000D01*
X81407000Y-100457000D01*
X81153000Y-100457000D01*
X79303750Y-100457000D01*
X79145000Y-100615750D01*
X79141928Y-101830000D01*
X70660000Y-101830000D01*
X70660000Y-98830000D01*
X79141928Y-98830000D01*
X79145000Y-100044250D01*
X79303750Y-100203000D01*
X81153000Y-100203000D01*
X81153000Y-98353750D01*
X81407000Y-98353750D01*
X81407000Y-100203000D01*
X83256250Y-100203000D01*
X83415000Y-100044250D01*
X83418072Y-98830000D01*
X83405812Y-98705518D01*
X83369502Y-98585820D01*
X83310537Y-98475506D01*
X83231185Y-98378815D01*
X83134494Y-98299463D01*
X83024180Y-98240498D01*
X82904482Y-98204188D01*
X82780000Y-98191928D01*
X81565750Y-98195000D01*
X81407000Y-98353750D01*
X81153000Y-98353750D01*
X80994250Y-98195000D01*
X79780000Y-98191928D01*
X79655518Y-98204188D01*
X79535820Y-98240498D01*
X79425506Y-98299463D01*
X79328815Y-98378815D01*
X79249463Y-98475506D01*
X79190498Y-98585820D01*
X79154188Y-98705518D01*
X79141928Y-98830000D01*
X70660000Y-98830000D01*
X70660000Y-95039721D01*
X79145000Y-95039721D01*
X79145000Y-95460279D01*
X79227047Y-95872756D01*
X79387988Y-96261302D01*
X79621637Y-96610983D01*
X79919017Y-96908363D01*
X80268698Y-97142012D01*
X80657244Y-97302953D01*
X81069721Y-97385000D01*
X81490279Y-97385000D01*
X81902756Y-97302953D01*
X82291302Y-97142012D01*
X82640983Y-96908363D01*
X82938363Y-96610983D01*
X83172012Y-96261302D01*
X83332953Y-95872756D01*
X83415000Y-95460279D01*
X83415000Y-95039721D01*
X83332953Y-94627244D01*
X83172012Y-94238698D01*
X82938363Y-93889017D01*
X82640983Y-93591637D01*
X82291302Y-93357988D01*
X81902756Y-93197047D01*
X81490279Y-93115000D01*
X81069721Y-93115000D01*
X80657244Y-93197047D01*
X80268698Y-93357988D01*
X79919017Y-93591637D01*
X79621637Y-93889017D01*
X79387988Y-94238698D01*
X79227047Y-94627244D01*
X79145000Y-95039721D01*
X70660000Y-95039721D01*
X70660000Y-75532902D01*
X70772024Y-75700558D01*
X71257442Y-76185976D01*
X71828234Y-76567367D01*
X72462463Y-76830073D01*
X73135758Y-76964000D01*
X73822242Y-76964000D01*
X74495537Y-76830073D01*
X75129766Y-76567367D01*
X75700558Y-76185976D01*
X76185976Y-75700558D01*
X76567367Y-75129766D01*
X76830073Y-74495537D01*
X76964000Y-73822242D01*
X76964000Y-73135758D01*
X76830073Y-72462463D01*
X76567367Y-71828234D01*
X76185976Y-71257442D01*
X75700558Y-70772024D01*
X75532902Y-70660000D01*
X98933000Y-70660000D01*
X98933000Y-70845702D01*
%TA.AperFunction,Conductor*%
D30*
G36*
X98933000Y-70845702D02*
G01*
X98825454Y-70788217D01*
X98629150Y-70728669D01*
X98476152Y-70713600D01*
X98476141Y-70713600D01*
X98425000Y-70708563D01*
X98373859Y-70713600D01*
X81966141Y-70713600D01*
X81914999Y-70708563D01*
X81863858Y-70713600D01*
X81863848Y-70713600D01*
X81710850Y-70728669D01*
X81514546Y-70788217D01*
X81514544Y-70788218D01*
X81333630Y-70884919D01*
X81214788Y-70982450D01*
X81214785Y-70982453D01*
X81175057Y-71015057D01*
X81142452Y-71054786D01*
X79944786Y-72252453D01*
X79905058Y-72285057D01*
X79872454Y-72324785D01*
X79872450Y-72324789D01*
X79774919Y-72443631D01*
X79678218Y-72624545D01*
X79651108Y-72713916D01*
X79618670Y-72820850D01*
X79603601Y-72973848D01*
X79598563Y-73025000D01*
X79603601Y-73076151D01*
X79603601Y-73109295D01*
X79421773Y-73291123D01*
X79249430Y-73549052D01*
X79130718Y-73835648D01*
X79070200Y-74139896D01*
X79070200Y-74450104D01*
X79130718Y-74754352D01*
X79249430Y-75040948D01*
X79421773Y-75298877D01*
X79603601Y-75480705D01*
X79603600Y-76783858D01*
X79598563Y-76835000D01*
X79603600Y-76886141D01*
X79603600Y-76886151D01*
X79618669Y-77039149D01*
X79678217Y-77235453D01*
X79774919Y-77416370D01*
X79905057Y-77574943D01*
X79944791Y-77607552D01*
X91033601Y-88696363D01*
X91033600Y-101548859D01*
X91028563Y-101600000D01*
X91033600Y-101651141D01*
X91033600Y-101651151D01*
X91048669Y-101804149D01*
X91108217Y-102000453D01*
X91204919Y-102181370D01*
X91335057Y-102339943D01*
X91374791Y-102372552D01*
X98933000Y-109930762D01*
X98933000Y-111512025D01*
X98813642Y-111475818D01*
X98689160Y-111463558D01*
X98075750Y-111466630D01*
X97917000Y-111625380D01*
X97917000Y-112773460D01*
X97937000Y-112773460D01*
X97937000Y-113027460D01*
X97917000Y-113027460D01*
X97917000Y-113047460D01*
X97663000Y-113047460D01*
X97663000Y-113027460D01*
X96414590Y-113027460D01*
X96255840Y-113186210D01*
X96252768Y-113699290D01*
X96265028Y-113823772D01*
X96301338Y-113943470D01*
X96360303Y-114053784D01*
X96439655Y-114150475D01*
X96536346Y-114229827D01*
X96646660Y-114288792D01*
X96683608Y-114300000D01*
X96646660Y-114311208D01*
X96536346Y-114370173D01*
X96439655Y-114449525D01*
X96360303Y-114546216D01*
X96301338Y-114656530D01*
X96265028Y-114776228D01*
X96252768Y-114900710D01*
X96252768Y-116498370D01*
X96265028Y-116622852D01*
X96301338Y-116742550D01*
X96360303Y-116852864D01*
X96439655Y-116949555D01*
X96536346Y-117028907D01*
X96646660Y-117087872D01*
X96766358Y-117124182D01*
X96890840Y-117136442D01*
X98689160Y-117136442D01*
X98813642Y-117124182D01*
X98933000Y-117087975D01*
X98933000Y-134340000D01*
X75470045Y-134340000D01*
X75700558Y-134185976D01*
X76185976Y-133700558D01*
X76567367Y-133129766D01*
X76830073Y-132495537D01*
X76964000Y-131822242D01*
X76964000Y-131135758D01*
X76943293Y-131031653D01*
X79967952Y-131031653D01*
X80123962Y-131347214D01*
X80498745Y-131538020D01*
X80903551Y-131652044D01*
X81322824Y-131684902D01*
X81740451Y-131635334D01*
X82140383Y-131505243D01*
X82436038Y-131347214D01*
X82592048Y-131031653D01*
X81280000Y-129719605D01*
X79967952Y-131031653D01*
X76943293Y-131031653D01*
X76830073Y-130462463D01*
X76567367Y-129828234D01*
X76403390Y-129582824D01*
X79135098Y-129582824D01*
X79184666Y-130000451D01*
X79314757Y-130400383D01*
X79472786Y-130696038D01*
X79788347Y-130852048D01*
X81100395Y-129540000D01*
X81459605Y-129540000D01*
X82771653Y-130852048D01*
X83087214Y-130696038D01*
X83278020Y-130321255D01*
X83392044Y-129916449D01*
X83424902Y-129497176D01*
X83375334Y-129079549D01*
X83245243Y-128679617D01*
X83087214Y-128383962D01*
X82771653Y-128227952D01*
X81459605Y-129540000D01*
X81100395Y-129540000D01*
X79788347Y-128227952D01*
X79472786Y-128383962D01*
X79281980Y-128758745D01*
X79167956Y-129163551D01*
X79135098Y-129582824D01*
X76403390Y-129582824D01*
X76185976Y-129257442D01*
X75700558Y-128772024D01*
X75129766Y-128390633D01*
X74495537Y-128127927D01*
X74095463Y-128048347D01*
X79967952Y-128048347D01*
X81280000Y-129360395D01*
X82592048Y-128048347D01*
X82587922Y-128040000D01*
X84221928Y-128040000D01*
X84221928Y-131040000D01*
X84234188Y-131164482D01*
X84270498Y-131284180D01*
X84329463Y-131394494D01*
X84408815Y-131491185D01*
X84505506Y-131570537D01*
X84615820Y-131629502D01*
X84735518Y-131665812D01*
X84860000Y-131678072D01*
X87860000Y-131678072D01*
X87984482Y-131665812D01*
X88104180Y-131629502D01*
X88214494Y-131570537D01*
X88311185Y-131491185D01*
X88390537Y-131394494D01*
X88449502Y-131284180D01*
X88485812Y-131164482D01*
X88498072Y-131040000D01*
X88498072Y-129384896D01*
X95580200Y-129384896D01*
X95580200Y-129695104D01*
X95640718Y-129999352D01*
X95759430Y-130285948D01*
X95931773Y-130543877D01*
X96151123Y-130763227D01*
X96409052Y-130935570D01*
X96695648Y-131054282D01*
X96999896Y-131114800D01*
X97310104Y-131114800D01*
X97614352Y-131054282D01*
X97900948Y-130935570D01*
X98158877Y-130763227D01*
X98378227Y-130543877D01*
X98550570Y-130285948D01*
X98669282Y-129999352D01*
X98729800Y-129695104D01*
X98729800Y-129384896D01*
X98669282Y-129080648D01*
X98550570Y-128794052D01*
X98378227Y-128536123D01*
X98158877Y-128316773D01*
X97900948Y-128144430D01*
X97614352Y-128025718D01*
X97310104Y-127965200D01*
X96999896Y-127965200D01*
X96695648Y-128025718D01*
X96409052Y-128144430D01*
X96151123Y-128316773D01*
X95931773Y-128536123D01*
X95759430Y-128794052D01*
X95640718Y-129080648D01*
X95580200Y-129384896D01*
X88498072Y-129384896D01*
X88498072Y-128040000D01*
X88485812Y-127915518D01*
X88449502Y-127795820D01*
X88390537Y-127685506D01*
X88311185Y-127588815D01*
X88214494Y-127509463D01*
X88104180Y-127450498D01*
X87984482Y-127414188D01*
X87860000Y-127401928D01*
X84860000Y-127401928D01*
X84735518Y-127414188D01*
X84615820Y-127450498D01*
X84505506Y-127509463D01*
X84408815Y-127588815D01*
X84329463Y-127685506D01*
X84270498Y-127795820D01*
X84234188Y-127915518D01*
X84221928Y-128040000D01*
X82587922Y-128040000D01*
X82436038Y-127732786D01*
X82061255Y-127541980D01*
X81656449Y-127427956D01*
X81237176Y-127395098D01*
X80819549Y-127444666D01*
X80419617Y-127574757D01*
X80123962Y-127732786D01*
X79967952Y-128048347D01*
X74095463Y-128048347D01*
X73822242Y-127994000D01*
X73135758Y-127994000D01*
X72462463Y-128127927D01*
X71828234Y-128390633D01*
X71257442Y-128772024D01*
X70772024Y-129257442D01*
X70660000Y-129425098D01*
X70660000Y-121054344D01*
X78525000Y-121054344D01*
X78525000Y-121425656D01*
X78597439Y-121789834D01*
X78739534Y-122132882D01*
X78945825Y-122441618D01*
X79208382Y-122704175D01*
X79517118Y-122910466D01*
X79860166Y-123052561D01*
X80224344Y-123125000D01*
X80595656Y-123125000D01*
X80959834Y-123052561D01*
X81135685Y-122979721D01*
X84225000Y-122979721D01*
X84225000Y-123400279D01*
X84307047Y-123812756D01*
X84467988Y-124201302D01*
X84701637Y-124550983D01*
X84999017Y-124848363D01*
X85348698Y-125082012D01*
X85737244Y-125242953D01*
X86149721Y-125325000D01*
X86570279Y-125325000D01*
X86982756Y-125242953D01*
X87371302Y-125082012D01*
X87720983Y-124848363D01*
X88018363Y-124550983D01*
X88252012Y-124201302D01*
X88412953Y-123812756D01*
X88495000Y-123400279D01*
X88495000Y-122979721D01*
X88412953Y-122567244D01*
X88252012Y-122178698D01*
X88018363Y-121829017D01*
X87720983Y-121531637D01*
X87371302Y-121297988D01*
X86982756Y-121137047D01*
X86570279Y-121055000D01*
X86149721Y-121055000D01*
X85737244Y-121137047D01*
X85348698Y-121297988D01*
X84999017Y-121531637D01*
X84701637Y-121829017D01*
X84467988Y-122178698D01*
X84307047Y-122567244D01*
X84225000Y-122979721D01*
X81135685Y-122979721D01*
X81302882Y-122910466D01*
X81611618Y-122704175D01*
X81874175Y-122441618D01*
X82080466Y-122132882D01*
X82222561Y-121789834D01*
X82295000Y-121425656D01*
X82295000Y-121054344D01*
X90525000Y-121054344D01*
X90525000Y-121425656D01*
X90597439Y-121789834D01*
X90739534Y-122132882D01*
X90945825Y-122441618D01*
X91208382Y-122704175D01*
X91517118Y-122910466D01*
X91860166Y-123052561D01*
X92224344Y-123125000D01*
X92595656Y-123125000D01*
X92959834Y-123052561D01*
X93302882Y-122910466D01*
X93611618Y-122704175D01*
X93874175Y-122441618D01*
X94080466Y-122132882D01*
X94222561Y-121789834D01*
X94295000Y-121425656D01*
X94295000Y-121054344D01*
X94222561Y-120690166D01*
X94080466Y-120347118D01*
X93874175Y-120038382D01*
X93611618Y-119775825D01*
X93302882Y-119569534D01*
X92959834Y-119427439D01*
X92595656Y-119355000D01*
X92224344Y-119355000D01*
X91860166Y-119427439D01*
X91517118Y-119569534D01*
X91208382Y-119775825D01*
X90945825Y-120038382D01*
X90739534Y-120347118D01*
X90597439Y-120690166D01*
X90525000Y-121054344D01*
X82295000Y-121054344D01*
X82222561Y-120690166D01*
X82080466Y-120347118D01*
X81874175Y-120038382D01*
X81611618Y-119775825D01*
X81302882Y-119569534D01*
X80959834Y-119427439D01*
X80595656Y-119355000D01*
X80224344Y-119355000D01*
X79860166Y-119427439D01*
X79517118Y-119569534D01*
X79208382Y-119775825D01*
X78945825Y-120038382D01*
X78739534Y-120347118D01*
X78597439Y-120690166D01*
X78525000Y-121054344D01*
X70660000Y-121054344D01*
X70660000Y-112101630D01*
X96252768Y-112101630D01*
X96255840Y-112614710D01*
X96414590Y-112773460D01*
X97663000Y-112773460D01*
X97663000Y-111625380D01*
X97504250Y-111466630D01*
X96890840Y-111463558D01*
X96766358Y-111475818D01*
X96646660Y-111512128D01*
X96536346Y-111571093D01*
X96439655Y-111650445D01*
X96360303Y-111747136D01*
X96301338Y-111857450D01*
X96265028Y-111977148D01*
X96252768Y-112101630D01*
X70660000Y-112101630D01*
X70660000Y-110481653D01*
X79047952Y-110481653D01*
X79203962Y-110797214D01*
X79578745Y-110988020D01*
X79983551Y-111102044D01*
X80402824Y-111134902D01*
X80820451Y-111085334D01*
X81220383Y-110955243D01*
X81516038Y-110797214D01*
X81672048Y-110481653D01*
X80360000Y-109169605D01*
X79047952Y-110481653D01*
X70660000Y-110481653D01*
X70660000Y-109032824D01*
X78215098Y-109032824D01*
X78264666Y-109450451D01*
X78394757Y-109850383D01*
X78552786Y-110146038D01*
X78868347Y-110302048D01*
X80180395Y-108990000D01*
X80539605Y-108990000D01*
X81851653Y-110302048D01*
X82167214Y-110146038D01*
X82358020Y-109771255D01*
X82472044Y-109366449D01*
X82504902Y-108947176D01*
X82490962Y-108829721D01*
X90275000Y-108829721D01*
X90275000Y-109250279D01*
X90357047Y-109662756D01*
X90517988Y-110051302D01*
X90751637Y-110400983D01*
X91049017Y-110698363D01*
X91398698Y-110932012D01*
X91787244Y-111092953D01*
X92199721Y-111175000D01*
X92620279Y-111175000D01*
X93032756Y-111092953D01*
X93421302Y-110932012D01*
X93770983Y-110698363D01*
X94068363Y-110400983D01*
X94302012Y-110051302D01*
X94462953Y-109662756D01*
X94545000Y-109250279D01*
X94545000Y-108829721D01*
X94462953Y-108417244D01*
X94302012Y-108028698D01*
X94068363Y-107679017D01*
X93770983Y-107381637D01*
X93421302Y-107147988D01*
X93032756Y-106987047D01*
X92620279Y-106905000D01*
X92199721Y-106905000D01*
X91787244Y-106987047D01*
X91398698Y-107147988D01*
X91049017Y-107381637D01*
X90751637Y-107679017D01*
X90517988Y-108028698D01*
X90357047Y-108417244D01*
X90275000Y-108829721D01*
X82490962Y-108829721D01*
X82455334Y-108529549D01*
X82325243Y-108129617D01*
X82167214Y-107833962D01*
X81851653Y-107677952D01*
X80539605Y-108990000D01*
X80180395Y-108990000D01*
X78868347Y-107677952D01*
X78552786Y-107833962D01*
X78361980Y-108208745D01*
X78247956Y-108613551D01*
X78215098Y-109032824D01*
X70660000Y-109032824D01*
X70660000Y-107498347D01*
X79047952Y-107498347D01*
X80360000Y-108810395D01*
X81672048Y-107498347D01*
X81516038Y-107182786D01*
X81141255Y-106991980D01*
X80736449Y-106877956D01*
X80317176Y-106845098D01*
X79899549Y-106894666D01*
X79499617Y-107024757D01*
X79203962Y-107182786D01*
X79047952Y-107498347D01*
X70660000Y-107498347D01*
X70660000Y-101830000D01*
X79141928Y-101830000D01*
X79154188Y-101954482D01*
X79190498Y-102074180D01*
X79249463Y-102184494D01*
X79328815Y-102281185D01*
X79425506Y-102360537D01*
X79535820Y-102419502D01*
X79655518Y-102455812D01*
X79780000Y-102468072D01*
X80994250Y-102465000D01*
X81153000Y-102306250D01*
X81153000Y-100457000D01*
X81407000Y-100457000D01*
X81407000Y-102306250D01*
X81565750Y-102465000D01*
X82780000Y-102468072D01*
X82904482Y-102455812D01*
X83024180Y-102419502D01*
X83134494Y-102360537D01*
X83231185Y-102281185D01*
X83310537Y-102184494D01*
X83369502Y-102074180D01*
X83405812Y-101954482D01*
X83418072Y-101830000D01*
X83415000Y-100615750D01*
X83256250Y-100457000D01*
X81407000Y-100457000D01*
X81153000Y-100457000D01*
X79303750Y-100457000D01*
X79145000Y-100615750D01*
X79141928Y-101830000D01*
X70660000Y-101830000D01*
X70660000Y-98830000D01*
X79141928Y-98830000D01*
X79145000Y-100044250D01*
X79303750Y-100203000D01*
X81153000Y-100203000D01*
X81153000Y-98353750D01*
X81407000Y-98353750D01*
X81407000Y-100203000D01*
X83256250Y-100203000D01*
X83415000Y-100044250D01*
X83418072Y-98830000D01*
X83405812Y-98705518D01*
X83369502Y-98585820D01*
X83310537Y-98475506D01*
X83231185Y-98378815D01*
X83134494Y-98299463D01*
X83024180Y-98240498D01*
X82904482Y-98204188D01*
X82780000Y-98191928D01*
X81565750Y-98195000D01*
X81407000Y-98353750D01*
X81153000Y-98353750D01*
X80994250Y-98195000D01*
X79780000Y-98191928D01*
X79655518Y-98204188D01*
X79535820Y-98240498D01*
X79425506Y-98299463D01*
X79328815Y-98378815D01*
X79249463Y-98475506D01*
X79190498Y-98585820D01*
X79154188Y-98705518D01*
X79141928Y-98830000D01*
X70660000Y-98830000D01*
X70660000Y-95039721D01*
X79145000Y-95039721D01*
X79145000Y-95460279D01*
X79227047Y-95872756D01*
X79387988Y-96261302D01*
X79621637Y-96610983D01*
X79919017Y-96908363D01*
X80268698Y-97142012D01*
X80657244Y-97302953D01*
X81069721Y-97385000D01*
X81490279Y-97385000D01*
X81902756Y-97302953D01*
X82291302Y-97142012D01*
X82640983Y-96908363D01*
X82938363Y-96610983D01*
X83172012Y-96261302D01*
X83332953Y-95872756D01*
X83415000Y-95460279D01*
X83415000Y-95039721D01*
X83332953Y-94627244D01*
X83172012Y-94238698D01*
X82938363Y-93889017D01*
X82640983Y-93591637D01*
X82291302Y-93357988D01*
X81902756Y-93197047D01*
X81490279Y-93115000D01*
X81069721Y-93115000D01*
X80657244Y-93197047D01*
X80268698Y-93357988D01*
X79919017Y-93591637D01*
X79621637Y-93889017D01*
X79387988Y-94238698D01*
X79227047Y-94627244D01*
X79145000Y-95039721D01*
X70660000Y-95039721D01*
X70660000Y-75532902D01*
X70772024Y-75700558D01*
X71257442Y-76185976D01*
X71828234Y-76567367D01*
X72462463Y-76830073D01*
X73135758Y-76964000D01*
X73822242Y-76964000D01*
X74495537Y-76830073D01*
X75129766Y-76567367D01*
X75700558Y-76185976D01*
X76185976Y-75700558D01*
X76567367Y-75129766D01*
X76830073Y-74495537D01*
X76964000Y-73822242D01*
X76964000Y-73135758D01*
X76830073Y-72462463D01*
X76567367Y-71828234D01*
X76185976Y-71257442D01*
X75700558Y-70772024D01*
X75532902Y-70660000D01*
X98933000Y-70660000D01*
X98933000Y-70845702D01*
G37*
%TD.AperFunction*%
D29*
X98933000Y-73735761D02*
X98933000Y-86962574D01*
X98892932Y-86929691D01*
X98747317Y-86851858D01*
X98589316Y-86803929D01*
X98466170Y-86791800D01*
X98466163Y-86791800D01*
X98425000Y-86787746D01*
X98383837Y-86791800D01*
X97853929Y-86791800D01*
X97743227Y-86626123D01*
X97523877Y-86406773D01*
X97453876Y-86360000D01*
X97523877Y-86313227D01*
X97743227Y-86093877D01*
X97915570Y-85835948D01*
X98034282Y-85549352D01*
X98094800Y-85245104D01*
X98094800Y-84934896D01*
X98034282Y-84630648D01*
X97915570Y-84344052D01*
X97743227Y-84086123D01*
X97523877Y-83866773D01*
X97387286Y-83775505D01*
X97432871Y-83642476D01*
X96520000Y-82729605D01*
X95607129Y-83642476D01*
X95652714Y-83775505D01*
X95516123Y-83866773D01*
X95296773Y-84086123D01*
X95124430Y-84344052D01*
X95005718Y-84630648D01*
X94945200Y-84934896D01*
X94945200Y-85245104D01*
X95005718Y-85549352D01*
X95124430Y-85835948D01*
X95296773Y-86093877D01*
X95516123Y-86313227D01*
X95586124Y-86360000D01*
X95516123Y-86406773D01*
X95296773Y-86626123D01*
X95124430Y-86884052D01*
X95005718Y-87170648D01*
X94945200Y-87474896D01*
X94945200Y-87785104D01*
X95005718Y-88089352D01*
X95124430Y-88375948D01*
X95296773Y-88633877D01*
X95516123Y-88853227D01*
X95586124Y-88900000D01*
X95516123Y-88946773D01*
X95296773Y-89166123D01*
X95124430Y-89424052D01*
X95005718Y-89710648D01*
X94945200Y-90014896D01*
X94945200Y-90325104D01*
X95005718Y-90629352D01*
X95124430Y-90915948D01*
X95296773Y-91173877D01*
X95516123Y-91393227D01*
X95586124Y-91440000D01*
X95516123Y-91486773D01*
X95296773Y-91706123D01*
X95124430Y-91964052D01*
X95005718Y-92250648D01*
X94945200Y-92554896D01*
X94945200Y-92865104D01*
X95005718Y-93169352D01*
X95124430Y-93455948D01*
X95296773Y-93713877D01*
X95516123Y-93933227D01*
X95586124Y-93980000D01*
X95516123Y-94026773D01*
X95296773Y-94246123D01*
X95124430Y-94504052D01*
X95005718Y-94790648D01*
X94945200Y-95094896D01*
X94945200Y-95405104D01*
X95005718Y-95709352D01*
X95124430Y-95995948D01*
X95296773Y-96253877D01*
X95516123Y-96473227D01*
X95586124Y-96520000D01*
X95516123Y-96566773D01*
X95296773Y-96786123D01*
X95124430Y-97044052D01*
X95005718Y-97330648D01*
X94945200Y-97634896D01*
X94945200Y-97945104D01*
X95005718Y-98249352D01*
X95124430Y-98535948D01*
X95296773Y-98793877D01*
X95516123Y-99013227D01*
X95586124Y-99060000D01*
X95516123Y-99106773D01*
X95296773Y-99326123D01*
X95124430Y-99584052D01*
X95005718Y-99870648D01*
X94945200Y-100174896D01*
X94945200Y-100485104D01*
X95005718Y-100789352D01*
X95124430Y-101075948D01*
X95296773Y-101333877D01*
X95516123Y-101553227D01*
X95586124Y-101600000D01*
X95516123Y-101646773D01*
X95296773Y-101866123D01*
X95124430Y-102124052D01*
X95005718Y-102410648D01*
X94945200Y-102714896D01*
X94945200Y-102997439D01*
X93116400Y-101168639D01*
X93116400Y-88316141D01*
X93121437Y-88264999D01*
X93116400Y-88213858D01*
X93116400Y-88213848D01*
X93101331Y-88060850D01*
X93041783Y-87864546D01*
X92945081Y-87683630D01*
X92814943Y-87525057D01*
X92775215Y-87492453D01*
X87897739Y-82614977D01*
X94938916Y-82614977D01*
X94981973Y-82922184D01*
X95084135Y-83215086D01*
X95169277Y-83374377D01*
X95427524Y-83462871D01*
X96340395Y-82550000D01*
X96699605Y-82550000D01*
X97612476Y-83462871D01*
X97870723Y-83374377D01*
X98005597Y-83095024D01*
X98083381Y-82794725D01*
X98101084Y-82485023D01*
X98058027Y-82177816D01*
X97955865Y-81884914D01*
X97870723Y-81725623D01*
X97612476Y-81637129D01*
X96699605Y-82550000D01*
X96340395Y-82550000D01*
X95427524Y-81637129D01*
X95169277Y-81725623D01*
X95034403Y-82004976D01*
X94956619Y-82305275D01*
X94938916Y-82614977D01*
X87897739Y-82614977D01*
X81686400Y-76403639D01*
X81686400Y-75480704D01*
X81868227Y-75298877D01*
X81915000Y-75228876D01*
X81961773Y-75298877D01*
X82181123Y-75518227D01*
X82439052Y-75690570D01*
X82725648Y-75809282D01*
X83029896Y-75869800D01*
X83340104Y-75869800D01*
X83644352Y-75809282D01*
X83930948Y-75690570D01*
X84188877Y-75518227D01*
X84408227Y-75298877D01*
X84455000Y-75228876D01*
X84501773Y-75298877D01*
X84721123Y-75518227D01*
X84979052Y-75690570D01*
X85265648Y-75809282D01*
X85569896Y-75869800D01*
X85880104Y-75869800D01*
X86184352Y-75809282D01*
X86470948Y-75690570D01*
X86728877Y-75518227D01*
X86859628Y-75387476D01*
X87352129Y-75387476D01*
X87440623Y-75645723D01*
X87719976Y-75780597D01*
X88020275Y-75858381D01*
X88329977Y-75876084D01*
X88637184Y-75833027D01*
X88930086Y-75730865D01*
X89089377Y-75645723D01*
X89177871Y-75387476D01*
X88265000Y-74474605D01*
X87352129Y-75387476D01*
X86859628Y-75387476D01*
X86948227Y-75298877D01*
X87039495Y-75162286D01*
X87172524Y-75207871D01*
X88085395Y-74295000D01*
X88071253Y-74280858D01*
X88250858Y-74101253D01*
X88265000Y-74115395D01*
X88279143Y-74101253D01*
X88458748Y-74280858D01*
X88444605Y-74295000D01*
X89357476Y-75207871D01*
X89615723Y-75119377D01*
X89750597Y-74840024D01*
X89828381Y-74539725D01*
X89846084Y-74230023D01*
X89803027Y-73922816D01*
X89764515Y-73812400D01*
X94288850Y-73812400D01*
X94995992Y-74519543D01*
X94945200Y-74774896D01*
X94945200Y-75085104D01*
X95005718Y-75389352D01*
X95124430Y-75675948D01*
X95296773Y-75933877D01*
X95516123Y-76153227D01*
X95586124Y-76200000D01*
X95516123Y-76246773D01*
X95296773Y-76466123D01*
X95124430Y-76724052D01*
X95005718Y-77010648D01*
X94945200Y-77314896D01*
X94945200Y-77625104D01*
X95005718Y-77929352D01*
X95124430Y-78215948D01*
X95296773Y-78473877D01*
X95516123Y-78693227D01*
X95586124Y-78740000D01*
X95516123Y-78786773D01*
X95296773Y-79006123D01*
X95124430Y-79264052D01*
X95005718Y-79550648D01*
X94945200Y-79854896D01*
X94945200Y-80165104D01*
X95005718Y-80469352D01*
X95124430Y-80755948D01*
X95296773Y-81013877D01*
X95516123Y-81233227D01*
X95652714Y-81324495D01*
X95607129Y-81457524D01*
X96520000Y-82370395D01*
X97432871Y-81457524D01*
X97387286Y-81324495D01*
X97523877Y-81233227D01*
X97743227Y-81013877D01*
X97915570Y-80755948D01*
X98034282Y-80469352D01*
X98094800Y-80165104D01*
X98094800Y-79854896D01*
X98034282Y-79550648D01*
X97915570Y-79264052D01*
X97743227Y-79006123D01*
X97523877Y-78786773D01*
X97453876Y-78740000D01*
X97523877Y-78693227D01*
X97743227Y-78473877D01*
X97915570Y-78215948D01*
X98034282Y-77929352D01*
X98094800Y-77625104D01*
X98094800Y-77314896D01*
X98034282Y-77010648D01*
X97915570Y-76724052D01*
X97743227Y-76466123D01*
X97523877Y-76246773D01*
X97453876Y-76200000D01*
X97523877Y-76153227D01*
X97743227Y-75933877D01*
X97915570Y-75675948D01*
X98034282Y-75389352D01*
X98094800Y-75085104D01*
X98094800Y-74774896D01*
X98034282Y-74470648D01*
X97915570Y-74184052D01*
X97743227Y-73926123D01*
X97523877Y-73706773D01*
X97265948Y-73534430D01*
X96979352Y-73415718D01*
X96675104Y-73355200D01*
X96364896Y-73355200D01*
X96109543Y-73405992D01*
X95499950Y-72796400D01*
X97993639Y-72796400D01*
X98933000Y-73735761D01*
%TA.AperFunction,Conductor*%
D30*
G36*
X98933000Y-73735761D02*
G01*
X98933000Y-86962574D01*
X98892932Y-86929691D01*
X98747317Y-86851858D01*
X98589316Y-86803929D01*
X98466170Y-86791800D01*
X98466163Y-86791800D01*
X98425000Y-86787746D01*
X98383837Y-86791800D01*
X97853929Y-86791800D01*
X97743227Y-86626123D01*
X97523877Y-86406773D01*
X97453876Y-86360000D01*
X97523877Y-86313227D01*
X97743227Y-86093877D01*
X97915570Y-85835948D01*
X98034282Y-85549352D01*
X98094800Y-85245104D01*
X98094800Y-84934896D01*
X98034282Y-84630648D01*
X97915570Y-84344052D01*
X97743227Y-84086123D01*
X97523877Y-83866773D01*
X97387286Y-83775505D01*
X97432871Y-83642476D01*
X96520000Y-82729605D01*
X95607129Y-83642476D01*
X95652714Y-83775505D01*
X95516123Y-83866773D01*
X95296773Y-84086123D01*
X95124430Y-84344052D01*
X95005718Y-84630648D01*
X94945200Y-84934896D01*
X94945200Y-85245104D01*
X95005718Y-85549352D01*
X95124430Y-85835948D01*
X95296773Y-86093877D01*
X95516123Y-86313227D01*
X95586124Y-86360000D01*
X95516123Y-86406773D01*
X95296773Y-86626123D01*
X95124430Y-86884052D01*
X95005718Y-87170648D01*
X94945200Y-87474896D01*
X94945200Y-87785104D01*
X95005718Y-88089352D01*
X95124430Y-88375948D01*
X95296773Y-88633877D01*
X95516123Y-88853227D01*
X95586124Y-88900000D01*
X95516123Y-88946773D01*
X95296773Y-89166123D01*
X95124430Y-89424052D01*
X95005718Y-89710648D01*
X94945200Y-90014896D01*
X94945200Y-90325104D01*
X95005718Y-90629352D01*
X95124430Y-90915948D01*
X95296773Y-91173877D01*
X95516123Y-91393227D01*
X95586124Y-91440000D01*
X95516123Y-91486773D01*
X95296773Y-91706123D01*
X95124430Y-91964052D01*
X95005718Y-92250648D01*
X94945200Y-92554896D01*
X94945200Y-92865104D01*
X95005718Y-93169352D01*
X95124430Y-93455948D01*
X95296773Y-93713877D01*
X95516123Y-93933227D01*
X95586124Y-93980000D01*
X95516123Y-94026773D01*
X95296773Y-94246123D01*
X95124430Y-94504052D01*
X95005718Y-94790648D01*
X94945200Y-95094896D01*
X94945200Y-95405104D01*
X95005718Y-95709352D01*
X95124430Y-95995948D01*
X95296773Y-96253877D01*
X95516123Y-96473227D01*
X95586124Y-96520000D01*
X95516123Y-96566773D01*
X95296773Y-96786123D01*
X95124430Y-97044052D01*
X95005718Y-97330648D01*
X94945200Y-97634896D01*
X94945200Y-97945104D01*
X95005718Y-98249352D01*
X95124430Y-98535948D01*
X95296773Y-98793877D01*
X95516123Y-99013227D01*
X95586124Y-99060000D01*
X95516123Y-99106773D01*
X95296773Y-99326123D01*
X95124430Y-99584052D01*
X95005718Y-99870648D01*
X94945200Y-100174896D01*
X94945200Y-100485104D01*
X95005718Y-100789352D01*
X95124430Y-101075948D01*
X95296773Y-101333877D01*
X95516123Y-101553227D01*
X95586124Y-101600000D01*
X95516123Y-101646773D01*
X95296773Y-101866123D01*
X95124430Y-102124052D01*
X95005718Y-102410648D01*
X94945200Y-102714896D01*
X94945200Y-102997439D01*
X93116400Y-101168639D01*
X93116400Y-88316141D01*
X93121437Y-88264999D01*
X93116400Y-88213858D01*
X93116400Y-88213848D01*
X93101331Y-88060850D01*
X93041783Y-87864546D01*
X92945081Y-87683630D01*
X92814943Y-87525057D01*
X92775215Y-87492453D01*
X87897739Y-82614977D01*
X94938916Y-82614977D01*
X94981973Y-82922184D01*
X95084135Y-83215086D01*
X95169277Y-83374377D01*
X95427524Y-83462871D01*
X96340395Y-82550000D01*
X96699605Y-82550000D01*
X97612476Y-83462871D01*
X97870723Y-83374377D01*
X98005597Y-83095024D01*
X98083381Y-82794725D01*
X98101084Y-82485023D01*
X98058027Y-82177816D01*
X97955865Y-81884914D01*
X97870723Y-81725623D01*
X97612476Y-81637129D01*
X96699605Y-82550000D01*
X96340395Y-82550000D01*
X95427524Y-81637129D01*
X95169277Y-81725623D01*
X95034403Y-82004976D01*
X94956619Y-82305275D01*
X94938916Y-82614977D01*
X87897739Y-82614977D01*
X81686400Y-76403639D01*
X81686400Y-75480704D01*
X81868227Y-75298877D01*
X81915000Y-75228876D01*
X81961773Y-75298877D01*
X82181123Y-75518227D01*
X82439052Y-75690570D01*
X82725648Y-75809282D01*
X83029896Y-75869800D01*
X83340104Y-75869800D01*
X83644352Y-75809282D01*
X83930948Y-75690570D01*
X84188877Y-75518227D01*
X84408227Y-75298877D01*
X84455000Y-75228876D01*
X84501773Y-75298877D01*
X84721123Y-75518227D01*
X84979052Y-75690570D01*
X85265648Y-75809282D01*
X85569896Y-75869800D01*
X85880104Y-75869800D01*
X86184352Y-75809282D01*
X86470948Y-75690570D01*
X86728877Y-75518227D01*
X86859628Y-75387476D01*
X87352129Y-75387476D01*
X87440623Y-75645723D01*
X87719976Y-75780597D01*
X88020275Y-75858381D01*
X88329977Y-75876084D01*
X88637184Y-75833027D01*
X88930086Y-75730865D01*
X89089377Y-75645723D01*
X89177871Y-75387476D01*
X88265000Y-74474605D01*
X87352129Y-75387476D01*
X86859628Y-75387476D01*
X86948227Y-75298877D01*
X87039495Y-75162286D01*
X87172524Y-75207871D01*
X88085395Y-74295000D01*
X88071253Y-74280858D01*
X88250858Y-74101253D01*
X88265000Y-74115395D01*
X88279143Y-74101253D01*
X88458748Y-74280858D01*
X88444605Y-74295000D01*
X89357476Y-75207871D01*
X89615723Y-75119377D01*
X89750597Y-74840024D01*
X89828381Y-74539725D01*
X89846084Y-74230023D01*
X89803027Y-73922816D01*
X89764515Y-73812400D01*
X94288850Y-73812400D01*
X94995992Y-74519543D01*
X94945200Y-74774896D01*
X94945200Y-75085104D01*
X95005718Y-75389352D01*
X95124430Y-75675948D01*
X95296773Y-75933877D01*
X95516123Y-76153227D01*
X95586124Y-76200000D01*
X95516123Y-76246773D01*
X95296773Y-76466123D01*
X95124430Y-76724052D01*
X95005718Y-77010648D01*
X94945200Y-77314896D01*
X94945200Y-77625104D01*
X95005718Y-77929352D01*
X95124430Y-78215948D01*
X95296773Y-78473877D01*
X95516123Y-78693227D01*
X95586124Y-78740000D01*
X95516123Y-78786773D01*
X95296773Y-79006123D01*
X95124430Y-79264052D01*
X95005718Y-79550648D01*
X94945200Y-79854896D01*
X94945200Y-80165104D01*
X95005718Y-80469352D01*
X95124430Y-80755948D01*
X95296773Y-81013877D01*
X95516123Y-81233227D01*
X95652714Y-81324495D01*
X95607129Y-81457524D01*
X96520000Y-82370395D01*
X97432871Y-81457524D01*
X97387286Y-81324495D01*
X97523877Y-81233227D01*
X97743227Y-81013877D01*
X97915570Y-80755948D01*
X98034282Y-80469352D01*
X98094800Y-80165104D01*
X98094800Y-79854896D01*
X98034282Y-79550648D01*
X97915570Y-79264052D01*
X97743227Y-79006123D01*
X97523877Y-78786773D01*
X97453876Y-78740000D01*
X97523877Y-78693227D01*
X97743227Y-78473877D01*
X97915570Y-78215948D01*
X98034282Y-77929352D01*
X98094800Y-77625104D01*
X98094800Y-77314896D01*
X98034282Y-77010648D01*
X97915570Y-76724052D01*
X97743227Y-76466123D01*
X97523877Y-76246773D01*
X97453876Y-76200000D01*
X97523877Y-76153227D01*
X97743227Y-75933877D01*
X97915570Y-75675948D01*
X98034282Y-75389352D01*
X98094800Y-75085104D01*
X98094800Y-74774896D01*
X98034282Y-74470648D01*
X97915570Y-74184052D01*
X97743227Y-73926123D01*
X97523877Y-73706773D01*
X97265948Y-73534430D01*
X96979352Y-73415718D01*
X96675104Y-73355200D01*
X96364896Y-73355200D01*
X96109543Y-73405992D01*
X95499950Y-72796400D01*
X97993639Y-72796400D01*
X98933000Y-73735761D01*
G37*
%TD.AperFunction*%
%TD*%
M02*
