M48
; DRILL file {KiCad 5.1.9+dfsg1-1} date Fri Aug 27 09:59:21 2021
; FORMAT={-:-/ absolute / inch / decimal}
; #@! TF.CreationDate,2021-08-27T09:59:21+02:00
; #@! TF.GenerationSoftware,Kicad,Pcbnew,5.1.9+dfsg1-1
FMAT,2
INCH
T1C0.0157
T2C0.0300
T3C0.0315
T4C0.0374
T5C0.0394
T6C0.0400
T7C0.0512
T8C0.0598
T9C0.1260
%
G90
G05
T1
X3.17Y-4.53
X3.2802Y-4.53
X3.625Y-3.995
X3.72Y-3.11
X3.85Y-4.34
X3.875Y-3.1
X3.95Y-5.175
X3.97Y-4.29
X4.05Y-4.89
X4.06Y-4.2
X4.3Y-4.2
X5.06Y-4.39
T2
X4.725Y-3.95
X4.725Y-4.05
X4.825Y-3.95
X4.825Y-4.05
X4.925Y-3.95
X4.925Y-4.05
X5.025Y-3.95
X5.025Y-4.05
T3
X3.975Y-4.55
X3.975Y-4.9
X4.05Y-3.2
X4.45Y-4.35
X4.45Y-4.675
X4.525Y-4.5
T4
X2.91Y-3.22
X2.91Y-3.3184
X2.91Y-3.4169
X4.6147Y-2.91
X4.7131Y-2.91
X4.8116Y-2.91
X4.91Y-2.91
T5
X3.1657Y-4.7732
X3.6382Y-4.7732
X3.82Y-5.07
X4.87Y-3.37
X4.87Y-3.47
X4.87Y-3.57
X4.97Y-3.37
X4.97Y-3.47
X4.97Y-3.57
T6
X3.17Y-2.93
X3.27Y-2.93
X3.37Y-2.93
X3.47Y-2.93
X3.8Y-2.95
X3.8Y-3.05
X3.8Y-3.15
X3.8Y-3.25
X3.8Y-3.35
X3.8Y-3.45
X3.8Y-3.55
X3.8Y-3.65
X3.8Y-3.75
X3.8Y-3.85
X3.8Y-3.95
X3.8Y-4.05
X4.4Y-2.95
X4.4Y-3.05
X4.4Y-3.15
X4.4Y-3.25
X4.4Y-3.35
X4.4Y-3.45
X4.4Y-3.55
X4.4Y-3.65
X4.4Y-3.75
X4.4Y-3.85
X4.4Y-3.95
X4.4Y-4.05
T7
X3.1638Y-4.2909
X3.4Y-4.85
X3.6382Y-4.2929
T8
X2.92Y-3.76
X2.92Y-3.96
X3.2Y-5.1
X3.4Y-5.1
T9
X2.8929Y-2.8929
X2.8929Y-5.1763
X5.1763Y-2.8929
X5.1763Y-5.1763
T0
M30
