M48
; DRILL file {KiCad 5.1.8+dfsg1-1} date Thu Nov 26 10:17:41 2020
; FORMAT={-:-/ absolute / inch / decimal}
; #@! TF.CreationDate,2020-11-26T10:17:41+01:00
; #@! TF.GenerationSoftware,Kicad,Pcbnew,5.1.8+dfsg1-1
FMAT,2
INCH
T1C0.0300
T2C0.0315
T3C0.0394
T4C0.0400
T5C0.0512
T6C0.0598
T7C0.1260
%
G90
G05
T1
X4.725Y-3.95
X4.725Y-4.05
X4.825Y-3.95
X4.825Y-4.05
X4.925Y-3.95
X4.925Y-4.05
X5.025Y-3.95
X5.025Y-4.05
T2
X3.975Y-4.55
X3.975Y-4.9
X4.05Y-3.2
X4.325Y-4.25
X4.45Y-4.35
X4.45Y-4.675
X4.525Y-4.5
T3
X4.675Y-3.5
X4.675Y-3.6
X4.675Y-3.7
X4.775Y-3.5
X4.775Y-3.6
X4.775Y-3.7
X3.1657Y-4.7732
X3.6382Y-4.7732
T4
X3.825Y-5.1
X3.175Y-2.925
X3.275Y-2.925
X3.375Y-2.925
X3.475Y-2.925
X3.8Y-2.95
X3.8Y-3.05
X3.8Y-3.15
X3.8Y-3.25
X3.8Y-3.35
X3.8Y-3.45
X3.8Y-3.55
X3.8Y-3.65
X3.8Y-3.75
X3.8Y-3.85
X3.8Y-3.95
X3.8Y-4.05
X4.4Y-2.95
X4.4Y-3.05
X4.4Y-3.15
X4.4Y-3.25
X4.4Y-3.35
X4.4Y-3.45
X4.4Y-3.55
X4.4Y-3.65
X4.4Y-3.75
X4.4Y-3.85
X4.4Y-3.95
X4.4Y-4.05
T5
X3.1638Y-4.2909
X3.4Y-4.85
X3.6382Y-4.2929
T6
X3.2Y-5.1
X3.4Y-5.1
X3.2Y-3.75
X3.2Y-3.95
T7
X5.1763Y-2.8929
X2.8929Y-2.8929
X5.1763Y-5.1763
X2.8929Y-5.1763
T0
M30
