%TF.GenerationSoftware,KiCad,Pcbnew,5.1.9+dfsg1-1*%
%TF.CreationDate,2021-08-27T09:59:16+02:00*%
%TF.ProjectId,ws2812b_ctrl_RF,77733238-3132-4625-9f63-74726c5f5246,rev?*%
%TF.SameCoordinates,Original*%
%TF.FileFunction,Legend,Top*%
%TF.FilePolarity,Positive*%
%FSLAX46Y46*%
G04 Gerber Fmt 4.6, Leading zero omitted, Abs format (unit mm)*
G04 Created by KiCad (PCBNEW 5.1.9+dfsg1-1) date 2021-08-27 09:59:16*
%MOMM*%
%LPD*%
G01*
G04 APERTURE LIST*
%ADD10C,0.120000*%
%ADD11C,0.203200*%
%ADD12C,0.066040*%
%ADD13C,0.150000*%
%ADD14C,0.127000*%
G04 APERTURE END LIST*
D10*
%TO.C,J3*%
X98279000Y-128778000D02*
G75*
G03*
X98279000Y-128778000I-1251000J0D01*
G01*
%TO.C,ISP1*%
X130918000Y-90178000D02*
X129918000Y-90678000D01*
X130918000Y-91178000D02*
X130918000Y-90178000D01*
X129918000Y-90678000D02*
X130918000Y-91178000D01*
X128218000Y-86088000D02*
X129528000Y-86088000D01*
X128218000Y-86088000D02*
X128218000Y-86088000D01*
X128218000Y-81688000D02*
X128218000Y-86088000D01*
X121718000Y-81688000D02*
X128218000Y-81688000D01*
X121718000Y-94588000D02*
X121718000Y-81688000D01*
X128218000Y-94588000D02*
X121718000Y-94588000D01*
X128218000Y-90188000D02*
X128218000Y-94588000D01*
X129528000Y-90188000D02*
X128218000Y-90188000D01*
X129528000Y-80388000D02*
X129528000Y-95888000D01*
X120408000Y-80388000D02*
X129528000Y-80388000D01*
X120408000Y-95888000D02*
X120408000Y-80388000D01*
X129528000Y-95888000D02*
X120408000Y-95888000D01*
%TO.C,J2*%
X127564000Y-76664000D02*
X127564000Y-75414000D01*
X126314000Y-76664000D02*
X127564000Y-76664000D01*
X115414000Y-71164000D02*
X120964000Y-71164000D01*
X115414000Y-74114000D02*
X115414000Y-71164000D01*
X114664000Y-74114000D02*
X115414000Y-74114000D01*
X126514000Y-71164000D02*
X120964000Y-71164000D01*
X126514000Y-74114000D02*
X126514000Y-71164000D01*
X127264000Y-74114000D02*
X126514000Y-74114000D01*
X114664000Y-76364000D02*
X116464000Y-76364000D01*
X114664000Y-75614000D02*
X114664000Y-76364000D01*
X116464000Y-75614000D02*
X114664000Y-75614000D01*
X116464000Y-76364000D02*
X116464000Y-75614000D01*
X125464000Y-76364000D02*
X127264000Y-76364000D01*
X125464000Y-75614000D02*
X125464000Y-76364000D01*
X127264000Y-75614000D02*
X125464000Y-75614000D01*
X127264000Y-76364000D02*
X127264000Y-75614000D01*
X117964000Y-76364000D02*
X123964000Y-76364000D01*
X117964000Y-75614000D02*
X117964000Y-76364000D01*
X123964000Y-75614000D02*
X117964000Y-75614000D01*
X123964000Y-76364000D02*
X123964000Y-75614000D01*
X114654000Y-76374000D02*
X127274000Y-76374000D01*
X114654000Y-70404000D02*
X114654000Y-76374000D01*
X127274000Y-70404000D02*
X114654000Y-70404000D01*
X127274000Y-76374000D02*
X127274000Y-70404000D01*
%TO.C,J1*%
X76664000Y-78938000D02*
X75414000Y-78938000D01*
X76664000Y-80188000D02*
X76664000Y-78938000D01*
X71164000Y-88588000D02*
X71164000Y-84288000D01*
X74114000Y-88588000D02*
X71164000Y-88588000D01*
X74114000Y-89338000D02*
X74114000Y-88588000D01*
X71164000Y-79988000D02*
X71164000Y-84288000D01*
X74114000Y-79988000D02*
X71164000Y-79988000D01*
X74114000Y-79238000D02*
X74114000Y-79988000D01*
X76364000Y-89338000D02*
X76364000Y-87538000D01*
X75614000Y-89338000D02*
X76364000Y-89338000D01*
X75614000Y-87538000D02*
X75614000Y-89338000D01*
X76364000Y-87538000D02*
X75614000Y-87538000D01*
X76364000Y-81038000D02*
X76364000Y-79238000D01*
X75614000Y-81038000D02*
X76364000Y-81038000D01*
X75614000Y-79238000D02*
X75614000Y-81038000D01*
X76364000Y-79238000D02*
X75614000Y-79238000D01*
X76364000Y-86038000D02*
X76364000Y-82538000D01*
X75614000Y-86038000D02*
X76364000Y-86038000D01*
X75614000Y-82538000D02*
X75614000Y-86038000D01*
X76364000Y-82538000D02*
X75614000Y-82538000D01*
X76374000Y-89348000D02*
X76374000Y-79228000D01*
X70404000Y-89348000D02*
X76374000Y-89348000D01*
X70404000Y-79228000D02*
X70404000Y-89348000D01*
X76374000Y-79228000D02*
X70404000Y-79228000D01*
D11*
%TO.C,RS485*%
X89408000Y-73787000D02*
X89408000Y-75057000D01*
X81153000Y-75692000D02*
X79883000Y-75692000D01*
X79248000Y-75057000D02*
X79883000Y-75692000D01*
X79883000Y-73152000D02*
X79248000Y-73787000D01*
X79248000Y-73787000D02*
X79248000Y-75057000D01*
X82423000Y-75692000D02*
X81788000Y-75057000D01*
X83693000Y-75692000D02*
X82423000Y-75692000D01*
X84328000Y-75057000D02*
X83693000Y-75692000D01*
X83693000Y-73152000D02*
X84328000Y-73787000D01*
X82423000Y-73152000D02*
X83693000Y-73152000D01*
X81788000Y-73787000D02*
X82423000Y-73152000D01*
X81788000Y-75057000D02*
X81153000Y-75692000D01*
X81153000Y-73152000D02*
X81788000Y-73787000D01*
X79883000Y-73152000D02*
X81153000Y-73152000D01*
X88773000Y-75692000D02*
X87503000Y-75692000D01*
X86868000Y-75057000D02*
X87503000Y-75692000D01*
X87503000Y-73152000D02*
X86868000Y-73787000D01*
X84963000Y-75692000D02*
X84328000Y-75057000D01*
X86233000Y-75692000D02*
X84963000Y-75692000D01*
X86868000Y-75057000D02*
X86233000Y-75692000D01*
X86233000Y-73152000D02*
X86868000Y-73787000D01*
X84963000Y-73152000D02*
X86233000Y-73152000D01*
X84328000Y-73787000D02*
X84963000Y-73152000D01*
X89408000Y-75057000D02*
X88773000Y-75692000D01*
X88773000Y-73152000D02*
X89408000Y-73787000D01*
X87503000Y-73152000D02*
X88773000Y-73152000D01*
D10*
%TO.C,Q3*%
X104526000Y-126474000D02*
X104526000Y-125014000D01*
X107686000Y-126474000D02*
X107686000Y-124314000D01*
X107686000Y-126474000D02*
X106756000Y-126474000D01*
X104526000Y-126474000D02*
X105456000Y-126474000D01*
%TO.C,DBG1*%
X103005000Y-128655000D02*
X103005000Y-132540000D01*
X105275000Y-128655000D02*
X103005000Y-128655000D01*
X105275000Y-132540000D02*
X105275000Y-128655000D01*
%TO.C,WS2812B1*%
X88900000Y-125730000D02*
X78740000Y-125730000D01*
X88900000Y-133350000D02*
X88900000Y-125730000D01*
X78740000Y-133350000D02*
X88900000Y-133350000D01*
X78740000Y-125730000D02*
X78740000Y-133350000D01*
X78740000Y-127000000D02*
X88900000Y-127000000D01*
%TO.C,SUPPLY1*%
X77978000Y-103124000D02*
X77978000Y-92964000D01*
X70358000Y-103124000D02*
X77978000Y-103124000D01*
X70358000Y-92964000D02*
X70358000Y-103124000D01*
X77978000Y-92964000D02*
X70358000Y-92964000D01*
X76708000Y-92964000D02*
X76708000Y-103124000D01*
D12*
%TO.C,C2*%
X98188780Y-114498120D02*
X97391220Y-114498120D01*
X97391220Y-114498120D02*
X97391220Y-114101880D01*
X98188780Y-114101880D02*
X97391220Y-114101880D01*
X98188780Y-114498120D02*
X98188780Y-114101880D01*
D10*
%TO.C,K1*%
X88210000Y-115140000D02*
X88210000Y-119140000D01*
X84610000Y-115140000D02*
X88210000Y-115140000D01*
X84610000Y-119140000D02*
X84610000Y-115140000D01*
X88210000Y-119140000D02*
X84610000Y-119140000D01*
X88210000Y-115140000D02*
X84610000Y-119140000D01*
X88210000Y-117140000D02*
X92410000Y-117140000D01*
X80410000Y-117140000D02*
X84610000Y-117140000D01*
X86410000Y-120540000D02*
X90010000Y-120540000D01*
X86410000Y-113740000D02*
X90010000Y-113740000D01*
X90010000Y-113740000D02*
X90010000Y-120540000D01*
X86410000Y-112240000D02*
X83910000Y-107640000D01*
X86410000Y-113740000D02*
X86410000Y-112240000D01*
X80410000Y-117140000D02*
X80410000Y-119640000D01*
X86410000Y-120540000D02*
X86410000Y-121340000D01*
X92410000Y-119640000D02*
X92410000Y-117140000D01*
X82160000Y-109040000D02*
X84660000Y-109040000D01*
X90560000Y-109040000D02*
X88110000Y-109040000D01*
X94160000Y-104790000D02*
X94160000Y-124590000D01*
X78560000Y-104790000D02*
X94160000Y-104790000D01*
X78560000Y-124590000D02*
X78560000Y-104790000D01*
X78560000Y-124590000D02*
X85160000Y-124590000D01*
X87560000Y-124590000D02*
X94160000Y-124590000D01*
%TO.C,nRF24L1*%
X129159000Y-99060000D02*
X129159000Y-99060000D01*
X118491000Y-99060000D02*
X129159000Y-99060000D01*
X129735000Y-98730000D02*
X129735000Y-98730000D01*
X114285000Y-98730000D02*
X129735000Y-98730000D01*
X114285000Y-127930000D02*
X114285000Y-98730000D01*
X129735000Y-127930000D02*
X114285000Y-127930000D01*
X129735000Y-98730000D02*
X129735000Y-127930000D01*
X126365000Y-99314000D02*
X126365000Y-99314000D01*
X126365000Y-101600000D02*
X126365000Y-99314000D01*
X128651000Y-101600000D02*
X126365000Y-101600000D01*
X118491000Y-99060000D02*
X118491000Y-99060000D01*
X118491000Y-104394000D02*
X118491000Y-99060000D01*
X129159000Y-104394000D02*
X118491000Y-104394000D01*
X129159000Y-99060000D02*
X129159000Y-104394000D01*
%TO.C,Q1*%
X110984000Y-124658000D02*
X110984000Y-125588000D01*
X110984000Y-127818000D02*
X110984000Y-126888000D01*
X110984000Y-127818000D02*
X113144000Y-127818000D01*
X110984000Y-124658000D02*
X112444000Y-124658000D01*
%TO.C,RLY1*%
X74287000Y-116154000D02*
X74287000Y-112269000D01*
X74287000Y-112269000D02*
X72017000Y-112269000D01*
X72017000Y-112269000D02*
X72017000Y-116154000D01*
%TO.C,~SS1*%
X111117000Y-133095000D02*
X111117000Y-129210000D01*
X108847000Y-133095000D02*
X111117000Y-133095000D01*
X108847000Y-129210000D02*
X108847000Y-133095000D01*
%TO.C,J3*%
D13*
X96694666Y-130480380D02*
X96694666Y-131194666D01*
X96647047Y-131337523D01*
X96551809Y-131432761D01*
X96408952Y-131480380D01*
X96313714Y-131480380D01*
X97075619Y-130480380D02*
X97694666Y-130480380D01*
X97361333Y-130861333D01*
X97504190Y-130861333D01*
X97599428Y-130908952D01*
X97647047Y-130956571D01*
X97694666Y-131051809D01*
X97694666Y-131289904D01*
X97647047Y-131385142D01*
X97599428Y-131432761D01*
X97504190Y-131480380D01*
X97218476Y-131480380D01*
X97123238Y-131432761D01*
X97075619Y-131385142D01*
%TO.C,ISP1*%
X131516380Y-82986380D02*
X130516380Y-82986380D01*
X131468761Y-82557809D02*
X131516380Y-82414952D01*
X131516380Y-82176857D01*
X131468761Y-82081619D01*
X131421142Y-82034000D01*
X131325904Y-81986380D01*
X131230666Y-81986380D01*
X131135428Y-82034000D01*
X131087809Y-82081619D01*
X131040190Y-82176857D01*
X130992571Y-82367333D01*
X130944952Y-82462571D01*
X130897333Y-82510190D01*
X130802095Y-82557809D01*
X130706857Y-82557809D01*
X130611619Y-82510190D01*
X130564000Y-82462571D01*
X130516380Y-82367333D01*
X130516380Y-82129238D01*
X130564000Y-81986380D01*
X131516380Y-81557809D02*
X130516380Y-81557809D01*
X130516380Y-81176857D01*
X130564000Y-81081619D01*
X130611619Y-81034000D01*
X130706857Y-80986380D01*
X130849714Y-80986380D01*
X130944952Y-81034000D01*
X130992571Y-81081619D01*
X131040190Y-81176857D01*
X131040190Y-81557809D01*
X131516380Y-80034000D02*
X131516380Y-80605428D01*
X131516380Y-80319714D02*
X130516380Y-80319714D01*
X130659238Y-80414952D01*
X130754476Y-80510190D01*
X130802095Y-80605428D01*
%TO.C,J2*%
X126666666Y-77176380D02*
X126666666Y-77890666D01*
X126619047Y-78033523D01*
X126523809Y-78128761D01*
X126380952Y-78176380D01*
X126285714Y-78176380D01*
X127095238Y-77271619D02*
X127142857Y-77224000D01*
X127238095Y-77176380D01*
X127476190Y-77176380D01*
X127571428Y-77224000D01*
X127619047Y-77271619D01*
X127666666Y-77366857D01*
X127666666Y-77462095D01*
X127619047Y-77604952D01*
X127047619Y-78176380D01*
X127666666Y-78176380D01*
%TO.C,J1*%
X71334380Y-78311333D02*
X72048666Y-78311333D01*
X72191523Y-78358952D01*
X72286761Y-78454190D01*
X72334380Y-78597047D01*
X72334380Y-78692285D01*
X72334380Y-77311333D02*
X72334380Y-77882761D01*
X72334380Y-77597047D02*
X71334380Y-77597047D01*
X71477238Y-77692285D01*
X71572476Y-77787523D01*
X71620095Y-77882761D01*
%TO.C,RS485*%
D14*
X79545542Y-72792771D02*
X79342342Y-72502485D01*
X79197200Y-72792771D02*
X79197200Y-72183171D01*
X79429428Y-72183171D01*
X79487485Y-72212200D01*
X79516514Y-72241228D01*
X79545542Y-72299285D01*
X79545542Y-72386371D01*
X79516514Y-72444428D01*
X79487485Y-72473457D01*
X79429428Y-72502485D01*
X79197200Y-72502485D01*
X79777771Y-72763742D02*
X79864857Y-72792771D01*
X80010000Y-72792771D01*
X80068057Y-72763742D01*
X80097085Y-72734714D01*
X80126114Y-72676657D01*
X80126114Y-72618600D01*
X80097085Y-72560542D01*
X80068057Y-72531514D01*
X80010000Y-72502485D01*
X79893885Y-72473457D01*
X79835828Y-72444428D01*
X79806800Y-72415400D01*
X79777771Y-72357342D01*
X79777771Y-72299285D01*
X79806800Y-72241228D01*
X79835828Y-72212200D01*
X79893885Y-72183171D01*
X80039028Y-72183171D01*
X80126114Y-72212200D01*
X80648628Y-72386371D02*
X80648628Y-72792771D01*
X80503485Y-72154142D02*
X80358342Y-72589571D01*
X80735714Y-72589571D01*
X81055028Y-72444428D02*
X80996971Y-72415400D01*
X80967942Y-72386371D01*
X80938914Y-72328314D01*
X80938914Y-72299285D01*
X80967942Y-72241228D01*
X80996971Y-72212200D01*
X81055028Y-72183171D01*
X81171142Y-72183171D01*
X81229200Y-72212200D01*
X81258228Y-72241228D01*
X81287257Y-72299285D01*
X81287257Y-72328314D01*
X81258228Y-72386371D01*
X81229200Y-72415400D01*
X81171142Y-72444428D01*
X81055028Y-72444428D01*
X80996971Y-72473457D01*
X80967942Y-72502485D01*
X80938914Y-72560542D01*
X80938914Y-72676657D01*
X80967942Y-72734714D01*
X80996971Y-72763742D01*
X81055028Y-72792771D01*
X81171142Y-72792771D01*
X81229200Y-72763742D01*
X81258228Y-72734714D01*
X81287257Y-72676657D01*
X81287257Y-72560542D01*
X81258228Y-72502485D01*
X81229200Y-72473457D01*
X81171142Y-72444428D01*
X81838800Y-72183171D02*
X81548514Y-72183171D01*
X81519485Y-72473457D01*
X81548514Y-72444428D01*
X81606571Y-72415400D01*
X81751714Y-72415400D01*
X81809771Y-72444428D01*
X81838800Y-72473457D01*
X81867828Y-72531514D01*
X81867828Y-72676657D01*
X81838800Y-72734714D01*
X81809771Y-72763742D01*
X81751714Y-72792771D01*
X81606571Y-72792771D01*
X81548514Y-72763742D01*
X81519485Y-72734714D01*
%TO.C,R1*%
X113182400Y-131847771D02*
X112979200Y-131557485D01*
X112834057Y-131847771D02*
X112834057Y-131238171D01*
X113066285Y-131238171D01*
X113124342Y-131267200D01*
X113153371Y-131296228D01*
X113182400Y-131354285D01*
X113182400Y-131441371D01*
X113153371Y-131499428D01*
X113124342Y-131528457D01*
X113066285Y-131557485D01*
X112834057Y-131557485D01*
X113762971Y-131847771D02*
X113414628Y-131847771D01*
X113588800Y-131847771D02*
X113588800Y-131238171D01*
X113530742Y-131325257D01*
X113472685Y-131383314D01*
X113414628Y-131412342D01*
%TO.C,R15*%
X114670114Y-128545771D02*
X114466914Y-128255485D01*
X114321771Y-128545771D02*
X114321771Y-127936171D01*
X114554000Y-127936171D01*
X114612057Y-127965200D01*
X114641085Y-127994228D01*
X114670114Y-128052285D01*
X114670114Y-128139371D01*
X114641085Y-128197428D01*
X114612057Y-128226457D01*
X114554000Y-128255485D01*
X114321771Y-128255485D01*
X115250685Y-128545771D02*
X114902342Y-128545771D01*
X115076514Y-128545771D02*
X115076514Y-127936171D01*
X115018457Y-128023257D01*
X114960400Y-128081314D01*
X114902342Y-128110342D01*
X115802228Y-127936171D02*
X115511942Y-127936171D01*
X115482914Y-128226457D01*
X115511942Y-128197428D01*
X115570000Y-128168400D01*
X115715142Y-128168400D01*
X115773200Y-128197428D01*
X115802228Y-128226457D01*
X115831257Y-128284514D01*
X115831257Y-128429657D01*
X115802228Y-128487714D01*
X115773200Y-128516742D01*
X115715142Y-128545771D01*
X115570000Y-128545771D01*
X115511942Y-128516742D01*
X115482914Y-128487714D01*
%TO.C,R12*%
X105018114Y-121941771D02*
X104814914Y-121651485D01*
X104669771Y-121941771D02*
X104669771Y-121332171D01*
X104902000Y-121332171D01*
X104960057Y-121361200D01*
X104989085Y-121390228D01*
X105018114Y-121448285D01*
X105018114Y-121535371D01*
X104989085Y-121593428D01*
X104960057Y-121622457D01*
X104902000Y-121651485D01*
X104669771Y-121651485D01*
X105598685Y-121941771D02*
X105250342Y-121941771D01*
X105424514Y-121941771D02*
X105424514Y-121332171D01*
X105366457Y-121419257D01*
X105308400Y-121477314D01*
X105250342Y-121506342D01*
X105830914Y-121390228D02*
X105859942Y-121361200D01*
X105918000Y-121332171D01*
X106063142Y-121332171D01*
X106121200Y-121361200D01*
X106150228Y-121390228D01*
X106179257Y-121448285D01*
X106179257Y-121506342D01*
X106150228Y-121593428D01*
X105801885Y-121941771D01*
X106179257Y-121941771D01*
%TO.C,R11*%
X108574114Y-121941771D02*
X108370914Y-121651485D01*
X108225771Y-121941771D02*
X108225771Y-121332171D01*
X108458000Y-121332171D01*
X108516057Y-121361200D01*
X108545085Y-121390228D01*
X108574114Y-121448285D01*
X108574114Y-121535371D01*
X108545085Y-121593428D01*
X108516057Y-121622457D01*
X108458000Y-121651485D01*
X108225771Y-121651485D01*
X109154685Y-121941771D02*
X108806342Y-121941771D01*
X108980514Y-121941771D02*
X108980514Y-121332171D01*
X108922457Y-121419257D01*
X108864400Y-121477314D01*
X108806342Y-121506342D01*
X109735257Y-121941771D02*
X109386914Y-121941771D01*
X109561085Y-121941771D02*
X109561085Y-121332171D01*
X109503028Y-121419257D01*
X109444971Y-121477314D01*
X109386914Y-121506342D01*
%TO.C,R10*%
X105780114Y-131593771D02*
X105576914Y-131303485D01*
X105431771Y-131593771D02*
X105431771Y-130984171D01*
X105664000Y-130984171D01*
X105722057Y-131013200D01*
X105751085Y-131042228D01*
X105780114Y-131100285D01*
X105780114Y-131187371D01*
X105751085Y-131245428D01*
X105722057Y-131274457D01*
X105664000Y-131303485D01*
X105431771Y-131303485D01*
X106360685Y-131593771D02*
X106012342Y-131593771D01*
X106186514Y-131593771D02*
X106186514Y-130984171D01*
X106128457Y-131071257D01*
X106070400Y-131129314D01*
X106012342Y-131158342D01*
X106738057Y-130984171D02*
X106796114Y-130984171D01*
X106854171Y-131013200D01*
X106883200Y-131042228D01*
X106912228Y-131100285D01*
X106941257Y-131216400D01*
X106941257Y-131361542D01*
X106912228Y-131477657D01*
X106883200Y-131535714D01*
X106854171Y-131564742D01*
X106796114Y-131593771D01*
X106738057Y-131593771D01*
X106680000Y-131564742D01*
X106650971Y-131535714D01*
X106621942Y-131477657D01*
X106592914Y-131361542D01*
X106592914Y-131216400D01*
X106621942Y-131100285D01*
X106650971Y-131042228D01*
X106680000Y-131013200D01*
X106738057Y-130984171D01*
%TO.C,Q3*%
D13*
X104433619Y-125317238D02*
X104386000Y-125412476D01*
X104290761Y-125507714D01*
X104147904Y-125650571D01*
X104100285Y-125745809D01*
X104100285Y-125841047D01*
X104338380Y-125793428D02*
X104290761Y-125888666D01*
X104195523Y-125983904D01*
X104005047Y-126031523D01*
X103671714Y-126031523D01*
X103481238Y-125983904D01*
X103386000Y-125888666D01*
X103338380Y-125793428D01*
X103338380Y-125602952D01*
X103386000Y-125507714D01*
X103481238Y-125412476D01*
X103671714Y-125364857D01*
X104005047Y-125364857D01*
X104195523Y-125412476D01*
X104290761Y-125507714D01*
X104338380Y-125602952D01*
X104338380Y-125793428D01*
X103338380Y-125031523D02*
X103338380Y-124412476D01*
X103719333Y-124745809D01*
X103719333Y-124602952D01*
X103766952Y-124507714D01*
X103814571Y-124460095D01*
X103909809Y-124412476D01*
X104147904Y-124412476D01*
X104243142Y-124460095D01*
X104290761Y-124507714D01*
X104338380Y-124602952D01*
X104338380Y-124888666D01*
X104290761Y-124983904D01*
X104243142Y-125031523D01*
%TO.C,DBG1*%
X102401904Y-134818380D02*
X102401904Y-133818380D01*
X102640000Y-133818380D01*
X102782857Y-133866000D01*
X102878095Y-133961238D01*
X102925714Y-134056476D01*
X102973333Y-134246952D01*
X102973333Y-134389809D01*
X102925714Y-134580285D01*
X102878095Y-134675523D01*
X102782857Y-134770761D01*
X102640000Y-134818380D01*
X102401904Y-134818380D01*
X103735238Y-134294571D02*
X103878095Y-134342190D01*
X103925714Y-134389809D01*
X103973333Y-134485047D01*
X103973333Y-134627904D01*
X103925714Y-134723142D01*
X103878095Y-134770761D01*
X103782857Y-134818380D01*
X103401904Y-134818380D01*
X103401904Y-133818380D01*
X103735238Y-133818380D01*
X103830476Y-133866000D01*
X103878095Y-133913619D01*
X103925714Y-134008857D01*
X103925714Y-134104095D01*
X103878095Y-134199333D01*
X103830476Y-134246952D01*
X103735238Y-134294571D01*
X103401904Y-134294571D01*
X104925714Y-133866000D02*
X104830476Y-133818380D01*
X104687619Y-133818380D01*
X104544761Y-133866000D01*
X104449523Y-133961238D01*
X104401904Y-134056476D01*
X104354285Y-134246952D01*
X104354285Y-134389809D01*
X104401904Y-134580285D01*
X104449523Y-134675523D01*
X104544761Y-134770761D01*
X104687619Y-134818380D01*
X104782857Y-134818380D01*
X104925714Y-134770761D01*
X104973333Y-134723142D01*
X104973333Y-134389809D01*
X104782857Y-134389809D01*
X105925714Y-134818380D02*
X105354285Y-134818380D01*
X105640000Y-134818380D02*
X105640000Y-133818380D01*
X105544761Y-133961238D01*
X105449523Y-134056476D01*
X105354285Y-134104095D01*
%TO.C,WS2812B1*%
X89622380Y-133325714D02*
X90622380Y-133087619D01*
X89908095Y-132897142D01*
X90622380Y-132706666D01*
X89622380Y-132468571D01*
X90574761Y-132135238D02*
X90622380Y-131992380D01*
X90622380Y-131754285D01*
X90574761Y-131659047D01*
X90527142Y-131611428D01*
X90431904Y-131563809D01*
X90336666Y-131563809D01*
X90241428Y-131611428D01*
X90193809Y-131659047D01*
X90146190Y-131754285D01*
X90098571Y-131944761D01*
X90050952Y-132040000D01*
X90003333Y-132087619D01*
X89908095Y-132135238D01*
X89812857Y-132135238D01*
X89717619Y-132087619D01*
X89670000Y-132040000D01*
X89622380Y-131944761D01*
X89622380Y-131706666D01*
X89670000Y-131563809D01*
X89717619Y-131182857D02*
X89670000Y-131135238D01*
X89622380Y-131040000D01*
X89622380Y-130801904D01*
X89670000Y-130706666D01*
X89717619Y-130659047D01*
X89812857Y-130611428D01*
X89908095Y-130611428D01*
X90050952Y-130659047D01*
X90622380Y-131230476D01*
X90622380Y-130611428D01*
X90050952Y-130040000D02*
X90003333Y-130135238D01*
X89955714Y-130182857D01*
X89860476Y-130230476D01*
X89812857Y-130230476D01*
X89717619Y-130182857D01*
X89670000Y-130135238D01*
X89622380Y-130040000D01*
X89622380Y-129849523D01*
X89670000Y-129754285D01*
X89717619Y-129706666D01*
X89812857Y-129659047D01*
X89860476Y-129659047D01*
X89955714Y-129706666D01*
X90003333Y-129754285D01*
X90050952Y-129849523D01*
X90050952Y-130040000D01*
X90098571Y-130135238D01*
X90146190Y-130182857D01*
X90241428Y-130230476D01*
X90431904Y-130230476D01*
X90527142Y-130182857D01*
X90574761Y-130135238D01*
X90622380Y-130040000D01*
X90622380Y-129849523D01*
X90574761Y-129754285D01*
X90527142Y-129706666D01*
X90431904Y-129659047D01*
X90241428Y-129659047D01*
X90146190Y-129706666D01*
X90098571Y-129754285D01*
X90050952Y-129849523D01*
X90622380Y-128706666D02*
X90622380Y-129278095D01*
X90622380Y-128992380D02*
X89622380Y-128992380D01*
X89765238Y-129087619D01*
X89860476Y-129182857D01*
X89908095Y-129278095D01*
X89717619Y-128325714D02*
X89670000Y-128278095D01*
X89622380Y-128182857D01*
X89622380Y-127944761D01*
X89670000Y-127849523D01*
X89717619Y-127801904D01*
X89812857Y-127754285D01*
X89908095Y-127754285D01*
X90050952Y-127801904D01*
X90622380Y-128373333D01*
X90622380Y-127754285D01*
X90098571Y-126992380D02*
X90146190Y-126849523D01*
X90193809Y-126801904D01*
X90289047Y-126754285D01*
X90431904Y-126754285D01*
X90527142Y-126801904D01*
X90574761Y-126849523D01*
X90622380Y-126944761D01*
X90622380Y-127325714D01*
X89622380Y-127325714D01*
X89622380Y-126992380D01*
X89670000Y-126897142D01*
X89717619Y-126849523D01*
X89812857Y-126801904D01*
X89908095Y-126801904D01*
X90003333Y-126849523D01*
X90050952Y-126897142D01*
X90098571Y-126992380D01*
X90098571Y-127325714D01*
X90622380Y-125801904D02*
X90622380Y-126373333D01*
X90622380Y-126087619D02*
X89622380Y-126087619D01*
X89765238Y-126182857D01*
X89860476Y-126278095D01*
X89908095Y-126373333D01*
%TO.C,SUPPLY1*%
X79398761Y-100655047D02*
X79446380Y-100512190D01*
X79446380Y-100274095D01*
X79398761Y-100178857D01*
X79351142Y-100131238D01*
X79255904Y-100083619D01*
X79160666Y-100083619D01*
X79065428Y-100131238D01*
X79017809Y-100178857D01*
X78970190Y-100274095D01*
X78922571Y-100464571D01*
X78874952Y-100559809D01*
X78827333Y-100607428D01*
X78732095Y-100655047D01*
X78636857Y-100655047D01*
X78541619Y-100607428D01*
X78494000Y-100559809D01*
X78446380Y-100464571D01*
X78446380Y-100226476D01*
X78494000Y-100083619D01*
X78446380Y-99655047D02*
X79255904Y-99655047D01*
X79351142Y-99607428D01*
X79398761Y-99559809D01*
X79446380Y-99464571D01*
X79446380Y-99274095D01*
X79398761Y-99178857D01*
X79351142Y-99131238D01*
X79255904Y-99083619D01*
X78446380Y-99083619D01*
X79446380Y-98607428D02*
X78446380Y-98607428D01*
X78446380Y-98226476D01*
X78494000Y-98131238D01*
X78541619Y-98083619D01*
X78636857Y-98036000D01*
X78779714Y-98036000D01*
X78874952Y-98083619D01*
X78922571Y-98131238D01*
X78970190Y-98226476D01*
X78970190Y-98607428D01*
X79446380Y-97607428D02*
X78446380Y-97607428D01*
X78446380Y-97226476D01*
X78494000Y-97131238D01*
X78541619Y-97083619D01*
X78636857Y-97036000D01*
X78779714Y-97036000D01*
X78874952Y-97083619D01*
X78922571Y-97131238D01*
X78970190Y-97226476D01*
X78970190Y-97607428D01*
X79446380Y-96131238D02*
X79446380Y-96607428D01*
X78446380Y-96607428D01*
X78970190Y-95607428D02*
X79446380Y-95607428D01*
X78446380Y-95940761D02*
X78970190Y-95607428D01*
X78446380Y-95274095D01*
X79446380Y-94416952D02*
X79446380Y-94988380D01*
X79446380Y-94702666D02*
X78446380Y-94702666D01*
X78589238Y-94797904D01*
X78684476Y-94893142D01*
X78732095Y-94988380D01*
%TO.C,C2*%
D14*
X96483714Y-114401600D02*
X96512742Y-114430628D01*
X96541771Y-114517714D01*
X96541771Y-114575771D01*
X96512742Y-114662857D01*
X96454685Y-114720914D01*
X96396628Y-114749942D01*
X96280514Y-114778971D01*
X96193428Y-114778971D01*
X96077314Y-114749942D01*
X96019257Y-114720914D01*
X95961200Y-114662857D01*
X95932171Y-114575771D01*
X95932171Y-114517714D01*
X95961200Y-114430628D01*
X95990228Y-114401600D01*
X95990228Y-114169371D02*
X95961200Y-114140342D01*
X95932171Y-114082285D01*
X95932171Y-113937142D01*
X95961200Y-113879085D01*
X95990228Y-113850057D01*
X96048285Y-113821028D01*
X96106342Y-113821028D01*
X96193428Y-113850057D01*
X96541771Y-114198400D01*
X96541771Y-113821028D01*
%TO.C,K1*%
D13*
X91971904Y-106497380D02*
X91971904Y-105497380D01*
X92543333Y-106497380D02*
X92114761Y-105925952D01*
X92543333Y-105497380D02*
X91971904Y-106068809D01*
X93495714Y-106497380D02*
X92924285Y-106497380D01*
X93210000Y-106497380D02*
X93210000Y-105497380D01*
X93114761Y-105640238D01*
X93019523Y-105735476D01*
X92924285Y-105783095D01*
%TO.C,nRF24L1*%
X130849714Y-104576190D02*
X131516380Y-104576190D01*
X130944952Y-104576190D02*
X130897333Y-104528571D01*
X130849714Y-104433333D01*
X130849714Y-104290476D01*
X130897333Y-104195238D01*
X130992571Y-104147619D01*
X131516380Y-104147619D01*
X131516380Y-103100000D02*
X131040190Y-103433333D01*
X131516380Y-103671428D02*
X130516380Y-103671428D01*
X130516380Y-103290476D01*
X130564000Y-103195238D01*
X130611619Y-103147619D01*
X130706857Y-103100000D01*
X130849714Y-103100000D01*
X130944952Y-103147619D01*
X130992571Y-103195238D01*
X131040190Y-103290476D01*
X131040190Y-103671428D01*
X130992571Y-102338095D02*
X130992571Y-102671428D01*
X131516380Y-102671428D02*
X130516380Y-102671428D01*
X130516380Y-102195238D01*
X130611619Y-101861904D02*
X130564000Y-101814285D01*
X130516380Y-101719047D01*
X130516380Y-101480952D01*
X130564000Y-101385714D01*
X130611619Y-101338095D01*
X130706857Y-101290476D01*
X130802095Y-101290476D01*
X130944952Y-101338095D01*
X131516380Y-101909523D01*
X131516380Y-101290476D01*
X130849714Y-100433333D02*
X131516380Y-100433333D01*
X130468761Y-100671428D02*
X131183047Y-100909523D01*
X131183047Y-100290476D01*
X131516380Y-99433333D02*
X131516380Y-99909523D01*
X130516380Y-99909523D01*
X131516380Y-98576190D02*
X131516380Y-99147619D01*
X131516380Y-98861904D02*
X130516380Y-98861904D01*
X130659238Y-98957142D01*
X130754476Y-99052380D01*
X130802095Y-99147619D01*
%TO.C,Q1*%
X112934761Y-124245619D02*
X112839523Y-124198000D01*
X112744285Y-124102761D01*
X112601428Y-123959904D01*
X112506190Y-123912285D01*
X112410952Y-123912285D01*
X112458571Y-124150380D02*
X112363333Y-124102761D01*
X112268095Y-124007523D01*
X112220476Y-123817047D01*
X112220476Y-123483714D01*
X112268095Y-123293238D01*
X112363333Y-123198000D01*
X112458571Y-123150380D01*
X112649047Y-123150380D01*
X112744285Y-123198000D01*
X112839523Y-123293238D01*
X112887142Y-123483714D01*
X112887142Y-123817047D01*
X112839523Y-124007523D01*
X112744285Y-124102761D01*
X112649047Y-124150380D01*
X112458571Y-124150380D01*
X113839523Y-124150380D02*
X113268095Y-124150380D01*
X113553809Y-124150380D02*
X113553809Y-123150380D01*
X113458571Y-123293238D01*
X113363333Y-123388476D01*
X113268095Y-123436095D01*
%TO.C,R3*%
D14*
X108102400Y-131593771D02*
X107899200Y-131303485D01*
X107754057Y-131593771D02*
X107754057Y-130984171D01*
X107986285Y-130984171D01*
X108044342Y-131013200D01*
X108073371Y-131042228D01*
X108102400Y-131100285D01*
X108102400Y-131187371D01*
X108073371Y-131245428D01*
X108044342Y-131274457D01*
X107986285Y-131303485D01*
X107754057Y-131303485D01*
X108305600Y-130984171D02*
X108682971Y-130984171D01*
X108479771Y-131216400D01*
X108566857Y-131216400D01*
X108624914Y-131245428D01*
X108653942Y-131274457D01*
X108682971Y-131332514D01*
X108682971Y-131477657D01*
X108653942Y-131535714D01*
X108624914Y-131564742D01*
X108566857Y-131593771D01*
X108392685Y-131593771D01*
X108334628Y-131564742D01*
X108305600Y-131535714D01*
%TO.C,RLY1*%
D13*
X71826380Y-115554000D02*
X71350190Y-115887333D01*
X71826380Y-116125428D02*
X70826380Y-116125428D01*
X70826380Y-115744476D01*
X70874000Y-115649238D01*
X70921619Y-115601619D01*
X71016857Y-115554000D01*
X71159714Y-115554000D01*
X71254952Y-115601619D01*
X71302571Y-115649238D01*
X71350190Y-115744476D01*
X71350190Y-116125428D01*
X71826380Y-114649238D02*
X71826380Y-115125428D01*
X70826380Y-115125428D01*
X71350190Y-114125428D02*
X71826380Y-114125428D01*
X70826380Y-114458761D02*
X71350190Y-114125428D01*
X70826380Y-113792095D01*
X71826380Y-112934952D02*
X71826380Y-113506380D01*
X71826380Y-113220666D02*
X70826380Y-113220666D01*
X70969238Y-113315904D01*
X71064476Y-113411142D01*
X71112095Y-113506380D01*
%TO.C,~SS1*%
X108553428Y-133451000D02*
X109505809Y-133451000D01*
X108743904Y-134770761D02*
X108886761Y-134818380D01*
X109124857Y-134818380D01*
X109220095Y-134770761D01*
X109267714Y-134723142D01*
X109315333Y-134627904D01*
X109315333Y-134532666D01*
X109267714Y-134437428D01*
X109220095Y-134389809D01*
X109124857Y-134342190D01*
X108934380Y-134294571D01*
X108839142Y-134246952D01*
X108791523Y-134199333D01*
X108743904Y-134104095D01*
X108743904Y-134008857D01*
X108791523Y-133913619D01*
X108839142Y-133866000D01*
X108934380Y-133818380D01*
X109172476Y-133818380D01*
X109315333Y-133866000D01*
X109505809Y-133451000D02*
X110458190Y-133451000D01*
X109696285Y-134770761D02*
X109839142Y-134818380D01*
X110077238Y-134818380D01*
X110172476Y-134770761D01*
X110220095Y-134723142D01*
X110267714Y-134627904D01*
X110267714Y-134532666D01*
X110220095Y-134437428D01*
X110172476Y-134389809D01*
X110077238Y-134342190D01*
X109886761Y-134294571D01*
X109791523Y-134246952D01*
X109743904Y-134199333D01*
X109696285Y-134104095D01*
X109696285Y-134008857D01*
X109743904Y-133913619D01*
X109791523Y-133866000D01*
X109886761Y-133818380D01*
X110124857Y-133818380D01*
X110267714Y-133866000D01*
X110458190Y-133451000D02*
X111410571Y-133451000D01*
X111220095Y-134818380D02*
X110648666Y-134818380D01*
X110934380Y-134818380D02*
X110934380Y-133818380D01*
X110839142Y-133961238D01*
X110743904Y-134056476D01*
X110648666Y-134104095D01*
%TD*%
M02*
