%TF.GenerationSoftware,KiCad,Pcbnew,5.1.9+dfsg1-1*%
%TF.CreationDate,2021-08-27T09:59:16+02:00*%
%TF.ProjectId,ws2812b_ctrl_RF,77733238-3132-4625-9f63-74726c5f5246,rev?*%
%TF.SameCoordinates,Original*%
%TF.FileFunction,Legend,Bot*%
%TF.FilePolarity,Positive*%
%FSLAX46Y46*%
G04 Gerber Fmt 4.6, Leading zero omitted, Abs format (unit mm)*
G04 Created by KiCad (PCBNEW 5.1.9+dfsg1-1) date 2021-08-27 09:59:16*
%MOMM*%
%LPD*%
G01*
G04 APERTURE LIST*
%ADD10C,0.120000*%
%ADD11C,0.066040*%
%ADD12C,0.150000*%
%ADD13C,0.127000*%
G04 APERTURE END LIST*
D10*
%TO.C,C8*%
X83340000Y-80532000D02*
X87725000Y-80532000D01*
X87725000Y-80532000D02*
X87725000Y-83552000D01*
X87725000Y-83552000D02*
X83340000Y-83552000D01*
%TO.C,C11*%
X94982000Y-90807000D02*
X94982000Y-95192000D01*
X94982000Y-95192000D02*
X91962000Y-95192000D01*
X91962000Y-95192000D02*
X91962000Y-90807000D01*
%TO.C,C9*%
X89422000Y-82369000D02*
X89422000Y-77984000D01*
X89422000Y-77984000D02*
X92442000Y-77984000D01*
X92442000Y-77984000D02*
X92442000Y-82369000D01*
%TO.C,D2*%
X82788000Y-88138000D02*
X82788000Y-95438000D01*
X82788000Y-95438000D02*
X80788000Y-95438000D01*
X80788000Y-95438000D02*
X80788000Y-88138000D01*
%TO.C,C5*%
X81506000Y-83552000D02*
X77121000Y-83552000D01*
X77121000Y-83552000D02*
X77121000Y-80532000D01*
X77121000Y-80532000D02*
X81506000Y-80532000D01*
%TO.C,Q4*%
X85034000Y-96506000D02*
X85034000Y-97966000D01*
X88194000Y-96506000D02*
X88194000Y-98666000D01*
X88194000Y-96506000D02*
X87264000Y-96506000D01*
X85034000Y-96506000D02*
X85964000Y-96506000D01*
%TO.C,F1*%
X75067748Y-92896000D02*
X77840252Y-92896000D01*
X75067748Y-89476000D02*
X77840252Y-89476000D01*
D11*
%TO.C,C12*%
X79179420Y-77579220D02*
X79179420Y-78376780D01*
X79179420Y-78376780D02*
X79575660Y-78376780D01*
X79575660Y-77579220D02*
X79575660Y-78376780D01*
X79179420Y-77579220D02*
X79575660Y-77579220D01*
%TO.C,C4*%
X101363780Y-128201420D02*
X101363780Y-128597660D01*
X101363780Y-128597660D02*
X100566220Y-128597660D01*
X100566220Y-128201420D02*
X100566220Y-128597660D01*
X101363780Y-128201420D02*
X100566220Y-128201420D01*
%TO.C,C6*%
X105011220Y-80208120D02*
X105808780Y-80208120D01*
X105808780Y-80208120D02*
X105808780Y-79811880D01*
X105011220Y-79811880D02*
X105808780Y-79811880D01*
X105011220Y-80208120D02*
X105011220Y-79811880D01*
%TO.C,C7*%
X89771220Y-131137660D02*
X89771220Y-130741420D01*
X89771220Y-130741420D02*
X90568780Y-130741420D01*
X90568780Y-131137660D02*
X90568780Y-130741420D01*
X89771220Y-131137660D02*
X90568780Y-131137660D01*
%TO.C,C10*%
X128033780Y-107116880D02*
X127236220Y-107116880D01*
X127236220Y-107116880D02*
X127236220Y-107513120D01*
X128033780Y-107513120D02*
X127236220Y-107513120D01*
X128033780Y-107116880D02*
X128033780Y-107513120D01*
D10*
%TO.C,D1*%
X79880000Y-119760000D02*
X85280000Y-119760000D01*
X79880000Y-116460000D02*
X85280000Y-116460000D01*
X79880000Y-119760000D02*
X79880000Y-116460000D01*
%TO.C,FB1*%
X81698000Y-97819936D02*
X81698000Y-99024064D01*
X84418000Y-97819936D02*
X84418000Y-99024064D01*
%TO.C,Q2*%
X87870000Y-118420000D02*
X89330000Y-118420000D01*
X87870000Y-115260000D02*
X90030000Y-115260000D01*
X87870000Y-115260000D02*
X87870000Y-116190000D01*
X87870000Y-118420000D02*
X87870000Y-117490000D01*
%TO.C,U1*%
X102880000Y-113095000D02*
X102880000Y-109645000D01*
X102880000Y-113095000D02*
X102880000Y-115045000D01*
X111750000Y-113095000D02*
X111750000Y-111145000D01*
X111750000Y-113095000D02*
X111750000Y-115045000D01*
%TO.C,U2*%
X111750000Y-124525000D02*
X111750000Y-126475000D01*
X111750000Y-124525000D02*
X111750000Y-122575000D01*
X102880000Y-124525000D02*
X102880000Y-126475000D01*
X102880000Y-124525000D02*
X102880000Y-121075000D01*
%TO.C,U3*%
X90786000Y-95032000D02*
X90786000Y-89022000D01*
X83966000Y-92782000D02*
X83966000Y-89022000D01*
X90786000Y-89022000D02*
X89526000Y-89022000D01*
X83966000Y-89022000D02*
X85226000Y-89022000D01*
%TO.C,C8*%
D12*
X85256666Y-80049142D02*
X85304285Y-80096761D01*
X85447142Y-80144380D01*
X85542380Y-80144380D01*
X85685238Y-80096761D01*
X85780476Y-80001523D01*
X85828095Y-79906285D01*
X85875714Y-79715809D01*
X85875714Y-79572952D01*
X85828095Y-79382476D01*
X85780476Y-79287238D01*
X85685238Y-79192000D01*
X85542380Y-79144380D01*
X85447142Y-79144380D01*
X85304285Y-79192000D01*
X85256666Y-79239619D01*
X84685238Y-79572952D02*
X84780476Y-79525333D01*
X84828095Y-79477714D01*
X84875714Y-79382476D01*
X84875714Y-79334857D01*
X84828095Y-79239619D01*
X84780476Y-79192000D01*
X84685238Y-79144380D01*
X84494761Y-79144380D01*
X84399523Y-79192000D01*
X84351904Y-79239619D01*
X84304285Y-79334857D01*
X84304285Y-79382476D01*
X84351904Y-79477714D01*
X84399523Y-79525333D01*
X84494761Y-79572952D01*
X84685238Y-79572952D01*
X84780476Y-79620571D01*
X84828095Y-79668190D01*
X84875714Y-79763428D01*
X84875714Y-79953904D01*
X84828095Y-80049142D01*
X84780476Y-80096761D01*
X84685238Y-80144380D01*
X84494761Y-80144380D01*
X84399523Y-80096761D01*
X84351904Y-80049142D01*
X84304285Y-79953904D01*
X84304285Y-79763428D01*
X84351904Y-79668190D01*
X84399523Y-79620571D01*
X84494761Y-79572952D01*
%TO.C,C11*%
X93606857Y-96369142D02*
X93654476Y-96416761D01*
X93797333Y-96464380D01*
X93892571Y-96464380D01*
X94035428Y-96416761D01*
X94130666Y-96321523D01*
X94178285Y-96226285D01*
X94225904Y-96035809D01*
X94225904Y-95892952D01*
X94178285Y-95702476D01*
X94130666Y-95607238D01*
X94035428Y-95512000D01*
X93892571Y-95464380D01*
X93797333Y-95464380D01*
X93654476Y-95512000D01*
X93606857Y-95559619D01*
X92654476Y-96464380D02*
X93225904Y-96464380D01*
X92940190Y-96464380D02*
X92940190Y-95464380D01*
X93035428Y-95607238D01*
X93130666Y-95702476D01*
X93225904Y-95750095D01*
X91702095Y-96464380D02*
X92273523Y-96464380D01*
X91987809Y-96464380D02*
X91987809Y-95464380D01*
X92083047Y-95607238D01*
X92178285Y-95702476D01*
X92273523Y-95750095D01*
%TO.C,C9*%
X88939142Y-80452333D02*
X88986761Y-80404714D01*
X89034380Y-80261857D01*
X89034380Y-80166619D01*
X88986761Y-80023761D01*
X88891523Y-79928523D01*
X88796285Y-79880904D01*
X88605809Y-79833285D01*
X88462952Y-79833285D01*
X88272476Y-79880904D01*
X88177238Y-79928523D01*
X88082000Y-80023761D01*
X88034380Y-80166619D01*
X88034380Y-80261857D01*
X88082000Y-80404714D01*
X88129619Y-80452333D01*
X89034380Y-80928523D02*
X89034380Y-81119000D01*
X88986761Y-81214238D01*
X88939142Y-81261857D01*
X88796285Y-81357095D01*
X88605809Y-81404714D01*
X88224857Y-81404714D01*
X88129619Y-81357095D01*
X88082000Y-81309476D01*
X88034380Y-81214238D01*
X88034380Y-81023761D01*
X88082000Y-80928523D01*
X88129619Y-80880904D01*
X88224857Y-80833285D01*
X88462952Y-80833285D01*
X88558190Y-80880904D01*
X88605809Y-80928523D01*
X88653428Y-81023761D01*
X88653428Y-81214238D01*
X88605809Y-81309476D01*
X88558190Y-81357095D01*
X88462952Y-81404714D01*
%TO.C,D2*%
X80462380Y-86383904D02*
X79462380Y-86383904D01*
X79462380Y-86622000D01*
X79510000Y-86764857D01*
X79605238Y-86860095D01*
X79700476Y-86907714D01*
X79890952Y-86955333D01*
X80033809Y-86955333D01*
X80224285Y-86907714D01*
X80319523Y-86860095D01*
X80414761Y-86764857D01*
X80462380Y-86622000D01*
X80462380Y-86383904D01*
X79557619Y-87336285D02*
X79510000Y-87383904D01*
X79462380Y-87479142D01*
X79462380Y-87717238D01*
X79510000Y-87812476D01*
X79557619Y-87860095D01*
X79652857Y-87907714D01*
X79748095Y-87907714D01*
X79890952Y-87860095D01*
X80462380Y-87288666D01*
X80462380Y-87907714D01*
%TO.C,C5*%
X79922666Y-84749142D02*
X79970285Y-84796761D01*
X80113142Y-84844380D01*
X80208380Y-84844380D01*
X80351238Y-84796761D01*
X80446476Y-84701523D01*
X80494095Y-84606285D01*
X80541714Y-84415809D01*
X80541714Y-84272952D01*
X80494095Y-84082476D01*
X80446476Y-83987238D01*
X80351238Y-83892000D01*
X80208380Y-83844380D01*
X80113142Y-83844380D01*
X79970285Y-83892000D01*
X79922666Y-83939619D01*
X79017904Y-83844380D02*
X79494095Y-83844380D01*
X79541714Y-84320571D01*
X79494095Y-84272952D01*
X79398857Y-84225333D01*
X79160761Y-84225333D01*
X79065523Y-84272952D01*
X79017904Y-84320571D01*
X78970285Y-84415809D01*
X78970285Y-84653904D01*
X79017904Y-84749142D01*
X79065523Y-84796761D01*
X79160761Y-84844380D01*
X79398857Y-84844380D01*
X79494095Y-84796761D01*
X79541714Y-84749142D01*
%TO.C,R16*%
D13*
X90307885Y-101621771D02*
X90511085Y-101331485D01*
X90656228Y-101621771D02*
X90656228Y-101012171D01*
X90424000Y-101012171D01*
X90365942Y-101041200D01*
X90336914Y-101070228D01*
X90307885Y-101128285D01*
X90307885Y-101215371D01*
X90336914Y-101273428D01*
X90365942Y-101302457D01*
X90424000Y-101331485D01*
X90656228Y-101331485D01*
X89727314Y-101621771D02*
X90075657Y-101621771D01*
X89901485Y-101621771D02*
X89901485Y-101012171D01*
X89959542Y-101099257D01*
X90017600Y-101157314D01*
X90075657Y-101186342D01*
X89204800Y-101012171D02*
X89320914Y-101012171D01*
X89378971Y-101041200D01*
X89408000Y-101070228D01*
X89466057Y-101157314D01*
X89495085Y-101273428D01*
X89495085Y-101505657D01*
X89466057Y-101563714D01*
X89437028Y-101592742D01*
X89378971Y-101621771D01*
X89262857Y-101621771D01*
X89204800Y-101592742D01*
X89175771Y-101563714D01*
X89146742Y-101505657D01*
X89146742Y-101360514D01*
X89175771Y-101302457D01*
X89204800Y-101273428D01*
X89262857Y-101244400D01*
X89378971Y-101244400D01*
X89437028Y-101273428D01*
X89466057Y-101302457D01*
X89495085Y-101360514D01*
%TO.C,R14*%
X86868725Y-101621771D02*
X87071925Y-101331485D01*
X87217068Y-101621771D02*
X87217068Y-101012171D01*
X86984840Y-101012171D01*
X86926782Y-101041200D01*
X86897754Y-101070228D01*
X86868725Y-101128285D01*
X86868725Y-101215371D01*
X86897754Y-101273428D01*
X86926782Y-101302457D01*
X86984840Y-101331485D01*
X87217068Y-101331485D01*
X86288154Y-101621771D02*
X86636497Y-101621771D01*
X86462325Y-101621771D02*
X86462325Y-101012171D01*
X86520382Y-101099257D01*
X86578440Y-101157314D01*
X86636497Y-101186342D01*
X85765640Y-101215371D02*
X85765640Y-101621771D01*
X85910782Y-100983142D02*
X86055925Y-101418571D01*
X85678554Y-101418571D01*
%TO.C,R13*%
X107696725Y-86381771D02*
X107899925Y-86091485D01*
X108045068Y-86381771D02*
X108045068Y-85772171D01*
X107812840Y-85772171D01*
X107754782Y-85801200D01*
X107725754Y-85830228D01*
X107696725Y-85888285D01*
X107696725Y-85975371D01*
X107725754Y-86033428D01*
X107754782Y-86062457D01*
X107812840Y-86091485D01*
X108045068Y-86091485D01*
X107116154Y-86381771D02*
X107464497Y-86381771D01*
X107290325Y-86381771D02*
X107290325Y-85772171D01*
X107348382Y-85859257D01*
X107406440Y-85917314D01*
X107464497Y-85946342D01*
X106912954Y-85772171D02*
X106535582Y-85772171D01*
X106738782Y-86004400D01*
X106651697Y-86004400D01*
X106593640Y-86033428D01*
X106564611Y-86062457D01*
X106535582Y-86120514D01*
X106535582Y-86265657D01*
X106564611Y-86323714D01*
X106593640Y-86352742D01*
X106651697Y-86381771D01*
X106825868Y-86381771D01*
X106883925Y-86352742D01*
X106912954Y-86323714D01*
%TO.C,Q4*%
D12*
X89661619Y-97170761D02*
X89614000Y-97075523D01*
X89518761Y-96980285D01*
X89375904Y-96837428D01*
X89328285Y-96742190D01*
X89328285Y-96646952D01*
X89566380Y-96694571D02*
X89518761Y-96599333D01*
X89423523Y-96504095D01*
X89233047Y-96456476D01*
X88899714Y-96456476D01*
X88709238Y-96504095D01*
X88614000Y-96599333D01*
X88566380Y-96694571D01*
X88566380Y-96885047D01*
X88614000Y-96980285D01*
X88709238Y-97075523D01*
X88899714Y-97123142D01*
X89233047Y-97123142D01*
X89423523Y-97075523D01*
X89518761Y-96980285D01*
X89566380Y-96885047D01*
X89566380Y-96694571D01*
X88899714Y-97980285D02*
X89566380Y-97980285D01*
X88518761Y-97742190D02*
X89233047Y-97504095D01*
X89233047Y-98123142D01*
%TO.C,F1*%
X76787333Y-93764571D02*
X77120666Y-93764571D01*
X77120666Y-94288380D02*
X77120666Y-93288380D01*
X76644476Y-93288380D01*
X75739714Y-94288380D02*
X76311142Y-94288380D01*
X76025428Y-94288380D02*
X76025428Y-93288380D01*
X76120666Y-93431238D01*
X76215904Y-93526476D01*
X76311142Y-93574095D01*
%TO.C,R9*%
D13*
X82919388Y-115163600D02*
X83209674Y-115366800D01*
X82919388Y-115511942D02*
X83528988Y-115511942D01*
X83528988Y-115279714D01*
X83499960Y-115221657D01*
X83470931Y-115192628D01*
X83412874Y-115163600D01*
X83325788Y-115163600D01*
X83267731Y-115192628D01*
X83238702Y-115221657D01*
X83209674Y-115279714D01*
X83209674Y-115511942D01*
X82919388Y-114873314D02*
X82919388Y-114757200D01*
X82948417Y-114699142D01*
X82977445Y-114670114D01*
X83064531Y-114612057D01*
X83180645Y-114583028D01*
X83412874Y-114583028D01*
X83470931Y-114612057D01*
X83499960Y-114641085D01*
X83528988Y-114699142D01*
X83528988Y-114815257D01*
X83499960Y-114873314D01*
X83470931Y-114902342D01*
X83412874Y-114931371D01*
X83267731Y-114931371D01*
X83209674Y-114902342D01*
X83180645Y-114873314D01*
X83151617Y-114815257D01*
X83151617Y-114699142D01*
X83180645Y-114641085D01*
X83209674Y-114612057D01*
X83267731Y-114583028D01*
%TO.C,C12*%
X76671714Y-77078114D02*
X76700742Y-77049085D01*
X76729771Y-76962000D01*
X76729771Y-76903942D01*
X76700742Y-76816857D01*
X76642685Y-76758800D01*
X76584628Y-76729771D01*
X76468514Y-76700742D01*
X76381428Y-76700742D01*
X76265314Y-76729771D01*
X76207257Y-76758800D01*
X76149200Y-76816857D01*
X76120171Y-76903942D01*
X76120171Y-76962000D01*
X76149200Y-77049085D01*
X76178228Y-77078114D01*
X76729771Y-77658685D02*
X76729771Y-77310342D01*
X76729771Y-77484514D02*
X76120171Y-77484514D01*
X76207257Y-77426457D01*
X76265314Y-77368400D01*
X76294342Y-77310342D01*
X76178228Y-77890914D02*
X76149200Y-77919942D01*
X76120171Y-77978000D01*
X76120171Y-78123142D01*
X76149200Y-78181200D01*
X76178228Y-78210228D01*
X76236285Y-78239257D01*
X76294342Y-78239257D01*
X76381428Y-78210228D01*
X76729771Y-77861885D01*
X76729771Y-78239257D01*
%TO.C,R8*%
X93182440Y-114575771D02*
X93385640Y-114285485D01*
X93530782Y-114575771D02*
X93530782Y-113966171D01*
X93298554Y-113966171D01*
X93240497Y-113995200D01*
X93211468Y-114024228D01*
X93182440Y-114082285D01*
X93182440Y-114169371D01*
X93211468Y-114227428D01*
X93240497Y-114256457D01*
X93298554Y-114285485D01*
X93530782Y-114285485D01*
X92834097Y-114227428D02*
X92892154Y-114198400D01*
X92921182Y-114169371D01*
X92950211Y-114111314D01*
X92950211Y-114082285D01*
X92921182Y-114024228D01*
X92892154Y-113995200D01*
X92834097Y-113966171D01*
X92717982Y-113966171D01*
X92659925Y-113995200D01*
X92630897Y-114024228D01*
X92601868Y-114082285D01*
X92601868Y-114111314D01*
X92630897Y-114169371D01*
X92659925Y-114198400D01*
X92717982Y-114227428D01*
X92834097Y-114227428D01*
X92892154Y-114256457D01*
X92921182Y-114285485D01*
X92950211Y-114343542D01*
X92950211Y-114459657D01*
X92921182Y-114517714D01*
X92892154Y-114546742D01*
X92834097Y-114575771D01*
X92717982Y-114575771D01*
X92659925Y-114546742D01*
X92630897Y-114517714D01*
X92601868Y-114459657D01*
X92601868Y-114343542D01*
X92630897Y-114285485D01*
X92659925Y-114256457D01*
X92717982Y-114227428D01*
%TO.C,C4*%
X102971600Y-130392714D02*
X103000628Y-130421742D01*
X103087714Y-130450771D01*
X103145771Y-130450771D01*
X103232857Y-130421742D01*
X103290914Y-130363685D01*
X103319942Y-130305628D01*
X103348971Y-130189514D01*
X103348971Y-130102428D01*
X103319942Y-129986314D01*
X103290914Y-129928257D01*
X103232857Y-129870200D01*
X103145771Y-129841171D01*
X103087714Y-129841171D01*
X103000628Y-129870200D01*
X102971600Y-129899228D01*
X102449085Y-130044371D02*
X102449085Y-130450771D01*
X102594228Y-129812142D02*
X102739371Y-130247571D01*
X102362000Y-130247571D01*
%TO.C,C6*%
X107405714Y-78638400D02*
X107434742Y-78609371D01*
X107463771Y-78522285D01*
X107463771Y-78464228D01*
X107434742Y-78377142D01*
X107376685Y-78319085D01*
X107318628Y-78290057D01*
X107202514Y-78261028D01*
X107115428Y-78261028D01*
X106999314Y-78290057D01*
X106941257Y-78319085D01*
X106883200Y-78377142D01*
X106854171Y-78464228D01*
X106854171Y-78522285D01*
X106883200Y-78609371D01*
X106912228Y-78638400D01*
X106854171Y-79160914D02*
X106854171Y-79044800D01*
X106883200Y-78986742D01*
X106912228Y-78957714D01*
X106999314Y-78899657D01*
X107115428Y-78870628D01*
X107347657Y-78870628D01*
X107405714Y-78899657D01*
X107434742Y-78928685D01*
X107463771Y-78986742D01*
X107463771Y-79102857D01*
X107434742Y-79160914D01*
X107405714Y-79189942D01*
X107347657Y-79218971D01*
X107202514Y-79218971D01*
X107144457Y-79189942D01*
X107115428Y-79160914D01*
X107086400Y-79102857D01*
X107086400Y-78986742D01*
X107115428Y-78928685D01*
X107144457Y-78899657D01*
X107202514Y-78870628D01*
%TO.C,C7*%
X92165714Y-130454400D02*
X92194742Y-130425371D01*
X92223771Y-130338285D01*
X92223771Y-130280228D01*
X92194742Y-130193142D01*
X92136685Y-130135085D01*
X92078628Y-130106057D01*
X91962514Y-130077028D01*
X91875428Y-130077028D01*
X91759314Y-130106057D01*
X91701257Y-130135085D01*
X91643200Y-130193142D01*
X91614171Y-130280228D01*
X91614171Y-130338285D01*
X91643200Y-130425371D01*
X91672228Y-130454400D01*
X91614171Y-130657600D02*
X91614171Y-131064000D01*
X92223771Y-130802742D01*
%TO.C,C10*%
X128026885Y-110707714D02*
X128055914Y-110736742D01*
X128143000Y-110765771D01*
X128201057Y-110765771D01*
X128288142Y-110736742D01*
X128346200Y-110678685D01*
X128375228Y-110620628D01*
X128404257Y-110504514D01*
X128404257Y-110417428D01*
X128375228Y-110301314D01*
X128346200Y-110243257D01*
X128288142Y-110185200D01*
X128201057Y-110156171D01*
X128143000Y-110156171D01*
X128055914Y-110185200D01*
X128026885Y-110214228D01*
X127446314Y-110765771D02*
X127794657Y-110765771D01*
X127620485Y-110765771D02*
X127620485Y-110156171D01*
X127678542Y-110243257D01*
X127736600Y-110301314D01*
X127794657Y-110330342D01*
X127068942Y-110156171D02*
X127010885Y-110156171D01*
X126952828Y-110185200D01*
X126923800Y-110214228D01*
X126894771Y-110272285D01*
X126865742Y-110388400D01*
X126865742Y-110533542D01*
X126894771Y-110649657D01*
X126923800Y-110707714D01*
X126952828Y-110736742D01*
X127010885Y-110765771D01*
X127068942Y-110765771D01*
X127127000Y-110736742D01*
X127156028Y-110707714D01*
X127185057Y-110649657D01*
X127214085Y-110533542D01*
X127214085Y-110388400D01*
X127185057Y-110272285D01*
X127156028Y-110214228D01*
X127127000Y-110185200D01*
X127068942Y-110156171D01*
%TO.C,D1*%
D12*
X84018095Y-121062380D02*
X84018095Y-120062380D01*
X83780000Y-120062380D01*
X83637142Y-120110000D01*
X83541904Y-120205238D01*
X83494285Y-120300476D01*
X83446666Y-120490952D01*
X83446666Y-120633809D01*
X83494285Y-120824285D01*
X83541904Y-120919523D01*
X83637142Y-121014761D01*
X83780000Y-121062380D01*
X84018095Y-121062380D01*
X82494285Y-121062380D02*
X83065714Y-121062380D01*
X82780000Y-121062380D02*
X82780000Y-120062380D01*
X82875238Y-120205238D01*
X82970476Y-120300476D01*
X83065714Y-120348095D01*
%TO.C,FB1*%
X80700571Y-98226666D02*
X80700571Y-97893333D01*
X81224380Y-97893333D02*
X80224380Y-97893333D01*
X80224380Y-98369523D01*
X80700571Y-99083809D02*
X80748190Y-99226666D01*
X80795809Y-99274285D01*
X80891047Y-99321904D01*
X81033904Y-99321904D01*
X81129142Y-99274285D01*
X81176761Y-99226666D01*
X81224380Y-99131428D01*
X81224380Y-98750476D01*
X80224380Y-98750476D01*
X80224380Y-99083809D01*
X80272000Y-99179047D01*
X80319619Y-99226666D01*
X80414857Y-99274285D01*
X80510095Y-99274285D01*
X80605333Y-99226666D01*
X80652952Y-99179047D01*
X80700571Y-99083809D01*
X80700571Y-98750476D01*
X81224380Y-100274285D02*
X81224380Y-99702857D01*
X81224380Y-99988571D02*
X80224380Y-99988571D01*
X80367238Y-99893333D01*
X80462476Y-99798095D01*
X80510095Y-99702857D01*
%TO.C,Q2*%
X91535238Y-119292619D02*
X91630476Y-119245000D01*
X91725714Y-119149761D01*
X91868571Y-119006904D01*
X91963809Y-118959285D01*
X92059047Y-118959285D01*
X92011428Y-119197380D02*
X92106666Y-119149761D01*
X92201904Y-119054523D01*
X92249523Y-118864047D01*
X92249523Y-118530714D01*
X92201904Y-118340238D01*
X92106666Y-118245000D01*
X92011428Y-118197380D01*
X91820952Y-118197380D01*
X91725714Y-118245000D01*
X91630476Y-118340238D01*
X91582857Y-118530714D01*
X91582857Y-118864047D01*
X91630476Y-119054523D01*
X91725714Y-119149761D01*
X91820952Y-119197380D01*
X92011428Y-119197380D01*
X91201904Y-118292619D02*
X91154285Y-118245000D01*
X91059047Y-118197380D01*
X90820952Y-118197380D01*
X90725714Y-118245000D01*
X90678095Y-118292619D01*
X90630476Y-118387857D01*
X90630476Y-118483095D01*
X90678095Y-118625952D01*
X91249523Y-119197380D01*
X90630476Y-119197380D01*
%TO.C,R17*%
D13*
X107833885Y-89937771D02*
X108037085Y-89647485D01*
X108182228Y-89937771D02*
X108182228Y-89328171D01*
X107950000Y-89328171D01*
X107891942Y-89357200D01*
X107862914Y-89386228D01*
X107833885Y-89444285D01*
X107833885Y-89531371D01*
X107862914Y-89589428D01*
X107891942Y-89618457D01*
X107950000Y-89647485D01*
X108182228Y-89647485D01*
X107253314Y-89937771D02*
X107601657Y-89937771D01*
X107427485Y-89937771D02*
X107427485Y-89328171D01*
X107485542Y-89415257D01*
X107543600Y-89473314D01*
X107601657Y-89502342D01*
X107050114Y-89328171D02*
X106643714Y-89328171D01*
X106904971Y-89937771D01*
%TO.C,R2*%
X94716600Y-132863771D02*
X94919800Y-132573485D01*
X95064942Y-132863771D02*
X95064942Y-132254171D01*
X94832714Y-132254171D01*
X94774657Y-132283200D01*
X94745628Y-132312228D01*
X94716600Y-132370285D01*
X94716600Y-132457371D01*
X94745628Y-132515428D01*
X94774657Y-132544457D01*
X94832714Y-132573485D01*
X95064942Y-132573485D01*
X94484371Y-132312228D02*
X94455342Y-132283200D01*
X94397285Y-132254171D01*
X94252142Y-132254171D01*
X94194085Y-132283200D01*
X94165057Y-132312228D01*
X94136028Y-132370285D01*
X94136028Y-132428342D01*
X94165057Y-132515428D01*
X94513400Y-132863771D01*
X94136028Y-132863771D01*
%TO.C,R4*%
X91969771Y-126898400D02*
X91679485Y-126695200D01*
X91969771Y-126550057D02*
X91360171Y-126550057D01*
X91360171Y-126782285D01*
X91389200Y-126840342D01*
X91418228Y-126869371D01*
X91476285Y-126898400D01*
X91563371Y-126898400D01*
X91621428Y-126869371D01*
X91650457Y-126840342D01*
X91679485Y-126782285D01*
X91679485Y-126550057D01*
X91563371Y-127420914D02*
X91969771Y-127420914D01*
X91331142Y-127275771D02*
X91766571Y-127130628D01*
X91766571Y-127508000D01*
%TO.C,R5*%
X88540771Y-84988400D02*
X88250485Y-84785200D01*
X88540771Y-84640057D02*
X87931171Y-84640057D01*
X87931171Y-84872285D01*
X87960200Y-84930342D01*
X87989228Y-84959371D01*
X88047285Y-84988400D01*
X88134371Y-84988400D01*
X88192428Y-84959371D01*
X88221457Y-84930342D01*
X88250485Y-84872285D01*
X88250485Y-84640057D01*
X87931171Y-85539942D02*
X87931171Y-85249657D01*
X88221457Y-85220628D01*
X88192428Y-85249657D01*
X88163400Y-85307714D01*
X88163400Y-85452857D01*
X88192428Y-85510914D01*
X88221457Y-85539942D01*
X88279514Y-85568971D01*
X88424657Y-85568971D01*
X88482714Y-85539942D01*
X88511742Y-85510914D01*
X88540771Y-85452857D01*
X88540771Y-85307714D01*
X88511742Y-85249657D01*
X88482714Y-85220628D01*
%TO.C,R6*%
X93827600Y-86127771D02*
X94030800Y-85837485D01*
X94175942Y-86127771D02*
X94175942Y-85518171D01*
X93943714Y-85518171D01*
X93885657Y-85547200D01*
X93856628Y-85576228D01*
X93827600Y-85634285D01*
X93827600Y-85721371D01*
X93856628Y-85779428D01*
X93885657Y-85808457D01*
X93943714Y-85837485D01*
X94175942Y-85837485D01*
X93305085Y-85518171D02*
X93421200Y-85518171D01*
X93479257Y-85547200D01*
X93508285Y-85576228D01*
X93566342Y-85663314D01*
X93595371Y-85779428D01*
X93595371Y-86011657D01*
X93566342Y-86069714D01*
X93537314Y-86098742D01*
X93479257Y-86127771D01*
X93363142Y-86127771D01*
X93305085Y-86098742D01*
X93276057Y-86069714D01*
X93247028Y-86011657D01*
X93247028Y-85866514D01*
X93276057Y-85808457D01*
X93305085Y-85779428D01*
X93363142Y-85750400D01*
X93479257Y-85750400D01*
X93537314Y-85779428D01*
X93566342Y-85808457D01*
X93595371Y-85866514D01*
%TO.C,R7*%
X93182440Y-117115771D02*
X93385640Y-116825485D01*
X93530782Y-117115771D02*
X93530782Y-116506171D01*
X93298554Y-116506171D01*
X93240497Y-116535200D01*
X93211468Y-116564228D01*
X93182440Y-116622285D01*
X93182440Y-116709371D01*
X93211468Y-116767428D01*
X93240497Y-116796457D01*
X93298554Y-116825485D01*
X93530782Y-116825485D01*
X92979240Y-116506171D02*
X92572840Y-116506171D01*
X92834097Y-117115771D01*
%TO.C,U1*%
D12*
X102957380Y-112333095D02*
X103766904Y-112333095D01*
X103862142Y-112380714D01*
X103909761Y-112428333D01*
X103957380Y-112523571D01*
X103957380Y-112714047D01*
X103909761Y-112809285D01*
X103862142Y-112856904D01*
X103766904Y-112904523D01*
X102957380Y-112904523D01*
X103957380Y-113904523D02*
X103957380Y-113333095D01*
X103957380Y-113618809D02*
X102957380Y-113618809D01*
X103100238Y-113523571D01*
X103195476Y-113428333D01*
X103243095Y-113333095D01*
%TO.C,U2*%
X102957380Y-123763095D02*
X103766904Y-123763095D01*
X103862142Y-123810714D01*
X103909761Y-123858333D01*
X103957380Y-123953571D01*
X103957380Y-124144047D01*
X103909761Y-124239285D01*
X103862142Y-124286904D01*
X103766904Y-124334523D01*
X102957380Y-124334523D01*
X103052619Y-124763095D02*
X103005000Y-124810714D01*
X102957380Y-124905952D01*
X102957380Y-125144047D01*
X103005000Y-125239285D01*
X103052619Y-125286904D01*
X103147857Y-125334523D01*
X103243095Y-125334523D01*
X103385952Y-125286904D01*
X103957380Y-124715476D01*
X103957380Y-125334523D01*
%TO.C,U3*%
X89915904Y-89622380D02*
X89915904Y-90431904D01*
X89868285Y-90527142D01*
X89820666Y-90574761D01*
X89725428Y-90622380D01*
X89534952Y-90622380D01*
X89439714Y-90574761D01*
X89392095Y-90527142D01*
X89344476Y-90431904D01*
X89344476Y-89622380D01*
X88963523Y-89622380D02*
X88344476Y-89622380D01*
X88677809Y-90003333D01*
X88534952Y-90003333D01*
X88439714Y-90050952D01*
X88392095Y-90098571D01*
X88344476Y-90193809D01*
X88344476Y-90431904D01*
X88392095Y-90527142D01*
X88439714Y-90574761D01*
X88534952Y-90622380D01*
X88820666Y-90622380D01*
X88915904Y-90574761D01*
X88963523Y-90527142D01*
%TD*%
M02*
