%TF.GenerationSoftware,KiCad,Pcbnew,5.1.9+dfsg1-1*%
%TF.CreationDate,2021-08-27T09:59:16+02:00*%
%TF.ProjectId,ws2812b_ctrl_RF,77733238-3132-4625-9f63-74726c5f5246,rev?*%
%TF.SameCoordinates,Original*%
%TF.FileFunction,Soldermask,Bot*%
%TF.FilePolarity,Negative*%
%FSLAX46Y46*%
G04 Gerber Fmt 4.6, Leading zero omitted, Abs format (unit mm)*
G04 Created by KiCad (PCBNEW 5.1.9+dfsg1-1) date 2021-08-27 09:59:16*
%MOMM*%
%LPD*%
G01*
G04 APERTURE LIST*
%ADD10C,2.000000*%
%ADD11C,2.082800*%
%ADD12C,1.700000*%
%ADD13R,1.700000X3.300000*%
%ADD14O,1.700000X1.950000*%
%ADD15O,1.950000X1.700000*%
%ADD16R,0.800000X0.900000*%
%ADD17C,3.600000*%
%ADD18C,5.700000*%
%ADD19C,3.000000*%
%ADD20R,3.000000X3.000000*%
%ADD21R,2.500000X1.800000*%
%ADD22C,2.500000*%
%ADD23R,1.524000X1.524000*%
%ADD24C,1.524000*%
%ADD25R,0.900000X0.800000*%
%ADD26R,3.800000X2.000000*%
%ADD27R,1.500000X2.000000*%
G04 APERTURE END LIST*
D10*
%TO.C,J3*%
X97028000Y-128778000D03*
%TD*%
D11*
%TO.C,B1*%
X111760000Y-74930000D03*
X111760000Y-77470000D03*
X111760000Y-80010000D03*
X111760000Y-82550000D03*
X111760000Y-85090000D03*
X111760000Y-87630000D03*
X111760000Y-90170000D03*
X111760000Y-92710000D03*
X111760000Y-95250000D03*
X111760000Y-97790000D03*
X111760000Y-100330000D03*
X111760000Y-102870000D03*
X96520000Y-102870000D03*
X96520000Y-100330000D03*
X96520000Y-97790000D03*
X96520000Y-95250000D03*
X96520000Y-92710000D03*
X96520000Y-90170000D03*
X96520000Y-87630000D03*
X96520000Y-85090000D03*
X96520000Y-82550000D03*
X96520000Y-80010000D03*
X96520000Y-77470000D03*
X96520000Y-74930000D03*
%TD*%
%TO.C,ISP1*%
G36*
G01*
X127088000Y-90078000D02*
X127088000Y-91278000D01*
G75*
G02*
X126838000Y-91528000I-250000J0D01*
G01*
X125638000Y-91528000D01*
G75*
G02*
X125388000Y-91278000I0J250000D01*
G01*
X125388000Y-90078000D01*
G75*
G02*
X125638000Y-89828000I250000J0D01*
G01*
X126838000Y-89828000D01*
G75*
G02*
X127088000Y-90078000I0J-250000D01*
G01*
G37*
D12*
X126238000Y-88138000D03*
X126238000Y-85598000D03*
X123698000Y-90678000D03*
X123698000Y-88138000D03*
X123698000Y-85598000D03*
%TD*%
%TO.C,C8*%
G36*
G01*
X84215000Y-81117000D02*
X84215000Y-82967000D01*
G75*
G02*
X83965000Y-83217000I-250000J0D01*
G01*
X82965000Y-83217000D01*
G75*
G02*
X82715000Y-82967000I0J250000D01*
G01*
X82715000Y-81117000D01*
G75*
G02*
X82965000Y-80867000I250000J0D01*
G01*
X83965000Y-80867000D01*
G75*
G02*
X84215000Y-81117000I0J-250000D01*
G01*
G37*
G36*
G01*
X87465000Y-81117000D02*
X87465000Y-82967000D01*
G75*
G02*
X87215000Y-83217000I-250000J0D01*
G01*
X86215000Y-83217000D01*
G75*
G02*
X85965000Y-82967000I0J250000D01*
G01*
X85965000Y-81117000D01*
G75*
G02*
X86215000Y-80867000I250000J0D01*
G01*
X87215000Y-80867000D01*
G75*
G02*
X87465000Y-81117000I0J-250000D01*
G01*
G37*
%TD*%
%TO.C,C11*%
G36*
G01*
X94397000Y-91682000D02*
X92547000Y-91682000D01*
G75*
G02*
X92297000Y-91432000I0J250000D01*
G01*
X92297000Y-90432000D01*
G75*
G02*
X92547000Y-90182000I250000J0D01*
G01*
X94397000Y-90182000D01*
G75*
G02*
X94647000Y-90432000I0J-250000D01*
G01*
X94647000Y-91432000D01*
G75*
G02*
X94397000Y-91682000I-250000J0D01*
G01*
G37*
G36*
G01*
X94397000Y-94932000D02*
X92547000Y-94932000D01*
G75*
G02*
X92297000Y-94682000I0J250000D01*
G01*
X92297000Y-93682000D01*
G75*
G02*
X92547000Y-93432000I250000J0D01*
G01*
X94397000Y-93432000D01*
G75*
G02*
X94647000Y-93682000I0J-250000D01*
G01*
X94647000Y-94682000D01*
G75*
G02*
X94397000Y-94932000I-250000J0D01*
G01*
G37*
%TD*%
%TO.C,C9*%
G36*
G01*
X90007000Y-81494000D02*
X91857000Y-81494000D01*
G75*
G02*
X92107000Y-81744000I0J-250000D01*
G01*
X92107000Y-82744000D01*
G75*
G02*
X91857000Y-82994000I-250000J0D01*
G01*
X90007000Y-82994000D01*
G75*
G02*
X89757000Y-82744000I0J250000D01*
G01*
X89757000Y-81744000D01*
G75*
G02*
X90007000Y-81494000I250000J0D01*
G01*
G37*
G36*
G01*
X90007000Y-78244000D02*
X91857000Y-78244000D01*
G75*
G02*
X92107000Y-78494000I0J-250000D01*
G01*
X92107000Y-79494000D01*
G75*
G02*
X91857000Y-79744000I-250000J0D01*
G01*
X90007000Y-79744000D01*
G75*
G02*
X89757000Y-79494000I0J250000D01*
G01*
X89757000Y-78494000D01*
G75*
G02*
X90007000Y-78244000I250000J0D01*
G01*
G37*
%TD*%
D13*
%TO.C,D2*%
X81788000Y-88138000D03*
X81788000Y-93638000D03*
%TD*%
%TO.C,C5*%
G36*
G01*
X80631000Y-82967000D02*
X80631000Y-81117000D01*
G75*
G02*
X80881000Y-80867000I250000J0D01*
G01*
X81881000Y-80867000D01*
G75*
G02*
X82131000Y-81117000I0J-250000D01*
G01*
X82131000Y-82967000D01*
G75*
G02*
X81881000Y-83217000I-250000J0D01*
G01*
X80881000Y-83217000D01*
G75*
G02*
X80631000Y-82967000I0J250000D01*
G01*
G37*
G36*
G01*
X77381000Y-82967000D02*
X77381000Y-81117000D01*
G75*
G02*
X77631000Y-80867000I250000J0D01*
G01*
X78631000Y-80867000D01*
G75*
G02*
X78881000Y-81117000I0J-250000D01*
G01*
X78881000Y-82967000D01*
G75*
G02*
X78631000Y-83217000I-250000J0D01*
G01*
X77631000Y-83217000D01*
G75*
G02*
X77381000Y-82967000I0J250000D01*
G01*
G37*
%TD*%
%TO.C,J2*%
G36*
G01*
X125564000Y-73189000D02*
X125564000Y-74639000D01*
G75*
G02*
X125314000Y-74889000I-250000J0D01*
G01*
X124114000Y-74889000D01*
G75*
G02*
X123864000Y-74639000I0J250000D01*
G01*
X123864000Y-73189000D01*
G75*
G02*
X124114000Y-72939000I250000J0D01*
G01*
X125314000Y-72939000D01*
G75*
G02*
X125564000Y-73189000I0J-250000D01*
G01*
G37*
D14*
X122214000Y-73914000D03*
X119714000Y-73914000D03*
X117214000Y-73914000D03*
%TD*%
%TO.C,J1*%
G36*
G01*
X73189000Y-80938000D02*
X74639000Y-80938000D01*
G75*
G02*
X74889000Y-81188000I0J-250000D01*
G01*
X74889000Y-82388000D01*
G75*
G02*
X74639000Y-82638000I-250000J0D01*
G01*
X73189000Y-82638000D01*
G75*
G02*
X72939000Y-82388000I0J250000D01*
G01*
X72939000Y-81188000D01*
G75*
G02*
X73189000Y-80938000I250000J0D01*
G01*
G37*
D15*
X73914000Y-84288000D03*
X73914000Y-86788000D03*
%TD*%
D11*
%TO.C,RS485*%
X80518000Y-74422000D03*
X83058000Y-74422000D03*
X85598000Y-74422000D03*
X88138000Y-74422000D03*
%TD*%
%TO.C,R16*%
G36*
G01*
X91198700Y-99476560D02*
X91198700Y-100675440D01*
G75*
G02*
X91097100Y-100777040I-101600J0D01*
G01*
X90299540Y-100777040D01*
G75*
G02*
X90197940Y-100675440I0J101600D01*
G01*
X90197940Y-99476560D01*
G75*
G02*
X90299540Y-99374960I101600J0D01*
G01*
X91097100Y-99374960D01*
G75*
G02*
X91198700Y-99476560I0J-101600D01*
G01*
G37*
G36*
G01*
X89400380Y-99476560D02*
X89400380Y-100675440D01*
G75*
G02*
X89298780Y-100777040I-101600J0D01*
G01*
X88501220Y-100777040D01*
G75*
G02*
X88399620Y-100675440I0J101600D01*
G01*
X88399620Y-99476560D01*
G75*
G02*
X88501220Y-99374960I101600J0D01*
G01*
X89298780Y-99374960D01*
G75*
G02*
X89400380Y-99476560I0J-101600D01*
G01*
G37*
%TD*%
%TO.C,R14*%
G36*
G01*
X86078060Y-99476560D02*
X86078060Y-100675440D01*
G75*
G02*
X85976460Y-100777040I-101600J0D01*
G01*
X85178900Y-100777040D01*
G75*
G02*
X85077300Y-100675440I0J101600D01*
G01*
X85077300Y-99476560D01*
G75*
G02*
X85178900Y-99374960I101600J0D01*
G01*
X85976460Y-99374960D01*
G75*
G02*
X86078060Y-99476560I0J-101600D01*
G01*
G37*
G36*
G01*
X87876380Y-99476560D02*
X87876380Y-100675440D01*
G75*
G02*
X87774780Y-100777040I-101600J0D01*
G01*
X86977220Y-100777040D01*
G75*
G02*
X86875620Y-100675440I0J101600D01*
G01*
X86875620Y-99476560D01*
G75*
G02*
X86977220Y-99374960I101600J0D01*
G01*
X87774780Y-99374960D01*
G75*
G02*
X87876380Y-99476560I0J-101600D01*
G01*
G37*
%TD*%
%TO.C,R13*%
G36*
G01*
X107703620Y-85435440D02*
X107703620Y-84236560D01*
G75*
G02*
X107805220Y-84134960I101600J0D01*
G01*
X108602780Y-84134960D01*
G75*
G02*
X108704380Y-84236560I0J-101600D01*
G01*
X108704380Y-85435440D01*
G75*
G02*
X108602780Y-85537040I-101600J0D01*
G01*
X107805220Y-85537040D01*
G75*
G02*
X107703620Y-85435440I0J101600D01*
G01*
G37*
G36*
G01*
X105905300Y-85435440D02*
X105905300Y-84236560D01*
G75*
G02*
X106006900Y-84134960I101600J0D01*
G01*
X106804460Y-84134960D01*
G75*
G02*
X106906060Y-84236560I0J-101600D01*
G01*
X106906060Y-85435440D01*
G75*
G02*
X106804460Y-85537040I-101600J0D01*
G01*
X106006900Y-85537040D01*
G75*
G02*
X105905300Y-85435440I0J101600D01*
G01*
G37*
%TD*%
D16*
%TO.C,Q4*%
X86614000Y-96266000D03*
X85664000Y-98266000D03*
X87564000Y-98266000D03*
%TD*%
%TO.C,F1*%
G36*
G01*
X78029000Y-92636000D02*
X78029000Y-89736000D01*
G75*
G02*
X78279000Y-89486000I250000J0D01*
G01*
X79079000Y-89486000D01*
G75*
G02*
X79329000Y-89736000I0J-250000D01*
G01*
X79329000Y-92636000D01*
G75*
G02*
X79079000Y-92886000I-250000J0D01*
G01*
X78279000Y-92886000D01*
G75*
G02*
X78029000Y-92636000I0J250000D01*
G01*
G37*
G36*
G01*
X73579000Y-92636000D02*
X73579000Y-89736000D01*
G75*
G02*
X73829000Y-89486000I250000J0D01*
G01*
X74629000Y-89486000D01*
G75*
G02*
X74879000Y-89736000I0J-250000D01*
G01*
X74879000Y-92636000D01*
G75*
G02*
X74629000Y-92886000I-250000J0D01*
G01*
X73829000Y-92886000D01*
G75*
G02*
X73579000Y-92636000I0J250000D01*
G01*
G37*
%TD*%
%TO.C,R9*%
G36*
G01*
X85625940Y-115661440D02*
X85625940Y-114462560D01*
G75*
G02*
X85727540Y-114360960I101600J0D01*
G01*
X86525100Y-114360960D01*
G75*
G02*
X86626700Y-114462560I0J-101600D01*
G01*
X86626700Y-115661440D01*
G75*
G02*
X86525100Y-115763040I-101600J0D01*
G01*
X85727540Y-115763040D01*
G75*
G02*
X85625940Y-115661440I0J101600D01*
G01*
G37*
G36*
G01*
X83827620Y-115661440D02*
X83827620Y-114462560D01*
G75*
G02*
X83929220Y-114360960I101600J0D01*
G01*
X84726780Y-114360960D01*
G75*
G02*
X84828380Y-114462560I0J-101600D01*
G01*
X84828380Y-115661440D01*
G75*
G02*
X84726780Y-115763040I-101600J0D01*
G01*
X83929220Y-115763040D01*
G75*
G02*
X83827620Y-115661440I0J101600D01*
G01*
G37*
%TD*%
D17*
%TO.C,H4*%
X73479000Y-131479000D03*
D18*
X73479000Y-131479000D03*
%TD*%
D17*
%TO.C,H3*%
X131479000Y-131479000D03*
D18*
X131479000Y-131479000D03*
%TD*%
D17*
%TO.C,H2*%
X131479000Y-73479000D03*
D18*
X131479000Y-73479000D03*
%TD*%
D17*
%TO.C,H1*%
X73479000Y-73479000D03*
D18*
X73479000Y-73479000D03*
%TD*%
D19*
%TO.C,WS2812B1*%
X81280000Y-129540000D03*
D20*
X86360000Y-129540000D03*
%TD*%
%TO.C,C12*%
G36*
G01*
X79876650Y-78877160D02*
X79876650Y-77078840D01*
G75*
G02*
X79978250Y-76977240I101600J0D01*
G01*
X81575910Y-76977240D01*
G75*
G02*
X81677510Y-77078840I0J-101600D01*
G01*
X81677510Y-78877160D01*
G75*
G02*
X81575910Y-78978760I-101600J0D01*
G01*
X79978250Y-78978760D01*
G75*
G02*
X79876650Y-78877160I0J101600D01*
G01*
G37*
G36*
G01*
X77077570Y-78877160D02*
X77077570Y-77078840D01*
G75*
G02*
X77179170Y-76977240I101600J0D01*
G01*
X78776830Y-76977240D01*
G75*
G02*
X78878430Y-77078840I0J-101600D01*
G01*
X78878430Y-78877160D01*
G75*
G02*
X78776830Y-78978760I-101600J0D01*
G01*
X77179170Y-78978760D01*
G75*
G02*
X77077570Y-78877160I0J101600D01*
G01*
G37*
%TD*%
D19*
%TO.C,SUPPLY1*%
X74168000Y-95504000D03*
D20*
X74168000Y-100584000D03*
%TD*%
%TO.C,R8*%
G36*
G01*
X91681300Y-113629440D02*
X91681300Y-112430560D01*
G75*
G02*
X91782900Y-112328960I101600J0D01*
G01*
X92580460Y-112328960D01*
G75*
G02*
X92682060Y-112430560I0J-101600D01*
G01*
X92682060Y-113629440D01*
G75*
G02*
X92580460Y-113731040I-101600J0D01*
G01*
X91782900Y-113731040D01*
G75*
G02*
X91681300Y-113629440I0J101600D01*
G01*
G37*
G36*
G01*
X93479620Y-113629440D02*
X93479620Y-112430560D01*
G75*
G02*
X93581220Y-112328960I101600J0D01*
G01*
X94378780Y-112328960D01*
G75*
G02*
X94480380Y-112430560I0J-101600D01*
G01*
X94480380Y-113629440D01*
G75*
G02*
X94378780Y-113731040I-101600J0D01*
G01*
X93581220Y-113731040D01*
G75*
G02*
X93479620Y-113629440I0J101600D01*
G01*
G37*
%TD*%
%TO.C,C4*%
G36*
G01*
X100065840Y-128898650D02*
X101864160Y-128898650D01*
G75*
G02*
X101965760Y-129000250I0J-101600D01*
G01*
X101965760Y-130597910D01*
G75*
G02*
X101864160Y-130699510I-101600J0D01*
G01*
X100065840Y-130699510D01*
G75*
G02*
X99964240Y-130597910I0J101600D01*
G01*
X99964240Y-129000250D01*
G75*
G02*
X100065840Y-128898650I101600J0D01*
G01*
G37*
G36*
G01*
X100065840Y-126099570D02*
X101864160Y-126099570D01*
G75*
G02*
X101965760Y-126201170I0J-101600D01*
G01*
X101965760Y-127798830D01*
G75*
G02*
X101864160Y-127900430I-101600J0D01*
G01*
X100065840Y-127900430D01*
G75*
G02*
X99964240Y-127798830I0J101600D01*
G01*
X99964240Y-126201170D01*
G75*
G02*
X100065840Y-126099570I101600J0D01*
G01*
G37*
%TD*%
%TO.C,C6*%
G36*
G01*
X106309160Y-82309970D02*
X104510840Y-82309970D01*
G75*
G02*
X104409240Y-82208370I0J101600D01*
G01*
X104409240Y-80610710D01*
G75*
G02*
X104510840Y-80509110I101600J0D01*
G01*
X106309160Y-80509110D01*
G75*
G02*
X106410760Y-80610710I0J-101600D01*
G01*
X106410760Y-82208370D01*
G75*
G02*
X106309160Y-82309970I-101600J0D01*
G01*
G37*
G36*
G01*
X106309160Y-79510890D02*
X104510840Y-79510890D01*
G75*
G02*
X104409240Y-79409290I0J101600D01*
G01*
X104409240Y-77811630D01*
G75*
G02*
X104510840Y-77710030I101600J0D01*
G01*
X106309160Y-77710030D01*
G75*
G02*
X106410760Y-77811630I0J-101600D01*
G01*
X106410760Y-79409290D01*
G75*
G02*
X106309160Y-79510890I-101600J0D01*
G01*
G37*
%TD*%
%TO.C,C7*%
G36*
G01*
X91069160Y-130440430D02*
X89270840Y-130440430D01*
G75*
G02*
X89169240Y-130338830I0J101600D01*
G01*
X89169240Y-128741170D01*
G75*
G02*
X89270840Y-128639570I101600J0D01*
G01*
X91069160Y-128639570D01*
G75*
G02*
X91170760Y-128741170I0J-101600D01*
G01*
X91170760Y-130338830D01*
G75*
G02*
X91069160Y-130440430I-101600J0D01*
G01*
G37*
G36*
G01*
X91069160Y-133239510D02*
X89270840Y-133239510D01*
G75*
G02*
X89169240Y-133137910I0J101600D01*
G01*
X89169240Y-131540250D01*
G75*
G02*
X89270840Y-131438650I101600J0D01*
G01*
X91069160Y-131438650D01*
G75*
G02*
X91170760Y-131540250I0J-101600D01*
G01*
X91170760Y-133137910D01*
G75*
G02*
X91069160Y-133239510I-101600J0D01*
G01*
G37*
%TD*%
%TO.C,C10*%
G36*
G01*
X126735840Y-105015030D02*
X128534160Y-105015030D01*
G75*
G02*
X128635760Y-105116630I0J-101600D01*
G01*
X128635760Y-106714290D01*
G75*
G02*
X128534160Y-106815890I-101600J0D01*
G01*
X126735840Y-106815890D01*
G75*
G02*
X126634240Y-106714290I0J101600D01*
G01*
X126634240Y-105116630D01*
G75*
G02*
X126735840Y-105015030I101600J0D01*
G01*
G37*
G36*
G01*
X126735840Y-107814110D02*
X128534160Y-107814110D01*
G75*
G02*
X128635760Y-107915710I0J-101600D01*
G01*
X128635760Y-109513370D01*
G75*
G02*
X128534160Y-109614970I-101600J0D01*
G01*
X126735840Y-109614970D01*
G75*
G02*
X126634240Y-109513370I0J101600D01*
G01*
X126634240Y-107915710D01*
G75*
G02*
X126735840Y-107814110I101600J0D01*
G01*
G37*
%TD*%
D21*
%TO.C,D1*%
X81280000Y-118110000D03*
X85280000Y-118110000D03*
%TD*%
%TO.C,FB1*%
G36*
G01*
X81983000Y-99197000D02*
X84133000Y-99197000D01*
G75*
G02*
X84383000Y-99447000I0J-250000D01*
G01*
X84383000Y-100197000D01*
G75*
G02*
X84133000Y-100447000I-250000J0D01*
G01*
X81983000Y-100447000D01*
G75*
G02*
X81733000Y-100197000I0J250000D01*
G01*
X81733000Y-99447000D01*
G75*
G02*
X81983000Y-99197000I250000J0D01*
G01*
G37*
G36*
G01*
X81983000Y-96397000D02*
X84133000Y-96397000D01*
G75*
G02*
X84383000Y-96647000I0J-250000D01*
G01*
X84383000Y-97397000D01*
G75*
G02*
X84133000Y-97647000I-250000J0D01*
G01*
X81983000Y-97647000D01*
G75*
G02*
X81733000Y-97397000I0J250000D01*
G01*
X81733000Y-96647000D01*
G75*
G02*
X81983000Y-96397000I250000J0D01*
G01*
G37*
%TD*%
D22*
%TO.C,K1*%
X92410000Y-121240000D03*
D19*
X92410000Y-109040000D03*
X80360000Y-108990000D03*
D22*
X80410000Y-121240000D03*
D19*
X86360000Y-123190000D03*
%TD*%
D23*
%TO.C,nRF24L1*%
X127635000Y-100330000D03*
D24*
X127635000Y-102870000D03*
X125095000Y-100330000D03*
X125095000Y-102870000D03*
X122555000Y-100330000D03*
X122555000Y-102870000D03*
X120015000Y-100330000D03*
X120015000Y-102870000D03*
%TD*%
D25*
%TO.C,Q2*%
X89630000Y-115890000D03*
X89630000Y-117790000D03*
X87630000Y-116840000D03*
%TD*%
%TO.C,R17*%
G36*
G01*
X107703620Y-88737440D02*
X107703620Y-87538560D01*
G75*
G02*
X107805220Y-87436960I101600J0D01*
G01*
X108602780Y-87436960D01*
G75*
G02*
X108704380Y-87538560I0J-101600D01*
G01*
X108704380Y-88737440D01*
G75*
G02*
X108602780Y-88839040I-101600J0D01*
G01*
X107805220Y-88839040D01*
G75*
G02*
X107703620Y-88737440I0J101600D01*
G01*
G37*
G36*
G01*
X105905300Y-88737440D02*
X105905300Y-87538560D01*
G75*
G02*
X106006900Y-87436960I101600J0D01*
G01*
X106804460Y-87436960D01*
G75*
G02*
X106906060Y-87538560I0J-101600D01*
G01*
X106906060Y-88737440D01*
G75*
G02*
X106804460Y-88839040I-101600J0D01*
G01*
X106006900Y-88839040D01*
G75*
G02*
X105905300Y-88737440I0J101600D01*
G01*
G37*
%TD*%
%TO.C,R2*%
G36*
G01*
X94015560Y-129146300D02*
X95214440Y-129146300D01*
G75*
G02*
X95316040Y-129247900I0J-101600D01*
G01*
X95316040Y-130045460D01*
G75*
G02*
X95214440Y-130147060I-101600J0D01*
G01*
X94015560Y-130147060D01*
G75*
G02*
X93913960Y-130045460I0J101600D01*
G01*
X93913960Y-129247900D01*
G75*
G02*
X94015560Y-129146300I101600J0D01*
G01*
G37*
G36*
G01*
X94015560Y-130944620D02*
X95214440Y-130944620D01*
G75*
G02*
X95316040Y-131046220I0J-101600D01*
G01*
X95316040Y-131843780D01*
G75*
G02*
X95214440Y-131945380I-101600J0D01*
G01*
X94015560Y-131945380D01*
G75*
G02*
X93913960Y-131843780I0J101600D01*
G01*
X93913960Y-131046220D01*
G75*
G02*
X94015560Y-130944620I101600J0D01*
G01*
G37*
%TD*%
%TO.C,R4*%
G36*
G01*
X90769440Y-126601220D02*
X89570560Y-126601220D01*
G75*
G02*
X89468960Y-126499620I0J101600D01*
G01*
X89468960Y-125702060D01*
G75*
G02*
X89570560Y-125600460I101600J0D01*
G01*
X90769440Y-125600460D01*
G75*
G02*
X90871040Y-125702060I0J-101600D01*
G01*
X90871040Y-126499620D01*
G75*
G02*
X90769440Y-126601220I-101600J0D01*
G01*
G37*
G36*
G01*
X90769440Y-128399540D02*
X89570560Y-128399540D01*
G75*
G02*
X89468960Y-128297940I0J101600D01*
G01*
X89468960Y-127500380D01*
G75*
G02*
X89570560Y-127398780I101600J0D01*
G01*
X90769440Y-127398780D01*
G75*
G02*
X90871040Y-127500380I0J-101600D01*
G01*
X90871040Y-128297940D01*
G75*
G02*
X90769440Y-128399540I-101600J0D01*
G01*
G37*
%TD*%
%TO.C,R5*%
G36*
G01*
X90568780Y-85689440D02*
X90568780Y-84490560D01*
G75*
G02*
X90670380Y-84388960I101600J0D01*
G01*
X91467940Y-84388960D01*
G75*
G02*
X91569540Y-84490560I0J-101600D01*
G01*
X91569540Y-85689440D01*
G75*
G02*
X91467940Y-85791040I-101600J0D01*
G01*
X90670380Y-85791040D01*
G75*
G02*
X90568780Y-85689440I0J101600D01*
G01*
G37*
G36*
G01*
X88770460Y-85689440D02*
X88770460Y-84490560D01*
G75*
G02*
X88872060Y-84388960I101600J0D01*
G01*
X89669620Y-84388960D01*
G75*
G02*
X89771220Y-84490560I0J-101600D01*
G01*
X89771220Y-85689440D01*
G75*
G02*
X89669620Y-85791040I-101600J0D01*
G01*
X88872060Y-85791040D01*
G75*
G02*
X88770460Y-85689440I0J101600D01*
G01*
G37*
%TD*%
%TO.C,R6*%
G36*
G01*
X92209620Y-85054440D02*
X92209620Y-83855560D01*
G75*
G02*
X92311220Y-83753960I101600J0D01*
G01*
X93108780Y-83753960D01*
G75*
G02*
X93210380Y-83855560I0J-101600D01*
G01*
X93210380Y-85054440D01*
G75*
G02*
X93108780Y-85156040I-101600J0D01*
G01*
X92311220Y-85156040D01*
G75*
G02*
X92209620Y-85054440I0J101600D01*
G01*
G37*
G36*
G01*
X94007940Y-85054440D02*
X94007940Y-83855560D01*
G75*
G02*
X94109540Y-83753960I101600J0D01*
G01*
X94907100Y-83753960D01*
G75*
G02*
X95008700Y-83855560I0J-101600D01*
G01*
X95008700Y-85054440D01*
G75*
G02*
X94907100Y-85156040I-101600J0D01*
G01*
X94109540Y-85156040D01*
G75*
G02*
X94007940Y-85054440I0J101600D01*
G01*
G37*
%TD*%
%TO.C,R7*%
G36*
G01*
X91681300Y-116169440D02*
X91681300Y-114970560D01*
G75*
G02*
X91782900Y-114868960I101600J0D01*
G01*
X92580460Y-114868960D01*
G75*
G02*
X92682060Y-114970560I0J-101600D01*
G01*
X92682060Y-116169440D01*
G75*
G02*
X92580460Y-116271040I-101600J0D01*
G01*
X91782900Y-116271040D01*
G75*
G02*
X91681300Y-116169440I0J101600D01*
G01*
G37*
G36*
G01*
X93479620Y-116169440D02*
X93479620Y-114970560D01*
G75*
G02*
X93581220Y-114868960I101600J0D01*
G01*
X94378780Y-114868960D01*
G75*
G02*
X94480380Y-114970560I0J-101600D01*
G01*
X94480380Y-116169440D01*
G75*
G02*
X94378780Y-116271040I-101600J0D01*
G01*
X93581220Y-116271040D01*
G75*
G02*
X93479620Y-116169440I0J101600D01*
G01*
G37*
%TD*%
%TO.C,U1*%
G36*
G01*
X103355000Y-109645000D02*
X103655000Y-109645000D01*
G75*
G02*
X103805000Y-109795000I0J-150000D01*
G01*
X103805000Y-111445000D01*
G75*
G02*
X103655000Y-111595000I-150000J0D01*
G01*
X103355000Y-111595000D01*
G75*
G02*
X103205000Y-111445000I0J150000D01*
G01*
X103205000Y-109795000D01*
G75*
G02*
X103355000Y-109645000I150000J0D01*
G01*
G37*
G36*
G01*
X104625000Y-109645000D02*
X104925000Y-109645000D01*
G75*
G02*
X105075000Y-109795000I0J-150000D01*
G01*
X105075000Y-111445000D01*
G75*
G02*
X104925000Y-111595000I-150000J0D01*
G01*
X104625000Y-111595000D01*
G75*
G02*
X104475000Y-111445000I0J150000D01*
G01*
X104475000Y-109795000D01*
G75*
G02*
X104625000Y-109645000I150000J0D01*
G01*
G37*
G36*
G01*
X105895000Y-109645000D02*
X106195000Y-109645000D01*
G75*
G02*
X106345000Y-109795000I0J-150000D01*
G01*
X106345000Y-111445000D01*
G75*
G02*
X106195000Y-111595000I-150000J0D01*
G01*
X105895000Y-111595000D01*
G75*
G02*
X105745000Y-111445000I0J150000D01*
G01*
X105745000Y-109795000D01*
G75*
G02*
X105895000Y-109645000I150000J0D01*
G01*
G37*
G36*
G01*
X107165000Y-109645000D02*
X107465000Y-109645000D01*
G75*
G02*
X107615000Y-109795000I0J-150000D01*
G01*
X107615000Y-111445000D01*
G75*
G02*
X107465000Y-111595000I-150000J0D01*
G01*
X107165000Y-111595000D01*
G75*
G02*
X107015000Y-111445000I0J150000D01*
G01*
X107015000Y-109795000D01*
G75*
G02*
X107165000Y-109645000I150000J0D01*
G01*
G37*
G36*
G01*
X108435000Y-109645000D02*
X108735000Y-109645000D01*
G75*
G02*
X108885000Y-109795000I0J-150000D01*
G01*
X108885000Y-111445000D01*
G75*
G02*
X108735000Y-111595000I-150000J0D01*
G01*
X108435000Y-111595000D01*
G75*
G02*
X108285000Y-111445000I0J150000D01*
G01*
X108285000Y-109795000D01*
G75*
G02*
X108435000Y-109645000I150000J0D01*
G01*
G37*
G36*
G01*
X109705000Y-109645000D02*
X110005000Y-109645000D01*
G75*
G02*
X110155000Y-109795000I0J-150000D01*
G01*
X110155000Y-111445000D01*
G75*
G02*
X110005000Y-111595000I-150000J0D01*
G01*
X109705000Y-111595000D01*
G75*
G02*
X109555000Y-111445000I0J150000D01*
G01*
X109555000Y-109795000D01*
G75*
G02*
X109705000Y-109645000I150000J0D01*
G01*
G37*
G36*
G01*
X110975000Y-109645000D02*
X111275000Y-109645000D01*
G75*
G02*
X111425000Y-109795000I0J-150000D01*
G01*
X111425000Y-111445000D01*
G75*
G02*
X111275000Y-111595000I-150000J0D01*
G01*
X110975000Y-111595000D01*
G75*
G02*
X110825000Y-111445000I0J150000D01*
G01*
X110825000Y-109795000D01*
G75*
G02*
X110975000Y-109645000I150000J0D01*
G01*
G37*
G36*
G01*
X110975000Y-114595000D02*
X111275000Y-114595000D01*
G75*
G02*
X111425000Y-114745000I0J-150000D01*
G01*
X111425000Y-116395000D01*
G75*
G02*
X111275000Y-116545000I-150000J0D01*
G01*
X110975000Y-116545000D01*
G75*
G02*
X110825000Y-116395000I0J150000D01*
G01*
X110825000Y-114745000D01*
G75*
G02*
X110975000Y-114595000I150000J0D01*
G01*
G37*
G36*
G01*
X109705000Y-114595000D02*
X110005000Y-114595000D01*
G75*
G02*
X110155000Y-114745000I0J-150000D01*
G01*
X110155000Y-116395000D01*
G75*
G02*
X110005000Y-116545000I-150000J0D01*
G01*
X109705000Y-116545000D01*
G75*
G02*
X109555000Y-116395000I0J150000D01*
G01*
X109555000Y-114745000D01*
G75*
G02*
X109705000Y-114595000I150000J0D01*
G01*
G37*
G36*
G01*
X108435000Y-114595000D02*
X108735000Y-114595000D01*
G75*
G02*
X108885000Y-114745000I0J-150000D01*
G01*
X108885000Y-116395000D01*
G75*
G02*
X108735000Y-116545000I-150000J0D01*
G01*
X108435000Y-116545000D01*
G75*
G02*
X108285000Y-116395000I0J150000D01*
G01*
X108285000Y-114745000D01*
G75*
G02*
X108435000Y-114595000I150000J0D01*
G01*
G37*
G36*
G01*
X107165000Y-114595000D02*
X107465000Y-114595000D01*
G75*
G02*
X107615000Y-114745000I0J-150000D01*
G01*
X107615000Y-116395000D01*
G75*
G02*
X107465000Y-116545000I-150000J0D01*
G01*
X107165000Y-116545000D01*
G75*
G02*
X107015000Y-116395000I0J150000D01*
G01*
X107015000Y-114745000D01*
G75*
G02*
X107165000Y-114595000I150000J0D01*
G01*
G37*
G36*
G01*
X105895000Y-114595000D02*
X106195000Y-114595000D01*
G75*
G02*
X106345000Y-114745000I0J-150000D01*
G01*
X106345000Y-116395000D01*
G75*
G02*
X106195000Y-116545000I-150000J0D01*
G01*
X105895000Y-116545000D01*
G75*
G02*
X105745000Y-116395000I0J150000D01*
G01*
X105745000Y-114745000D01*
G75*
G02*
X105895000Y-114595000I150000J0D01*
G01*
G37*
G36*
G01*
X104625000Y-114595000D02*
X104925000Y-114595000D01*
G75*
G02*
X105075000Y-114745000I0J-150000D01*
G01*
X105075000Y-116395000D01*
G75*
G02*
X104925000Y-116545000I-150000J0D01*
G01*
X104625000Y-116545000D01*
G75*
G02*
X104475000Y-116395000I0J150000D01*
G01*
X104475000Y-114745000D01*
G75*
G02*
X104625000Y-114595000I150000J0D01*
G01*
G37*
G36*
G01*
X103355000Y-114595000D02*
X103655000Y-114595000D01*
G75*
G02*
X103805000Y-114745000I0J-150000D01*
G01*
X103805000Y-116395000D01*
G75*
G02*
X103655000Y-116545000I-150000J0D01*
G01*
X103355000Y-116545000D01*
G75*
G02*
X103205000Y-116395000I0J150000D01*
G01*
X103205000Y-114745000D01*
G75*
G02*
X103355000Y-114595000I150000J0D01*
G01*
G37*
%TD*%
%TO.C,U2*%
G36*
G01*
X103355000Y-126025000D02*
X103655000Y-126025000D01*
G75*
G02*
X103805000Y-126175000I0J-150000D01*
G01*
X103805000Y-127825000D01*
G75*
G02*
X103655000Y-127975000I-150000J0D01*
G01*
X103355000Y-127975000D01*
G75*
G02*
X103205000Y-127825000I0J150000D01*
G01*
X103205000Y-126175000D01*
G75*
G02*
X103355000Y-126025000I150000J0D01*
G01*
G37*
G36*
G01*
X104625000Y-126025000D02*
X104925000Y-126025000D01*
G75*
G02*
X105075000Y-126175000I0J-150000D01*
G01*
X105075000Y-127825000D01*
G75*
G02*
X104925000Y-127975000I-150000J0D01*
G01*
X104625000Y-127975000D01*
G75*
G02*
X104475000Y-127825000I0J150000D01*
G01*
X104475000Y-126175000D01*
G75*
G02*
X104625000Y-126025000I150000J0D01*
G01*
G37*
G36*
G01*
X105895000Y-126025000D02*
X106195000Y-126025000D01*
G75*
G02*
X106345000Y-126175000I0J-150000D01*
G01*
X106345000Y-127825000D01*
G75*
G02*
X106195000Y-127975000I-150000J0D01*
G01*
X105895000Y-127975000D01*
G75*
G02*
X105745000Y-127825000I0J150000D01*
G01*
X105745000Y-126175000D01*
G75*
G02*
X105895000Y-126025000I150000J0D01*
G01*
G37*
G36*
G01*
X107165000Y-126025000D02*
X107465000Y-126025000D01*
G75*
G02*
X107615000Y-126175000I0J-150000D01*
G01*
X107615000Y-127825000D01*
G75*
G02*
X107465000Y-127975000I-150000J0D01*
G01*
X107165000Y-127975000D01*
G75*
G02*
X107015000Y-127825000I0J150000D01*
G01*
X107015000Y-126175000D01*
G75*
G02*
X107165000Y-126025000I150000J0D01*
G01*
G37*
G36*
G01*
X108435000Y-126025000D02*
X108735000Y-126025000D01*
G75*
G02*
X108885000Y-126175000I0J-150000D01*
G01*
X108885000Y-127825000D01*
G75*
G02*
X108735000Y-127975000I-150000J0D01*
G01*
X108435000Y-127975000D01*
G75*
G02*
X108285000Y-127825000I0J150000D01*
G01*
X108285000Y-126175000D01*
G75*
G02*
X108435000Y-126025000I150000J0D01*
G01*
G37*
G36*
G01*
X109705000Y-126025000D02*
X110005000Y-126025000D01*
G75*
G02*
X110155000Y-126175000I0J-150000D01*
G01*
X110155000Y-127825000D01*
G75*
G02*
X110005000Y-127975000I-150000J0D01*
G01*
X109705000Y-127975000D01*
G75*
G02*
X109555000Y-127825000I0J150000D01*
G01*
X109555000Y-126175000D01*
G75*
G02*
X109705000Y-126025000I150000J0D01*
G01*
G37*
G36*
G01*
X110975000Y-126025000D02*
X111275000Y-126025000D01*
G75*
G02*
X111425000Y-126175000I0J-150000D01*
G01*
X111425000Y-127825000D01*
G75*
G02*
X111275000Y-127975000I-150000J0D01*
G01*
X110975000Y-127975000D01*
G75*
G02*
X110825000Y-127825000I0J150000D01*
G01*
X110825000Y-126175000D01*
G75*
G02*
X110975000Y-126025000I150000J0D01*
G01*
G37*
G36*
G01*
X110975000Y-121075000D02*
X111275000Y-121075000D01*
G75*
G02*
X111425000Y-121225000I0J-150000D01*
G01*
X111425000Y-122875000D01*
G75*
G02*
X111275000Y-123025000I-150000J0D01*
G01*
X110975000Y-123025000D01*
G75*
G02*
X110825000Y-122875000I0J150000D01*
G01*
X110825000Y-121225000D01*
G75*
G02*
X110975000Y-121075000I150000J0D01*
G01*
G37*
G36*
G01*
X109705000Y-121075000D02*
X110005000Y-121075000D01*
G75*
G02*
X110155000Y-121225000I0J-150000D01*
G01*
X110155000Y-122875000D01*
G75*
G02*
X110005000Y-123025000I-150000J0D01*
G01*
X109705000Y-123025000D01*
G75*
G02*
X109555000Y-122875000I0J150000D01*
G01*
X109555000Y-121225000D01*
G75*
G02*
X109705000Y-121075000I150000J0D01*
G01*
G37*
G36*
G01*
X108435000Y-121075000D02*
X108735000Y-121075000D01*
G75*
G02*
X108885000Y-121225000I0J-150000D01*
G01*
X108885000Y-122875000D01*
G75*
G02*
X108735000Y-123025000I-150000J0D01*
G01*
X108435000Y-123025000D01*
G75*
G02*
X108285000Y-122875000I0J150000D01*
G01*
X108285000Y-121225000D01*
G75*
G02*
X108435000Y-121075000I150000J0D01*
G01*
G37*
G36*
G01*
X107165000Y-121075000D02*
X107465000Y-121075000D01*
G75*
G02*
X107615000Y-121225000I0J-150000D01*
G01*
X107615000Y-122875000D01*
G75*
G02*
X107465000Y-123025000I-150000J0D01*
G01*
X107165000Y-123025000D01*
G75*
G02*
X107015000Y-122875000I0J150000D01*
G01*
X107015000Y-121225000D01*
G75*
G02*
X107165000Y-121075000I150000J0D01*
G01*
G37*
G36*
G01*
X105895000Y-121075000D02*
X106195000Y-121075000D01*
G75*
G02*
X106345000Y-121225000I0J-150000D01*
G01*
X106345000Y-122875000D01*
G75*
G02*
X106195000Y-123025000I-150000J0D01*
G01*
X105895000Y-123025000D01*
G75*
G02*
X105745000Y-122875000I0J150000D01*
G01*
X105745000Y-121225000D01*
G75*
G02*
X105895000Y-121075000I150000J0D01*
G01*
G37*
G36*
G01*
X104625000Y-121075000D02*
X104925000Y-121075000D01*
G75*
G02*
X105075000Y-121225000I0J-150000D01*
G01*
X105075000Y-122875000D01*
G75*
G02*
X104925000Y-123025000I-150000J0D01*
G01*
X104625000Y-123025000D01*
G75*
G02*
X104475000Y-122875000I0J150000D01*
G01*
X104475000Y-121225000D01*
G75*
G02*
X104625000Y-121075000I150000J0D01*
G01*
G37*
G36*
G01*
X103355000Y-121075000D02*
X103655000Y-121075000D01*
G75*
G02*
X103805000Y-121225000I0J-150000D01*
G01*
X103805000Y-122875000D01*
G75*
G02*
X103655000Y-123025000I-150000J0D01*
G01*
X103355000Y-123025000D01*
G75*
G02*
X103205000Y-122875000I0J150000D01*
G01*
X103205000Y-121225000D01*
G75*
G02*
X103355000Y-121075000I150000J0D01*
G01*
G37*
%TD*%
D26*
%TO.C,U3*%
X87376000Y-87782000D03*
D27*
X87376000Y-94082000D03*
X85076000Y-94082000D03*
X89676000Y-94082000D03*
%TD*%
M02*
