%TF.GenerationSoftware,KiCad,Pcbnew,5.1.8+dfsg1-1*%
%TF.CreationDate,2020-11-26T10:16:37+01:00*%
%TF.ProjectId,ws2812b_ctrl_RF,77733238-3132-4625-9f63-74726c5f5246,rev?*%
%TF.SameCoordinates,Original*%
%TF.FileFunction,Soldermask,Top*%
%TF.FilePolarity,Negative*%
%FSLAX46Y46*%
G04 Gerber Fmt 4.6, Leading zero omitted, Abs format (unit mm)*
G04 Created by KiCad (PCBNEW 5.1.8+dfsg1-1) date 2020-11-26 10:16:37*
%MOMM*%
%LPD*%
G01*
G04 APERTURE LIST*
%ADD10C,5.700000*%
%ADD11C,3.600000*%
%ADD12C,2.082800*%
%ADD13C,3.000000*%
%ADD14R,3.000000X3.000000*%
%ADD15R,1.700000X1.700000*%
%ADD16O,1.700000X1.700000*%
%ADD17C,2.500000*%
%ADD18R,1.524000X1.524000*%
%ADD19C,1.524000*%
%ADD20R,0.900000X0.800000*%
G04 APERTURE END LIST*
D10*
%TO.C,H4*%
X73479000Y-131479000D03*
D11*
X73479000Y-131479000D03*
%TD*%
D10*
%TO.C,H3*%
X131479000Y-131479000D03*
D11*
X131479000Y-131479000D03*
%TD*%
D10*
%TO.C,H2*%
X131479000Y-73479000D03*
D11*
X131479000Y-73479000D03*
%TD*%
D10*
%TO.C,H1*%
X73479000Y-73479000D03*
D11*
X73479000Y-73479000D03*
%TD*%
D12*
%TO.C,B1*%
X111760000Y-74930000D03*
X111760000Y-77470000D03*
X111760000Y-80010000D03*
X111760000Y-82550000D03*
X111760000Y-85090000D03*
X111760000Y-87630000D03*
X111760000Y-90170000D03*
X111760000Y-92710000D03*
X111760000Y-95250000D03*
X111760000Y-97790000D03*
X111760000Y-100330000D03*
X111760000Y-102870000D03*
X96520000Y-102870000D03*
X96520000Y-100330000D03*
X96520000Y-97790000D03*
X96520000Y-95250000D03*
X96520000Y-92710000D03*
X96520000Y-90170000D03*
X96520000Y-87630000D03*
X96520000Y-85090000D03*
X96520000Y-82550000D03*
X96520000Y-80010000D03*
X96520000Y-77470000D03*
X96520000Y-74930000D03*
%TD*%
%TO.C,CTL1*%
X97155000Y-129540000D03*
%TD*%
D13*
%TO.C,WS2812B1*%
X81280000Y-129540000D03*
D14*
X86360000Y-129540000D03*
%TD*%
D13*
%TO.C,SUPPLY1*%
X81280000Y-95250000D03*
D14*
X81280000Y-100330000D03*
%TD*%
%TO.C,C2*%
G36*
G01*
X98689160Y-116599970D02*
X96890840Y-116599970D01*
G75*
G02*
X96789240Y-116498370I0J101600D01*
G01*
X96789240Y-114900710D01*
G75*
G02*
X96890840Y-114799110I101600J0D01*
G01*
X98689160Y-114799110D01*
G75*
G02*
X98790760Y-114900710I0J-101600D01*
G01*
X98790760Y-116498370D01*
G75*
G02*
X98689160Y-116599970I-101600J0D01*
G01*
G37*
G36*
G01*
X98689160Y-113800890D02*
X96890840Y-113800890D01*
G75*
G02*
X96789240Y-113699290I0J101600D01*
G01*
X96789240Y-112101630D01*
G75*
G02*
X96890840Y-112000030I101600J0D01*
G01*
X98689160Y-112000030D01*
G75*
G02*
X98790760Y-112101630I0J-101600D01*
G01*
X98790760Y-113699290D01*
G75*
G02*
X98689160Y-113800890I-101600J0D01*
G01*
G37*
%TD*%
D15*
%TO.C,ISP1*%
X121285000Y-93980000D03*
D16*
X118745000Y-93980000D03*
X121285000Y-91440000D03*
X118745000Y-91440000D03*
X121285000Y-88900000D03*
X118745000Y-88900000D03*
%TD*%
D17*
%TO.C,K1*%
X92410000Y-121240000D03*
D13*
X92410000Y-109040000D03*
X80360000Y-108990000D03*
D17*
X80410000Y-121240000D03*
D13*
X86360000Y-123190000D03*
%TD*%
D18*
%TO.C,nRF24L1*%
X127635000Y-100330000D03*
D19*
X127635000Y-102870000D03*
X125095000Y-100330000D03*
X125095000Y-102870000D03*
X122555000Y-100330000D03*
X122555000Y-102870000D03*
X120015000Y-100330000D03*
X120015000Y-102870000D03*
%TD*%
D20*
%TO.C,Q1*%
X105410000Y-101600000D03*
X107410000Y-100650000D03*
X107410000Y-102550000D03*
%TD*%
%TO.C,R1*%
G36*
G01*
X108620560Y-102369620D02*
X109819440Y-102369620D01*
G75*
G02*
X109921040Y-102471220I0J-101600D01*
G01*
X109921040Y-103268780D01*
G75*
G02*
X109819440Y-103370380I-101600J0D01*
G01*
X108620560Y-103370380D01*
G75*
G02*
X108518960Y-103268780I0J101600D01*
G01*
X108518960Y-102471220D01*
G75*
G02*
X108620560Y-102369620I101600J0D01*
G01*
G37*
G36*
G01*
X108620560Y-100571300D02*
X109819440Y-100571300D01*
G75*
G02*
X109921040Y-100672900I0J-101600D01*
G01*
X109921040Y-101470460D01*
G75*
G02*
X109819440Y-101572060I-101600J0D01*
G01*
X108620560Y-101572060D01*
G75*
G02*
X108518960Y-101470460I0J101600D01*
G01*
X108518960Y-100672900D01*
G75*
G02*
X108620560Y-100571300I101600J0D01*
G01*
G37*
%TD*%
%TO.C,R3*%
G36*
G01*
X102905560Y-103111300D02*
X104104440Y-103111300D01*
G75*
G02*
X104206040Y-103212900I0J-101600D01*
G01*
X104206040Y-104010460D01*
G75*
G02*
X104104440Y-104112060I-101600J0D01*
G01*
X102905560Y-104112060D01*
G75*
G02*
X102803960Y-104010460I0J101600D01*
G01*
X102803960Y-103212900D01*
G75*
G02*
X102905560Y-103111300I101600J0D01*
G01*
G37*
G36*
G01*
X102905560Y-104909620D02*
X104104440Y-104909620D01*
G75*
G02*
X104206040Y-105011220I0J-101600D01*
G01*
X104206040Y-105808780D01*
G75*
G02*
X104104440Y-105910380I-101600J0D01*
G01*
X102905560Y-105910380D01*
G75*
G02*
X102803960Y-105808780I0J101600D01*
G01*
X102803960Y-105011220D01*
G75*
G02*
X102905560Y-104909620I101600J0D01*
G01*
G37*
%TD*%
D12*
%TO.C,RS485*%
X88265000Y-74295000D03*
X85725000Y-74295000D03*
X83185000Y-74295000D03*
X80645000Y-74295000D03*
%TD*%
%TO.C,XnRF2*%
G36*
G01*
X109845000Y-104785000D02*
X109845000Y-106035000D01*
G75*
G02*
X109595000Y-106285000I-250000J0D01*
G01*
X108845000Y-106285000D01*
G75*
G02*
X108595000Y-106035000I0J250000D01*
G01*
X108595000Y-104785000D01*
G75*
G02*
X108845000Y-104535000I250000J0D01*
G01*
X109595000Y-104535000D01*
G75*
G02*
X109845000Y-104785000I0J-250000D01*
G01*
G37*
G36*
G01*
X107045000Y-104785000D02*
X107045000Y-106035000D01*
G75*
G02*
X106795000Y-106285000I-250000J0D01*
G01*
X106045000Y-106285000D01*
G75*
G02*
X105795000Y-106035000I0J250000D01*
G01*
X105795000Y-104785000D01*
G75*
G02*
X106045000Y-104535000I250000J0D01*
G01*
X106795000Y-104535000D01*
G75*
G02*
X107045000Y-104785000I0J-250000D01*
G01*
G37*
%TD*%
M02*
