%TF.GenerationSoftware,KiCad,Pcbnew,5.1.8+dfsg1-1*%
%TF.CreationDate,2020-11-26T10:16:37+01:00*%
%TF.ProjectId,ws2812b_ctrl_RF,77733238-3132-4625-9f63-74726c5f5246,rev?*%
%TF.SameCoordinates,Original*%
%TF.FileFunction,Legend,Bot*%
%TF.FilePolarity,Positive*%
%FSLAX46Y46*%
G04 Gerber Fmt 4.6, Leading zero omitted, Abs format (unit mm)*
G04 Created by KiCad (PCBNEW 5.1.8+dfsg1-1) date 2020-11-26 10:16:37*
%MOMM*%
%LPD*%
G01*
G04 APERTURE LIST*
%ADD10C,0.120000*%
%ADD11C,0.066040*%
%ADD12C,0.150000*%
%ADD13C,0.127000*%
G04 APERTURE END LIST*
D10*
%TO.C,C1*%
X125395000Y-106275000D02*
X125395000Y-110185000D01*
X123525000Y-106275000D02*
X125395000Y-106275000D01*
X123525000Y-110185000D02*
X123525000Y-106275000D01*
%TO.C,C13*%
X80495000Y-79675000D02*
X76585000Y-79675000D01*
X80495000Y-77805000D02*
X80495000Y-79675000D01*
X76585000Y-77805000D02*
X80495000Y-77805000D01*
D11*
%TO.C,C12*%
X78432660Y-81678780D02*
X78432660Y-80881220D01*
X78432660Y-80881220D02*
X78036420Y-80881220D01*
X78036420Y-81678780D02*
X78036420Y-80881220D01*
X78432660Y-81678780D02*
X78036420Y-81678780D01*
D10*
%TO.C,C11*%
X93045000Y-90495000D02*
X93045000Y-86585000D01*
X94915000Y-90495000D02*
X93045000Y-90495000D01*
X94915000Y-86585000D02*
X94915000Y-90495000D01*
%TO.C,C9*%
X89235000Y-83510000D02*
X89235000Y-79600000D01*
X91105000Y-83510000D02*
X89235000Y-83510000D01*
X91105000Y-79600000D02*
X91105000Y-83510000D01*
%TO.C,C8*%
X79675000Y-87940000D02*
X79675000Y-91850000D01*
X77805000Y-87940000D02*
X79675000Y-87940000D01*
X77805000Y-91850000D02*
X77805000Y-87940000D01*
%TO.C,C5*%
X107015000Y-82400000D02*
X107015000Y-78490000D01*
X108885000Y-82400000D02*
X107015000Y-82400000D01*
X108885000Y-78490000D02*
X108885000Y-82400000D01*
D11*
%TO.C,C4*%
X101363780Y-128201420D02*
X101363780Y-128597660D01*
X101363780Y-128597660D02*
X100566220Y-128597660D01*
X100566220Y-128201420D02*
X100566220Y-128597660D01*
X101363780Y-128201420D02*
X100566220Y-128201420D01*
%TO.C,C6*%
X105011220Y-80208120D02*
X105808780Y-80208120D01*
X105808780Y-80208120D02*
X105808780Y-79811880D01*
X105011220Y-79811880D02*
X105808780Y-79811880D01*
X105011220Y-80208120D02*
X105011220Y-79811880D01*
%TO.C,C7*%
X89771220Y-131137660D02*
X89771220Y-130741420D01*
X89771220Y-130741420D02*
X90568780Y-130741420D01*
X90568780Y-131137660D02*
X90568780Y-130741420D01*
X89771220Y-131137660D02*
X90568780Y-131137660D01*
%TO.C,C10*%
X128033780Y-107116880D02*
X127236220Y-107116880D01*
X127236220Y-107116880D02*
X127236220Y-107513120D01*
X128033780Y-107513120D02*
X127236220Y-107513120D01*
X128033780Y-107116880D02*
X128033780Y-107513120D01*
D10*
%TO.C,D1*%
X79880000Y-119760000D02*
X85280000Y-119760000D01*
X79880000Y-116460000D02*
X85280000Y-116460000D01*
X79880000Y-119760000D02*
X79880000Y-116460000D01*
%TO.C,FB1*%
X81190000Y-88427936D02*
X81190000Y-89632064D01*
X83910000Y-88427936D02*
X83910000Y-89632064D01*
%TO.C,FB2*%
X86450000Y-83087936D02*
X86450000Y-84292064D01*
X83730000Y-83087936D02*
X83730000Y-84292064D01*
%TO.C,Q2*%
X87870000Y-118420000D02*
X89330000Y-118420000D01*
X87870000Y-115260000D02*
X90030000Y-115260000D01*
X87870000Y-115260000D02*
X87870000Y-116190000D01*
X87870000Y-118420000D02*
X87870000Y-117490000D01*
%TO.C,U1*%
X111750000Y-113095000D02*
X111750000Y-115045000D01*
X111750000Y-113095000D02*
X111750000Y-111145000D01*
X102880000Y-113095000D02*
X102880000Y-115045000D01*
X102880000Y-113095000D02*
X102880000Y-109645000D01*
%TO.C,U2*%
X102880000Y-124525000D02*
X102880000Y-121075000D01*
X102880000Y-124525000D02*
X102880000Y-126475000D01*
X111750000Y-124525000D02*
X111750000Y-122575000D01*
X111750000Y-124525000D02*
X111750000Y-126475000D01*
%TO.C,U3*%
X92310000Y-94905000D02*
X92310000Y-88895000D01*
X85490000Y-92655000D02*
X85490000Y-88895000D01*
X92310000Y-88895000D02*
X91050000Y-88895000D01*
X85490000Y-88895000D02*
X86750000Y-88895000D01*
%TO.C,XnRF1*%
X83685000Y-111430000D02*
X83685000Y-115315000D01*
X83685000Y-115315000D02*
X81415000Y-115315000D01*
X81415000Y-115315000D02*
X81415000Y-111430000D01*
%TO.C,C1*%
D12*
X124626666Y-112117142D02*
X124674285Y-112164761D01*
X124817142Y-112212380D01*
X124912380Y-112212380D01*
X125055238Y-112164761D01*
X125150476Y-112069523D01*
X125198095Y-111974285D01*
X125245714Y-111783809D01*
X125245714Y-111640952D01*
X125198095Y-111450476D01*
X125150476Y-111355238D01*
X125055238Y-111260000D01*
X124912380Y-111212380D01*
X124817142Y-111212380D01*
X124674285Y-111260000D01*
X124626666Y-111307619D01*
X123674285Y-112212380D02*
X124245714Y-112212380D01*
X123960000Y-112212380D02*
X123960000Y-111212380D01*
X124055238Y-111355238D01*
X124150476Y-111450476D01*
X124245714Y-111498095D01*
%TO.C,C13*%
X82557857Y-79097142D02*
X82605476Y-79144761D01*
X82748333Y-79192380D01*
X82843571Y-79192380D01*
X82986428Y-79144761D01*
X83081666Y-79049523D01*
X83129285Y-78954285D01*
X83176904Y-78763809D01*
X83176904Y-78620952D01*
X83129285Y-78430476D01*
X83081666Y-78335238D01*
X82986428Y-78240000D01*
X82843571Y-78192380D01*
X82748333Y-78192380D01*
X82605476Y-78240000D01*
X82557857Y-78287619D01*
X81605476Y-79192380D02*
X82176904Y-79192380D01*
X81891190Y-79192380D02*
X81891190Y-78192380D01*
X81986428Y-78335238D01*
X82081666Y-78430476D01*
X82176904Y-78478095D01*
X81272142Y-78192380D02*
X80653095Y-78192380D01*
X80986428Y-78573333D01*
X80843571Y-78573333D01*
X80748333Y-78620952D01*
X80700714Y-78668571D01*
X80653095Y-78763809D01*
X80653095Y-79001904D01*
X80700714Y-79097142D01*
X80748333Y-79144761D01*
X80843571Y-79192380D01*
X81129285Y-79192380D01*
X81224523Y-79144761D01*
X81272142Y-79097142D01*
%TO.C,C12*%
D13*
X82306885Y-81497714D02*
X82335914Y-81526742D01*
X82423000Y-81555771D01*
X82481057Y-81555771D01*
X82568142Y-81526742D01*
X82626200Y-81468685D01*
X82655228Y-81410628D01*
X82684257Y-81294514D01*
X82684257Y-81207428D01*
X82655228Y-81091314D01*
X82626200Y-81033257D01*
X82568142Y-80975200D01*
X82481057Y-80946171D01*
X82423000Y-80946171D01*
X82335914Y-80975200D01*
X82306885Y-81004228D01*
X81726314Y-81555771D02*
X82074657Y-81555771D01*
X81900485Y-81555771D02*
X81900485Y-80946171D01*
X81958542Y-81033257D01*
X82016600Y-81091314D01*
X82074657Y-81120342D01*
X81494085Y-81004228D02*
X81465057Y-80975200D01*
X81407000Y-80946171D01*
X81261857Y-80946171D01*
X81203800Y-80975200D01*
X81174771Y-81004228D01*
X81145742Y-81062285D01*
X81145742Y-81120342D01*
X81174771Y-81207428D01*
X81523114Y-81555771D01*
X81145742Y-81555771D01*
%TO.C,C11*%
D12*
X94622857Y-91797142D02*
X94670476Y-91844761D01*
X94813333Y-91892380D01*
X94908571Y-91892380D01*
X95051428Y-91844761D01*
X95146666Y-91749523D01*
X95194285Y-91654285D01*
X95241904Y-91463809D01*
X95241904Y-91320952D01*
X95194285Y-91130476D01*
X95146666Y-91035238D01*
X95051428Y-90940000D01*
X94908571Y-90892380D01*
X94813333Y-90892380D01*
X94670476Y-90940000D01*
X94622857Y-90987619D01*
X93670476Y-91892380D02*
X94241904Y-91892380D01*
X93956190Y-91892380D02*
X93956190Y-90892380D01*
X94051428Y-91035238D01*
X94146666Y-91130476D01*
X94241904Y-91178095D01*
X92718095Y-91892380D02*
X93289523Y-91892380D01*
X93003809Y-91892380D02*
X93003809Y-90892380D01*
X93099047Y-91035238D01*
X93194285Y-91130476D01*
X93289523Y-91178095D01*
%TO.C,C9*%
X90336666Y-78462142D02*
X90384285Y-78509761D01*
X90527142Y-78557380D01*
X90622380Y-78557380D01*
X90765238Y-78509761D01*
X90860476Y-78414523D01*
X90908095Y-78319285D01*
X90955714Y-78128809D01*
X90955714Y-77985952D01*
X90908095Y-77795476D01*
X90860476Y-77700238D01*
X90765238Y-77605000D01*
X90622380Y-77557380D01*
X90527142Y-77557380D01*
X90384285Y-77605000D01*
X90336666Y-77652619D01*
X89860476Y-78557380D02*
X89670000Y-78557380D01*
X89574761Y-78509761D01*
X89527142Y-78462142D01*
X89431904Y-78319285D01*
X89384285Y-78128809D01*
X89384285Y-77747857D01*
X89431904Y-77652619D01*
X89479523Y-77605000D01*
X89574761Y-77557380D01*
X89765238Y-77557380D01*
X89860476Y-77605000D01*
X89908095Y-77652619D01*
X89955714Y-77747857D01*
X89955714Y-77985952D01*
X89908095Y-78081190D01*
X89860476Y-78128809D01*
X89765238Y-78176428D01*
X89574761Y-78176428D01*
X89479523Y-78128809D01*
X89431904Y-78081190D01*
X89384285Y-77985952D01*
%TO.C,C8*%
X78906666Y-87352142D02*
X78954285Y-87399761D01*
X79097142Y-87447380D01*
X79192380Y-87447380D01*
X79335238Y-87399761D01*
X79430476Y-87304523D01*
X79478095Y-87209285D01*
X79525714Y-87018809D01*
X79525714Y-86875952D01*
X79478095Y-86685476D01*
X79430476Y-86590238D01*
X79335238Y-86495000D01*
X79192380Y-86447380D01*
X79097142Y-86447380D01*
X78954285Y-86495000D01*
X78906666Y-86542619D01*
X78335238Y-86875952D02*
X78430476Y-86828333D01*
X78478095Y-86780714D01*
X78525714Y-86685476D01*
X78525714Y-86637857D01*
X78478095Y-86542619D01*
X78430476Y-86495000D01*
X78335238Y-86447380D01*
X78144761Y-86447380D01*
X78049523Y-86495000D01*
X78001904Y-86542619D01*
X77954285Y-86637857D01*
X77954285Y-86685476D01*
X78001904Y-86780714D01*
X78049523Y-86828333D01*
X78144761Y-86875952D01*
X78335238Y-86875952D01*
X78430476Y-86923571D01*
X78478095Y-86971190D01*
X78525714Y-87066428D01*
X78525714Y-87256904D01*
X78478095Y-87352142D01*
X78430476Y-87399761D01*
X78335238Y-87447380D01*
X78144761Y-87447380D01*
X78049523Y-87399761D01*
X78001904Y-87352142D01*
X77954285Y-87256904D01*
X77954285Y-87066428D01*
X78001904Y-86971190D01*
X78049523Y-86923571D01*
X78144761Y-86875952D01*
%TO.C,C5*%
X108116666Y-77192142D02*
X108164285Y-77239761D01*
X108307142Y-77287380D01*
X108402380Y-77287380D01*
X108545238Y-77239761D01*
X108640476Y-77144523D01*
X108688095Y-77049285D01*
X108735714Y-76858809D01*
X108735714Y-76715952D01*
X108688095Y-76525476D01*
X108640476Y-76430238D01*
X108545238Y-76335000D01*
X108402380Y-76287380D01*
X108307142Y-76287380D01*
X108164285Y-76335000D01*
X108116666Y-76382619D01*
X107211904Y-76287380D02*
X107688095Y-76287380D01*
X107735714Y-76763571D01*
X107688095Y-76715952D01*
X107592857Y-76668333D01*
X107354761Y-76668333D01*
X107259523Y-76715952D01*
X107211904Y-76763571D01*
X107164285Y-76858809D01*
X107164285Y-77096904D01*
X107211904Y-77192142D01*
X107259523Y-77239761D01*
X107354761Y-77287380D01*
X107592857Y-77287380D01*
X107688095Y-77239761D01*
X107735714Y-77192142D01*
%TO.C,R8*%
D13*
X93182440Y-114575771D02*
X93385640Y-114285485D01*
X93530782Y-114575771D02*
X93530782Y-113966171D01*
X93298554Y-113966171D01*
X93240497Y-113995200D01*
X93211468Y-114024228D01*
X93182440Y-114082285D01*
X93182440Y-114169371D01*
X93211468Y-114227428D01*
X93240497Y-114256457D01*
X93298554Y-114285485D01*
X93530782Y-114285485D01*
X92834097Y-114227428D02*
X92892154Y-114198400D01*
X92921182Y-114169371D01*
X92950211Y-114111314D01*
X92950211Y-114082285D01*
X92921182Y-114024228D01*
X92892154Y-113995200D01*
X92834097Y-113966171D01*
X92717982Y-113966171D01*
X92659925Y-113995200D01*
X92630897Y-114024228D01*
X92601868Y-114082285D01*
X92601868Y-114111314D01*
X92630897Y-114169371D01*
X92659925Y-114198400D01*
X92717982Y-114227428D01*
X92834097Y-114227428D01*
X92892154Y-114256457D01*
X92921182Y-114285485D01*
X92950211Y-114343542D01*
X92950211Y-114459657D01*
X92921182Y-114517714D01*
X92892154Y-114546742D01*
X92834097Y-114575771D01*
X92717982Y-114575771D01*
X92659925Y-114546742D01*
X92630897Y-114517714D01*
X92601868Y-114459657D01*
X92601868Y-114343542D01*
X92630897Y-114285485D01*
X92659925Y-114256457D01*
X92717982Y-114227428D01*
%TO.C,C4*%
X102971600Y-130392714D02*
X103000628Y-130421742D01*
X103087714Y-130450771D01*
X103145771Y-130450771D01*
X103232857Y-130421742D01*
X103290914Y-130363685D01*
X103319942Y-130305628D01*
X103348971Y-130189514D01*
X103348971Y-130102428D01*
X103319942Y-129986314D01*
X103290914Y-129928257D01*
X103232857Y-129870200D01*
X103145771Y-129841171D01*
X103087714Y-129841171D01*
X103000628Y-129870200D01*
X102971600Y-129899228D01*
X102449085Y-130044371D02*
X102449085Y-130450771D01*
X102594228Y-129812142D02*
X102739371Y-130247571D01*
X102362000Y-130247571D01*
%TO.C,C6*%
X105511600Y-83402714D02*
X105540628Y-83431742D01*
X105627714Y-83460771D01*
X105685771Y-83460771D01*
X105772857Y-83431742D01*
X105830914Y-83373685D01*
X105859942Y-83315628D01*
X105888971Y-83199514D01*
X105888971Y-83112428D01*
X105859942Y-82996314D01*
X105830914Y-82938257D01*
X105772857Y-82880200D01*
X105685771Y-82851171D01*
X105627714Y-82851171D01*
X105540628Y-82880200D01*
X105511600Y-82909228D01*
X104989085Y-82851171D02*
X105105200Y-82851171D01*
X105163257Y-82880200D01*
X105192285Y-82909228D01*
X105250342Y-82996314D01*
X105279371Y-83112428D01*
X105279371Y-83344657D01*
X105250342Y-83402714D01*
X105221314Y-83431742D01*
X105163257Y-83460771D01*
X105047142Y-83460771D01*
X104989085Y-83431742D01*
X104960057Y-83402714D01*
X104931028Y-83344657D01*
X104931028Y-83199514D01*
X104960057Y-83141457D01*
X104989085Y-83112428D01*
X105047142Y-83083400D01*
X105163257Y-83083400D01*
X105221314Y-83112428D01*
X105250342Y-83141457D01*
X105279371Y-83199514D01*
%TO.C,C7*%
X92176600Y-129122714D02*
X92205628Y-129151742D01*
X92292714Y-129180771D01*
X92350771Y-129180771D01*
X92437857Y-129151742D01*
X92495914Y-129093685D01*
X92524942Y-129035628D01*
X92553971Y-128919514D01*
X92553971Y-128832428D01*
X92524942Y-128716314D01*
X92495914Y-128658257D01*
X92437857Y-128600200D01*
X92350771Y-128571171D01*
X92292714Y-128571171D01*
X92205628Y-128600200D01*
X92176600Y-128629228D01*
X91973400Y-128571171D02*
X91567000Y-128571171D01*
X91828257Y-129180771D01*
%TO.C,C10*%
X128026885Y-110707714D02*
X128055914Y-110736742D01*
X128143000Y-110765771D01*
X128201057Y-110765771D01*
X128288142Y-110736742D01*
X128346200Y-110678685D01*
X128375228Y-110620628D01*
X128404257Y-110504514D01*
X128404257Y-110417428D01*
X128375228Y-110301314D01*
X128346200Y-110243257D01*
X128288142Y-110185200D01*
X128201057Y-110156171D01*
X128143000Y-110156171D01*
X128055914Y-110185200D01*
X128026885Y-110214228D01*
X127446314Y-110765771D02*
X127794657Y-110765771D01*
X127620485Y-110765771D02*
X127620485Y-110156171D01*
X127678542Y-110243257D01*
X127736600Y-110301314D01*
X127794657Y-110330342D01*
X127068942Y-110156171D02*
X127010885Y-110156171D01*
X126952828Y-110185200D01*
X126923800Y-110214228D01*
X126894771Y-110272285D01*
X126865742Y-110388400D01*
X126865742Y-110533542D01*
X126894771Y-110649657D01*
X126923800Y-110707714D01*
X126952828Y-110736742D01*
X127010885Y-110765771D01*
X127068942Y-110765771D01*
X127127000Y-110736742D01*
X127156028Y-110707714D01*
X127185057Y-110649657D01*
X127214085Y-110533542D01*
X127214085Y-110388400D01*
X127185057Y-110272285D01*
X127156028Y-110214228D01*
X127127000Y-110185200D01*
X127068942Y-110156171D01*
%TO.C,D1*%
D12*
X84018095Y-121062380D02*
X84018095Y-120062380D01*
X83780000Y-120062380D01*
X83637142Y-120110000D01*
X83541904Y-120205238D01*
X83494285Y-120300476D01*
X83446666Y-120490952D01*
X83446666Y-120633809D01*
X83494285Y-120824285D01*
X83541904Y-120919523D01*
X83637142Y-121014761D01*
X83780000Y-121062380D01*
X84018095Y-121062380D01*
X82494285Y-121062380D02*
X83065714Y-121062380D01*
X82780000Y-121062380D02*
X82780000Y-120062380D01*
X82875238Y-120205238D01*
X82970476Y-120300476D01*
X83065714Y-120348095D01*
%TO.C,FB1*%
X83383333Y-92003571D02*
X83716666Y-92003571D01*
X83716666Y-92527380D02*
X83716666Y-91527380D01*
X83240476Y-91527380D01*
X82526190Y-92003571D02*
X82383333Y-92051190D01*
X82335714Y-92098809D01*
X82288095Y-92194047D01*
X82288095Y-92336904D01*
X82335714Y-92432142D01*
X82383333Y-92479761D01*
X82478571Y-92527380D01*
X82859523Y-92527380D01*
X82859523Y-91527380D01*
X82526190Y-91527380D01*
X82430952Y-91575000D01*
X82383333Y-91622619D01*
X82335714Y-91717857D01*
X82335714Y-91813095D01*
X82383333Y-91908333D01*
X82430952Y-91955952D01*
X82526190Y-92003571D01*
X82859523Y-92003571D01*
X81335714Y-92527380D02*
X81907142Y-92527380D01*
X81621428Y-92527380D02*
X81621428Y-91527380D01*
X81716666Y-91670238D01*
X81811904Y-91765476D01*
X81907142Y-91813095D01*
%TO.C,FB2*%
X85923333Y-80573571D02*
X86256666Y-80573571D01*
X86256666Y-81097380D02*
X86256666Y-80097380D01*
X85780476Y-80097380D01*
X85066190Y-80573571D02*
X84923333Y-80621190D01*
X84875714Y-80668809D01*
X84828095Y-80764047D01*
X84828095Y-80906904D01*
X84875714Y-81002142D01*
X84923333Y-81049761D01*
X85018571Y-81097380D01*
X85399523Y-81097380D01*
X85399523Y-80097380D01*
X85066190Y-80097380D01*
X84970952Y-80145000D01*
X84923333Y-80192619D01*
X84875714Y-80287857D01*
X84875714Y-80383095D01*
X84923333Y-80478333D01*
X84970952Y-80525952D01*
X85066190Y-80573571D01*
X85399523Y-80573571D01*
X84447142Y-80192619D02*
X84399523Y-80145000D01*
X84304285Y-80097380D01*
X84066190Y-80097380D01*
X83970952Y-80145000D01*
X83923333Y-80192619D01*
X83875714Y-80287857D01*
X83875714Y-80383095D01*
X83923333Y-80525952D01*
X84494761Y-81097380D01*
X83875714Y-81097380D01*
%TO.C,Q2*%
X91535238Y-119292619D02*
X91630476Y-119245000D01*
X91725714Y-119149761D01*
X91868571Y-119006904D01*
X91963809Y-118959285D01*
X92059047Y-118959285D01*
X92011428Y-119197380D02*
X92106666Y-119149761D01*
X92201904Y-119054523D01*
X92249523Y-118864047D01*
X92249523Y-118530714D01*
X92201904Y-118340238D01*
X92106666Y-118245000D01*
X92011428Y-118197380D01*
X91820952Y-118197380D01*
X91725714Y-118245000D01*
X91630476Y-118340238D01*
X91582857Y-118530714D01*
X91582857Y-118864047D01*
X91630476Y-119054523D01*
X91725714Y-119149761D01*
X91820952Y-119197380D01*
X92011428Y-119197380D01*
X91201904Y-118292619D02*
X91154285Y-118245000D01*
X91059047Y-118197380D01*
X90820952Y-118197380D01*
X90725714Y-118245000D01*
X90678095Y-118292619D01*
X90630476Y-118387857D01*
X90630476Y-118483095D01*
X90678095Y-118625952D01*
X91249523Y-119197380D01*
X90630476Y-119197380D01*
%TO.C,R2*%
D13*
X94716600Y-128545771D02*
X94919800Y-128255485D01*
X95064942Y-128545771D02*
X95064942Y-127936171D01*
X94832714Y-127936171D01*
X94774657Y-127965200D01*
X94745628Y-127994228D01*
X94716600Y-128052285D01*
X94716600Y-128139371D01*
X94745628Y-128197428D01*
X94774657Y-128226457D01*
X94832714Y-128255485D01*
X95064942Y-128255485D01*
X94484371Y-127994228D02*
X94455342Y-127965200D01*
X94397285Y-127936171D01*
X94252142Y-127936171D01*
X94194085Y-127965200D01*
X94165057Y-127994228D01*
X94136028Y-128052285D01*
X94136028Y-128110342D01*
X94165057Y-128197428D01*
X94513400Y-128545771D01*
X94136028Y-128545771D01*
%TO.C,R4*%
X91541600Y-126005771D02*
X91744800Y-125715485D01*
X91889942Y-126005771D02*
X91889942Y-125396171D01*
X91657714Y-125396171D01*
X91599657Y-125425200D01*
X91570628Y-125454228D01*
X91541600Y-125512285D01*
X91541600Y-125599371D01*
X91570628Y-125657428D01*
X91599657Y-125686457D01*
X91657714Y-125715485D01*
X91889942Y-125715485D01*
X91019085Y-125599371D02*
X91019085Y-126005771D01*
X91164228Y-125367142D02*
X91309371Y-125802571D01*
X90932000Y-125802571D01*
%TO.C,R5*%
X88540771Y-84988400D02*
X88250485Y-84785200D01*
X88540771Y-84640057D02*
X87931171Y-84640057D01*
X87931171Y-84872285D01*
X87960200Y-84930342D01*
X87989228Y-84959371D01*
X88047285Y-84988400D01*
X88134371Y-84988400D01*
X88192428Y-84959371D01*
X88221457Y-84930342D01*
X88250485Y-84872285D01*
X88250485Y-84640057D01*
X87931171Y-85539942D02*
X87931171Y-85249657D01*
X88221457Y-85220628D01*
X88192428Y-85249657D01*
X88163400Y-85307714D01*
X88163400Y-85452857D01*
X88192428Y-85510914D01*
X88221457Y-85539942D01*
X88279514Y-85568971D01*
X88424657Y-85568971D01*
X88482714Y-85539942D01*
X88511742Y-85510914D01*
X88540771Y-85452857D01*
X88540771Y-85307714D01*
X88511742Y-85249657D01*
X88482714Y-85220628D01*
%TO.C,R6*%
X92811600Y-83460771D02*
X93014800Y-83170485D01*
X93159942Y-83460771D02*
X93159942Y-82851171D01*
X92927714Y-82851171D01*
X92869657Y-82880200D01*
X92840628Y-82909228D01*
X92811600Y-82967285D01*
X92811600Y-83054371D01*
X92840628Y-83112428D01*
X92869657Y-83141457D01*
X92927714Y-83170485D01*
X93159942Y-83170485D01*
X92289085Y-82851171D02*
X92405200Y-82851171D01*
X92463257Y-82880200D01*
X92492285Y-82909228D01*
X92550342Y-82996314D01*
X92579371Y-83112428D01*
X92579371Y-83344657D01*
X92550342Y-83402714D01*
X92521314Y-83431742D01*
X92463257Y-83460771D01*
X92347142Y-83460771D01*
X92289085Y-83431742D01*
X92260057Y-83402714D01*
X92231028Y-83344657D01*
X92231028Y-83199514D01*
X92260057Y-83141457D01*
X92289085Y-83112428D01*
X92347142Y-83083400D01*
X92463257Y-83083400D01*
X92521314Y-83112428D01*
X92550342Y-83141457D01*
X92579371Y-83199514D01*
%TO.C,R7*%
X93182440Y-117115771D02*
X93385640Y-116825485D01*
X93530782Y-117115771D02*
X93530782Y-116506171D01*
X93298554Y-116506171D01*
X93240497Y-116535200D01*
X93211468Y-116564228D01*
X93182440Y-116622285D01*
X93182440Y-116709371D01*
X93211468Y-116767428D01*
X93240497Y-116796457D01*
X93298554Y-116825485D01*
X93530782Y-116825485D01*
X92979240Y-116506171D02*
X92572840Y-116506171D01*
X92834097Y-117115771D01*
%TO.C,U1*%
D12*
X102957380Y-112333095D02*
X103766904Y-112333095D01*
X103862142Y-112380714D01*
X103909761Y-112428333D01*
X103957380Y-112523571D01*
X103957380Y-112714047D01*
X103909761Y-112809285D01*
X103862142Y-112856904D01*
X103766904Y-112904523D01*
X102957380Y-112904523D01*
X103957380Y-113904523D02*
X103957380Y-113333095D01*
X103957380Y-113618809D02*
X102957380Y-113618809D01*
X103100238Y-113523571D01*
X103195476Y-113428333D01*
X103243095Y-113333095D01*
%TO.C,U2*%
X102957380Y-123763095D02*
X103766904Y-123763095D01*
X103862142Y-123810714D01*
X103909761Y-123858333D01*
X103957380Y-123953571D01*
X103957380Y-124144047D01*
X103909761Y-124239285D01*
X103862142Y-124286904D01*
X103766904Y-124334523D01*
X102957380Y-124334523D01*
X103052619Y-124763095D02*
X103005000Y-124810714D01*
X102957380Y-124905952D01*
X102957380Y-125144047D01*
X103005000Y-125239285D01*
X103052619Y-125286904D01*
X103147857Y-125334523D01*
X103243095Y-125334523D01*
X103385952Y-125286904D01*
X103957380Y-124715476D01*
X103957380Y-125334523D01*
%TO.C,U3*%
X90296904Y-95337380D02*
X90296904Y-96146904D01*
X90249285Y-96242142D01*
X90201666Y-96289761D01*
X90106428Y-96337380D01*
X89915952Y-96337380D01*
X89820714Y-96289761D01*
X89773095Y-96242142D01*
X89725476Y-96146904D01*
X89725476Y-95337380D01*
X89344523Y-95337380D02*
X88725476Y-95337380D01*
X89058809Y-95718333D01*
X88915952Y-95718333D01*
X88820714Y-95765952D01*
X88773095Y-95813571D01*
X88725476Y-95908809D01*
X88725476Y-96146904D01*
X88773095Y-96242142D01*
X88820714Y-96289761D01*
X88915952Y-96337380D01*
X89201666Y-96337380D01*
X89296904Y-96289761D01*
X89344523Y-96242142D01*
%TO.C,XnRF1*%
X80097380Y-110839523D02*
X81097380Y-111506190D01*
X80097380Y-111506190D02*
X81097380Y-110839523D01*
X80430714Y-111887142D02*
X81097380Y-111887142D01*
X80525952Y-111887142D02*
X80478333Y-111934761D01*
X80430714Y-112030000D01*
X80430714Y-112172857D01*
X80478333Y-112268095D01*
X80573571Y-112315714D01*
X81097380Y-112315714D01*
X81097380Y-113363333D02*
X80621190Y-113030000D01*
X81097380Y-112791904D02*
X80097380Y-112791904D01*
X80097380Y-113172857D01*
X80145000Y-113268095D01*
X80192619Y-113315714D01*
X80287857Y-113363333D01*
X80430714Y-113363333D01*
X80525952Y-113315714D01*
X80573571Y-113268095D01*
X80621190Y-113172857D01*
X80621190Y-112791904D01*
X80573571Y-114125238D02*
X80573571Y-113791904D01*
X81097380Y-113791904D02*
X80097380Y-113791904D01*
X80097380Y-114268095D01*
X81097380Y-115172857D02*
X81097380Y-114601428D01*
X81097380Y-114887142D02*
X80097380Y-114887142D01*
X80240238Y-114791904D01*
X80335476Y-114696666D01*
X80383095Y-114601428D01*
%TD*%
M02*
