%TF.GenerationSoftware,KiCad,Pcbnew,5.1.8+dfsg1-1*%
%TF.CreationDate,2020-11-26T10:16:37+01:00*%
%TF.ProjectId,ws2812b_ctrl_RF,77733238-3132-4625-9f63-74726c5f5246,rev?*%
%TF.SameCoordinates,Original*%
%TF.FileFunction,Copper,L2,Bot*%
%TF.FilePolarity,Positive*%
%FSLAX46Y46*%
G04 Gerber Fmt 4.6, Leading zero omitted, Abs format (unit mm)*
G04 Created by KiCad (PCBNEW 5.1.8+dfsg1-1) date 2020-11-26 10:16:37*
%MOMM*%
%LPD*%
G01*
G04 APERTURE LIST*
%TA.AperFunction,ConnectorPad*%
%ADD10C,5.700000*%
%TD*%
%TA.AperFunction,ComponentPad*%
%ADD11C,3.600000*%
%TD*%
%TA.AperFunction,ComponentPad*%
%ADD12C,1.879600*%
%TD*%
%TA.AperFunction,ComponentPad*%
%ADD13C,3.000000*%
%TD*%
%TA.AperFunction,ComponentPad*%
%ADD14R,3.000000X3.000000*%
%TD*%
%TA.AperFunction,SMDPad,CuDef*%
%ADD15R,1.597660X1.798320*%
%TD*%
%TA.AperFunction,SMDPad,CuDef*%
%ADD16R,0.797560X1.198880*%
%TD*%
%TA.AperFunction,SMDPad,CuDef*%
%ADD17R,1.798320X1.597660*%
%TD*%
%TA.AperFunction,SMDPad,CuDef*%
%ADD18R,2.500000X1.800000*%
%TD*%
%TA.AperFunction,ComponentPad*%
%ADD19R,1.700000X1.700000*%
%TD*%
%TA.AperFunction,ComponentPad*%
%ADD20O,1.700000X1.700000*%
%TD*%
%TA.AperFunction,ComponentPad*%
%ADD21C,2.500000*%
%TD*%
%TA.AperFunction,ComponentPad*%
%ADD22R,1.524000X1.524000*%
%TD*%
%TA.AperFunction,ComponentPad*%
%ADD23C,1.524000*%
%TD*%
%TA.AperFunction,SMDPad,CuDef*%
%ADD24R,0.900000X0.800000*%
%TD*%
%TA.AperFunction,SMDPad,CuDef*%
%ADD25R,1.198880X0.797560*%
%TD*%
%TA.AperFunction,SMDPad,CuDef*%
%ADD26R,3.800000X2.000000*%
%TD*%
%TA.AperFunction,SMDPad,CuDef*%
%ADD27R,1.500000X2.000000*%
%TD*%
%TA.AperFunction,ViaPad*%
%ADD28C,1.200000*%
%TD*%
%TA.AperFunction,Conductor*%
%ADD29C,0.304800*%
%TD*%
%TA.AperFunction,Conductor*%
%ADD30C,3.048000*%
%TD*%
%TA.AperFunction,Conductor*%
%ADD31C,1.270000*%
%TD*%
%TA.AperFunction,Conductor*%
%ADD32C,0.609600*%
%TD*%
%TA.AperFunction,Conductor*%
%ADD33C,0.812800*%
%TD*%
%TA.AperFunction,Conductor*%
%ADD34C,0.406400*%
%TD*%
%TA.AperFunction,Conductor*%
%ADD35C,0.250000*%
%TD*%
%TA.AperFunction,Conductor*%
%ADD36C,0.254000*%
%TD*%
%TA.AperFunction,Conductor*%
%ADD37C,0.100000*%
%TD*%
G04 APERTURE END LIST*
D10*
%TO.P,H4,1*%
%TO.N,N/C*%
X73479000Y-131479000D03*
D11*
X73479000Y-131479000D03*
%TD*%
D10*
%TO.P,H3,1*%
%TO.N,N/C*%
X131479000Y-131479000D03*
D11*
X131479000Y-131479000D03*
%TD*%
D10*
%TO.P,H2,1*%
%TO.N,N/C*%
X131479000Y-73479000D03*
D11*
X131479000Y-73479000D03*
%TD*%
D10*
%TO.P,H1,1*%
%TO.N,N/C*%
X73479000Y-73479000D03*
D11*
X73479000Y-73479000D03*
%TD*%
D12*
%TO.P,B1,24*%
%TO.N,N/C*%
X111760000Y-74930000D03*
%TO.P,B1,23*%
%TO.N,GND*%
X111760000Y-77470000D03*
%TO.P,B1,22*%
%TO.N,/~RST*%
X111760000Y-80010000D03*
%TO.P,B1,21*%
%TO.N,+5V*%
X111760000Y-82550000D03*
%TO.P,B1,20*%
%TO.N,N/C*%
X111760000Y-85090000D03*
%TO.P,B1,19*%
%TO.N,/nRFIRQ*%
X111760000Y-87630000D03*
%TO.P,B1,18*%
%TO.N,/nRFCE*%
X111760000Y-90170000D03*
%TO.P,B1,17*%
%TO.N,/RLYCTL*%
X111760000Y-92710000D03*
%TO.P,B1,16*%
%TO.N,/SCK*%
X111760000Y-95250000D03*
%TO.P,B1,15*%
%TO.N,/MISO*%
X111760000Y-97790000D03*
%TO.P,B1,14*%
%TO.N,/MOSI*%
X111760000Y-100330000D03*
%TO.P,B1,13*%
%TO.N,/~SS*%
X111760000Y-102870000D03*
%TO.P,B1,12*%
%TO.N,N/C*%
X96520000Y-102870000D03*
%TO.P,B1,11*%
X96520000Y-100330000D03*
%TO.P,B1,10*%
X96520000Y-97790000D03*
%TO.P,B1,9*%
X96520000Y-95250000D03*
%TO.P,B1,8*%
X96520000Y-92710000D03*
%TO.P,B1,7*%
X96520000Y-90170000D03*
%TO.P,B1,6*%
%TO.N,/PWM*%
X96520000Y-87630000D03*
%TO.P,B1,5*%
%TO.N,N/C*%
X96520000Y-85090000D03*
%TO.P,B1,4*%
%TO.N,GND*%
X96520000Y-82550000D03*
%TO.P,B1,3*%
%TO.N,N/C*%
X96520000Y-80010000D03*
%TO.P,B1,2*%
%TO.N,/RX*%
X96520000Y-77470000D03*
%TO.P,B1,1*%
%TO.N,/TX*%
X96520000Y-74930000D03*
%TD*%
%TO.P,CTL1,1*%
%TO.N,/(CLK&~MOSI~&PWM)||(CLK&MOSI)*%
X97155000Y-129540000D03*
%TD*%
D13*
%TO.P,WS2812B1,2*%
%TO.N,GND*%
X81280000Y-129540000D03*
D14*
%TO.P,WS2812B1,1*%
%TO.N,Net-(K1-Pad1)*%
X86360000Y-129540000D03*
%TD*%
%TO.P,C1,2*%
%TO.N,GND*%
%TA.AperFunction,SMDPad,CuDef*%
G36*
G01*
X124034999Y-109235000D02*
X124885001Y-109235000D01*
G75*
G02*
X125135000Y-109484999I0J-249999D01*
G01*
X125135000Y-110385001D01*
G75*
G02*
X124885001Y-110635000I-249999J0D01*
G01*
X124034999Y-110635000D01*
G75*
G02*
X123785000Y-110385001I0J249999D01*
G01*
X123785000Y-109484999D01*
G75*
G02*
X124034999Y-109235000I249999J0D01*
G01*
G37*
%TD.AperFunction*%
%TO.P,C1,1*%
%TO.N,/3.3V*%
%TA.AperFunction,SMDPad,CuDef*%
G36*
G01*
X124034999Y-106535000D02*
X124885001Y-106535000D01*
G75*
G02*
X125135000Y-106784999I0J-249999D01*
G01*
X125135000Y-107685001D01*
G75*
G02*
X124885001Y-107935000I-249999J0D01*
G01*
X124034999Y-107935000D01*
G75*
G02*
X123785000Y-107685001I0J249999D01*
G01*
X123785000Y-106784999D01*
G75*
G02*
X124034999Y-106535000I249999J0D01*
G01*
G37*
%TD.AperFunction*%
%TD*%
%TO.P,C13,2*%
%TO.N,GND*%
%TA.AperFunction,SMDPad,CuDef*%
G36*
G01*
X77535000Y-78314999D02*
X77535000Y-79165001D01*
G75*
G02*
X77285001Y-79415000I-249999J0D01*
G01*
X76384999Y-79415000D01*
G75*
G02*
X76135000Y-79165001I0J249999D01*
G01*
X76135000Y-78314999D01*
G75*
G02*
X76384999Y-78065000I249999J0D01*
G01*
X77285001Y-78065000D01*
G75*
G02*
X77535000Y-78314999I0J-249999D01*
G01*
G37*
%TD.AperFunction*%
%TO.P,C13,1*%
%TO.N,+5V*%
%TA.AperFunction,SMDPad,CuDef*%
G36*
G01*
X80235000Y-78314999D02*
X80235000Y-79165001D01*
G75*
G02*
X79985001Y-79415000I-249999J0D01*
G01*
X79084999Y-79415000D01*
G75*
G02*
X78835000Y-79165001I0J249999D01*
G01*
X78835000Y-78314999D01*
G75*
G02*
X79084999Y-78065000I249999J0D01*
G01*
X79985001Y-78065000D01*
G75*
G02*
X80235000Y-78314999I0J-249999D01*
G01*
G37*
%TD.AperFunction*%
%TD*%
D15*
%TO.P,C12,2*%
%TO.N,GND*%
X76835000Y-81280000D03*
%TO.P,C12,1*%
%TO.N,+5V*%
X79634080Y-81280000D03*
%TD*%
D13*
%TO.P,SUPPLY1,2*%
%TO.N,VCC*%
X81280000Y-95250000D03*
D14*
%TO.P,SUPPLY1,1*%
%TO.N,GND*%
X81280000Y-100330000D03*
%TD*%
%TO.P,C11,2*%
%TO.N,GND*%
%TA.AperFunction,SMDPad,CuDef*%
G36*
G01*
X94405001Y-87535000D02*
X93554999Y-87535000D01*
G75*
G02*
X93305000Y-87285001I0J249999D01*
G01*
X93305000Y-86384999D01*
G75*
G02*
X93554999Y-86135000I249999J0D01*
G01*
X94405001Y-86135000D01*
G75*
G02*
X94655000Y-86384999I0J-249999D01*
G01*
X94655000Y-87285001D01*
G75*
G02*
X94405001Y-87535000I-249999J0D01*
G01*
G37*
%TD.AperFunction*%
%TO.P,C11,1*%
%TO.N,Net-(C11-Pad1)*%
%TA.AperFunction,SMDPad,CuDef*%
G36*
G01*
X94405001Y-90235000D02*
X93554999Y-90235000D01*
G75*
G02*
X93305000Y-89985001I0J249999D01*
G01*
X93305000Y-89084999D01*
G75*
G02*
X93554999Y-88835000I249999J0D01*
G01*
X94405001Y-88835000D01*
G75*
G02*
X94655000Y-89084999I0J-249999D01*
G01*
X94655000Y-89985001D01*
G75*
G02*
X94405001Y-90235000I-249999J0D01*
G01*
G37*
%TD.AperFunction*%
%TD*%
%TO.P,C9,2*%
%TO.N,GND*%
%TA.AperFunction,SMDPad,CuDef*%
G36*
G01*
X90595001Y-80550000D02*
X89744999Y-80550000D01*
G75*
G02*
X89495000Y-80300001I0J249999D01*
G01*
X89495000Y-79399999D01*
G75*
G02*
X89744999Y-79150000I249999J0D01*
G01*
X90595001Y-79150000D01*
G75*
G02*
X90845000Y-79399999I0J-249999D01*
G01*
X90845000Y-80300001D01*
G75*
G02*
X90595001Y-80550000I-249999J0D01*
G01*
G37*
%TD.AperFunction*%
%TO.P,C9,1*%
%TO.N,/3.3V*%
%TA.AperFunction,SMDPad,CuDef*%
G36*
G01*
X90595001Y-83250000D02*
X89744999Y-83250000D01*
G75*
G02*
X89495000Y-83000001I0J249999D01*
G01*
X89495000Y-82099999D01*
G75*
G02*
X89744999Y-81850000I249999J0D01*
G01*
X90595001Y-81850000D01*
G75*
G02*
X90845000Y-82099999I0J-249999D01*
G01*
X90845000Y-83000001D01*
G75*
G02*
X90595001Y-83250000I-249999J0D01*
G01*
G37*
%TD.AperFunction*%
%TD*%
%TO.P,C8,2*%
%TO.N,GND*%
%TA.AperFunction,SMDPad,CuDef*%
G36*
G01*
X78314999Y-90900000D02*
X79165001Y-90900000D01*
G75*
G02*
X79415000Y-91149999I0J-249999D01*
G01*
X79415000Y-92050001D01*
G75*
G02*
X79165001Y-92300000I-249999J0D01*
G01*
X78314999Y-92300000D01*
G75*
G02*
X78065000Y-92050001I0J249999D01*
G01*
X78065000Y-91149999D01*
G75*
G02*
X78314999Y-90900000I249999J0D01*
G01*
G37*
%TD.AperFunction*%
%TO.P,C8,1*%
%TO.N,VCC*%
%TA.AperFunction,SMDPad,CuDef*%
G36*
G01*
X78314999Y-88200000D02*
X79165001Y-88200000D01*
G75*
G02*
X79415000Y-88449999I0J-249999D01*
G01*
X79415000Y-89350001D01*
G75*
G02*
X79165001Y-89600000I-249999J0D01*
G01*
X78314999Y-89600000D01*
G75*
G02*
X78065000Y-89350001I0J249999D01*
G01*
X78065000Y-88449999D01*
G75*
G02*
X78314999Y-88200000I249999J0D01*
G01*
G37*
%TD.AperFunction*%
%TD*%
%TO.P,C5,2*%
%TO.N,GND*%
%TA.AperFunction,SMDPad,CuDef*%
G36*
G01*
X108375001Y-79440000D02*
X107524999Y-79440000D01*
G75*
G02*
X107275000Y-79190001I0J249999D01*
G01*
X107275000Y-78289999D01*
G75*
G02*
X107524999Y-78040000I249999J0D01*
G01*
X108375001Y-78040000D01*
G75*
G02*
X108625000Y-78289999I0J-249999D01*
G01*
X108625000Y-79190001D01*
G75*
G02*
X108375001Y-79440000I-249999J0D01*
G01*
G37*
%TD.AperFunction*%
%TO.P,C5,1*%
%TO.N,+5V*%
%TA.AperFunction,SMDPad,CuDef*%
G36*
G01*
X108375001Y-82140000D02*
X107524999Y-82140000D01*
G75*
G02*
X107275000Y-81890001I0J249999D01*
G01*
X107275000Y-80989999D01*
G75*
G02*
X107524999Y-80740000I249999J0D01*
G01*
X108375001Y-80740000D01*
G75*
G02*
X108625000Y-80989999I0J-249999D01*
G01*
X108625000Y-81890001D01*
G75*
G02*
X108375001Y-82140000I-249999J0D01*
G01*
G37*
%TD.AperFunction*%
%TD*%
D16*
%TO.P,R8,2*%
%TO.N,/RLYCTL*%
X93980000Y-113030000D03*
%TO.P,R8,1*%
%TO.N,Net-(Q2-Pad1)*%
X92181680Y-113030000D03*
%TD*%
D17*
%TO.P,C4,2*%
%TO.N,GND*%
X100965000Y-129799080D03*
%TO.P,C4,1*%
%TO.N,+5V*%
X100965000Y-127000000D03*
%TD*%
%TO.P,C6,1*%
%TO.N,+5V*%
X105410000Y-81409540D03*
%TO.P,C6,2*%
%TO.N,GND*%
X105410000Y-78610460D03*
%TD*%
%TO.P,C7,2*%
%TO.N,Net-(C7-Pad2)*%
X90170000Y-129540000D03*
%TO.P,C7,1*%
%TO.N,GND*%
X90170000Y-132339080D03*
%TD*%
%TO.P,C10,1*%
%TO.N,/3.3V*%
X127635000Y-105915460D03*
%TO.P,C10,2*%
%TO.N,GND*%
X127635000Y-108714540D03*
%TD*%
D18*
%TO.P,D1,1*%
%TO.N,Net-(D1-Pad1)*%
X81280000Y-118110000D03*
%TO.P,D1,2*%
%TO.N,Net-(D1-Pad2)*%
X85280000Y-118110000D03*
%TD*%
%TO.P,FB1,2*%
%TO.N,VCC*%
%TA.AperFunction,SMDPad,CuDef*%
G36*
G01*
X81475000Y-89805000D02*
X83625000Y-89805000D01*
G75*
G02*
X83875000Y-90055000I0J-250000D01*
G01*
X83875000Y-90805000D01*
G75*
G02*
X83625000Y-91055000I-250000J0D01*
G01*
X81475000Y-91055000D01*
G75*
G02*
X81225000Y-90805000I0J250000D01*
G01*
X81225000Y-90055000D01*
G75*
G02*
X81475000Y-89805000I250000J0D01*
G01*
G37*
%TD.AperFunction*%
%TO.P,FB1,1*%
%TO.N,+5V*%
%TA.AperFunction,SMDPad,CuDef*%
G36*
G01*
X81475000Y-87005000D02*
X83625000Y-87005000D01*
G75*
G02*
X83875000Y-87255000I0J-250000D01*
G01*
X83875000Y-88005000D01*
G75*
G02*
X83625000Y-88255000I-250000J0D01*
G01*
X81475000Y-88255000D01*
G75*
G02*
X81225000Y-88005000I0J250000D01*
G01*
X81225000Y-87255000D01*
G75*
G02*
X81475000Y-87005000I250000J0D01*
G01*
G37*
%TD.AperFunction*%
%TD*%
%TO.P,FB2,1*%
%TO.N,/3.3V*%
%TA.AperFunction,SMDPad,CuDef*%
G36*
G01*
X84015000Y-81665000D02*
X86165000Y-81665000D01*
G75*
G02*
X86415000Y-81915000I0J-250000D01*
G01*
X86415000Y-82665000D01*
G75*
G02*
X86165000Y-82915000I-250000J0D01*
G01*
X84015000Y-82915000D01*
G75*
G02*
X83765000Y-82665000I0J250000D01*
G01*
X83765000Y-81915000D01*
G75*
G02*
X84015000Y-81665000I250000J0D01*
G01*
G37*
%TD.AperFunction*%
%TO.P,FB2,2*%
%TO.N,Net-(FB2-Pad2)*%
%TA.AperFunction,SMDPad,CuDef*%
G36*
G01*
X84015000Y-84465000D02*
X86165000Y-84465000D01*
G75*
G02*
X86415000Y-84715000I0J-250000D01*
G01*
X86415000Y-85465000D01*
G75*
G02*
X86165000Y-85715000I-250000J0D01*
G01*
X84015000Y-85715000D01*
G75*
G02*
X83765000Y-85465000I0J250000D01*
G01*
X83765000Y-84715000D01*
G75*
G02*
X84015000Y-84465000I250000J0D01*
G01*
G37*
%TD.AperFunction*%
%TD*%
D19*
%TO.P,ISP1,1*%
%TO.N,/MISO*%
X121285000Y-93980000D03*
D20*
%TO.P,ISP1,2*%
%TO.N,+5V*%
X118745000Y-93980000D03*
%TO.P,ISP1,3*%
%TO.N,/SCK*%
X121285000Y-91440000D03*
%TO.P,ISP1,4*%
%TO.N,/MOSI*%
X118745000Y-91440000D03*
%TO.P,ISP1,5*%
%TO.N,/~RST*%
X121285000Y-88900000D03*
%TO.P,ISP1,6*%
%TO.N,GND*%
X118745000Y-88900000D03*
%TD*%
D21*
%TO.P,K1,2*%
%TO.N,Net-(D1-Pad2)*%
X92410000Y-121240000D03*
D13*
%TO.P,K1,3*%
%TO.N,VCC*%
X92410000Y-109040000D03*
%TO.P,K1,4*%
%TO.N,GND*%
X80360000Y-108990000D03*
D21*
%TO.P,K1,5*%
%TO.N,Net-(D1-Pad1)*%
X80410000Y-121240000D03*
D13*
%TO.P,K1,1*%
%TO.N,Net-(K1-Pad1)*%
X86360000Y-123190000D03*
%TD*%
D22*
%TO.P,nRF24L1,1*%
%TO.N,GND*%
X127635000Y-100330000D03*
D23*
%TO.P,nRF24L1,2*%
%TO.N,/3.3V*%
X127635000Y-102870000D03*
%TO.P,nRF24L1,3*%
%TO.N,/nRFCE*%
X125095000Y-100330000D03*
%TO.P,nRF24L1,4*%
%TO.N,/~SS*%
X125095000Y-102870000D03*
%TO.P,nRF24L1,5*%
%TO.N,/SCK*%
X122555000Y-100330000D03*
%TO.P,nRF24L1,6*%
%TO.N,/MOSI*%
X122555000Y-102870000D03*
%TO.P,nRF24L1,7*%
%TO.N,/MISO*%
X120015000Y-100330000D03*
%TO.P,nRF24L1,8*%
%TO.N,/nRFIRQ*%
X120015000Y-102870000D03*
%TD*%
D24*
%TO.P,Q2,1*%
%TO.N,Net-(Q2-Pad1)*%
X89630000Y-115890000D03*
%TO.P,Q2,2*%
%TO.N,GND*%
X89630000Y-117790000D03*
%TO.P,Q2,3*%
%TO.N,Net-(D1-Pad2)*%
X87630000Y-116840000D03*
%TD*%
D25*
%TO.P,R2,1*%
%TO.N,/(CLK&~MOSI~&PWM)||(CLK&MOSI)*%
X94615000Y-129646680D03*
%TO.P,R2,2*%
%TO.N,GND*%
X94615000Y-131445000D03*
%TD*%
%TO.P,R4,2*%
%TO.N,Net-(K1-Pad1)*%
X90170000Y-126100840D03*
%TO.P,R4,1*%
%TO.N,Net-(C7-Pad2)*%
X90170000Y-127899160D03*
%TD*%
D16*
%TO.P,R5,2*%
%TO.N,Net-(C11-Pad1)*%
X91069160Y-85090000D03*
%TO.P,R5,1*%
%TO.N,/3.3V*%
X89270840Y-85090000D03*
%TD*%
%TO.P,R6,1*%
%TO.N,Net-(C11-Pad1)*%
X92710000Y-84455000D03*
%TO.P,R6,2*%
%TO.N,GND*%
X94508320Y-84455000D03*
%TD*%
%TO.P,R7,1*%
%TO.N,Net-(Q2-Pad1)*%
X92181680Y-115570000D03*
%TO.P,R7,2*%
%TO.N,GND*%
X93980000Y-115570000D03*
%TD*%
D12*
%TO.P,RS485,1*%
%TO.N,GND*%
X88265000Y-74295000D03*
%TO.P,RS485,2*%
%TO.N,/RX*%
X85725000Y-74295000D03*
%TO.P,RS485,3*%
%TO.N,/TX*%
X83185000Y-74295000D03*
%TO.P,RS485,4*%
%TO.N,+5V*%
X80645000Y-74295000D03*
%TD*%
%TO.P,U1,14*%
%TO.N,+5V*%
%TA.AperFunction,SMDPad,CuDef*%
G36*
G01*
X103355000Y-114595000D02*
X103655000Y-114595000D01*
G75*
G02*
X103805000Y-114745000I0J-150000D01*
G01*
X103805000Y-116395000D01*
G75*
G02*
X103655000Y-116545000I-150000J0D01*
G01*
X103355000Y-116545000D01*
G75*
G02*
X103205000Y-116395000I0J150000D01*
G01*
X103205000Y-114745000D01*
G75*
G02*
X103355000Y-114595000I150000J0D01*
G01*
G37*
%TD.AperFunction*%
%TO.P,U1,13*%
%TO.N,/~MOSI~&PWM*%
%TA.AperFunction,SMDPad,CuDef*%
G36*
G01*
X104625000Y-114595000D02*
X104925000Y-114595000D01*
G75*
G02*
X105075000Y-114745000I0J-150000D01*
G01*
X105075000Y-116395000D01*
G75*
G02*
X104925000Y-116545000I-150000J0D01*
G01*
X104625000Y-116545000D01*
G75*
G02*
X104475000Y-116395000I0J150000D01*
G01*
X104475000Y-114745000D01*
G75*
G02*
X104625000Y-114595000I150000J0D01*
G01*
G37*
%TD.AperFunction*%
%TO.P,U1,12*%
%TO.N,/CLK*%
%TA.AperFunction,SMDPad,CuDef*%
G36*
G01*
X105895000Y-114595000D02*
X106195000Y-114595000D01*
G75*
G02*
X106345000Y-114745000I0J-150000D01*
G01*
X106345000Y-116395000D01*
G75*
G02*
X106195000Y-116545000I-150000J0D01*
G01*
X105895000Y-116545000D01*
G75*
G02*
X105745000Y-116395000I0J150000D01*
G01*
X105745000Y-114745000D01*
G75*
G02*
X105895000Y-114595000I150000J0D01*
G01*
G37*
%TD.AperFunction*%
%TO.P,U1,11*%
%TO.N,/CLK&~MOSI~&PWM*%
%TA.AperFunction,SMDPad,CuDef*%
G36*
G01*
X107165000Y-114595000D02*
X107465000Y-114595000D01*
G75*
G02*
X107615000Y-114745000I0J-150000D01*
G01*
X107615000Y-116395000D01*
G75*
G02*
X107465000Y-116545000I-150000J0D01*
G01*
X107165000Y-116545000D01*
G75*
G02*
X107015000Y-116395000I0J150000D01*
G01*
X107015000Y-114745000D01*
G75*
G02*
X107165000Y-114595000I150000J0D01*
G01*
G37*
%TD.AperFunction*%
%TO.P,U1,10*%
%TO.N,/CLK&MOSI*%
%TA.AperFunction,SMDPad,CuDef*%
G36*
G01*
X108435000Y-114595000D02*
X108735000Y-114595000D01*
G75*
G02*
X108885000Y-114745000I0J-150000D01*
G01*
X108885000Y-116395000D01*
G75*
G02*
X108735000Y-116545000I-150000J0D01*
G01*
X108435000Y-116545000D01*
G75*
G02*
X108285000Y-116395000I0J150000D01*
G01*
X108285000Y-114745000D01*
G75*
G02*
X108435000Y-114595000I150000J0D01*
G01*
G37*
%TD.AperFunction*%
%TO.P,U1,9*%
%TO.N,/CLK*%
%TA.AperFunction,SMDPad,CuDef*%
G36*
G01*
X109705000Y-114595000D02*
X110005000Y-114595000D01*
G75*
G02*
X110155000Y-114745000I0J-150000D01*
G01*
X110155000Y-116395000D01*
G75*
G02*
X110005000Y-116545000I-150000J0D01*
G01*
X109705000Y-116545000D01*
G75*
G02*
X109555000Y-116395000I0J150000D01*
G01*
X109555000Y-114745000D01*
G75*
G02*
X109705000Y-114595000I150000J0D01*
G01*
G37*
%TD.AperFunction*%
%TO.P,U1,8*%
%TO.N,/MOSI*%
%TA.AperFunction,SMDPad,CuDef*%
G36*
G01*
X110975000Y-114595000D02*
X111275000Y-114595000D01*
G75*
G02*
X111425000Y-114745000I0J-150000D01*
G01*
X111425000Y-116395000D01*
G75*
G02*
X111275000Y-116545000I-150000J0D01*
G01*
X110975000Y-116545000D01*
G75*
G02*
X110825000Y-116395000I0J150000D01*
G01*
X110825000Y-114745000D01*
G75*
G02*
X110975000Y-114595000I150000J0D01*
G01*
G37*
%TD.AperFunction*%
%TO.P,U1,7*%
%TO.N,GND*%
%TA.AperFunction,SMDPad,CuDef*%
G36*
G01*
X110975000Y-109645000D02*
X111275000Y-109645000D01*
G75*
G02*
X111425000Y-109795000I0J-150000D01*
G01*
X111425000Y-111445000D01*
G75*
G02*
X111275000Y-111595000I-150000J0D01*
G01*
X110975000Y-111595000D01*
G75*
G02*
X110825000Y-111445000I0J150000D01*
G01*
X110825000Y-109795000D01*
G75*
G02*
X110975000Y-109645000I150000J0D01*
G01*
G37*
%TD.AperFunction*%
%TO.P,U1,6*%
%TO.N,/PWM*%
%TA.AperFunction,SMDPad,CuDef*%
G36*
G01*
X109705000Y-109645000D02*
X110005000Y-109645000D01*
G75*
G02*
X110155000Y-109795000I0J-150000D01*
G01*
X110155000Y-111445000D01*
G75*
G02*
X110005000Y-111595000I-150000J0D01*
G01*
X109705000Y-111595000D01*
G75*
G02*
X109555000Y-111445000I0J150000D01*
G01*
X109555000Y-109795000D01*
G75*
G02*
X109705000Y-109645000I150000J0D01*
G01*
G37*
%TD.AperFunction*%
%TO.P,U1,5*%
%TO.N,/~MOSI*%
%TA.AperFunction,SMDPad,CuDef*%
G36*
G01*
X108435000Y-109645000D02*
X108735000Y-109645000D01*
G75*
G02*
X108885000Y-109795000I0J-150000D01*
G01*
X108885000Y-111445000D01*
G75*
G02*
X108735000Y-111595000I-150000J0D01*
G01*
X108435000Y-111595000D01*
G75*
G02*
X108285000Y-111445000I0J150000D01*
G01*
X108285000Y-109795000D01*
G75*
G02*
X108435000Y-109645000I150000J0D01*
G01*
G37*
%TD.AperFunction*%
%TO.P,U1,4*%
%TO.N,/~MOSI~&PWM*%
%TA.AperFunction,SMDPad,CuDef*%
G36*
G01*
X107165000Y-109645000D02*
X107465000Y-109645000D01*
G75*
G02*
X107615000Y-109795000I0J-150000D01*
G01*
X107615000Y-111445000D01*
G75*
G02*
X107465000Y-111595000I-150000J0D01*
G01*
X107165000Y-111595000D01*
G75*
G02*
X107015000Y-111445000I0J150000D01*
G01*
X107015000Y-109795000D01*
G75*
G02*
X107165000Y-109645000I150000J0D01*
G01*
G37*
%TD.AperFunction*%
%TO.P,U1,3*%
%TO.N,/CLK*%
%TA.AperFunction,SMDPad,CuDef*%
G36*
G01*
X105895000Y-109645000D02*
X106195000Y-109645000D01*
G75*
G02*
X106345000Y-109795000I0J-150000D01*
G01*
X106345000Y-111445000D01*
G75*
G02*
X106195000Y-111595000I-150000J0D01*
G01*
X105895000Y-111595000D01*
G75*
G02*
X105745000Y-111445000I0J150000D01*
G01*
X105745000Y-109795000D01*
G75*
G02*
X105895000Y-109645000I150000J0D01*
G01*
G37*
%TD.AperFunction*%
%TO.P,U1,2*%
%TO.N,/~SS*%
%TA.AperFunction,SMDPad,CuDef*%
G36*
G01*
X104625000Y-109645000D02*
X104925000Y-109645000D01*
G75*
G02*
X105075000Y-109795000I0J-150000D01*
G01*
X105075000Y-111445000D01*
G75*
G02*
X104925000Y-111595000I-150000J0D01*
G01*
X104625000Y-111595000D01*
G75*
G02*
X104475000Y-111445000I0J150000D01*
G01*
X104475000Y-109795000D01*
G75*
G02*
X104625000Y-109645000I150000J0D01*
G01*
G37*
%TD.AperFunction*%
%TO.P,U1,1*%
%TO.N,/SCK*%
%TA.AperFunction,SMDPad,CuDef*%
G36*
G01*
X103355000Y-109645000D02*
X103655000Y-109645000D01*
G75*
G02*
X103805000Y-109795000I0J-150000D01*
G01*
X103805000Y-111445000D01*
G75*
G02*
X103655000Y-111595000I-150000J0D01*
G01*
X103355000Y-111595000D01*
G75*
G02*
X103205000Y-111445000I0J150000D01*
G01*
X103205000Y-109795000D01*
G75*
G02*
X103355000Y-109645000I150000J0D01*
G01*
G37*
%TD.AperFunction*%
%TD*%
%TO.P,U2,1*%
%TO.N,/(CLK&~MOSI~&PWM)||(CLK&MOSI)*%
%TA.AperFunction,SMDPad,CuDef*%
G36*
G01*
X103355000Y-121075000D02*
X103655000Y-121075000D01*
G75*
G02*
X103805000Y-121225000I0J-150000D01*
G01*
X103805000Y-122875000D01*
G75*
G02*
X103655000Y-123025000I-150000J0D01*
G01*
X103355000Y-123025000D01*
G75*
G02*
X103205000Y-122875000I0J150000D01*
G01*
X103205000Y-121225000D01*
G75*
G02*
X103355000Y-121075000I150000J0D01*
G01*
G37*
%TD.AperFunction*%
%TO.P,U2,2*%
%TO.N,Net-(U2-Pad2)*%
%TA.AperFunction,SMDPad,CuDef*%
G36*
G01*
X104625000Y-121075000D02*
X104925000Y-121075000D01*
G75*
G02*
X105075000Y-121225000I0J-150000D01*
G01*
X105075000Y-122875000D01*
G75*
G02*
X104925000Y-123025000I-150000J0D01*
G01*
X104625000Y-123025000D01*
G75*
G02*
X104475000Y-122875000I0J150000D01*
G01*
X104475000Y-121225000D01*
G75*
G02*
X104625000Y-121075000I150000J0D01*
G01*
G37*
%TD.AperFunction*%
%TO.P,U2,3*%
%TA.AperFunction,SMDPad,CuDef*%
G36*
G01*
X105895000Y-121075000D02*
X106195000Y-121075000D01*
G75*
G02*
X106345000Y-121225000I0J-150000D01*
G01*
X106345000Y-122875000D01*
G75*
G02*
X106195000Y-123025000I-150000J0D01*
G01*
X105895000Y-123025000D01*
G75*
G02*
X105745000Y-122875000I0J150000D01*
G01*
X105745000Y-121225000D01*
G75*
G02*
X105895000Y-121075000I150000J0D01*
G01*
G37*
%TD.AperFunction*%
%TO.P,U2,4*%
%TA.AperFunction,SMDPad,CuDef*%
G36*
G01*
X107165000Y-121075000D02*
X107465000Y-121075000D01*
G75*
G02*
X107615000Y-121225000I0J-150000D01*
G01*
X107615000Y-122875000D01*
G75*
G02*
X107465000Y-123025000I-150000J0D01*
G01*
X107165000Y-123025000D01*
G75*
G02*
X107015000Y-122875000I0J150000D01*
G01*
X107015000Y-121225000D01*
G75*
G02*
X107165000Y-121075000I150000J0D01*
G01*
G37*
%TD.AperFunction*%
%TO.P,U2,5*%
%TO.N,/CLK&~MOSI~&PWM*%
%TA.AperFunction,SMDPad,CuDef*%
G36*
G01*
X108435000Y-121075000D02*
X108735000Y-121075000D01*
G75*
G02*
X108885000Y-121225000I0J-150000D01*
G01*
X108885000Y-122875000D01*
G75*
G02*
X108735000Y-123025000I-150000J0D01*
G01*
X108435000Y-123025000D01*
G75*
G02*
X108285000Y-122875000I0J150000D01*
G01*
X108285000Y-121225000D01*
G75*
G02*
X108435000Y-121075000I150000J0D01*
G01*
G37*
%TD.AperFunction*%
%TO.P,U2,6*%
%TO.N,/CLK&MOSI*%
%TA.AperFunction,SMDPad,CuDef*%
G36*
G01*
X109705000Y-121075000D02*
X110005000Y-121075000D01*
G75*
G02*
X110155000Y-121225000I0J-150000D01*
G01*
X110155000Y-122875000D01*
G75*
G02*
X110005000Y-123025000I-150000J0D01*
G01*
X109705000Y-123025000D01*
G75*
G02*
X109555000Y-122875000I0J150000D01*
G01*
X109555000Y-121225000D01*
G75*
G02*
X109705000Y-121075000I150000J0D01*
G01*
G37*
%TD.AperFunction*%
%TO.P,U2,7*%
%TO.N,GND*%
%TA.AperFunction,SMDPad,CuDef*%
G36*
G01*
X110975000Y-121075000D02*
X111275000Y-121075000D01*
G75*
G02*
X111425000Y-121225000I0J-150000D01*
G01*
X111425000Y-122875000D01*
G75*
G02*
X111275000Y-123025000I-150000J0D01*
G01*
X110975000Y-123025000D01*
G75*
G02*
X110825000Y-122875000I0J150000D01*
G01*
X110825000Y-121225000D01*
G75*
G02*
X110975000Y-121075000I150000J0D01*
G01*
G37*
%TD.AperFunction*%
%TO.P,U2,8*%
%TO.N,/MOSI*%
%TA.AperFunction,SMDPad,CuDef*%
G36*
G01*
X110975000Y-126025000D02*
X111275000Y-126025000D01*
G75*
G02*
X111425000Y-126175000I0J-150000D01*
G01*
X111425000Y-127825000D01*
G75*
G02*
X111275000Y-127975000I-150000J0D01*
G01*
X110975000Y-127975000D01*
G75*
G02*
X110825000Y-127825000I0J150000D01*
G01*
X110825000Y-126175000D01*
G75*
G02*
X110975000Y-126025000I150000J0D01*
G01*
G37*
%TD.AperFunction*%
%TO.P,U2,9*%
%TA.AperFunction,SMDPad,CuDef*%
G36*
G01*
X109705000Y-126025000D02*
X110005000Y-126025000D01*
G75*
G02*
X110155000Y-126175000I0J-150000D01*
G01*
X110155000Y-127825000D01*
G75*
G02*
X110005000Y-127975000I-150000J0D01*
G01*
X109705000Y-127975000D01*
G75*
G02*
X109555000Y-127825000I0J150000D01*
G01*
X109555000Y-126175000D01*
G75*
G02*
X109705000Y-126025000I150000J0D01*
G01*
G37*
%TD.AperFunction*%
%TO.P,U2,10*%
%TO.N,/~MOSI*%
%TA.AperFunction,SMDPad,CuDef*%
G36*
G01*
X108435000Y-126025000D02*
X108735000Y-126025000D01*
G75*
G02*
X108885000Y-126175000I0J-150000D01*
G01*
X108885000Y-127825000D01*
G75*
G02*
X108735000Y-127975000I-150000J0D01*
G01*
X108435000Y-127975000D01*
G75*
G02*
X108285000Y-127825000I0J150000D01*
G01*
X108285000Y-126175000D01*
G75*
G02*
X108435000Y-126025000I150000J0D01*
G01*
G37*
%TD.AperFunction*%
%TO.P,U2,11*%
%TO.N,N/C*%
%TA.AperFunction,SMDPad,CuDef*%
G36*
G01*
X107165000Y-126025000D02*
X107465000Y-126025000D01*
G75*
G02*
X107615000Y-126175000I0J-150000D01*
G01*
X107615000Y-127825000D01*
G75*
G02*
X107465000Y-127975000I-150000J0D01*
G01*
X107165000Y-127975000D01*
G75*
G02*
X107015000Y-127825000I0J150000D01*
G01*
X107015000Y-126175000D01*
G75*
G02*
X107165000Y-126025000I150000J0D01*
G01*
G37*
%TD.AperFunction*%
%TO.P,U2,12*%
%TA.AperFunction,SMDPad,CuDef*%
G36*
G01*
X105895000Y-126025000D02*
X106195000Y-126025000D01*
G75*
G02*
X106345000Y-126175000I0J-150000D01*
G01*
X106345000Y-127825000D01*
G75*
G02*
X106195000Y-127975000I-150000J0D01*
G01*
X105895000Y-127975000D01*
G75*
G02*
X105745000Y-127825000I0J150000D01*
G01*
X105745000Y-126175000D01*
G75*
G02*
X105895000Y-126025000I150000J0D01*
G01*
G37*
%TD.AperFunction*%
%TO.P,U2,13*%
%TA.AperFunction,SMDPad,CuDef*%
G36*
G01*
X104625000Y-126025000D02*
X104925000Y-126025000D01*
G75*
G02*
X105075000Y-126175000I0J-150000D01*
G01*
X105075000Y-127825000D01*
G75*
G02*
X104925000Y-127975000I-150000J0D01*
G01*
X104625000Y-127975000D01*
G75*
G02*
X104475000Y-127825000I0J150000D01*
G01*
X104475000Y-126175000D01*
G75*
G02*
X104625000Y-126025000I150000J0D01*
G01*
G37*
%TD.AperFunction*%
%TO.P,U2,14*%
%TO.N,+5V*%
%TA.AperFunction,SMDPad,CuDef*%
G36*
G01*
X103355000Y-126025000D02*
X103655000Y-126025000D01*
G75*
G02*
X103805000Y-126175000I0J-150000D01*
G01*
X103805000Y-127825000D01*
G75*
G02*
X103655000Y-127975000I-150000J0D01*
G01*
X103355000Y-127975000D01*
G75*
G02*
X103205000Y-127825000I0J150000D01*
G01*
X103205000Y-126175000D01*
G75*
G02*
X103355000Y-126025000I150000J0D01*
G01*
G37*
%TD.AperFunction*%
%TD*%
D26*
%TO.P,U3,2*%
%TO.N,Net-(FB2-Pad2)*%
X88900000Y-87655000D03*
D27*
X88900000Y-93955000D03*
%TO.P,U3,3*%
%TO.N,VCC*%
X86600000Y-93955000D03*
%TO.P,U3,1*%
%TO.N,Net-(C11-Pad1)*%
X91200000Y-93955000D03*
%TD*%
%TO.P,XnRF1,2*%
%TO.N,VCC*%
%TA.AperFunction,SMDPad,CuDef*%
G36*
G01*
X83175000Y-112255000D02*
X81925000Y-112255000D01*
G75*
G02*
X81675000Y-112005000I0J250000D01*
G01*
X81675000Y-111255000D01*
G75*
G02*
X81925000Y-111005000I250000J0D01*
G01*
X83175000Y-111005000D01*
G75*
G02*
X83425000Y-111255000I0J-250000D01*
G01*
X83425000Y-112005000D01*
G75*
G02*
X83175000Y-112255000I-250000J0D01*
G01*
G37*
%TD.AperFunction*%
%TO.P,XnRF1,1*%
%TO.N,Net-(D1-Pad1)*%
%TA.AperFunction,SMDPad,CuDef*%
G36*
G01*
X83175000Y-115055000D02*
X81925000Y-115055000D01*
G75*
G02*
X81675000Y-114805000I0J250000D01*
G01*
X81675000Y-114055000D01*
G75*
G02*
X81925000Y-113805000I250000J0D01*
G01*
X83175000Y-113805000D01*
G75*
G02*
X83425000Y-114055000I0J-250000D01*
G01*
X83425000Y-114805000D01*
G75*
G02*
X83175000Y-115055000I-250000J0D01*
G01*
G37*
%TD.AperFunction*%
%TD*%
D28*
%TO.N,GND*%
X113030000Y-118745000D03*
X113030000Y-110490000D03*
%TO.N,/PWM*%
X109855000Y-107950000D03*
%TO.N,/MOSI*%
X114935000Y-114300000D03*
%TO.N,+5V*%
X102870000Y-81280000D03*
X100965000Y-115570000D03*
X100965000Y-124460000D03*
%TD*%
D29*
%TO.N,/RX*%
X95885000Y-76835000D02*
X96520000Y-77470000D01*
X86360000Y-76835000D02*
X95885000Y-76835000D01*
X85725000Y-76200000D02*
X86360000Y-76835000D01*
X85725000Y-74930000D02*
X85725000Y-76200000D01*
D30*
%TO.N,GND*%
X80360000Y-101250000D02*
X81280000Y-100330000D01*
X80360000Y-108990000D02*
X80360000Y-101250000D01*
X76200000Y-113150000D02*
X80360000Y-108990000D01*
X81280000Y-129540000D02*
X80010000Y-129540000D01*
X80010000Y-129540000D02*
X76200000Y-125730000D01*
X76200000Y-125730000D02*
X76200000Y-113150000D01*
D31*
X78740000Y-97790000D02*
X81280000Y-100330000D01*
X78740000Y-91600000D02*
X78740000Y-97790000D01*
D32*
X89630000Y-117790000D02*
X93030000Y-117790000D01*
X93980000Y-116840000D02*
X93980000Y-115570000D01*
X93030000Y-117790000D02*
X93980000Y-116840000D01*
D33*
X90170000Y-132339080D02*
X82809080Y-132339080D01*
X82809080Y-132339080D02*
X81280000Y-130810000D01*
X81280000Y-130810000D02*
X81280000Y-129540000D01*
D32*
X90170000Y-80010000D02*
X91440000Y-80010000D01*
X93980000Y-82550000D02*
X96520000Y-82550000D01*
X91440000Y-80010000D02*
X93980000Y-82550000D01*
D33*
X105410000Y-78610460D02*
X102999540Y-78610460D01*
X99060000Y-82550000D02*
X96520000Y-82550000D01*
X102999540Y-78610460D02*
X99060000Y-82550000D01*
D32*
X109220000Y-77470000D02*
X107950000Y-78740000D01*
X111760000Y-77470000D02*
X109220000Y-77470000D01*
X105539540Y-78740000D02*
X105410000Y-78610460D01*
X107950000Y-78740000D02*
X105539540Y-78740000D01*
D33*
X88265000Y-73025000D02*
X88265000Y-74930000D01*
X79502000Y-72390000D02*
X87630000Y-72390000D01*
X76835000Y-78740000D02*
X76835000Y-76073000D01*
X76835000Y-76073000D02*
X78486000Y-74422000D01*
X78486000Y-74422000D02*
X78486000Y-73406000D01*
X78486000Y-73406000D02*
X79502000Y-72390000D01*
X87630000Y-72390000D02*
X88265000Y-73025000D01*
D31*
X78740000Y-91600000D02*
X77630000Y-91600000D01*
X77630000Y-91600000D02*
X76835000Y-90805000D01*
X76835000Y-90805000D02*
X76835000Y-81280000D01*
X76835000Y-81280000D02*
X76835000Y-78740000D01*
D32*
X94508320Y-86306680D02*
X93980000Y-86835000D01*
X94508320Y-84455000D02*
X94508320Y-86306680D01*
X94508320Y-83078320D02*
X93980000Y-82550000D01*
X94508320Y-84455000D02*
X94508320Y-83078320D01*
D34*
X127635000Y-108714540D02*
X126870460Y-108714540D01*
X125650000Y-109935000D02*
X124460000Y-109935000D01*
X126870460Y-108714540D02*
X125650000Y-109935000D01*
D33*
X94615000Y-119375000D02*
X93030000Y-117790000D01*
X92710000Y-131445000D02*
X92710000Y-127000000D01*
X92710000Y-127000000D02*
X94615000Y-125095000D01*
X94615000Y-125095000D02*
X94615000Y-119375000D01*
X91815920Y-132339080D02*
X92710000Y-131445000D01*
X90170000Y-132339080D02*
X91815920Y-132339080D01*
X94615000Y-131445000D02*
X92710000Y-131445000D01*
X94615000Y-131445000D02*
X100330000Y-131445000D01*
X100330000Y-131445000D02*
X100965000Y-130810000D01*
X100965000Y-130810000D02*
X100965000Y-129799080D01*
D34*
X111125000Y-122050000D02*
X112265000Y-122050000D01*
X112265000Y-122050000D02*
X113030000Y-121285000D01*
X113030000Y-121285000D02*
X113030000Y-118745000D01*
X112900000Y-110620000D02*
X113030000Y-110490000D01*
X111125000Y-110620000D02*
X112900000Y-110620000D01*
X113585000Y-109935000D02*
X113030000Y-110490000D01*
X124460000Y-109935000D02*
X113585000Y-109935000D01*
%TO.N,/PWM*%
X109855000Y-110620000D02*
X109855000Y-107950000D01*
%TO.N,/~SS*%
X111760000Y-102870000D02*
X113030000Y-102870000D01*
X113030000Y-102870000D02*
X115570000Y-105410000D01*
X115570000Y-105410000D02*
X124460000Y-105410000D01*
X125095000Y-104775000D02*
X125095000Y-102870000D01*
X124460000Y-105410000D02*
X125095000Y-104775000D01*
X104775000Y-110620000D02*
X104775000Y-107950000D01*
X104775000Y-107950000D02*
X109855000Y-102870000D01*
X109855000Y-102870000D02*
X111760000Y-102870000D01*
D35*
%TO.N,/MOSI*%
X109855000Y-127000000D02*
X111125000Y-127000000D01*
D34*
X111760000Y-100330000D02*
X113030000Y-100330000D01*
X113030000Y-100330000D02*
X114935000Y-102235000D01*
X114935000Y-102235000D02*
X114935000Y-103505000D01*
X114935000Y-103505000D02*
X116205000Y-104775000D01*
X116205000Y-104775000D02*
X121920000Y-104775000D01*
X122555000Y-104140000D02*
X122555000Y-102870000D01*
X121920000Y-104775000D02*
X122555000Y-104140000D01*
X111125000Y-115570000D02*
X113665000Y-115570000D01*
X113665000Y-115570000D02*
X114935000Y-114300000D01*
X111125000Y-127000000D02*
X114300000Y-127000000D01*
X114935000Y-126365000D02*
X114935000Y-114300000D01*
X114300000Y-127000000D02*
X114935000Y-126365000D01*
%TO.N,/MISO*%
X116205000Y-100330000D02*
X120015000Y-100330000D01*
X113665000Y-97790000D02*
X116205000Y-100330000D01*
X111760000Y-97790000D02*
X113665000Y-97790000D01*
%TO.N,/SCK*%
X111760000Y-95250000D02*
X113030000Y-95250000D01*
X113030000Y-95250000D02*
X116205000Y-98425000D01*
X116205000Y-98425000D02*
X121920000Y-98425000D01*
X122555000Y-99060000D02*
X122555000Y-100330000D01*
X121920000Y-98425000D02*
X122555000Y-99060000D01*
X103505000Y-103505000D02*
X111760000Y-95250000D01*
X103505000Y-110620000D02*
X103505000Y-103505000D01*
%TO.N,/RLYCTL*%
X111760000Y-92710000D02*
X108585000Y-92710000D01*
X108585000Y-92710000D02*
X99060000Y-102235000D01*
X99060000Y-102235000D02*
X99060000Y-109220000D01*
X95250000Y-113030000D02*
X93980000Y-113030000D01*
X99060000Y-109220000D02*
X95250000Y-113030000D01*
%TO.N,/nRFCE*%
X113665000Y-90170000D02*
X111760000Y-90170000D01*
X114300000Y-90805000D02*
X113665000Y-90170000D01*
X116840000Y-96520000D02*
X114300000Y-93980000D01*
X123190000Y-96520000D02*
X116840000Y-96520000D01*
X114300000Y-93980000D02*
X114300000Y-90805000D01*
X125095000Y-98425000D02*
X123190000Y-96520000D01*
X125095000Y-100330000D02*
X125095000Y-98425000D01*
%TO.N,/~RST*%
X121285000Y-88900000D02*
X121285000Y-86995000D01*
X114300000Y-80010000D02*
X111760000Y-80010000D01*
X121285000Y-86995000D02*
X114300000Y-80010000D01*
D33*
%TO.N,+5V*%
X105280460Y-81280000D02*
X105410000Y-81409540D01*
X102870000Y-81280000D02*
X105280460Y-81280000D01*
D32*
X107950000Y-81440000D02*
X108110000Y-81440000D01*
X109220000Y-82550000D02*
X111760000Y-82550000D01*
X108110000Y-81440000D02*
X109220000Y-82550000D01*
X105440460Y-81440000D02*
X105410000Y-81409540D01*
X107950000Y-81440000D02*
X105440460Y-81440000D01*
D33*
X82550000Y-85090000D02*
X82550000Y-87630000D01*
X79634080Y-82174080D02*
X82550000Y-85090000D01*
X79634080Y-81280000D02*
X79634080Y-82174080D01*
X79535000Y-76040000D02*
X80645000Y-74930000D01*
X79535000Y-78740000D02*
X79535000Y-76040000D01*
X79634080Y-78839080D02*
X79535000Y-78740000D01*
X79634080Y-81280000D02*
X79634080Y-78839080D01*
D29*
X103505000Y-115570000D02*
X100965000Y-115570000D01*
D34*
X118745000Y-93980000D02*
X116840000Y-93980000D01*
X116840000Y-93980000D02*
X115570000Y-92710000D01*
X115570000Y-92710000D02*
X115570000Y-84455000D01*
X113665000Y-82550000D02*
X111760000Y-82550000D01*
X115570000Y-84455000D02*
X113665000Y-82550000D01*
X103505000Y-127000000D02*
X100965000Y-127000000D01*
X100965000Y-127000000D02*
X100965000Y-124460000D01*
D33*
%TO.N,Net-(C7-Pad2)*%
X90170000Y-129540000D02*
X90170000Y-127899160D01*
%TO.N,Net-(D1-Pad1)*%
X80410000Y-118980000D02*
X81280000Y-118110000D01*
X80410000Y-121240000D02*
X80410000Y-118980000D01*
X81280000Y-115700000D02*
X82550000Y-114430000D01*
X81280000Y-118110000D02*
X81280000Y-115700000D01*
%TO.N,Net-(D1-Pad2)*%
X88410000Y-121240000D02*
X85280000Y-118110000D01*
X92410000Y-121240000D02*
X88410000Y-121240000D01*
D32*
X86550000Y-116840000D02*
X85280000Y-118110000D01*
X87630000Y-116840000D02*
X86550000Y-116840000D01*
D33*
%TO.N,Net-(FB2-Pad2)*%
X88900000Y-93955000D02*
X88900000Y-87655000D01*
X87655000Y-87655000D02*
X85090000Y-85090000D01*
X88900000Y-87655000D02*
X87655000Y-87655000D01*
D30*
%TO.N,Net-(K1-Pad1)*%
X86360000Y-129540000D02*
X86360000Y-123190000D01*
D33*
X90170000Y-126100840D02*
X90170000Y-125730000D01*
X90170000Y-125730000D02*
X87630000Y-123190000D01*
X87630000Y-123190000D02*
X86360000Y-123190000D01*
D34*
%TO.N,/(CLK&~MOSI~&PWM)||(CLK&MOSI)*%
X103505000Y-122050000D02*
X100835000Y-122050000D01*
X97155000Y-125730000D02*
X97155000Y-129540000D01*
X100835000Y-122050000D02*
X97155000Y-125730000D01*
X94721680Y-129540000D02*
X94615000Y-129646680D01*
X97155000Y-129540000D02*
X94721680Y-129540000D01*
%TO.N,Net-(C11-Pad1)*%
X93980000Y-89535000D02*
X93980000Y-92710000D01*
X92735000Y-93955000D02*
X91200000Y-93955000D01*
X93980000Y-92710000D02*
X92735000Y-93955000D01*
X91704160Y-84455000D02*
X91069160Y-85090000D01*
X92710000Y-84455000D02*
X91704160Y-84455000D01*
D29*
X93980000Y-89535000D02*
X93345000Y-89535000D01*
X92710000Y-88900000D02*
X92710000Y-84455000D01*
X93345000Y-89535000D02*
X92710000Y-88900000D01*
%TO.N,/~MOSI~&PWM*%
X104775000Y-114300000D02*
X104775000Y-115570000D01*
X107315000Y-111760000D02*
X104775000Y-114300000D01*
X107315000Y-110620000D02*
X107315000Y-111760000D01*
%TO.N,/CLK*%
X106045000Y-114300000D02*
X106045000Y-115570000D01*
X106680000Y-113665000D02*
X106045000Y-114300000D01*
X109220000Y-113665000D02*
X106680000Y-113665000D01*
X109855000Y-114300000D02*
X109220000Y-113665000D01*
X109855000Y-115570000D02*
X109855000Y-114300000D01*
X106045000Y-117475000D02*
X106045000Y-115570000D01*
X105410000Y-118110000D02*
X106045000Y-117475000D01*
X100965000Y-118110000D02*
X105410000Y-118110000D01*
X99695000Y-116840000D02*
X100965000Y-118110000D01*
X99695000Y-114300000D02*
X99695000Y-116840000D01*
X100965000Y-113030000D02*
X99695000Y-114300000D01*
X104696092Y-113030000D02*
X100965000Y-113030000D01*
X106045000Y-111681092D02*
X104696092Y-113030000D01*
X106045000Y-110620000D02*
X106045000Y-111681092D01*
D35*
%TO.N,/CLK&~MOSI~&PWM*%
X107315000Y-119805000D02*
X107315000Y-115570000D01*
X108585000Y-121075000D02*
X107315000Y-119805000D01*
X108585000Y-122050000D02*
X108585000Y-121075000D01*
%TO.N,/CLK&MOSI*%
X108585000Y-119805000D02*
X108585000Y-115570000D01*
X109855000Y-121075000D02*
X108585000Y-119805000D01*
X109855000Y-122050000D02*
X109855000Y-121075000D01*
%TO.N,/~MOSI*%
X108585000Y-110996768D02*
X108585000Y-110620000D01*
X108585000Y-127000000D02*
X108585000Y-126025000D01*
X108585000Y-124966768D02*
X108585000Y-127000000D01*
X109091768Y-124460000D02*
X108585000Y-124966768D01*
X109855000Y-124460000D02*
X109091768Y-124460000D01*
X110499990Y-123815010D02*
X109855000Y-124460000D01*
X110499990Y-113674990D02*
X110499990Y-123815010D01*
X108585000Y-111760000D02*
X110499990Y-113674990D01*
X108585000Y-110620000D02*
X108585000Y-111760000D01*
%TO.N,Net-(U2-Pad2)*%
X107315000Y-122050000D02*
X106045000Y-122050000D01*
X104775000Y-122050000D02*
X106045000Y-122050000D01*
D32*
%TO.N,Net-(Q2-Pad1)*%
X89950000Y-115570000D02*
X89630000Y-115890000D01*
X92181680Y-115570000D02*
X89950000Y-115570000D01*
X92181680Y-113030000D02*
X92181680Y-115570000D01*
%TO.N,/3.3V*%
X89270840Y-83708240D02*
X90170000Y-82809080D01*
X89270840Y-85090000D02*
X89270840Y-83708240D01*
D34*
X127635000Y-105915460D02*
X127635000Y-102870000D01*
X125779540Y-105915460D02*
X124460000Y-107235000D01*
X127635000Y-105915460D02*
X125779540Y-105915460D01*
D32*
X89270840Y-85090000D02*
X88265000Y-85090000D01*
X88265000Y-85090000D02*
X87630000Y-84455000D01*
X87630000Y-84455000D02*
X87630000Y-83185000D01*
X86735000Y-82290000D02*
X85090000Y-82290000D01*
X87630000Y-83185000D02*
X86735000Y-82290000D01*
D34*
X90170000Y-82550000D02*
X89535000Y-82550000D01*
X100965000Y-76200000D02*
X98425000Y-78740000D01*
X106680000Y-76200000D02*
X100965000Y-76200000D01*
X109855000Y-73025000D02*
X106680000Y-76200000D01*
X113030000Y-73025000D02*
X109855000Y-73025000D01*
X113591999Y-73586999D02*
X113030000Y-73025000D01*
X113665000Y-73660000D02*
X113591999Y-73586999D01*
X113665000Y-74295000D02*
X113665000Y-73660000D01*
X114300000Y-74930000D02*
X113665000Y-74295000D01*
X128905000Y-89535000D02*
X114300000Y-74930000D01*
X129540000Y-90170000D02*
X128905000Y-89535000D01*
X129540000Y-102235000D02*
X129540000Y-90170000D01*
X128905000Y-102870000D02*
X129540000Y-102235000D01*
X127635000Y-102870000D02*
X128905000Y-102870000D01*
D36*
X93980000Y-78740000D02*
X98425000Y-78740000D01*
D34*
X93345000Y-78105000D02*
X93980000Y-78740000D01*
X88900000Y-78105000D02*
X93345000Y-78105000D01*
X87630000Y-79375000D02*
X88900000Y-78105000D01*
X87630000Y-80645000D02*
X87630000Y-79375000D01*
X89535000Y-82550000D02*
X87630000Y-80645000D01*
D30*
%TO.N,VCC*%
X83401320Y-95250000D02*
X81280000Y-95250000D01*
X92410000Y-109040000D02*
X88720000Y-109040000D01*
X85090000Y-96938680D02*
X83401320Y-95250000D01*
X85090000Y-105410000D02*
X85090000Y-96938680D01*
D33*
X82550000Y-110490000D02*
X86360000Y-106680000D01*
X82550000Y-111630000D02*
X82550000Y-110490000D01*
D30*
X86360000Y-106680000D02*
X85090000Y-105410000D01*
X88720000Y-109040000D02*
X86360000Y-106680000D01*
D33*
X82550000Y-93980000D02*
X81280000Y-95250000D01*
X82550000Y-90430000D02*
X82550000Y-93980000D01*
X82550000Y-90430000D02*
X81540000Y-90430000D01*
X80010000Y-88900000D02*
X78740000Y-88900000D01*
X81540000Y-90430000D02*
X80010000Y-88900000D01*
X86600000Y-95428680D02*
X85090000Y-96938680D01*
X86600000Y-93955000D02*
X86600000Y-95428680D01*
%TD*%
D36*
%TO.N,GND*%
X129257442Y-70772024D02*
X128772024Y-71257442D01*
X128390633Y-71828234D01*
X128127927Y-72462463D01*
X127994000Y-73135758D01*
X127994000Y-73822242D01*
X128127927Y-74495537D01*
X128390633Y-75129766D01*
X128772024Y-75700558D01*
X129257442Y-76185976D01*
X129828234Y-76567367D01*
X130462463Y-76830073D01*
X131135758Y-76964000D01*
X131822242Y-76964000D01*
X132495537Y-76830073D01*
X133129766Y-76567367D01*
X133700558Y-76185976D01*
X134185976Y-75700558D01*
X134340001Y-75470043D01*
X134340000Y-129487955D01*
X134185976Y-129257442D01*
X133700558Y-128772024D01*
X133129766Y-128390633D01*
X132495537Y-128127927D01*
X131822242Y-127994000D01*
X131135758Y-127994000D01*
X130462463Y-128127927D01*
X129828234Y-128390633D01*
X129257442Y-128772024D01*
X128772024Y-129257442D01*
X128390633Y-129828234D01*
X128127927Y-130462463D01*
X127994000Y-131135758D01*
X127994000Y-131822242D01*
X128127927Y-132495537D01*
X128390633Y-133129766D01*
X128772024Y-133700558D01*
X129257442Y-134185976D01*
X129487955Y-134340000D01*
X113411000Y-134340000D01*
X113411000Y-127838200D01*
X114258837Y-127838200D01*
X114300000Y-127842254D01*
X114341163Y-127838200D01*
X114341170Y-127838200D01*
X114464316Y-127826071D01*
X114622317Y-127778142D01*
X114767932Y-127700309D01*
X114895564Y-127595564D01*
X114921811Y-127563583D01*
X115498588Y-126986806D01*
X115530564Y-126960564D01*
X115635309Y-126832932D01*
X115713142Y-126687317D01*
X115761071Y-126529316D01*
X115773200Y-126406170D01*
X115773200Y-126406163D01*
X115777254Y-126365000D01*
X115773200Y-126323837D01*
X115773200Y-115208354D01*
X115894287Y-115087267D01*
X116029443Y-114884992D01*
X116122540Y-114660236D01*
X116170000Y-114421637D01*
X116170000Y-114178363D01*
X116122540Y-113939764D01*
X116029443Y-113715008D01*
X115894287Y-113512733D01*
X115722267Y-113340713D01*
X115519992Y-113205557D01*
X115295236Y-113112460D01*
X115056637Y-113065000D01*
X114813363Y-113065000D01*
X114574764Y-113112460D01*
X114350008Y-113205557D01*
X114147733Y-113340713D01*
X113975713Y-113512733D01*
X113840557Y-113715008D01*
X113747460Y-113939764D01*
X113700000Y-114178363D01*
X113700000Y-114349607D01*
X113411000Y-114638607D01*
X113411000Y-110635000D01*
X123146928Y-110635000D01*
X123159188Y-110759482D01*
X123195498Y-110879180D01*
X123254463Y-110989494D01*
X123333815Y-111086185D01*
X123430506Y-111165537D01*
X123540820Y-111224502D01*
X123660518Y-111260812D01*
X123785000Y-111273072D01*
X124174250Y-111270000D01*
X124333000Y-111111250D01*
X124333000Y-110062000D01*
X124587000Y-110062000D01*
X124587000Y-111111250D01*
X124745750Y-111270000D01*
X125135000Y-111273072D01*
X125259482Y-111260812D01*
X125379180Y-111224502D01*
X125489494Y-111165537D01*
X125586185Y-111086185D01*
X125665537Y-110989494D01*
X125724502Y-110879180D01*
X125760812Y-110759482D01*
X125773072Y-110635000D01*
X125770000Y-110220750D01*
X125611250Y-110062000D01*
X124587000Y-110062000D01*
X124333000Y-110062000D01*
X123308750Y-110062000D01*
X123150000Y-110220750D01*
X123146928Y-110635000D01*
X113411000Y-110635000D01*
X113411000Y-109235000D01*
X123146928Y-109235000D01*
X123150000Y-109649250D01*
X123308750Y-109808000D01*
X124333000Y-109808000D01*
X124333000Y-108758750D01*
X124587000Y-108758750D01*
X124587000Y-109808000D01*
X125611250Y-109808000D01*
X125770000Y-109649250D01*
X125771007Y-109513370D01*
X126097768Y-109513370D01*
X126110028Y-109637852D01*
X126146338Y-109757550D01*
X126205303Y-109867864D01*
X126284655Y-109964555D01*
X126381346Y-110043907D01*
X126491660Y-110102872D01*
X126611358Y-110139182D01*
X126735840Y-110151442D01*
X127349250Y-110148370D01*
X127508000Y-109989620D01*
X127508000Y-108841540D01*
X127762000Y-108841540D01*
X127762000Y-109989620D01*
X127920750Y-110148370D01*
X128534160Y-110151442D01*
X128658642Y-110139182D01*
X128778340Y-110102872D01*
X128888654Y-110043907D01*
X128985345Y-109964555D01*
X129064697Y-109867864D01*
X129123662Y-109757550D01*
X129159972Y-109637852D01*
X129172232Y-109513370D01*
X129169160Y-109000290D01*
X129010410Y-108841540D01*
X127762000Y-108841540D01*
X127508000Y-108841540D01*
X126259590Y-108841540D01*
X126100840Y-109000290D01*
X126097768Y-109513370D01*
X125771007Y-109513370D01*
X125773072Y-109235000D01*
X125760812Y-109110518D01*
X125724502Y-108990820D01*
X125665537Y-108880506D01*
X125586185Y-108783815D01*
X125489494Y-108704463D01*
X125379180Y-108645498D01*
X125259482Y-108609188D01*
X125135000Y-108596928D01*
X124745750Y-108600000D01*
X124587000Y-108758750D01*
X124333000Y-108758750D01*
X124174250Y-108600000D01*
X123785000Y-108596928D01*
X123660518Y-108609188D01*
X123540820Y-108645498D01*
X123430506Y-108704463D01*
X123333815Y-108783815D01*
X123254463Y-108880506D01*
X123195498Y-108990820D01*
X123159188Y-109110518D01*
X123146928Y-109235000D01*
X113411000Y-109235000D01*
X113411000Y-104436394D01*
X114948194Y-105973588D01*
X114974436Y-106005564D01*
X115102068Y-106110309D01*
X115247683Y-106188142D01*
X115405684Y-106236071D01*
X115528830Y-106248200D01*
X115528839Y-106248200D01*
X115569999Y-106252254D01*
X115611159Y-106248200D01*
X123332223Y-106248200D01*
X123296595Y-106291613D01*
X123214528Y-106445149D01*
X123163992Y-106611745D01*
X123146928Y-106784999D01*
X123146928Y-107685001D01*
X123163992Y-107858255D01*
X123214528Y-108024851D01*
X123296595Y-108178387D01*
X123407038Y-108312962D01*
X123541613Y-108423405D01*
X123695149Y-108505472D01*
X123861745Y-108556008D01*
X124034999Y-108573072D01*
X124885001Y-108573072D01*
X125058255Y-108556008D01*
X125224851Y-108505472D01*
X125378387Y-108423405D01*
X125512962Y-108312962D01*
X125623405Y-108178387D01*
X125705472Y-108024851D01*
X125756008Y-107858255D01*
X125773072Y-107685001D01*
X125773072Y-107107322D01*
X126103895Y-106776499D01*
X126110028Y-106838772D01*
X126146338Y-106958470D01*
X126205303Y-107068784D01*
X126284655Y-107165475D01*
X126381346Y-107244827D01*
X126491660Y-107303792D01*
X126528608Y-107315000D01*
X126491660Y-107326208D01*
X126381346Y-107385173D01*
X126284655Y-107464525D01*
X126205303Y-107561216D01*
X126146338Y-107671530D01*
X126110028Y-107791228D01*
X126097768Y-107915710D01*
X126100840Y-108428790D01*
X126259590Y-108587540D01*
X127508000Y-108587540D01*
X127508000Y-108567540D01*
X127762000Y-108567540D01*
X127762000Y-108587540D01*
X129010410Y-108587540D01*
X129169160Y-108428790D01*
X129172232Y-107915710D01*
X129159972Y-107791228D01*
X129123662Y-107671530D01*
X129064697Y-107561216D01*
X128985345Y-107464525D01*
X128888654Y-107385173D01*
X128778340Y-107326208D01*
X128741392Y-107315000D01*
X128778340Y-107303792D01*
X128888654Y-107244827D01*
X128985345Y-107165475D01*
X129064697Y-107068784D01*
X129123662Y-106958470D01*
X129159972Y-106838772D01*
X129172232Y-106714290D01*
X129172232Y-105116630D01*
X129159972Y-104992148D01*
X129123662Y-104872450D01*
X129064697Y-104762136D01*
X128985345Y-104665445D01*
X128888654Y-104586093D01*
X128778340Y-104527128D01*
X128658642Y-104490818D01*
X128534160Y-104478558D01*
X128473200Y-104478558D01*
X128473200Y-103990089D01*
X128525535Y-103955120D01*
X128720120Y-103760535D01*
X128755089Y-103708200D01*
X128863837Y-103708200D01*
X128905000Y-103712254D01*
X128946163Y-103708200D01*
X128946170Y-103708200D01*
X129069316Y-103696071D01*
X129227317Y-103648142D01*
X129372932Y-103570309D01*
X129500564Y-103465564D01*
X129526811Y-103433583D01*
X130103588Y-102856806D01*
X130135564Y-102830564D01*
X130240309Y-102702932D01*
X130318142Y-102557317D01*
X130366071Y-102399316D01*
X130378200Y-102276170D01*
X130378200Y-102276163D01*
X130382254Y-102235000D01*
X130378200Y-102193837D01*
X130378200Y-90211163D01*
X130382254Y-90170000D01*
X130378200Y-90128837D01*
X130378200Y-90128830D01*
X130366071Y-90005684D01*
X130318142Y-89847683D01*
X130240309Y-89702068D01*
X130135564Y-89574436D01*
X130103586Y-89548192D01*
X129526812Y-88971419D01*
X129526808Y-88971414D01*
X114921813Y-74366420D01*
X114921808Y-74366414D01*
X114503200Y-73947807D01*
X114503200Y-73701162D01*
X114507254Y-73659999D01*
X114503200Y-73618837D01*
X114503200Y-73618830D01*
X114491071Y-73495684D01*
X114443142Y-73337683D01*
X114365309Y-73192068D01*
X114260564Y-73064436D01*
X114228582Y-73038189D01*
X113651811Y-72461418D01*
X113625564Y-72429436D01*
X113497932Y-72324691D01*
X113411000Y-72278225D01*
X113411000Y-70660000D01*
X129425098Y-70660000D01*
X129257442Y-70772024D01*
%TA.AperFunction,Conductor*%
D37*
G36*
X129257442Y-70772024D02*
G01*
X128772024Y-71257442D01*
X128390633Y-71828234D01*
X128127927Y-72462463D01*
X127994000Y-73135758D01*
X127994000Y-73822242D01*
X128127927Y-74495537D01*
X128390633Y-75129766D01*
X128772024Y-75700558D01*
X129257442Y-76185976D01*
X129828234Y-76567367D01*
X130462463Y-76830073D01*
X131135758Y-76964000D01*
X131822242Y-76964000D01*
X132495537Y-76830073D01*
X133129766Y-76567367D01*
X133700558Y-76185976D01*
X134185976Y-75700558D01*
X134340001Y-75470043D01*
X134340000Y-129487955D01*
X134185976Y-129257442D01*
X133700558Y-128772024D01*
X133129766Y-128390633D01*
X132495537Y-128127927D01*
X131822242Y-127994000D01*
X131135758Y-127994000D01*
X130462463Y-128127927D01*
X129828234Y-128390633D01*
X129257442Y-128772024D01*
X128772024Y-129257442D01*
X128390633Y-129828234D01*
X128127927Y-130462463D01*
X127994000Y-131135758D01*
X127994000Y-131822242D01*
X128127927Y-132495537D01*
X128390633Y-133129766D01*
X128772024Y-133700558D01*
X129257442Y-134185976D01*
X129487955Y-134340000D01*
X113411000Y-134340000D01*
X113411000Y-127838200D01*
X114258837Y-127838200D01*
X114300000Y-127842254D01*
X114341163Y-127838200D01*
X114341170Y-127838200D01*
X114464316Y-127826071D01*
X114622317Y-127778142D01*
X114767932Y-127700309D01*
X114895564Y-127595564D01*
X114921811Y-127563583D01*
X115498588Y-126986806D01*
X115530564Y-126960564D01*
X115635309Y-126832932D01*
X115713142Y-126687317D01*
X115761071Y-126529316D01*
X115773200Y-126406170D01*
X115773200Y-126406163D01*
X115777254Y-126365000D01*
X115773200Y-126323837D01*
X115773200Y-115208354D01*
X115894287Y-115087267D01*
X116029443Y-114884992D01*
X116122540Y-114660236D01*
X116170000Y-114421637D01*
X116170000Y-114178363D01*
X116122540Y-113939764D01*
X116029443Y-113715008D01*
X115894287Y-113512733D01*
X115722267Y-113340713D01*
X115519992Y-113205557D01*
X115295236Y-113112460D01*
X115056637Y-113065000D01*
X114813363Y-113065000D01*
X114574764Y-113112460D01*
X114350008Y-113205557D01*
X114147733Y-113340713D01*
X113975713Y-113512733D01*
X113840557Y-113715008D01*
X113747460Y-113939764D01*
X113700000Y-114178363D01*
X113700000Y-114349607D01*
X113411000Y-114638607D01*
X113411000Y-110635000D01*
X123146928Y-110635000D01*
X123159188Y-110759482D01*
X123195498Y-110879180D01*
X123254463Y-110989494D01*
X123333815Y-111086185D01*
X123430506Y-111165537D01*
X123540820Y-111224502D01*
X123660518Y-111260812D01*
X123785000Y-111273072D01*
X124174250Y-111270000D01*
X124333000Y-111111250D01*
X124333000Y-110062000D01*
X124587000Y-110062000D01*
X124587000Y-111111250D01*
X124745750Y-111270000D01*
X125135000Y-111273072D01*
X125259482Y-111260812D01*
X125379180Y-111224502D01*
X125489494Y-111165537D01*
X125586185Y-111086185D01*
X125665537Y-110989494D01*
X125724502Y-110879180D01*
X125760812Y-110759482D01*
X125773072Y-110635000D01*
X125770000Y-110220750D01*
X125611250Y-110062000D01*
X124587000Y-110062000D01*
X124333000Y-110062000D01*
X123308750Y-110062000D01*
X123150000Y-110220750D01*
X123146928Y-110635000D01*
X113411000Y-110635000D01*
X113411000Y-109235000D01*
X123146928Y-109235000D01*
X123150000Y-109649250D01*
X123308750Y-109808000D01*
X124333000Y-109808000D01*
X124333000Y-108758750D01*
X124587000Y-108758750D01*
X124587000Y-109808000D01*
X125611250Y-109808000D01*
X125770000Y-109649250D01*
X125771007Y-109513370D01*
X126097768Y-109513370D01*
X126110028Y-109637852D01*
X126146338Y-109757550D01*
X126205303Y-109867864D01*
X126284655Y-109964555D01*
X126381346Y-110043907D01*
X126491660Y-110102872D01*
X126611358Y-110139182D01*
X126735840Y-110151442D01*
X127349250Y-110148370D01*
X127508000Y-109989620D01*
X127508000Y-108841540D01*
X127762000Y-108841540D01*
X127762000Y-109989620D01*
X127920750Y-110148370D01*
X128534160Y-110151442D01*
X128658642Y-110139182D01*
X128778340Y-110102872D01*
X128888654Y-110043907D01*
X128985345Y-109964555D01*
X129064697Y-109867864D01*
X129123662Y-109757550D01*
X129159972Y-109637852D01*
X129172232Y-109513370D01*
X129169160Y-109000290D01*
X129010410Y-108841540D01*
X127762000Y-108841540D01*
X127508000Y-108841540D01*
X126259590Y-108841540D01*
X126100840Y-109000290D01*
X126097768Y-109513370D01*
X125771007Y-109513370D01*
X125773072Y-109235000D01*
X125760812Y-109110518D01*
X125724502Y-108990820D01*
X125665537Y-108880506D01*
X125586185Y-108783815D01*
X125489494Y-108704463D01*
X125379180Y-108645498D01*
X125259482Y-108609188D01*
X125135000Y-108596928D01*
X124745750Y-108600000D01*
X124587000Y-108758750D01*
X124333000Y-108758750D01*
X124174250Y-108600000D01*
X123785000Y-108596928D01*
X123660518Y-108609188D01*
X123540820Y-108645498D01*
X123430506Y-108704463D01*
X123333815Y-108783815D01*
X123254463Y-108880506D01*
X123195498Y-108990820D01*
X123159188Y-109110518D01*
X123146928Y-109235000D01*
X113411000Y-109235000D01*
X113411000Y-104436394D01*
X114948194Y-105973588D01*
X114974436Y-106005564D01*
X115102068Y-106110309D01*
X115247683Y-106188142D01*
X115405684Y-106236071D01*
X115528830Y-106248200D01*
X115528839Y-106248200D01*
X115569999Y-106252254D01*
X115611159Y-106248200D01*
X123332223Y-106248200D01*
X123296595Y-106291613D01*
X123214528Y-106445149D01*
X123163992Y-106611745D01*
X123146928Y-106784999D01*
X123146928Y-107685001D01*
X123163992Y-107858255D01*
X123214528Y-108024851D01*
X123296595Y-108178387D01*
X123407038Y-108312962D01*
X123541613Y-108423405D01*
X123695149Y-108505472D01*
X123861745Y-108556008D01*
X124034999Y-108573072D01*
X124885001Y-108573072D01*
X125058255Y-108556008D01*
X125224851Y-108505472D01*
X125378387Y-108423405D01*
X125512962Y-108312962D01*
X125623405Y-108178387D01*
X125705472Y-108024851D01*
X125756008Y-107858255D01*
X125773072Y-107685001D01*
X125773072Y-107107322D01*
X126103895Y-106776499D01*
X126110028Y-106838772D01*
X126146338Y-106958470D01*
X126205303Y-107068784D01*
X126284655Y-107165475D01*
X126381346Y-107244827D01*
X126491660Y-107303792D01*
X126528608Y-107315000D01*
X126491660Y-107326208D01*
X126381346Y-107385173D01*
X126284655Y-107464525D01*
X126205303Y-107561216D01*
X126146338Y-107671530D01*
X126110028Y-107791228D01*
X126097768Y-107915710D01*
X126100840Y-108428790D01*
X126259590Y-108587540D01*
X127508000Y-108587540D01*
X127508000Y-108567540D01*
X127762000Y-108567540D01*
X127762000Y-108587540D01*
X129010410Y-108587540D01*
X129169160Y-108428790D01*
X129172232Y-107915710D01*
X129159972Y-107791228D01*
X129123662Y-107671530D01*
X129064697Y-107561216D01*
X128985345Y-107464525D01*
X128888654Y-107385173D01*
X128778340Y-107326208D01*
X128741392Y-107315000D01*
X128778340Y-107303792D01*
X128888654Y-107244827D01*
X128985345Y-107165475D01*
X129064697Y-107068784D01*
X129123662Y-106958470D01*
X129159972Y-106838772D01*
X129172232Y-106714290D01*
X129172232Y-105116630D01*
X129159972Y-104992148D01*
X129123662Y-104872450D01*
X129064697Y-104762136D01*
X128985345Y-104665445D01*
X128888654Y-104586093D01*
X128778340Y-104527128D01*
X128658642Y-104490818D01*
X128534160Y-104478558D01*
X128473200Y-104478558D01*
X128473200Y-103990089D01*
X128525535Y-103955120D01*
X128720120Y-103760535D01*
X128755089Y-103708200D01*
X128863837Y-103708200D01*
X128905000Y-103712254D01*
X128946163Y-103708200D01*
X128946170Y-103708200D01*
X129069316Y-103696071D01*
X129227317Y-103648142D01*
X129372932Y-103570309D01*
X129500564Y-103465564D01*
X129526811Y-103433583D01*
X130103588Y-102856806D01*
X130135564Y-102830564D01*
X130240309Y-102702932D01*
X130318142Y-102557317D01*
X130366071Y-102399316D01*
X130378200Y-102276170D01*
X130378200Y-102276163D01*
X130382254Y-102235000D01*
X130378200Y-102193837D01*
X130378200Y-90211163D01*
X130382254Y-90170000D01*
X130378200Y-90128837D01*
X130378200Y-90128830D01*
X130366071Y-90005684D01*
X130318142Y-89847683D01*
X130240309Y-89702068D01*
X130135564Y-89574436D01*
X130103586Y-89548192D01*
X129526812Y-88971419D01*
X129526808Y-88971414D01*
X114921813Y-74366420D01*
X114921808Y-74366414D01*
X114503200Y-73947807D01*
X114503200Y-73701162D01*
X114507254Y-73659999D01*
X114503200Y-73618837D01*
X114503200Y-73618830D01*
X114491071Y-73495684D01*
X114443142Y-73337683D01*
X114365309Y-73192068D01*
X114260564Y-73064436D01*
X114228582Y-73038189D01*
X113651811Y-72461418D01*
X113625564Y-72429436D01*
X113497932Y-72324691D01*
X113411000Y-72278225D01*
X113411000Y-70660000D01*
X129425098Y-70660000D01*
X129257442Y-70772024D01*
G37*
%TD.AperFunction*%
D36*
X113736414Y-75551808D02*
X113736420Y-75551813D01*
X128341414Y-90156808D01*
X128341419Y-90156812D01*
X128701801Y-90517195D01*
X128701800Y-99010901D01*
X128641180Y-98978498D01*
X128521482Y-98942188D01*
X128397000Y-98929928D01*
X127920750Y-98933000D01*
X127762000Y-99091750D01*
X127762000Y-100203000D01*
X127782000Y-100203000D01*
X127782000Y-100457000D01*
X127762000Y-100457000D01*
X127762000Y-100477000D01*
X127508000Y-100477000D01*
X127508000Y-100457000D01*
X127488000Y-100457000D01*
X127488000Y-100203000D01*
X127508000Y-100203000D01*
X127508000Y-99091750D01*
X127349250Y-98933000D01*
X126873000Y-98929928D01*
X126748518Y-98942188D01*
X126628820Y-98978498D01*
X126518506Y-99037463D01*
X126421815Y-99116815D01*
X126342463Y-99213506D01*
X126283498Y-99323820D01*
X126247188Y-99443518D01*
X126238920Y-99527465D01*
X126180120Y-99439465D01*
X125985535Y-99244880D01*
X125933200Y-99209911D01*
X125933200Y-98466163D01*
X125937254Y-98425000D01*
X125933200Y-98383837D01*
X125933200Y-98383830D01*
X125921071Y-98260684D01*
X125873142Y-98102683D01*
X125795309Y-97957068D01*
X125690564Y-97829436D01*
X125658586Y-97803192D01*
X123811811Y-95956418D01*
X123785564Y-95924436D01*
X123657932Y-95819691D01*
X123512317Y-95741858D01*
X123354316Y-95693929D01*
X123231170Y-95681800D01*
X123231163Y-95681800D01*
X123190000Y-95677746D01*
X123148837Y-95681800D01*
X117187194Y-95681800D01*
X115138200Y-93632807D01*
X115138200Y-93463593D01*
X116218191Y-94543585D01*
X116244436Y-94575564D01*
X116372068Y-94680309D01*
X116517683Y-94758142D01*
X116675684Y-94806071D01*
X116798830Y-94818200D01*
X116798839Y-94818200D01*
X116839999Y-94822254D01*
X116881159Y-94818200D01*
X117519073Y-94818200D01*
X117591525Y-94926632D01*
X117798368Y-95133475D01*
X118041589Y-95295990D01*
X118311842Y-95407932D01*
X118598740Y-95465000D01*
X118891260Y-95465000D01*
X119178158Y-95407932D01*
X119448411Y-95295990D01*
X119691632Y-95133475D01*
X119823487Y-95001620D01*
X119845498Y-95074180D01*
X119904463Y-95184494D01*
X119983815Y-95281185D01*
X120080506Y-95360537D01*
X120190820Y-95419502D01*
X120310518Y-95455812D01*
X120435000Y-95468072D01*
X122135000Y-95468072D01*
X122259482Y-95455812D01*
X122379180Y-95419502D01*
X122489494Y-95360537D01*
X122586185Y-95281185D01*
X122665537Y-95184494D01*
X122724502Y-95074180D01*
X122760812Y-94954482D01*
X122773072Y-94830000D01*
X122773072Y-93130000D01*
X122760812Y-93005518D01*
X122724502Y-92885820D01*
X122665537Y-92775506D01*
X122586185Y-92678815D01*
X122489494Y-92599463D01*
X122379180Y-92540498D01*
X122306620Y-92518487D01*
X122438475Y-92386632D01*
X122600990Y-92143411D01*
X122712932Y-91873158D01*
X122770000Y-91586260D01*
X122770000Y-91293740D01*
X122712932Y-91006842D01*
X122600990Y-90736589D01*
X122438475Y-90493368D01*
X122231632Y-90286525D01*
X122057240Y-90170000D01*
X122231632Y-90053475D01*
X122438475Y-89846632D01*
X122600990Y-89603411D01*
X122712932Y-89333158D01*
X122770000Y-89046260D01*
X122770000Y-88753740D01*
X122712932Y-88466842D01*
X122600990Y-88196589D01*
X122438475Y-87953368D01*
X122231632Y-87746525D01*
X122123200Y-87674073D01*
X122123200Y-87036163D01*
X122127254Y-86995000D01*
X122123200Y-86953837D01*
X122123200Y-86953830D01*
X122111071Y-86830684D01*
X122063142Y-86672683D01*
X121985309Y-86527068D01*
X121906808Y-86431414D01*
X121906806Y-86431412D01*
X121880564Y-86399436D01*
X121848588Y-86373194D01*
X114921811Y-79446418D01*
X114895564Y-79414436D01*
X114767932Y-79309691D01*
X114622317Y-79231858D01*
X114464316Y-79183929D01*
X114341170Y-79171800D01*
X114341163Y-79171800D01*
X114300000Y-79167746D01*
X114258837Y-79171800D01*
X113411000Y-79171800D01*
X113411000Y-75226393D01*
X113736414Y-75551808D01*
%TA.AperFunction,Conductor*%
D37*
G36*
X113736414Y-75551808D02*
G01*
X113736420Y-75551813D01*
X128341414Y-90156808D01*
X128341419Y-90156812D01*
X128701801Y-90517195D01*
X128701800Y-99010901D01*
X128641180Y-98978498D01*
X128521482Y-98942188D01*
X128397000Y-98929928D01*
X127920750Y-98933000D01*
X127762000Y-99091750D01*
X127762000Y-100203000D01*
X127782000Y-100203000D01*
X127782000Y-100457000D01*
X127762000Y-100457000D01*
X127762000Y-100477000D01*
X127508000Y-100477000D01*
X127508000Y-100457000D01*
X127488000Y-100457000D01*
X127488000Y-100203000D01*
X127508000Y-100203000D01*
X127508000Y-99091750D01*
X127349250Y-98933000D01*
X126873000Y-98929928D01*
X126748518Y-98942188D01*
X126628820Y-98978498D01*
X126518506Y-99037463D01*
X126421815Y-99116815D01*
X126342463Y-99213506D01*
X126283498Y-99323820D01*
X126247188Y-99443518D01*
X126238920Y-99527465D01*
X126180120Y-99439465D01*
X125985535Y-99244880D01*
X125933200Y-99209911D01*
X125933200Y-98466163D01*
X125937254Y-98425000D01*
X125933200Y-98383837D01*
X125933200Y-98383830D01*
X125921071Y-98260684D01*
X125873142Y-98102683D01*
X125795309Y-97957068D01*
X125690564Y-97829436D01*
X125658586Y-97803192D01*
X123811811Y-95956418D01*
X123785564Y-95924436D01*
X123657932Y-95819691D01*
X123512317Y-95741858D01*
X123354316Y-95693929D01*
X123231170Y-95681800D01*
X123231163Y-95681800D01*
X123190000Y-95677746D01*
X123148837Y-95681800D01*
X117187194Y-95681800D01*
X115138200Y-93632807D01*
X115138200Y-93463593D01*
X116218191Y-94543585D01*
X116244436Y-94575564D01*
X116372068Y-94680309D01*
X116517683Y-94758142D01*
X116675684Y-94806071D01*
X116798830Y-94818200D01*
X116798839Y-94818200D01*
X116839999Y-94822254D01*
X116881159Y-94818200D01*
X117519073Y-94818200D01*
X117591525Y-94926632D01*
X117798368Y-95133475D01*
X118041589Y-95295990D01*
X118311842Y-95407932D01*
X118598740Y-95465000D01*
X118891260Y-95465000D01*
X119178158Y-95407932D01*
X119448411Y-95295990D01*
X119691632Y-95133475D01*
X119823487Y-95001620D01*
X119845498Y-95074180D01*
X119904463Y-95184494D01*
X119983815Y-95281185D01*
X120080506Y-95360537D01*
X120190820Y-95419502D01*
X120310518Y-95455812D01*
X120435000Y-95468072D01*
X122135000Y-95468072D01*
X122259482Y-95455812D01*
X122379180Y-95419502D01*
X122489494Y-95360537D01*
X122586185Y-95281185D01*
X122665537Y-95184494D01*
X122724502Y-95074180D01*
X122760812Y-94954482D01*
X122773072Y-94830000D01*
X122773072Y-93130000D01*
X122760812Y-93005518D01*
X122724502Y-92885820D01*
X122665537Y-92775506D01*
X122586185Y-92678815D01*
X122489494Y-92599463D01*
X122379180Y-92540498D01*
X122306620Y-92518487D01*
X122438475Y-92386632D01*
X122600990Y-92143411D01*
X122712932Y-91873158D01*
X122770000Y-91586260D01*
X122770000Y-91293740D01*
X122712932Y-91006842D01*
X122600990Y-90736589D01*
X122438475Y-90493368D01*
X122231632Y-90286525D01*
X122057240Y-90170000D01*
X122231632Y-90053475D01*
X122438475Y-89846632D01*
X122600990Y-89603411D01*
X122712932Y-89333158D01*
X122770000Y-89046260D01*
X122770000Y-88753740D01*
X122712932Y-88466842D01*
X122600990Y-88196589D01*
X122438475Y-87953368D01*
X122231632Y-87746525D01*
X122123200Y-87674073D01*
X122123200Y-87036163D01*
X122127254Y-86995000D01*
X122123200Y-86953837D01*
X122123200Y-86953830D01*
X122111071Y-86830684D01*
X122063142Y-86672683D01*
X121985309Y-86527068D01*
X121906808Y-86431414D01*
X121906806Y-86431412D01*
X121880564Y-86399436D01*
X121848588Y-86373194D01*
X114921811Y-79446418D01*
X114895564Y-79414436D01*
X114767932Y-79309691D01*
X114622317Y-79231858D01*
X114464316Y-79183929D01*
X114341170Y-79171800D01*
X114341163Y-79171800D01*
X114300000Y-79167746D01*
X114258837Y-79171800D01*
X113411000Y-79171800D01*
X113411000Y-75226393D01*
X113736414Y-75551808D01*
G37*
%TD.AperFunction*%
D36*
X120446801Y-87342195D02*
X120446801Y-87674073D01*
X120338368Y-87746525D01*
X120131525Y-87953368D01*
X120013900Y-88129406D01*
X119842588Y-87899731D01*
X119626355Y-87704822D01*
X119376252Y-87555843D01*
X119101891Y-87458519D01*
X118872000Y-87579186D01*
X118872000Y-88773000D01*
X118892000Y-88773000D01*
X118892000Y-89027000D01*
X118872000Y-89027000D01*
X118872000Y-89047000D01*
X118618000Y-89047000D01*
X118618000Y-89027000D01*
X117424845Y-89027000D01*
X117303524Y-89256890D01*
X117348175Y-89404099D01*
X117473359Y-89666920D01*
X117647412Y-89900269D01*
X117863645Y-90095178D01*
X117980534Y-90164805D01*
X117798368Y-90286525D01*
X117591525Y-90493368D01*
X117429010Y-90736589D01*
X117317068Y-91006842D01*
X117260000Y-91293740D01*
X117260000Y-91586260D01*
X117317068Y-91873158D01*
X117429010Y-92143411D01*
X117591525Y-92386632D01*
X117798368Y-92593475D01*
X117972760Y-92710000D01*
X117798368Y-92826525D01*
X117591525Y-93033368D01*
X117519073Y-93141800D01*
X117187194Y-93141800D01*
X116408200Y-92362807D01*
X116408200Y-88543110D01*
X117303524Y-88543110D01*
X117424845Y-88773000D01*
X118618000Y-88773000D01*
X118618000Y-87579186D01*
X118388109Y-87458519D01*
X118113748Y-87555843D01*
X117863645Y-87704822D01*
X117647412Y-87899731D01*
X117473359Y-88133080D01*
X117348175Y-88395901D01*
X117303524Y-88543110D01*
X116408200Y-88543110D01*
X116408200Y-84496163D01*
X116412254Y-84455000D01*
X116408200Y-84413837D01*
X116408200Y-84413830D01*
X116396071Y-84290684D01*
X116348142Y-84132683D01*
X116270309Y-83987068D01*
X116191808Y-83891414D01*
X116191806Y-83891412D01*
X116165564Y-83859436D01*
X116133588Y-83833194D01*
X114286811Y-81986418D01*
X114260564Y-81954436D01*
X114132932Y-81849691D01*
X113987317Y-81771858D01*
X113829316Y-81723929D01*
X113706170Y-81711800D01*
X113706163Y-81711800D01*
X113665000Y-81707746D01*
X113623837Y-81711800D01*
X113411000Y-81711800D01*
X113411000Y-80848200D01*
X113952807Y-80848200D01*
X120446801Y-87342195D01*
%TA.AperFunction,Conductor*%
D37*
G36*
X120446801Y-87342195D02*
G01*
X120446801Y-87674073D01*
X120338368Y-87746525D01*
X120131525Y-87953368D01*
X120013900Y-88129406D01*
X119842588Y-87899731D01*
X119626355Y-87704822D01*
X119376252Y-87555843D01*
X119101891Y-87458519D01*
X118872000Y-87579186D01*
X118872000Y-88773000D01*
X118892000Y-88773000D01*
X118892000Y-89027000D01*
X118872000Y-89027000D01*
X118872000Y-89047000D01*
X118618000Y-89047000D01*
X118618000Y-89027000D01*
X117424845Y-89027000D01*
X117303524Y-89256890D01*
X117348175Y-89404099D01*
X117473359Y-89666920D01*
X117647412Y-89900269D01*
X117863645Y-90095178D01*
X117980534Y-90164805D01*
X117798368Y-90286525D01*
X117591525Y-90493368D01*
X117429010Y-90736589D01*
X117317068Y-91006842D01*
X117260000Y-91293740D01*
X117260000Y-91586260D01*
X117317068Y-91873158D01*
X117429010Y-92143411D01*
X117591525Y-92386632D01*
X117798368Y-92593475D01*
X117972760Y-92710000D01*
X117798368Y-92826525D01*
X117591525Y-93033368D01*
X117519073Y-93141800D01*
X117187194Y-93141800D01*
X116408200Y-92362807D01*
X116408200Y-88543110D01*
X117303524Y-88543110D01*
X117424845Y-88773000D01*
X118618000Y-88773000D01*
X118618000Y-87579186D01*
X118388109Y-87458519D01*
X118113748Y-87555843D01*
X117863645Y-87704822D01*
X117647412Y-87899731D01*
X117473359Y-88133080D01*
X117348175Y-88395901D01*
X117303524Y-88543110D01*
X116408200Y-88543110D01*
X116408200Y-84496163D01*
X116412254Y-84455000D01*
X116408200Y-84413837D01*
X116408200Y-84413830D01*
X116396071Y-84290684D01*
X116348142Y-84132683D01*
X116270309Y-83987068D01*
X116191808Y-83891414D01*
X116191806Y-83891412D01*
X116165564Y-83859436D01*
X116133588Y-83833194D01*
X114286811Y-81986418D01*
X114260564Y-81954436D01*
X114132932Y-81849691D01*
X113987317Y-81771858D01*
X113829316Y-81723929D01*
X113706170Y-81711800D01*
X113706163Y-81711800D01*
X113665000Y-81707746D01*
X113623837Y-81711800D01*
X113411000Y-81711800D01*
X113411000Y-80848200D01*
X113952807Y-80848200D01*
X120446801Y-87342195D01*
G37*
%TD.AperFunction*%
%TD*%
D36*
%TO.N,GND*%
X110536773Y-73926123D02*
X110364430Y-74184052D01*
X110245718Y-74470648D01*
X110185200Y-74774896D01*
X110185200Y-75085104D01*
X110245718Y-75389352D01*
X110364430Y-75675948D01*
X110536773Y-75933877D01*
X110756123Y-76153227D01*
X110892714Y-76244495D01*
X110847129Y-76377524D01*
X111760000Y-77290395D01*
X112672871Y-76377524D01*
X112627286Y-76244495D01*
X112763877Y-76153227D01*
X112903000Y-76014104D01*
X112903000Y-76574442D01*
X112852476Y-76557129D01*
X111939605Y-77470000D01*
X112852476Y-78382871D01*
X112903000Y-78365558D01*
X112903000Y-78925896D01*
X112763877Y-78786773D01*
X112627286Y-78695505D01*
X112672871Y-78562476D01*
X111760000Y-77649605D01*
X110847129Y-78562476D01*
X110892714Y-78695505D01*
X110756123Y-78786773D01*
X110536773Y-79006123D01*
X110364430Y-79264052D01*
X110245718Y-79550648D01*
X110185200Y-79854896D01*
X110185200Y-80165104D01*
X110245718Y-80469352D01*
X110364430Y-80755948D01*
X110536773Y-81013877D01*
X110756123Y-81233227D01*
X110826124Y-81280000D01*
X110756123Y-81326773D01*
X110536773Y-81546123D01*
X110493958Y-81610200D01*
X109609277Y-81610200D01*
X109263072Y-81263996D01*
X109263072Y-80989999D01*
X109246008Y-80816745D01*
X109195472Y-80650149D01*
X109113405Y-80496613D01*
X109002962Y-80362038D01*
X108868387Y-80251595D01*
X108714851Y-80169528D01*
X108548255Y-80118992D01*
X108375001Y-80101928D01*
X107524999Y-80101928D01*
X107351745Y-80118992D01*
X107185149Y-80169528D01*
X107031613Y-80251595D01*
X106897038Y-80362038D01*
X106896567Y-80362611D01*
X106839697Y-80256216D01*
X106760345Y-80159525D01*
X106663654Y-80080173D01*
X106553340Y-80021208D01*
X106516392Y-80010000D01*
X106553340Y-79998792D01*
X106663654Y-79939827D01*
X106760345Y-79860475D01*
X106779479Y-79837161D01*
X106823815Y-79891185D01*
X106920506Y-79970537D01*
X107030820Y-80029502D01*
X107150518Y-80065812D01*
X107275000Y-80078072D01*
X107664250Y-80075000D01*
X107823000Y-79916250D01*
X107823000Y-78867000D01*
X108077000Y-78867000D01*
X108077000Y-79916250D01*
X108235750Y-80075000D01*
X108625000Y-80078072D01*
X108749482Y-80065812D01*
X108869180Y-80029502D01*
X108979494Y-79970537D01*
X109076185Y-79891185D01*
X109155537Y-79794494D01*
X109214502Y-79684180D01*
X109250812Y-79564482D01*
X109263072Y-79440000D01*
X109260000Y-79025750D01*
X109101250Y-78867000D01*
X108077000Y-78867000D01*
X107823000Y-78867000D01*
X107803000Y-78867000D01*
X107803000Y-78613000D01*
X107823000Y-78613000D01*
X107823000Y-77563750D01*
X108077000Y-77563750D01*
X108077000Y-78613000D01*
X109101250Y-78613000D01*
X109260000Y-78454250D01*
X109263072Y-78040000D01*
X109250812Y-77915518D01*
X109214502Y-77795820D01*
X109155537Y-77685506D01*
X109076185Y-77588815D01*
X109010583Y-77534977D01*
X110178916Y-77534977D01*
X110221973Y-77842184D01*
X110324135Y-78135086D01*
X110409277Y-78294377D01*
X110667524Y-78382871D01*
X111580395Y-77470000D01*
X110667524Y-76557129D01*
X110409277Y-76645623D01*
X110274403Y-76924976D01*
X110196619Y-77225275D01*
X110178916Y-77534977D01*
X109010583Y-77534977D01*
X108979494Y-77509463D01*
X108869180Y-77450498D01*
X108749482Y-77414188D01*
X108625000Y-77401928D01*
X108235750Y-77405000D01*
X108077000Y-77563750D01*
X107823000Y-77563750D01*
X107664250Y-77405000D01*
X107275000Y-77401928D01*
X107150518Y-77414188D01*
X107030820Y-77450498D01*
X106920506Y-77509463D01*
X106883778Y-77539605D01*
X106839697Y-77457136D01*
X106760345Y-77360445D01*
X106663654Y-77281093D01*
X106553340Y-77222128D01*
X106433642Y-77185818D01*
X106309160Y-77173558D01*
X105695750Y-77176630D01*
X105537000Y-77335380D01*
X105537000Y-78483460D01*
X105557000Y-78483460D01*
X105557000Y-78737460D01*
X105537000Y-78737460D01*
X105537000Y-78757460D01*
X105283000Y-78757460D01*
X105283000Y-78737460D01*
X104034590Y-78737460D01*
X103875840Y-78896210D01*
X103872768Y-79409290D01*
X103885028Y-79533772D01*
X103921338Y-79653470D01*
X103980303Y-79763784D01*
X104059655Y-79860475D01*
X104156346Y-79939827D01*
X104266660Y-79998792D01*
X104303608Y-80010000D01*
X104266660Y-80021208D01*
X104156346Y-80080173D01*
X104059655Y-80159525D01*
X103994760Y-80238600D01*
X103534376Y-80238600D01*
X103454992Y-80185557D01*
X103230236Y-80092460D01*
X102991637Y-80045000D01*
X102748363Y-80045000D01*
X102509764Y-80092460D01*
X102285008Y-80185557D01*
X102082733Y-80320713D01*
X101910713Y-80492733D01*
X101775557Y-80695008D01*
X101682460Y-80919764D01*
X101635000Y-81158363D01*
X101635000Y-81401637D01*
X101682460Y-81640236D01*
X101775557Y-81864992D01*
X101910713Y-82067267D01*
X102082733Y-82239287D01*
X102285008Y-82374443D01*
X102509764Y-82467540D01*
X102748363Y-82515000D01*
X102991637Y-82515000D01*
X103230236Y-82467540D01*
X103454992Y-82374443D01*
X103534376Y-82321400D01*
X103883900Y-82321400D01*
X103885028Y-82332852D01*
X103921338Y-82452550D01*
X103980303Y-82562864D01*
X104059655Y-82659555D01*
X104156346Y-82738907D01*
X104266660Y-82797872D01*
X104386358Y-82834182D01*
X104510840Y-82846442D01*
X106309160Y-82846442D01*
X106433642Y-82834182D01*
X106553340Y-82797872D01*
X106663654Y-82738907D01*
X106760345Y-82659555D01*
X106839697Y-82562864D01*
X106876848Y-82493360D01*
X106897038Y-82517962D01*
X107031613Y-82628405D01*
X107185149Y-82710472D01*
X107351745Y-82761008D01*
X107524999Y-82778072D01*
X108118995Y-82778072D01*
X108522813Y-83181890D01*
X108552246Y-83217754D01*
X108635194Y-83285828D01*
X108695348Y-83335196D01*
X108768651Y-83374377D01*
X108858614Y-83422463D01*
X109035767Y-83476202D01*
X109173833Y-83489800D01*
X109173842Y-83489800D01*
X109219999Y-83494346D01*
X109266156Y-83489800D01*
X110493958Y-83489800D01*
X110536773Y-83553877D01*
X110756123Y-83773227D01*
X110826124Y-83820000D01*
X110756123Y-83866773D01*
X110536773Y-84086123D01*
X110364430Y-84344052D01*
X110245718Y-84630648D01*
X110185200Y-84934896D01*
X110185200Y-85245104D01*
X110245718Y-85549352D01*
X110364430Y-85835948D01*
X110536773Y-86093877D01*
X110756123Y-86313227D01*
X110826124Y-86360000D01*
X110756123Y-86406773D01*
X110536773Y-86626123D01*
X110364430Y-86884052D01*
X110245718Y-87170648D01*
X110185200Y-87474896D01*
X110185200Y-87785104D01*
X110245718Y-88089352D01*
X110364430Y-88375948D01*
X110536773Y-88633877D01*
X110756123Y-88853227D01*
X110826124Y-88900000D01*
X110756123Y-88946773D01*
X110536773Y-89166123D01*
X110364430Y-89424052D01*
X110245718Y-89710648D01*
X110185200Y-90014896D01*
X110185200Y-90325104D01*
X110245718Y-90629352D01*
X110364430Y-90915948D01*
X110536773Y-91173877D01*
X110756123Y-91393227D01*
X110826124Y-91440000D01*
X110756123Y-91486773D01*
X110536773Y-91706123D01*
X110426071Y-91871800D01*
X108626162Y-91871800D01*
X108584999Y-91867746D01*
X108543836Y-91871800D01*
X108543830Y-91871800D01*
X108420684Y-91883929D01*
X108262683Y-91931858D01*
X108117068Y-92009691D01*
X107989436Y-92114436D01*
X107963194Y-92146412D01*
X98496418Y-101613189D01*
X98464436Y-101639436D01*
X98359691Y-101767069D01*
X98281858Y-101912684D01*
X98233929Y-102070685D01*
X98221800Y-102193831D01*
X98221800Y-102193837D01*
X98217746Y-102235000D01*
X98221800Y-102276163D01*
X98221800Y-104013000D01*
X97604104Y-104013000D01*
X97743227Y-103873877D01*
X97915570Y-103615948D01*
X98034282Y-103329352D01*
X98094800Y-103025104D01*
X98094800Y-102714896D01*
X98034282Y-102410648D01*
X97915570Y-102124052D01*
X97743227Y-101866123D01*
X97523877Y-101646773D01*
X97453876Y-101600000D01*
X97523877Y-101553227D01*
X97743227Y-101333877D01*
X97915570Y-101075948D01*
X98034282Y-100789352D01*
X98094800Y-100485104D01*
X98094800Y-100174896D01*
X98034282Y-99870648D01*
X97915570Y-99584052D01*
X97743227Y-99326123D01*
X97523877Y-99106773D01*
X97453876Y-99060000D01*
X97523877Y-99013227D01*
X97743227Y-98793877D01*
X97915570Y-98535948D01*
X98034282Y-98249352D01*
X98094800Y-97945104D01*
X98094800Y-97634896D01*
X98034282Y-97330648D01*
X97915570Y-97044052D01*
X97743227Y-96786123D01*
X97523877Y-96566773D01*
X97453876Y-96520000D01*
X97523877Y-96473227D01*
X97743227Y-96253877D01*
X97915570Y-95995948D01*
X98034282Y-95709352D01*
X98094800Y-95405104D01*
X98094800Y-95094896D01*
X98034282Y-94790648D01*
X97915570Y-94504052D01*
X97743227Y-94246123D01*
X97523877Y-94026773D01*
X97453876Y-93980000D01*
X97523877Y-93933227D01*
X97743227Y-93713877D01*
X97915570Y-93455948D01*
X98034282Y-93169352D01*
X98094800Y-92865104D01*
X98094800Y-92554896D01*
X98034282Y-92250648D01*
X97915570Y-91964052D01*
X97743227Y-91706123D01*
X97523877Y-91486773D01*
X97453876Y-91440000D01*
X97523877Y-91393227D01*
X97743227Y-91173877D01*
X97915570Y-90915948D01*
X98034282Y-90629352D01*
X98094800Y-90325104D01*
X98094800Y-90014896D01*
X98034282Y-89710648D01*
X97915570Y-89424052D01*
X97743227Y-89166123D01*
X97523877Y-88946773D01*
X97453876Y-88900000D01*
X97523877Y-88853227D01*
X97743227Y-88633877D01*
X97915570Y-88375948D01*
X98034282Y-88089352D01*
X98094800Y-87785104D01*
X98094800Y-87474896D01*
X98034282Y-87170648D01*
X97915570Y-86884052D01*
X97743227Y-86626123D01*
X97523877Y-86406773D01*
X97453876Y-86360000D01*
X97523877Y-86313227D01*
X97743227Y-86093877D01*
X97915570Y-85835948D01*
X98034282Y-85549352D01*
X98094800Y-85245104D01*
X98094800Y-84934896D01*
X98034282Y-84630648D01*
X97915570Y-84344052D01*
X97743227Y-84086123D01*
X97523877Y-83866773D01*
X97387286Y-83775505D01*
X97432871Y-83642476D01*
X96520000Y-82729605D01*
X96505858Y-82743748D01*
X96326253Y-82564143D01*
X96340395Y-82550000D01*
X96699605Y-82550000D01*
X97612476Y-83462871D01*
X97870723Y-83374377D01*
X98005597Y-83095024D01*
X98083381Y-82794725D01*
X98101084Y-82485023D01*
X98058027Y-82177816D01*
X97955865Y-81884914D01*
X97870723Y-81725623D01*
X97612476Y-81637129D01*
X96699605Y-82550000D01*
X96340395Y-82550000D01*
X95427524Y-81637129D01*
X95377000Y-81654442D01*
X95377000Y-81094104D01*
X95516123Y-81233227D01*
X95652714Y-81324495D01*
X95607129Y-81457524D01*
X96520000Y-82370395D01*
X97432871Y-81457524D01*
X97387286Y-81324495D01*
X97523877Y-81233227D01*
X97743227Y-81013877D01*
X97915570Y-80755948D01*
X98034282Y-80469352D01*
X98094800Y-80165104D01*
X98094800Y-79854896D01*
X98034282Y-79550648D01*
X98014131Y-79502000D01*
X98072485Y-79502000D01*
X98102684Y-79518142D01*
X98260685Y-79566071D01*
X98425000Y-79582254D01*
X98589315Y-79566071D01*
X98747316Y-79518142D01*
X98892931Y-79440309D01*
X98988585Y-79361808D01*
X100538763Y-77811630D01*
X103872768Y-77811630D01*
X103875840Y-78324710D01*
X104034590Y-78483460D01*
X105283000Y-78483460D01*
X105283000Y-77335380D01*
X105124250Y-77176630D01*
X104510840Y-77173558D01*
X104386358Y-77185818D01*
X104266660Y-77222128D01*
X104156346Y-77281093D01*
X104059655Y-77360445D01*
X103980303Y-77457136D01*
X103921338Y-77567450D01*
X103885028Y-77687148D01*
X103872768Y-77811630D01*
X100538763Y-77811630D01*
X101312194Y-77038200D01*
X106638837Y-77038200D01*
X106680000Y-77042254D01*
X106721163Y-77038200D01*
X106721170Y-77038200D01*
X106844316Y-77026071D01*
X107002317Y-76978142D01*
X107147932Y-76900309D01*
X107275564Y-76795564D01*
X107301811Y-76763582D01*
X110202194Y-73863200D01*
X110599696Y-73863200D01*
X110536773Y-73926123D01*
%TA.AperFunction,Conductor*%
D37*
G36*
X110536773Y-73926123D02*
G01*
X110364430Y-74184052D01*
X110245718Y-74470648D01*
X110185200Y-74774896D01*
X110185200Y-75085104D01*
X110245718Y-75389352D01*
X110364430Y-75675948D01*
X110536773Y-75933877D01*
X110756123Y-76153227D01*
X110892714Y-76244495D01*
X110847129Y-76377524D01*
X111760000Y-77290395D01*
X112672871Y-76377524D01*
X112627286Y-76244495D01*
X112763877Y-76153227D01*
X112903000Y-76014104D01*
X112903000Y-76574442D01*
X112852476Y-76557129D01*
X111939605Y-77470000D01*
X112852476Y-78382871D01*
X112903000Y-78365558D01*
X112903000Y-78925896D01*
X112763877Y-78786773D01*
X112627286Y-78695505D01*
X112672871Y-78562476D01*
X111760000Y-77649605D01*
X110847129Y-78562476D01*
X110892714Y-78695505D01*
X110756123Y-78786773D01*
X110536773Y-79006123D01*
X110364430Y-79264052D01*
X110245718Y-79550648D01*
X110185200Y-79854896D01*
X110185200Y-80165104D01*
X110245718Y-80469352D01*
X110364430Y-80755948D01*
X110536773Y-81013877D01*
X110756123Y-81233227D01*
X110826124Y-81280000D01*
X110756123Y-81326773D01*
X110536773Y-81546123D01*
X110493958Y-81610200D01*
X109609277Y-81610200D01*
X109263072Y-81263996D01*
X109263072Y-80989999D01*
X109246008Y-80816745D01*
X109195472Y-80650149D01*
X109113405Y-80496613D01*
X109002962Y-80362038D01*
X108868387Y-80251595D01*
X108714851Y-80169528D01*
X108548255Y-80118992D01*
X108375001Y-80101928D01*
X107524999Y-80101928D01*
X107351745Y-80118992D01*
X107185149Y-80169528D01*
X107031613Y-80251595D01*
X106897038Y-80362038D01*
X106896567Y-80362611D01*
X106839697Y-80256216D01*
X106760345Y-80159525D01*
X106663654Y-80080173D01*
X106553340Y-80021208D01*
X106516392Y-80010000D01*
X106553340Y-79998792D01*
X106663654Y-79939827D01*
X106760345Y-79860475D01*
X106779479Y-79837161D01*
X106823815Y-79891185D01*
X106920506Y-79970537D01*
X107030820Y-80029502D01*
X107150518Y-80065812D01*
X107275000Y-80078072D01*
X107664250Y-80075000D01*
X107823000Y-79916250D01*
X107823000Y-78867000D01*
X108077000Y-78867000D01*
X108077000Y-79916250D01*
X108235750Y-80075000D01*
X108625000Y-80078072D01*
X108749482Y-80065812D01*
X108869180Y-80029502D01*
X108979494Y-79970537D01*
X109076185Y-79891185D01*
X109155537Y-79794494D01*
X109214502Y-79684180D01*
X109250812Y-79564482D01*
X109263072Y-79440000D01*
X109260000Y-79025750D01*
X109101250Y-78867000D01*
X108077000Y-78867000D01*
X107823000Y-78867000D01*
X107803000Y-78867000D01*
X107803000Y-78613000D01*
X107823000Y-78613000D01*
X107823000Y-77563750D01*
X108077000Y-77563750D01*
X108077000Y-78613000D01*
X109101250Y-78613000D01*
X109260000Y-78454250D01*
X109263072Y-78040000D01*
X109250812Y-77915518D01*
X109214502Y-77795820D01*
X109155537Y-77685506D01*
X109076185Y-77588815D01*
X109010583Y-77534977D01*
X110178916Y-77534977D01*
X110221973Y-77842184D01*
X110324135Y-78135086D01*
X110409277Y-78294377D01*
X110667524Y-78382871D01*
X111580395Y-77470000D01*
X110667524Y-76557129D01*
X110409277Y-76645623D01*
X110274403Y-76924976D01*
X110196619Y-77225275D01*
X110178916Y-77534977D01*
X109010583Y-77534977D01*
X108979494Y-77509463D01*
X108869180Y-77450498D01*
X108749482Y-77414188D01*
X108625000Y-77401928D01*
X108235750Y-77405000D01*
X108077000Y-77563750D01*
X107823000Y-77563750D01*
X107664250Y-77405000D01*
X107275000Y-77401928D01*
X107150518Y-77414188D01*
X107030820Y-77450498D01*
X106920506Y-77509463D01*
X106883778Y-77539605D01*
X106839697Y-77457136D01*
X106760345Y-77360445D01*
X106663654Y-77281093D01*
X106553340Y-77222128D01*
X106433642Y-77185818D01*
X106309160Y-77173558D01*
X105695750Y-77176630D01*
X105537000Y-77335380D01*
X105537000Y-78483460D01*
X105557000Y-78483460D01*
X105557000Y-78737460D01*
X105537000Y-78737460D01*
X105537000Y-78757460D01*
X105283000Y-78757460D01*
X105283000Y-78737460D01*
X104034590Y-78737460D01*
X103875840Y-78896210D01*
X103872768Y-79409290D01*
X103885028Y-79533772D01*
X103921338Y-79653470D01*
X103980303Y-79763784D01*
X104059655Y-79860475D01*
X104156346Y-79939827D01*
X104266660Y-79998792D01*
X104303608Y-80010000D01*
X104266660Y-80021208D01*
X104156346Y-80080173D01*
X104059655Y-80159525D01*
X103994760Y-80238600D01*
X103534376Y-80238600D01*
X103454992Y-80185557D01*
X103230236Y-80092460D01*
X102991637Y-80045000D01*
X102748363Y-80045000D01*
X102509764Y-80092460D01*
X102285008Y-80185557D01*
X102082733Y-80320713D01*
X101910713Y-80492733D01*
X101775557Y-80695008D01*
X101682460Y-80919764D01*
X101635000Y-81158363D01*
X101635000Y-81401637D01*
X101682460Y-81640236D01*
X101775557Y-81864992D01*
X101910713Y-82067267D01*
X102082733Y-82239287D01*
X102285008Y-82374443D01*
X102509764Y-82467540D01*
X102748363Y-82515000D01*
X102991637Y-82515000D01*
X103230236Y-82467540D01*
X103454992Y-82374443D01*
X103534376Y-82321400D01*
X103883900Y-82321400D01*
X103885028Y-82332852D01*
X103921338Y-82452550D01*
X103980303Y-82562864D01*
X104059655Y-82659555D01*
X104156346Y-82738907D01*
X104266660Y-82797872D01*
X104386358Y-82834182D01*
X104510840Y-82846442D01*
X106309160Y-82846442D01*
X106433642Y-82834182D01*
X106553340Y-82797872D01*
X106663654Y-82738907D01*
X106760345Y-82659555D01*
X106839697Y-82562864D01*
X106876848Y-82493360D01*
X106897038Y-82517962D01*
X107031613Y-82628405D01*
X107185149Y-82710472D01*
X107351745Y-82761008D01*
X107524999Y-82778072D01*
X108118995Y-82778072D01*
X108522813Y-83181890D01*
X108552246Y-83217754D01*
X108635194Y-83285828D01*
X108695348Y-83335196D01*
X108768651Y-83374377D01*
X108858614Y-83422463D01*
X109035767Y-83476202D01*
X109173833Y-83489800D01*
X109173842Y-83489800D01*
X109219999Y-83494346D01*
X109266156Y-83489800D01*
X110493958Y-83489800D01*
X110536773Y-83553877D01*
X110756123Y-83773227D01*
X110826124Y-83820000D01*
X110756123Y-83866773D01*
X110536773Y-84086123D01*
X110364430Y-84344052D01*
X110245718Y-84630648D01*
X110185200Y-84934896D01*
X110185200Y-85245104D01*
X110245718Y-85549352D01*
X110364430Y-85835948D01*
X110536773Y-86093877D01*
X110756123Y-86313227D01*
X110826124Y-86360000D01*
X110756123Y-86406773D01*
X110536773Y-86626123D01*
X110364430Y-86884052D01*
X110245718Y-87170648D01*
X110185200Y-87474896D01*
X110185200Y-87785104D01*
X110245718Y-88089352D01*
X110364430Y-88375948D01*
X110536773Y-88633877D01*
X110756123Y-88853227D01*
X110826124Y-88900000D01*
X110756123Y-88946773D01*
X110536773Y-89166123D01*
X110364430Y-89424052D01*
X110245718Y-89710648D01*
X110185200Y-90014896D01*
X110185200Y-90325104D01*
X110245718Y-90629352D01*
X110364430Y-90915948D01*
X110536773Y-91173877D01*
X110756123Y-91393227D01*
X110826124Y-91440000D01*
X110756123Y-91486773D01*
X110536773Y-91706123D01*
X110426071Y-91871800D01*
X108626162Y-91871800D01*
X108584999Y-91867746D01*
X108543836Y-91871800D01*
X108543830Y-91871800D01*
X108420684Y-91883929D01*
X108262683Y-91931858D01*
X108117068Y-92009691D01*
X107989436Y-92114436D01*
X107963194Y-92146412D01*
X98496418Y-101613189D01*
X98464436Y-101639436D01*
X98359691Y-101767069D01*
X98281858Y-101912684D01*
X98233929Y-102070685D01*
X98221800Y-102193831D01*
X98221800Y-102193837D01*
X98217746Y-102235000D01*
X98221800Y-102276163D01*
X98221800Y-104013000D01*
X97604104Y-104013000D01*
X97743227Y-103873877D01*
X97915570Y-103615948D01*
X98034282Y-103329352D01*
X98094800Y-103025104D01*
X98094800Y-102714896D01*
X98034282Y-102410648D01*
X97915570Y-102124052D01*
X97743227Y-101866123D01*
X97523877Y-101646773D01*
X97453876Y-101600000D01*
X97523877Y-101553227D01*
X97743227Y-101333877D01*
X97915570Y-101075948D01*
X98034282Y-100789352D01*
X98094800Y-100485104D01*
X98094800Y-100174896D01*
X98034282Y-99870648D01*
X97915570Y-99584052D01*
X97743227Y-99326123D01*
X97523877Y-99106773D01*
X97453876Y-99060000D01*
X97523877Y-99013227D01*
X97743227Y-98793877D01*
X97915570Y-98535948D01*
X98034282Y-98249352D01*
X98094800Y-97945104D01*
X98094800Y-97634896D01*
X98034282Y-97330648D01*
X97915570Y-97044052D01*
X97743227Y-96786123D01*
X97523877Y-96566773D01*
X97453876Y-96520000D01*
X97523877Y-96473227D01*
X97743227Y-96253877D01*
X97915570Y-95995948D01*
X98034282Y-95709352D01*
X98094800Y-95405104D01*
X98094800Y-95094896D01*
X98034282Y-94790648D01*
X97915570Y-94504052D01*
X97743227Y-94246123D01*
X97523877Y-94026773D01*
X97453876Y-93980000D01*
X97523877Y-93933227D01*
X97743227Y-93713877D01*
X97915570Y-93455948D01*
X98034282Y-93169352D01*
X98094800Y-92865104D01*
X98094800Y-92554896D01*
X98034282Y-92250648D01*
X97915570Y-91964052D01*
X97743227Y-91706123D01*
X97523877Y-91486773D01*
X97453876Y-91440000D01*
X97523877Y-91393227D01*
X97743227Y-91173877D01*
X97915570Y-90915948D01*
X98034282Y-90629352D01*
X98094800Y-90325104D01*
X98094800Y-90014896D01*
X98034282Y-89710648D01*
X97915570Y-89424052D01*
X97743227Y-89166123D01*
X97523877Y-88946773D01*
X97453876Y-88900000D01*
X97523877Y-88853227D01*
X97743227Y-88633877D01*
X97915570Y-88375948D01*
X98034282Y-88089352D01*
X98094800Y-87785104D01*
X98094800Y-87474896D01*
X98034282Y-87170648D01*
X97915570Y-86884052D01*
X97743227Y-86626123D01*
X97523877Y-86406773D01*
X97453876Y-86360000D01*
X97523877Y-86313227D01*
X97743227Y-86093877D01*
X97915570Y-85835948D01*
X98034282Y-85549352D01*
X98094800Y-85245104D01*
X98094800Y-84934896D01*
X98034282Y-84630648D01*
X97915570Y-84344052D01*
X97743227Y-84086123D01*
X97523877Y-83866773D01*
X97387286Y-83775505D01*
X97432871Y-83642476D01*
X96520000Y-82729605D01*
X96505858Y-82743748D01*
X96326253Y-82564143D01*
X96340395Y-82550000D01*
X96699605Y-82550000D01*
X97612476Y-83462871D01*
X97870723Y-83374377D01*
X98005597Y-83095024D01*
X98083381Y-82794725D01*
X98101084Y-82485023D01*
X98058027Y-82177816D01*
X97955865Y-81884914D01*
X97870723Y-81725623D01*
X97612476Y-81637129D01*
X96699605Y-82550000D01*
X96340395Y-82550000D01*
X95427524Y-81637129D01*
X95377000Y-81654442D01*
X95377000Y-81094104D01*
X95516123Y-81233227D01*
X95652714Y-81324495D01*
X95607129Y-81457524D01*
X96520000Y-82370395D01*
X97432871Y-81457524D01*
X97387286Y-81324495D01*
X97523877Y-81233227D01*
X97743227Y-81013877D01*
X97915570Y-80755948D01*
X98034282Y-80469352D01*
X98094800Y-80165104D01*
X98094800Y-79854896D01*
X98034282Y-79550648D01*
X98014131Y-79502000D01*
X98072485Y-79502000D01*
X98102684Y-79518142D01*
X98260685Y-79566071D01*
X98425000Y-79582254D01*
X98589315Y-79566071D01*
X98747316Y-79518142D01*
X98892931Y-79440309D01*
X98988585Y-79361808D01*
X100538763Y-77811630D01*
X103872768Y-77811630D01*
X103875840Y-78324710D01*
X104034590Y-78483460D01*
X105283000Y-78483460D01*
X105283000Y-77335380D01*
X105124250Y-77176630D01*
X104510840Y-77173558D01*
X104386358Y-77185818D01*
X104266660Y-77222128D01*
X104156346Y-77281093D01*
X104059655Y-77360445D01*
X103980303Y-77457136D01*
X103921338Y-77567450D01*
X103885028Y-77687148D01*
X103872768Y-77811630D01*
X100538763Y-77811630D01*
X101312194Y-77038200D01*
X106638837Y-77038200D01*
X106680000Y-77042254D01*
X106721163Y-77038200D01*
X106721170Y-77038200D01*
X106844316Y-77026071D01*
X107002317Y-76978142D01*
X107147932Y-76900309D01*
X107275564Y-76795564D01*
X107301811Y-76763582D01*
X110202194Y-73863200D01*
X110599696Y-73863200D01*
X110536773Y-73926123D01*
G37*
%TD.AperFunction*%
%TD*%
D36*
%TO.N,GND*%
X94869000Y-76047600D02*
X86686151Y-76047600D01*
X86512400Y-75873849D01*
X86512400Y-75662873D01*
X86728877Y-75518227D01*
X86859628Y-75387476D01*
X87352129Y-75387476D01*
X87440623Y-75645723D01*
X87719976Y-75780597D01*
X88020275Y-75858381D01*
X88329977Y-75876084D01*
X88637184Y-75833027D01*
X88930086Y-75730865D01*
X89089377Y-75645723D01*
X89177871Y-75387476D01*
X88265000Y-74474605D01*
X87352129Y-75387476D01*
X86859628Y-75387476D01*
X86948227Y-75298877D01*
X87039495Y-75162286D01*
X87172524Y-75207871D01*
X88085395Y-74295000D01*
X88444605Y-74295000D01*
X89357476Y-75207871D01*
X89615723Y-75119377D01*
X89750597Y-74840024D01*
X89828381Y-74539725D01*
X89846084Y-74230023D01*
X89803027Y-73922816D01*
X89700865Y-73629914D01*
X89615723Y-73470623D01*
X89357476Y-73382129D01*
X88444605Y-74295000D01*
X88085395Y-74295000D01*
X87172524Y-73382129D01*
X87039495Y-73427714D01*
X86948227Y-73291123D01*
X86859628Y-73202524D01*
X87352129Y-73202524D01*
X88265000Y-74115395D01*
X89177871Y-73202524D01*
X89089377Y-72944277D01*
X88810024Y-72809403D01*
X88509725Y-72731619D01*
X88200023Y-72713916D01*
X87892816Y-72756973D01*
X87599914Y-72859135D01*
X87440623Y-72944277D01*
X87352129Y-73202524D01*
X86859628Y-73202524D01*
X86728877Y-73071773D01*
X86470948Y-72899430D01*
X86184352Y-72780718D01*
X85880104Y-72720200D01*
X85569896Y-72720200D01*
X85265648Y-72780718D01*
X84979052Y-72899430D01*
X84721123Y-73071773D01*
X84501773Y-73291123D01*
X84455000Y-73361124D01*
X84408227Y-73291123D01*
X84188877Y-73071773D01*
X83930948Y-72899430D01*
X83644352Y-72780718D01*
X83340104Y-72720200D01*
X83029896Y-72720200D01*
X82725648Y-72780718D01*
X82439052Y-72899430D01*
X82181123Y-73071773D01*
X81961773Y-73291123D01*
X81915000Y-73361124D01*
X81868227Y-73291123D01*
X81648877Y-73071773D01*
X81390948Y-72899430D01*
X81104352Y-72780718D01*
X80800104Y-72720200D01*
X80489896Y-72720200D01*
X80185648Y-72780718D01*
X79899052Y-72899430D01*
X79641123Y-73071773D01*
X79421773Y-73291123D01*
X79249430Y-73549052D01*
X79130718Y-73835648D01*
X79070200Y-74139896D01*
X79070200Y-74450104D01*
X79130718Y-74754352D01*
X79194325Y-74907913D01*
X78834786Y-75267453D01*
X78795058Y-75300057D01*
X78762454Y-75339785D01*
X78762450Y-75339789D01*
X78664919Y-75458631D01*
X78568218Y-75639545D01*
X78552740Y-75690570D01*
X78509527Y-75833027D01*
X78508670Y-75835851D01*
X78488563Y-76040000D01*
X78493601Y-76091151D01*
X78493600Y-77657032D01*
X78457038Y-77687038D01*
X78346595Y-77821613D01*
X78264528Y-77975149D01*
X78213992Y-78141745D01*
X78196928Y-78314999D01*
X78196928Y-79165001D01*
X78213992Y-79338255D01*
X78264528Y-79504851D01*
X78346595Y-79658387D01*
X78457038Y-79792962D01*
X78508705Y-79835364D01*
X78480756Y-79850303D01*
X78384065Y-79929655D01*
X78304713Y-80026346D01*
X78245748Y-80136660D01*
X78234540Y-80173608D01*
X78223332Y-80136660D01*
X78164367Y-80026346D01*
X78085015Y-79929655D01*
X77994834Y-79855646D01*
X78065537Y-79769494D01*
X78124502Y-79659180D01*
X78160812Y-79539482D01*
X78173072Y-79415000D01*
X78170000Y-79025750D01*
X78011250Y-78867000D01*
X76962000Y-78867000D01*
X76962000Y-79891250D01*
X76968670Y-79897920D01*
X76962000Y-79904590D01*
X76962000Y-81153000D01*
X76982000Y-81153000D01*
X76982000Y-81407000D01*
X76962000Y-81407000D01*
X76962000Y-82655410D01*
X77120750Y-82814160D01*
X77633830Y-82817232D01*
X77758312Y-82804972D01*
X77878010Y-82768662D01*
X77988324Y-82709697D01*
X78085015Y-82630345D01*
X78164367Y-82533654D01*
X78223332Y-82423340D01*
X78234540Y-82386392D01*
X78245748Y-82423340D01*
X78304713Y-82533654D01*
X78384065Y-82630345D01*
X78480756Y-82709697D01*
X78591070Y-82768662D01*
X78710768Y-82804972D01*
X78812896Y-82815030D01*
X78861530Y-82874291D01*
X78861534Y-82874295D01*
X78894138Y-82914023D01*
X78933866Y-82946627D01*
X81508600Y-85521362D01*
X81508601Y-86366928D01*
X81475000Y-86366928D01*
X81301746Y-86383992D01*
X81135150Y-86434528D01*
X80981614Y-86516595D01*
X80847038Y-86627038D01*
X80736595Y-86761614D01*
X80654528Y-86915150D01*
X80603992Y-87081746D01*
X80586928Y-87255000D01*
X80586928Y-88005000D01*
X80589272Y-88028798D01*
X80410454Y-87933217D01*
X80214150Y-87873669D01*
X80061152Y-87858600D01*
X80061141Y-87858600D01*
X80010000Y-87853563D01*
X79958859Y-87858600D01*
X79822968Y-87858600D01*
X79792962Y-87822038D01*
X79658387Y-87711595D01*
X79504851Y-87629528D01*
X79338255Y-87578992D01*
X79165001Y-87561928D01*
X78314999Y-87561928D01*
X78141745Y-87578992D01*
X77975149Y-87629528D01*
X77821613Y-87711595D01*
X77687038Y-87822038D01*
X77576595Y-87956613D01*
X77494528Y-88110149D01*
X77443992Y-88276745D01*
X77426928Y-88449999D01*
X77426928Y-89350001D01*
X77443992Y-89523255D01*
X77494528Y-89689851D01*
X77576595Y-89843387D01*
X77687038Y-89977962D01*
X77821613Y-90088405D01*
X77975149Y-90170472D01*
X78141745Y-90221008D01*
X78314999Y-90238072D01*
X79165001Y-90238072D01*
X79338255Y-90221008D01*
X79504851Y-90170472D01*
X79658387Y-90088405D01*
X79695327Y-90058089D01*
X80602736Y-90965497D01*
X80603992Y-90978254D01*
X80654528Y-91144850D01*
X80736595Y-91298386D01*
X80847038Y-91432962D01*
X80981614Y-91543405D01*
X81135150Y-91625472D01*
X81301746Y-91676008D01*
X81475000Y-91693072D01*
X81508600Y-91693072D01*
X81508601Y-93091000D01*
X81173939Y-93091000D01*
X80856762Y-93122239D01*
X80449789Y-93245693D01*
X80074720Y-93446172D01*
X79745970Y-93715970D01*
X79476172Y-94044720D01*
X79275693Y-94419789D01*
X79152239Y-94826762D01*
X79110554Y-95250000D01*
X79152239Y-95673238D01*
X79275693Y-96080211D01*
X79476172Y-96455280D01*
X79745970Y-96784030D01*
X80074720Y-97053828D01*
X80449789Y-97254307D01*
X80856762Y-97377761D01*
X81173939Y-97409000D01*
X82507034Y-97409000D01*
X82931001Y-97832968D01*
X82931001Y-98212232D01*
X82904482Y-98204188D01*
X82780000Y-98191928D01*
X81565750Y-98195000D01*
X81407000Y-98353750D01*
X81407000Y-100203000D01*
X81427000Y-100203000D01*
X81427000Y-100457000D01*
X81407000Y-100457000D01*
X81407000Y-102306250D01*
X81565750Y-102465000D01*
X82780000Y-102468072D01*
X82904482Y-102455812D01*
X82931000Y-102447768D01*
X82931000Y-105303942D01*
X82920554Y-105410000D01*
X82931000Y-105516058D01*
X82931000Y-105516060D01*
X82962239Y-105833237D01*
X83085693Y-106240210D01*
X83286172Y-106615280D01*
X83555970Y-106944030D01*
X83638358Y-107011644D01*
X84096976Y-107470262D01*
X82495110Y-109072129D01*
X82504902Y-108947176D01*
X82455334Y-108529549D01*
X82325243Y-108129617D01*
X82167214Y-107833962D01*
X81851653Y-107677952D01*
X80539605Y-108990000D01*
X80553748Y-109004143D01*
X80374143Y-109183748D01*
X80360000Y-109169605D01*
X79047952Y-110481653D01*
X79203962Y-110797214D01*
X79578745Y-110988020D01*
X79983551Y-111102044D01*
X80402824Y-111134902D01*
X80820451Y-111085334D01*
X81078351Y-111001443D01*
X81053992Y-111081746D01*
X81036928Y-111255000D01*
X81036928Y-112005000D01*
X81053992Y-112178254D01*
X81104528Y-112344850D01*
X81186595Y-112498386D01*
X81297038Y-112632962D01*
X81431614Y-112743405D01*
X81585150Y-112825472D01*
X81751746Y-112876008D01*
X81925000Y-112893072D01*
X83175000Y-112893072D01*
X83348254Y-112876008D01*
X83514850Y-112825472D01*
X83668386Y-112743405D01*
X83802962Y-112632962D01*
X83913405Y-112498386D01*
X83995472Y-112344850D01*
X84046008Y-112178254D01*
X84063072Y-112005000D01*
X84063072Y-111255000D01*
X84046008Y-111081746D01*
X83995472Y-110915150D01*
X83913405Y-110761614D01*
X83840267Y-110672494D01*
X85569738Y-108943024D01*
X87118360Y-110491647D01*
X87185970Y-110574030D01*
X87514720Y-110843828D01*
X87889789Y-111044307D01*
X88296762Y-111167761D01*
X88613939Y-111199000D01*
X88613941Y-111199000D01*
X88719999Y-111209446D01*
X88826057Y-111199000D01*
X92516061Y-111199000D01*
X92833238Y-111167761D01*
X93240211Y-111044307D01*
X93615280Y-110843828D01*
X93944030Y-110574030D01*
X94213828Y-110245280D01*
X94414307Y-109870211D01*
X94537761Y-109463238D01*
X94579446Y-109040000D01*
X94537761Y-108616762D01*
X94414307Y-108209789D01*
X94213828Y-107834720D01*
X93944030Y-107505970D01*
X93615280Y-107236172D01*
X93240211Y-107035693D01*
X92833238Y-106912239D01*
X92516061Y-106881000D01*
X89614287Y-106881000D01*
X87811647Y-105078361D01*
X87249000Y-104515714D01*
X87249000Y-97044730D01*
X87259445Y-96938679D01*
X87249000Y-96832629D01*
X87249000Y-96832619D01*
X87217761Y-96515442D01*
X87163820Y-96337622D01*
X87300214Y-96201228D01*
X87339943Y-96168623D01*
X87379781Y-96120081D01*
X87470081Y-96010051D01*
X87566782Y-95829136D01*
X87566783Y-95829134D01*
X87626331Y-95632830D01*
X87637301Y-95521453D01*
X87704494Y-95485537D01*
X87750000Y-95448191D01*
X87795506Y-95485537D01*
X87905820Y-95544502D01*
X88025518Y-95580812D01*
X88150000Y-95593072D01*
X89650000Y-95593072D01*
X89774482Y-95580812D01*
X89894180Y-95544502D01*
X90004494Y-95485537D01*
X90050000Y-95448191D01*
X90095506Y-95485537D01*
X90205820Y-95544502D01*
X90325518Y-95580812D01*
X90450000Y-95593072D01*
X91950000Y-95593072D01*
X92074482Y-95580812D01*
X92194180Y-95544502D01*
X92304494Y-95485537D01*
X92401185Y-95406185D01*
X92480537Y-95309494D01*
X92539502Y-95199180D01*
X92575812Y-95079482D01*
X92588072Y-94955000D01*
X92588072Y-94793200D01*
X92693837Y-94793200D01*
X92735000Y-94797254D01*
X92776163Y-94793200D01*
X92776170Y-94793200D01*
X92899316Y-94781071D01*
X93057317Y-94733142D01*
X93202932Y-94655309D01*
X93330564Y-94550564D01*
X93356811Y-94518582D01*
X94543587Y-93331807D01*
X94575564Y-93305564D01*
X94617315Y-93254691D01*
X94680309Y-93177932D01*
X94758142Y-93032317D01*
X94806071Y-92874316D01*
X94810385Y-92830518D01*
X94818200Y-92751170D01*
X94818200Y-92751163D01*
X94822254Y-92710000D01*
X94818200Y-92668837D01*
X94818200Y-90766266D01*
X94869000Y-90739113D01*
X94869000Y-112026939D01*
X94829965Y-111979375D01*
X94733274Y-111900023D01*
X94622960Y-111841058D01*
X94503262Y-111804748D01*
X94378780Y-111792488D01*
X93581220Y-111792488D01*
X93456738Y-111804748D01*
X93337040Y-111841058D01*
X93226726Y-111900023D01*
X93130035Y-111979375D01*
X93080840Y-112039319D01*
X93031645Y-111979375D01*
X92934954Y-111900023D01*
X92824640Y-111841058D01*
X92704942Y-111804748D01*
X92580460Y-111792488D01*
X91782900Y-111792488D01*
X91658418Y-111804748D01*
X91538720Y-111841058D01*
X91428406Y-111900023D01*
X91331715Y-111979375D01*
X91252363Y-112076066D01*
X91193398Y-112186380D01*
X91157088Y-112306078D01*
X91144828Y-112430560D01*
X91144828Y-113629440D01*
X91157088Y-113753922D01*
X91193398Y-113873620D01*
X91241880Y-113964323D01*
X91241881Y-114630200D01*
X89996156Y-114630200D01*
X89949999Y-114625654D01*
X89903842Y-114630200D01*
X89903833Y-114630200D01*
X89765767Y-114643798D01*
X89588614Y-114697537D01*
X89425349Y-114784804D01*
X89343558Y-114851928D01*
X89180000Y-114851928D01*
X89055518Y-114864188D01*
X88935820Y-114900498D01*
X88825506Y-114959463D01*
X88728815Y-115038815D01*
X88649463Y-115135506D01*
X88590498Y-115245820D01*
X88554188Y-115365518D01*
X88541928Y-115490000D01*
X88541928Y-116001905D01*
X88531185Y-115988815D01*
X88434494Y-115909463D01*
X88324180Y-115850498D01*
X88204482Y-115814188D01*
X88080000Y-115801928D01*
X87180000Y-115801928D01*
X87055518Y-115814188D01*
X86935820Y-115850498D01*
X86842836Y-115900200D01*
X86596156Y-115900200D01*
X86549999Y-115895654D01*
X86503842Y-115900200D01*
X86503833Y-115900200D01*
X86365767Y-115913798D01*
X86188614Y-115967537D01*
X86025349Y-116054804D01*
X85882246Y-116172246D01*
X85852818Y-116208105D01*
X85488995Y-116571928D01*
X84030000Y-116571928D01*
X83905518Y-116584188D01*
X83785820Y-116620498D01*
X83675506Y-116679463D01*
X83578815Y-116758815D01*
X83499463Y-116855506D01*
X83440498Y-116965820D01*
X83404188Y-117085518D01*
X83391928Y-117210000D01*
X83391928Y-119010000D01*
X83404188Y-119134482D01*
X83440498Y-119254180D01*
X83499463Y-119364494D01*
X83578815Y-119461185D01*
X83675506Y-119540537D01*
X83785820Y-119599502D01*
X83905518Y-119635812D01*
X84030000Y-119648072D01*
X85345311Y-119648072D01*
X86756881Y-121059643D01*
X86360000Y-121020554D01*
X85936763Y-121062239D01*
X85529790Y-121185693D01*
X85154721Y-121386172D01*
X84825971Y-121655970D01*
X84556173Y-121984720D01*
X84355694Y-122359789D01*
X84232240Y-122766762D01*
X84201001Y-123083939D01*
X84201000Y-129646060D01*
X84221928Y-129858547D01*
X84221928Y-131040000D01*
X84234188Y-131164482D01*
X84270498Y-131284180D01*
X84329463Y-131394494D01*
X84408815Y-131491185D01*
X84505506Y-131570537D01*
X84615820Y-131629502D01*
X84735518Y-131665812D01*
X84860000Y-131678072D01*
X86041452Y-131678072D01*
X86360000Y-131709446D01*
X86678547Y-131678072D01*
X87860000Y-131678072D01*
X87984482Y-131665812D01*
X88104180Y-131629502D01*
X88214494Y-131570537D01*
X88311185Y-131491185D01*
X88390537Y-131394494D01*
X88449502Y-131284180D01*
X88485812Y-131164482D01*
X88498072Y-131040000D01*
X88498072Y-129858548D01*
X88519000Y-129646061D01*
X88519000Y-125551762D01*
X88932488Y-125965250D01*
X88932488Y-126499620D01*
X88944748Y-126624102D01*
X88981058Y-126743800D01*
X89040023Y-126854114D01*
X89119375Y-126950805D01*
X89179319Y-127000000D01*
X89119375Y-127049195D01*
X89040023Y-127145886D01*
X88981058Y-127256200D01*
X88944748Y-127375898D01*
X88932488Y-127500380D01*
X88932488Y-128202005D01*
X88916346Y-128210633D01*
X88819655Y-128289985D01*
X88740303Y-128386676D01*
X88681338Y-128496990D01*
X88645028Y-128616688D01*
X88632768Y-128741170D01*
X88632768Y-130338830D01*
X88645028Y-130463312D01*
X88681338Y-130583010D01*
X88740303Y-130693324D01*
X88819655Y-130790015D01*
X88916346Y-130869367D01*
X89026660Y-130928332D01*
X89063608Y-130939540D01*
X89026660Y-130950748D01*
X88916346Y-131009713D01*
X88819655Y-131089065D01*
X88740303Y-131185756D01*
X88681338Y-131296070D01*
X88645028Y-131415768D01*
X88632768Y-131540250D01*
X88635840Y-132053330D01*
X88794590Y-132212080D01*
X90043000Y-132212080D01*
X90043000Y-132192080D01*
X90297000Y-132192080D01*
X90297000Y-132212080D01*
X91545410Y-132212080D01*
X91704160Y-132053330D01*
X91705414Y-131843780D01*
X93377488Y-131843780D01*
X93389748Y-131968262D01*
X93426058Y-132087960D01*
X93485023Y-132198274D01*
X93564375Y-132294965D01*
X93661066Y-132374317D01*
X93771380Y-132433282D01*
X93891078Y-132469592D01*
X94015560Y-132481852D01*
X94329250Y-132478780D01*
X94488000Y-132320030D01*
X94488000Y-131572000D01*
X93539310Y-131572000D01*
X93380560Y-131730750D01*
X93377488Y-131843780D01*
X91705414Y-131843780D01*
X91707232Y-131540250D01*
X91694972Y-131415768D01*
X91658662Y-131296070D01*
X91599697Y-131185756D01*
X91520345Y-131089065D01*
X91423654Y-131009713D01*
X91313340Y-130950748D01*
X91276392Y-130939540D01*
X91313340Y-130928332D01*
X91423654Y-130869367D01*
X91520345Y-130790015D01*
X91599697Y-130693324D01*
X91658662Y-130583010D01*
X91694972Y-130463312D01*
X91707232Y-130338830D01*
X91707232Y-128741170D01*
X91694972Y-128616688D01*
X91658662Y-128496990D01*
X91599697Y-128386676D01*
X91520345Y-128289985D01*
X91423654Y-128210633D01*
X91407512Y-128202005D01*
X91407512Y-127500380D01*
X91395252Y-127375898D01*
X91358942Y-127256200D01*
X91299977Y-127145886D01*
X91220625Y-127049195D01*
X91160681Y-127000000D01*
X91220625Y-126950805D01*
X91299977Y-126854114D01*
X91358942Y-126743800D01*
X91395252Y-126624102D01*
X91407512Y-126499620D01*
X91407512Y-125702060D01*
X91395252Y-125577578D01*
X91358942Y-125457880D01*
X91299977Y-125347566D01*
X91220625Y-125250875D01*
X91123934Y-125171523D01*
X91013620Y-125112558D01*
X91009437Y-125111289D01*
X90942550Y-125029788D01*
X90942547Y-125029785D01*
X90909943Y-124990057D01*
X90870215Y-124957453D01*
X88404261Y-122491500D01*
X88364307Y-122359789D01*
X88320382Y-122277611D01*
X88358848Y-122281400D01*
X88358858Y-122281400D01*
X88409999Y-122286437D01*
X88461141Y-122281400D01*
X90838771Y-122281400D01*
X90945825Y-122441618D01*
X91208382Y-122704175D01*
X91517118Y-122910466D01*
X91860166Y-123052561D01*
X92224344Y-123125000D01*
X92595656Y-123125000D01*
X92959834Y-123052561D01*
X93302882Y-122910466D01*
X93611618Y-122704175D01*
X93874175Y-122441618D01*
X94080466Y-122132882D01*
X94222561Y-121789834D01*
X94295000Y-121425656D01*
X94295000Y-121054344D01*
X94222561Y-120690166D01*
X94080466Y-120347118D01*
X93874175Y-120038382D01*
X93611618Y-119775825D01*
X93302882Y-119569534D01*
X92959834Y-119427439D01*
X92595656Y-119355000D01*
X92224344Y-119355000D01*
X91860166Y-119427439D01*
X91517118Y-119569534D01*
X91208382Y-119775825D01*
X90945825Y-120038382D01*
X90838771Y-120198600D01*
X88841362Y-120198600D01*
X87168072Y-118525311D01*
X87168072Y-118190000D01*
X88541928Y-118190000D01*
X88554188Y-118314482D01*
X88590498Y-118434180D01*
X88649463Y-118544494D01*
X88728815Y-118641185D01*
X88825506Y-118720537D01*
X88935820Y-118779502D01*
X89055518Y-118815812D01*
X89180000Y-118828072D01*
X89344250Y-118825000D01*
X89503000Y-118666250D01*
X89503000Y-117917000D01*
X89757000Y-117917000D01*
X89757000Y-118666250D01*
X89915750Y-118825000D01*
X90080000Y-118828072D01*
X90204482Y-118815812D01*
X90324180Y-118779502D01*
X90434494Y-118720537D01*
X90531185Y-118641185D01*
X90610537Y-118544494D01*
X90669502Y-118434180D01*
X90705812Y-118314482D01*
X90718072Y-118190000D01*
X90715000Y-118075750D01*
X90556250Y-117917000D01*
X89757000Y-117917000D01*
X89503000Y-117917000D01*
X88703750Y-117917000D01*
X88545000Y-118075750D01*
X88541928Y-118190000D01*
X87168072Y-118190000D01*
X87168072Y-117876897D01*
X87180000Y-117878072D01*
X88080000Y-117878072D01*
X88204482Y-117865812D01*
X88324180Y-117829502D01*
X88434494Y-117770537D01*
X88531185Y-117691185D01*
X88610537Y-117594494D01*
X88619143Y-117578393D01*
X88703750Y-117663000D01*
X89503000Y-117663000D01*
X89503000Y-117643000D01*
X89757000Y-117643000D01*
X89757000Y-117663000D01*
X90556250Y-117663000D01*
X90715000Y-117504250D01*
X90718072Y-117390000D01*
X90705812Y-117265518D01*
X90669502Y-117145820D01*
X90610537Y-117035506D01*
X90531185Y-116938815D01*
X90434494Y-116859463D01*
X90398082Y-116840000D01*
X90434494Y-116820537D01*
X90531185Y-116741185D01*
X90610537Y-116644494D01*
X90669502Y-116534180D01*
X90676898Y-116509800D01*
X91244808Y-116509800D01*
X91252363Y-116523934D01*
X91331715Y-116620625D01*
X91428406Y-116699977D01*
X91538720Y-116758942D01*
X91658418Y-116795252D01*
X91782900Y-116807512D01*
X92580460Y-116807512D01*
X92704942Y-116795252D01*
X92824640Y-116758942D01*
X92934954Y-116699977D01*
X93031645Y-116620625D01*
X93080840Y-116560681D01*
X93130035Y-116620625D01*
X93226726Y-116699977D01*
X93337040Y-116758942D01*
X93456738Y-116795252D01*
X93581220Y-116807512D01*
X93694250Y-116804440D01*
X93853000Y-116645690D01*
X93853000Y-115697000D01*
X93833000Y-115697000D01*
X93833000Y-115443000D01*
X93853000Y-115443000D01*
X93853000Y-114494310D01*
X93694250Y-114335560D01*
X93581220Y-114332488D01*
X93456738Y-114344748D01*
X93337040Y-114381058D01*
X93226726Y-114440023D01*
X93130035Y-114519375D01*
X93121480Y-114529799D01*
X93121480Y-114070201D01*
X93130035Y-114080625D01*
X93226726Y-114159977D01*
X93337040Y-114218942D01*
X93456738Y-114255252D01*
X93581220Y-114267512D01*
X94378780Y-114267512D01*
X94503262Y-114255252D01*
X94622960Y-114218942D01*
X94733274Y-114159977D01*
X94829965Y-114080625D01*
X94869000Y-114033061D01*
X94869000Y-114566939D01*
X94829965Y-114519375D01*
X94733274Y-114440023D01*
X94622960Y-114381058D01*
X94503262Y-114344748D01*
X94378780Y-114332488D01*
X94265750Y-114335560D01*
X94107000Y-114494310D01*
X94107000Y-115443000D01*
X94127000Y-115443000D01*
X94127000Y-115697000D01*
X94107000Y-115697000D01*
X94107000Y-116645690D01*
X94265750Y-116804440D01*
X94378780Y-116807512D01*
X94503262Y-116795252D01*
X94622960Y-116758942D01*
X94733274Y-116699977D01*
X94829965Y-116620625D01*
X94869000Y-116573061D01*
X94869000Y-128609828D01*
X94015560Y-128609828D01*
X93891078Y-128622088D01*
X93771380Y-128658398D01*
X93661066Y-128717363D01*
X93564375Y-128796715D01*
X93485023Y-128893406D01*
X93426058Y-129003720D01*
X93389748Y-129123418D01*
X93377488Y-129247900D01*
X93377488Y-130045460D01*
X93389748Y-130169942D01*
X93426058Y-130289640D01*
X93485023Y-130399954D01*
X93564375Y-130496645D01*
X93624319Y-130545840D01*
X93564375Y-130595035D01*
X93485023Y-130691726D01*
X93426058Y-130802040D01*
X93389748Y-130921738D01*
X93377488Y-131046220D01*
X93380560Y-131159250D01*
X93539310Y-131318000D01*
X94488000Y-131318000D01*
X94488000Y-131298000D01*
X94742000Y-131298000D01*
X94742000Y-131318000D01*
X94762000Y-131318000D01*
X94762000Y-131572000D01*
X94742000Y-131572000D01*
X94742000Y-132320030D01*
X94869000Y-132447030D01*
X94869000Y-134340000D01*
X75470045Y-134340000D01*
X75700558Y-134185976D01*
X76185976Y-133700558D01*
X76561925Y-133137910D01*
X88632768Y-133137910D01*
X88645028Y-133262392D01*
X88681338Y-133382090D01*
X88740303Y-133492404D01*
X88819655Y-133589095D01*
X88916346Y-133668447D01*
X89026660Y-133727412D01*
X89146358Y-133763722D01*
X89270840Y-133775982D01*
X89884250Y-133772910D01*
X90043000Y-133614160D01*
X90043000Y-132466080D01*
X90297000Y-132466080D01*
X90297000Y-133614160D01*
X90455750Y-133772910D01*
X91069160Y-133775982D01*
X91193642Y-133763722D01*
X91313340Y-133727412D01*
X91423654Y-133668447D01*
X91520345Y-133589095D01*
X91599697Y-133492404D01*
X91658662Y-133382090D01*
X91694972Y-133262392D01*
X91707232Y-133137910D01*
X91704160Y-132624830D01*
X91545410Y-132466080D01*
X90297000Y-132466080D01*
X90043000Y-132466080D01*
X88794590Y-132466080D01*
X88635840Y-132624830D01*
X88632768Y-133137910D01*
X76561925Y-133137910D01*
X76567367Y-133129766D01*
X76830073Y-132495537D01*
X76964000Y-131822242D01*
X76964000Y-131135758D01*
X76943293Y-131031653D01*
X79967952Y-131031653D01*
X80123962Y-131347214D01*
X80498745Y-131538020D01*
X80903551Y-131652044D01*
X81322824Y-131684902D01*
X81740451Y-131635334D01*
X82140383Y-131505243D01*
X82436038Y-131347214D01*
X82592048Y-131031653D01*
X81280000Y-129719605D01*
X79967952Y-131031653D01*
X76943293Y-131031653D01*
X76830073Y-130462463D01*
X76567367Y-129828234D01*
X76403390Y-129582824D01*
X79135098Y-129582824D01*
X79184666Y-130000451D01*
X79314757Y-130400383D01*
X79472786Y-130696038D01*
X79788347Y-130852048D01*
X81100395Y-129540000D01*
X81459605Y-129540000D01*
X82771653Y-130852048D01*
X83087214Y-130696038D01*
X83278020Y-130321255D01*
X83392044Y-129916449D01*
X83424902Y-129497176D01*
X83375334Y-129079549D01*
X83245243Y-128679617D01*
X83087214Y-128383962D01*
X82771653Y-128227952D01*
X81459605Y-129540000D01*
X81100395Y-129540000D01*
X79788347Y-128227952D01*
X79472786Y-128383962D01*
X79281980Y-128758745D01*
X79167956Y-129163551D01*
X79135098Y-129582824D01*
X76403390Y-129582824D01*
X76185976Y-129257442D01*
X75700558Y-128772024D01*
X75129766Y-128390633D01*
X74495537Y-128127927D01*
X74095463Y-128048347D01*
X79967952Y-128048347D01*
X81280000Y-129360395D01*
X82592048Y-128048347D01*
X82436038Y-127732786D01*
X82061255Y-127541980D01*
X81656449Y-127427956D01*
X81237176Y-127395098D01*
X80819549Y-127444666D01*
X80419617Y-127574757D01*
X80123962Y-127732786D01*
X79967952Y-128048347D01*
X74095463Y-128048347D01*
X73822242Y-127994000D01*
X73135758Y-127994000D01*
X72462463Y-128127927D01*
X71828234Y-128390633D01*
X71257442Y-128772024D01*
X70772024Y-129257442D01*
X70660000Y-129425098D01*
X70660000Y-121054344D01*
X78525000Y-121054344D01*
X78525000Y-121425656D01*
X78597439Y-121789834D01*
X78739534Y-122132882D01*
X78945825Y-122441618D01*
X79208382Y-122704175D01*
X79517118Y-122910466D01*
X79860166Y-123052561D01*
X80224344Y-123125000D01*
X80595656Y-123125000D01*
X80959834Y-123052561D01*
X81302882Y-122910466D01*
X81611618Y-122704175D01*
X81874175Y-122441618D01*
X82080466Y-122132882D01*
X82222561Y-121789834D01*
X82295000Y-121425656D01*
X82295000Y-121054344D01*
X82222561Y-120690166D01*
X82080466Y-120347118D01*
X81874175Y-120038382D01*
X81611618Y-119775825D01*
X81451400Y-119668771D01*
X81451400Y-119648072D01*
X82530000Y-119648072D01*
X82654482Y-119635812D01*
X82774180Y-119599502D01*
X82884494Y-119540537D01*
X82981185Y-119461185D01*
X83060537Y-119364494D01*
X83119502Y-119254180D01*
X83155812Y-119134482D01*
X83168072Y-119010000D01*
X83168072Y-117210000D01*
X83155812Y-117085518D01*
X83119502Y-116965820D01*
X83060537Y-116855506D01*
X82981185Y-116758815D01*
X82884494Y-116679463D01*
X82774180Y-116620498D01*
X82654482Y-116584188D01*
X82530000Y-116571928D01*
X82321400Y-116571928D01*
X82321400Y-116131361D01*
X82759690Y-115693072D01*
X83175000Y-115693072D01*
X83348254Y-115676008D01*
X83514850Y-115625472D01*
X83668386Y-115543405D01*
X83802962Y-115432962D01*
X83913405Y-115298386D01*
X83995472Y-115144850D01*
X84046008Y-114978254D01*
X84063072Y-114805000D01*
X84063072Y-114055000D01*
X84046008Y-113881746D01*
X83995472Y-113715150D01*
X83913405Y-113561614D01*
X83802962Y-113427038D01*
X83668386Y-113316595D01*
X83514850Y-113234528D01*
X83348254Y-113183992D01*
X83175000Y-113166928D01*
X81925000Y-113166928D01*
X81751746Y-113183992D01*
X81585150Y-113234528D01*
X81431614Y-113316595D01*
X81297038Y-113427038D01*
X81186595Y-113561614D01*
X81104528Y-113715150D01*
X81053992Y-113881746D01*
X81036928Y-114055000D01*
X81036928Y-114470311D01*
X80579786Y-114927453D01*
X80540058Y-114960057D01*
X80507454Y-114999785D01*
X80507450Y-114999789D01*
X80409919Y-115118631D01*
X80313218Y-115299545D01*
X80253670Y-115495851D01*
X80233563Y-115700000D01*
X80238601Y-115751151D01*
X80238601Y-116571928D01*
X80030000Y-116571928D01*
X79905518Y-116584188D01*
X79785820Y-116620498D01*
X79675506Y-116679463D01*
X79578815Y-116758815D01*
X79499463Y-116855506D01*
X79440498Y-116965820D01*
X79404188Y-117085518D01*
X79391928Y-117210000D01*
X79391928Y-118748627D01*
X79383670Y-118775850D01*
X79371915Y-118895196D01*
X79363563Y-118980000D01*
X79368601Y-119031151D01*
X79368601Y-119668770D01*
X79208382Y-119775825D01*
X78945825Y-120038382D01*
X78739534Y-120347118D01*
X78597439Y-120690166D01*
X78525000Y-121054344D01*
X70660000Y-121054344D01*
X70660000Y-109032824D01*
X78215098Y-109032824D01*
X78264666Y-109450451D01*
X78394757Y-109850383D01*
X78552786Y-110146038D01*
X78868347Y-110302048D01*
X80180395Y-108990000D01*
X78868347Y-107677952D01*
X78552786Y-107833962D01*
X78361980Y-108208745D01*
X78247956Y-108613551D01*
X78215098Y-109032824D01*
X70660000Y-109032824D01*
X70660000Y-107498347D01*
X79047952Y-107498347D01*
X80360000Y-108810395D01*
X81672048Y-107498347D01*
X81516038Y-107182786D01*
X81141255Y-106991980D01*
X80736449Y-106877956D01*
X80317176Y-106845098D01*
X79899549Y-106894666D01*
X79499617Y-107024757D01*
X79203962Y-107182786D01*
X79047952Y-107498347D01*
X70660000Y-107498347D01*
X70660000Y-101830000D01*
X79141928Y-101830000D01*
X79154188Y-101954482D01*
X79190498Y-102074180D01*
X79249463Y-102184494D01*
X79328815Y-102281185D01*
X79425506Y-102360537D01*
X79535820Y-102419502D01*
X79655518Y-102455812D01*
X79780000Y-102468072D01*
X80994250Y-102465000D01*
X81153000Y-102306250D01*
X81153000Y-100457000D01*
X79303750Y-100457000D01*
X79145000Y-100615750D01*
X79141928Y-101830000D01*
X70660000Y-101830000D01*
X70660000Y-98830000D01*
X79141928Y-98830000D01*
X79145000Y-100044250D01*
X79303750Y-100203000D01*
X81153000Y-100203000D01*
X81153000Y-98353750D01*
X80994250Y-98195000D01*
X79780000Y-98191928D01*
X79655518Y-98204188D01*
X79535820Y-98240498D01*
X79425506Y-98299463D01*
X79328815Y-98378815D01*
X79249463Y-98475506D01*
X79190498Y-98585820D01*
X79154188Y-98705518D01*
X79141928Y-98830000D01*
X70660000Y-98830000D01*
X70660000Y-92300000D01*
X77426928Y-92300000D01*
X77439188Y-92424482D01*
X77475498Y-92544180D01*
X77534463Y-92654494D01*
X77613815Y-92751185D01*
X77710506Y-92830537D01*
X77820820Y-92889502D01*
X77940518Y-92925812D01*
X78065000Y-92938072D01*
X78454250Y-92935000D01*
X78613000Y-92776250D01*
X78613000Y-91727000D01*
X78867000Y-91727000D01*
X78867000Y-92776250D01*
X79025750Y-92935000D01*
X79415000Y-92938072D01*
X79539482Y-92925812D01*
X79659180Y-92889502D01*
X79769494Y-92830537D01*
X79866185Y-92751185D01*
X79945537Y-92654494D01*
X80004502Y-92544180D01*
X80040812Y-92424482D01*
X80053072Y-92300000D01*
X80050000Y-91885750D01*
X79891250Y-91727000D01*
X78867000Y-91727000D01*
X78613000Y-91727000D01*
X77588750Y-91727000D01*
X77430000Y-91885750D01*
X77426928Y-92300000D01*
X70660000Y-92300000D01*
X70660000Y-90900000D01*
X77426928Y-90900000D01*
X77430000Y-91314250D01*
X77588750Y-91473000D01*
X78613000Y-91473000D01*
X78613000Y-90423750D01*
X78867000Y-90423750D01*
X78867000Y-91473000D01*
X79891250Y-91473000D01*
X80050000Y-91314250D01*
X80053072Y-90900000D01*
X80040812Y-90775518D01*
X80004502Y-90655820D01*
X79945537Y-90545506D01*
X79866185Y-90448815D01*
X79769494Y-90369463D01*
X79659180Y-90310498D01*
X79539482Y-90274188D01*
X79415000Y-90261928D01*
X79025750Y-90265000D01*
X78867000Y-90423750D01*
X78613000Y-90423750D01*
X78454250Y-90265000D01*
X78065000Y-90261928D01*
X77940518Y-90274188D01*
X77820820Y-90310498D01*
X77710506Y-90369463D01*
X77613815Y-90448815D01*
X77534463Y-90545506D01*
X77475498Y-90655820D01*
X77439188Y-90775518D01*
X77426928Y-90900000D01*
X70660000Y-90900000D01*
X70660000Y-82179160D01*
X75398098Y-82179160D01*
X75410358Y-82303642D01*
X75446668Y-82423340D01*
X75505633Y-82533654D01*
X75584985Y-82630345D01*
X75681676Y-82709697D01*
X75791990Y-82768662D01*
X75911688Y-82804972D01*
X76036170Y-82817232D01*
X76549250Y-82814160D01*
X76708000Y-82655410D01*
X76708000Y-81407000D01*
X75559920Y-81407000D01*
X75401170Y-81565750D01*
X75398098Y-82179160D01*
X70660000Y-82179160D01*
X70660000Y-80380840D01*
X75398098Y-80380840D01*
X75401170Y-80994250D01*
X75559920Y-81153000D01*
X76708000Y-81153000D01*
X76708000Y-79904590D01*
X76701330Y-79897920D01*
X76708000Y-79891250D01*
X76708000Y-78867000D01*
X75658750Y-78867000D01*
X75500000Y-79025750D01*
X75496928Y-79415000D01*
X75509188Y-79539482D01*
X75545498Y-79659180D01*
X75604463Y-79769494D01*
X75675166Y-79855646D01*
X75584985Y-79929655D01*
X75505633Y-80026346D01*
X75446668Y-80136660D01*
X75410358Y-80256358D01*
X75398098Y-80380840D01*
X70660000Y-80380840D01*
X70660000Y-78065000D01*
X75496928Y-78065000D01*
X75500000Y-78454250D01*
X75658750Y-78613000D01*
X76708000Y-78613000D01*
X76708000Y-77588750D01*
X76962000Y-77588750D01*
X76962000Y-78613000D01*
X78011250Y-78613000D01*
X78170000Y-78454250D01*
X78173072Y-78065000D01*
X78160812Y-77940518D01*
X78124502Y-77820820D01*
X78065537Y-77710506D01*
X77986185Y-77613815D01*
X77889494Y-77534463D01*
X77779180Y-77475498D01*
X77659482Y-77439188D01*
X77535000Y-77426928D01*
X77120750Y-77430000D01*
X76962000Y-77588750D01*
X76708000Y-77588750D01*
X76549250Y-77430000D01*
X76135000Y-77426928D01*
X76010518Y-77439188D01*
X75890820Y-77475498D01*
X75780506Y-77534463D01*
X75683815Y-77613815D01*
X75604463Y-77710506D01*
X75545498Y-77820820D01*
X75509188Y-77940518D01*
X75496928Y-78065000D01*
X70660000Y-78065000D01*
X70660000Y-75532902D01*
X70772024Y-75700558D01*
X71257442Y-76185976D01*
X71828234Y-76567367D01*
X72462463Y-76830073D01*
X73135758Y-76964000D01*
X73822242Y-76964000D01*
X74495537Y-76830073D01*
X75129766Y-76567367D01*
X75700558Y-76185976D01*
X76185976Y-75700558D01*
X76567367Y-75129766D01*
X76830073Y-74495537D01*
X76964000Y-73822242D01*
X76964000Y-73135758D01*
X76830073Y-72462463D01*
X76567367Y-71828234D01*
X76185976Y-71257442D01*
X75700558Y-70772024D01*
X75532902Y-70660000D01*
X94869000Y-70660000D01*
X94869000Y-76047600D01*
%TA.AperFunction,Conductor*%
D37*
G36*
X94869000Y-76047600D02*
G01*
X86686151Y-76047600D01*
X86512400Y-75873849D01*
X86512400Y-75662873D01*
X86728877Y-75518227D01*
X86859628Y-75387476D01*
X87352129Y-75387476D01*
X87440623Y-75645723D01*
X87719976Y-75780597D01*
X88020275Y-75858381D01*
X88329977Y-75876084D01*
X88637184Y-75833027D01*
X88930086Y-75730865D01*
X89089377Y-75645723D01*
X89177871Y-75387476D01*
X88265000Y-74474605D01*
X87352129Y-75387476D01*
X86859628Y-75387476D01*
X86948227Y-75298877D01*
X87039495Y-75162286D01*
X87172524Y-75207871D01*
X88085395Y-74295000D01*
X88444605Y-74295000D01*
X89357476Y-75207871D01*
X89615723Y-75119377D01*
X89750597Y-74840024D01*
X89828381Y-74539725D01*
X89846084Y-74230023D01*
X89803027Y-73922816D01*
X89700865Y-73629914D01*
X89615723Y-73470623D01*
X89357476Y-73382129D01*
X88444605Y-74295000D01*
X88085395Y-74295000D01*
X87172524Y-73382129D01*
X87039495Y-73427714D01*
X86948227Y-73291123D01*
X86859628Y-73202524D01*
X87352129Y-73202524D01*
X88265000Y-74115395D01*
X89177871Y-73202524D01*
X89089377Y-72944277D01*
X88810024Y-72809403D01*
X88509725Y-72731619D01*
X88200023Y-72713916D01*
X87892816Y-72756973D01*
X87599914Y-72859135D01*
X87440623Y-72944277D01*
X87352129Y-73202524D01*
X86859628Y-73202524D01*
X86728877Y-73071773D01*
X86470948Y-72899430D01*
X86184352Y-72780718D01*
X85880104Y-72720200D01*
X85569896Y-72720200D01*
X85265648Y-72780718D01*
X84979052Y-72899430D01*
X84721123Y-73071773D01*
X84501773Y-73291123D01*
X84455000Y-73361124D01*
X84408227Y-73291123D01*
X84188877Y-73071773D01*
X83930948Y-72899430D01*
X83644352Y-72780718D01*
X83340104Y-72720200D01*
X83029896Y-72720200D01*
X82725648Y-72780718D01*
X82439052Y-72899430D01*
X82181123Y-73071773D01*
X81961773Y-73291123D01*
X81915000Y-73361124D01*
X81868227Y-73291123D01*
X81648877Y-73071773D01*
X81390948Y-72899430D01*
X81104352Y-72780718D01*
X80800104Y-72720200D01*
X80489896Y-72720200D01*
X80185648Y-72780718D01*
X79899052Y-72899430D01*
X79641123Y-73071773D01*
X79421773Y-73291123D01*
X79249430Y-73549052D01*
X79130718Y-73835648D01*
X79070200Y-74139896D01*
X79070200Y-74450104D01*
X79130718Y-74754352D01*
X79194325Y-74907913D01*
X78834786Y-75267453D01*
X78795058Y-75300057D01*
X78762454Y-75339785D01*
X78762450Y-75339789D01*
X78664919Y-75458631D01*
X78568218Y-75639545D01*
X78552740Y-75690570D01*
X78509527Y-75833027D01*
X78508670Y-75835851D01*
X78488563Y-76040000D01*
X78493601Y-76091151D01*
X78493600Y-77657032D01*
X78457038Y-77687038D01*
X78346595Y-77821613D01*
X78264528Y-77975149D01*
X78213992Y-78141745D01*
X78196928Y-78314999D01*
X78196928Y-79165001D01*
X78213992Y-79338255D01*
X78264528Y-79504851D01*
X78346595Y-79658387D01*
X78457038Y-79792962D01*
X78508705Y-79835364D01*
X78480756Y-79850303D01*
X78384065Y-79929655D01*
X78304713Y-80026346D01*
X78245748Y-80136660D01*
X78234540Y-80173608D01*
X78223332Y-80136660D01*
X78164367Y-80026346D01*
X78085015Y-79929655D01*
X77994834Y-79855646D01*
X78065537Y-79769494D01*
X78124502Y-79659180D01*
X78160812Y-79539482D01*
X78173072Y-79415000D01*
X78170000Y-79025750D01*
X78011250Y-78867000D01*
X76962000Y-78867000D01*
X76962000Y-79891250D01*
X76968670Y-79897920D01*
X76962000Y-79904590D01*
X76962000Y-81153000D01*
X76982000Y-81153000D01*
X76982000Y-81407000D01*
X76962000Y-81407000D01*
X76962000Y-82655410D01*
X77120750Y-82814160D01*
X77633830Y-82817232D01*
X77758312Y-82804972D01*
X77878010Y-82768662D01*
X77988324Y-82709697D01*
X78085015Y-82630345D01*
X78164367Y-82533654D01*
X78223332Y-82423340D01*
X78234540Y-82386392D01*
X78245748Y-82423340D01*
X78304713Y-82533654D01*
X78384065Y-82630345D01*
X78480756Y-82709697D01*
X78591070Y-82768662D01*
X78710768Y-82804972D01*
X78812896Y-82815030D01*
X78861530Y-82874291D01*
X78861534Y-82874295D01*
X78894138Y-82914023D01*
X78933866Y-82946627D01*
X81508600Y-85521362D01*
X81508601Y-86366928D01*
X81475000Y-86366928D01*
X81301746Y-86383992D01*
X81135150Y-86434528D01*
X80981614Y-86516595D01*
X80847038Y-86627038D01*
X80736595Y-86761614D01*
X80654528Y-86915150D01*
X80603992Y-87081746D01*
X80586928Y-87255000D01*
X80586928Y-88005000D01*
X80589272Y-88028798D01*
X80410454Y-87933217D01*
X80214150Y-87873669D01*
X80061152Y-87858600D01*
X80061141Y-87858600D01*
X80010000Y-87853563D01*
X79958859Y-87858600D01*
X79822968Y-87858600D01*
X79792962Y-87822038D01*
X79658387Y-87711595D01*
X79504851Y-87629528D01*
X79338255Y-87578992D01*
X79165001Y-87561928D01*
X78314999Y-87561928D01*
X78141745Y-87578992D01*
X77975149Y-87629528D01*
X77821613Y-87711595D01*
X77687038Y-87822038D01*
X77576595Y-87956613D01*
X77494528Y-88110149D01*
X77443992Y-88276745D01*
X77426928Y-88449999D01*
X77426928Y-89350001D01*
X77443992Y-89523255D01*
X77494528Y-89689851D01*
X77576595Y-89843387D01*
X77687038Y-89977962D01*
X77821613Y-90088405D01*
X77975149Y-90170472D01*
X78141745Y-90221008D01*
X78314999Y-90238072D01*
X79165001Y-90238072D01*
X79338255Y-90221008D01*
X79504851Y-90170472D01*
X79658387Y-90088405D01*
X79695327Y-90058089D01*
X80602736Y-90965497D01*
X80603992Y-90978254D01*
X80654528Y-91144850D01*
X80736595Y-91298386D01*
X80847038Y-91432962D01*
X80981614Y-91543405D01*
X81135150Y-91625472D01*
X81301746Y-91676008D01*
X81475000Y-91693072D01*
X81508600Y-91693072D01*
X81508601Y-93091000D01*
X81173939Y-93091000D01*
X80856762Y-93122239D01*
X80449789Y-93245693D01*
X80074720Y-93446172D01*
X79745970Y-93715970D01*
X79476172Y-94044720D01*
X79275693Y-94419789D01*
X79152239Y-94826762D01*
X79110554Y-95250000D01*
X79152239Y-95673238D01*
X79275693Y-96080211D01*
X79476172Y-96455280D01*
X79745970Y-96784030D01*
X80074720Y-97053828D01*
X80449789Y-97254307D01*
X80856762Y-97377761D01*
X81173939Y-97409000D01*
X82507034Y-97409000D01*
X82931001Y-97832968D01*
X82931001Y-98212232D01*
X82904482Y-98204188D01*
X82780000Y-98191928D01*
X81565750Y-98195000D01*
X81407000Y-98353750D01*
X81407000Y-100203000D01*
X81427000Y-100203000D01*
X81427000Y-100457000D01*
X81407000Y-100457000D01*
X81407000Y-102306250D01*
X81565750Y-102465000D01*
X82780000Y-102468072D01*
X82904482Y-102455812D01*
X82931000Y-102447768D01*
X82931000Y-105303942D01*
X82920554Y-105410000D01*
X82931000Y-105516058D01*
X82931000Y-105516060D01*
X82962239Y-105833237D01*
X83085693Y-106240210D01*
X83286172Y-106615280D01*
X83555970Y-106944030D01*
X83638358Y-107011644D01*
X84096976Y-107470262D01*
X82495110Y-109072129D01*
X82504902Y-108947176D01*
X82455334Y-108529549D01*
X82325243Y-108129617D01*
X82167214Y-107833962D01*
X81851653Y-107677952D01*
X80539605Y-108990000D01*
X80553748Y-109004143D01*
X80374143Y-109183748D01*
X80360000Y-109169605D01*
X79047952Y-110481653D01*
X79203962Y-110797214D01*
X79578745Y-110988020D01*
X79983551Y-111102044D01*
X80402824Y-111134902D01*
X80820451Y-111085334D01*
X81078351Y-111001443D01*
X81053992Y-111081746D01*
X81036928Y-111255000D01*
X81036928Y-112005000D01*
X81053992Y-112178254D01*
X81104528Y-112344850D01*
X81186595Y-112498386D01*
X81297038Y-112632962D01*
X81431614Y-112743405D01*
X81585150Y-112825472D01*
X81751746Y-112876008D01*
X81925000Y-112893072D01*
X83175000Y-112893072D01*
X83348254Y-112876008D01*
X83514850Y-112825472D01*
X83668386Y-112743405D01*
X83802962Y-112632962D01*
X83913405Y-112498386D01*
X83995472Y-112344850D01*
X84046008Y-112178254D01*
X84063072Y-112005000D01*
X84063072Y-111255000D01*
X84046008Y-111081746D01*
X83995472Y-110915150D01*
X83913405Y-110761614D01*
X83840267Y-110672494D01*
X85569738Y-108943024D01*
X87118360Y-110491647D01*
X87185970Y-110574030D01*
X87514720Y-110843828D01*
X87889789Y-111044307D01*
X88296762Y-111167761D01*
X88613939Y-111199000D01*
X88613941Y-111199000D01*
X88719999Y-111209446D01*
X88826057Y-111199000D01*
X92516061Y-111199000D01*
X92833238Y-111167761D01*
X93240211Y-111044307D01*
X93615280Y-110843828D01*
X93944030Y-110574030D01*
X94213828Y-110245280D01*
X94414307Y-109870211D01*
X94537761Y-109463238D01*
X94579446Y-109040000D01*
X94537761Y-108616762D01*
X94414307Y-108209789D01*
X94213828Y-107834720D01*
X93944030Y-107505970D01*
X93615280Y-107236172D01*
X93240211Y-107035693D01*
X92833238Y-106912239D01*
X92516061Y-106881000D01*
X89614287Y-106881000D01*
X87811647Y-105078361D01*
X87249000Y-104515714D01*
X87249000Y-97044730D01*
X87259445Y-96938679D01*
X87249000Y-96832629D01*
X87249000Y-96832619D01*
X87217761Y-96515442D01*
X87163820Y-96337622D01*
X87300214Y-96201228D01*
X87339943Y-96168623D01*
X87379781Y-96120081D01*
X87470081Y-96010051D01*
X87566782Y-95829136D01*
X87566783Y-95829134D01*
X87626331Y-95632830D01*
X87637301Y-95521453D01*
X87704494Y-95485537D01*
X87750000Y-95448191D01*
X87795506Y-95485537D01*
X87905820Y-95544502D01*
X88025518Y-95580812D01*
X88150000Y-95593072D01*
X89650000Y-95593072D01*
X89774482Y-95580812D01*
X89894180Y-95544502D01*
X90004494Y-95485537D01*
X90050000Y-95448191D01*
X90095506Y-95485537D01*
X90205820Y-95544502D01*
X90325518Y-95580812D01*
X90450000Y-95593072D01*
X91950000Y-95593072D01*
X92074482Y-95580812D01*
X92194180Y-95544502D01*
X92304494Y-95485537D01*
X92401185Y-95406185D01*
X92480537Y-95309494D01*
X92539502Y-95199180D01*
X92575812Y-95079482D01*
X92588072Y-94955000D01*
X92588072Y-94793200D01*
X92693837Y-94793200D01*
X92735000Y-94797254D01*
X92776163Y-94793200D01*
X92776170Y-94793200D01*
X92899316Y-94781071D01*
X93057317Y-94733142D01*
X93202932Y-94655309D01*
X93330564Y-94550564D01*
X93356811Y-94518582D01*
X94543587Y-93331807D01*
X94575564Y-93305564D01*
X94617315Y-93254691D01*
X94680309Y-93177932D01*
X94758142Y-93032317D01*
X94806071Y-92874316D01*
X94810385Y-92830518D01*
X94818200Y-92751170D01*
X94818200Y-92751163D01*
X94822254Y-92710000D01*
X94818200Y-92668837D01*
X94818200Y-90766266D01*
X94869000Y-90739113D01*
X94869000Y-112026939D01*
X94829965Y-111979375D01*
X94733274Y-111900023D01*
X94622960Y-111841058D01*
X94503262Y-111804748D01*
X94378780Y-111792488D01*
X93581220Y-111792488D01*
X93456738Y-111804748D01*
X93337040Y-111841058D01*
X93226726Y-111900023D01*
X93130035Y-111979375D01*
X93080840Y-112039319D01*
X93031645Y-111979375D01*
X92934954Y-111900023D01*
X92824640Y-111841058D01*
X92704942Y-111804748D01*
X92580460Y-111792488D01*
X91782900Y-111792488D01*
X91658418Y-111804748D01*
X91538720Y-111841058D01*
X91428406Y-111900023D01*
X91331715Y-111979375D01*
X91252363Y-112076066D01*
X91193398Y-112186380D01*
X91157088Y-112306078D01*
X91144828Y-112430560D01*
X91144828Y-113629440D01*
X91157088Y-113753922D01*
X91193398Y-113873620D01*
X91241880Y-113964323D01*
X91241881Y-114630200D01*
X89996156Y-114630200D01*
X89949999Y-114625654D01*
X89903842Y-114630200D01*
X89903833Y-114630200D01*
X89765767Y-114643798D01*
X89588614Y-114697537D01*
X89425349Y-114784804D01*
X89343558Y-114851928D01*
X89180000Y-114851928D01*
X89055518Y-114864188D01*
X88935820Y-114900498D01*
X88825506Y-114959463D01*
X88728815Y-115038815D01*
X88649463Y-115135506D01*
X88590498Y-115245820D01*
X88554188Y-115365518D01*
X88541928Y-115490000D01*
X88541928Y-116001905D01*
X88531185Y-115988815D01*
X88434494Y-115909463D01*
X88324180Y-115850498D01*
X88204482Y-115814188D01*
X88080000Y-115801928D01*
X87180000Y-115801928D01*
X87055518Y-115814188D01*
X86935820Y-115850498D01*
X86842836Y-115900200D01*
X86596156Y-115900200D01*
X86549999Y-115895654D01*
X86503842Y-115900200D01*
X86503833Y-115900200D01*
X86365767Y-115913798D01*
X86188614Y-115967537D01*
X86025349Y-116054804D01*
X85882246Y-116172246D01*
X85852818Y-116208105D01*
X85488995Y-116571928D01*
X84030000Y-116571928D01*
X83905518Y-116584188D01*
X83785820Y-116620498D01*
X83675506Y-116679463D01*
X83578815Y-116758815D01*
X83499463Y-116855506D01*
X83440498Y-116965820D01*
X83404188Y-117085518D01*
X83391928Y-117210000D01*
X83391928Y-119010000D01*
X83404188Y-119134482D01*
X83440498Y-119254180D01*
X83499463Y-119364494D01*
X83578815Y-119461185D01*
X83675506Y-119540537D01*
X83785820Y-119599502D01*
X83905518Y-119635812D01*
X84030000Y-119648072D01*
X85345311Y-119648072D01*
X86756881Y-121059643D01*
X86360000Y-121020554D01*
X85936763Y-121062239D01*
X85529790Y-121185693D01*
X85154721Y-121386172D01*
X84825971Y-121655970D01*
X84556173Y-121984720D01*
X84355694Y-122359789D01*
X84232240Y-122766762D01*
X84201001Y-123083939D01*
X84201000Y-129646060D01*
X84221928Y-129858547D01*
X84221928Y-131040000D01*
X84234188Y-131164482D01*
X84270498Y-131284180D01*
X84329463Y-131394494D01*
X84408815Y-131491185D01*
X84505506Y-131570537D01*
X84615820Y-131629502D01*
X84735518Y-131665812D01*
X84860000Y-131678072D01*
X86041452Y-131678072D01*
X86360000Y-131709446D01*
X86678547Y-131678072D01*
X87860000Y-131678072D01*
X87984482Y-131665812D01*
X88104180Y-131629502D01*
X88214494Y-131570537D01*
X88311185Y-131491185D01*
X88390537Y-131394494D01*
X88449502Y-131284180D01*
X88485812Y-131164482D01*
X88498072Y-131040000D01*
X88498072Y-129858548D01*
X88519000Y-129646061D01*
X88519000Y-125551762D01*
X88932488Y-125965250D01*
X88932488Y-126499620D01*
X88944748Y-126624102D01*
X88981058Y-126743800D01*
X89040023Y-126854114D01*
X89119375Y-126950805D01*
X89179319Y-127000000D01*
X89119375Y-127049195D01*
X89040023Y-127145886D01*
X88981058Y-127256200D01*
X88944748Y-127375898D01*
X88932488Y-127500380D01*
X88932488Y-128202005D01*
X88916346Y-128210633D01*
X88819655Y-128289985D01*
X88740303Y-128386676D01*
X88681338Y-128496990D01*
X88645028Y-128616688D01*
X88632768Y-128741170D01*
X88632768Y-130338830D01*
X88645028Y-130463312D01*
X88681338Y-130583010D01*
X88740303Y-130693324D01*
X88819655Y-130790015D01*
X88916346Y-130869367D01*
X89026660Y-130928332D01*
X89063608Y-130939540D01*
X89026660Y-130950748D01*
X88916346Y-131009713D01*
X88819655Y-131089065D01*
X88740303Y-131185756D01*
X88681338Y-131296070D01*
X88645028Y-131415768D01*
X88632768Y-131540250D01*
X88635840Y-132053330D01*
X88794590Y-132212080D01*
X90043000Y-132212080D01*
X90043000Y-132192080D01*
X90297000Y-132192080D01*
X90297000Y-132212080D01*
X91545410Y-132212080D01*
X91704160Y-132053330D01*
X91705414Y-131843780D01*
X93377488Y-131843780D01*
X93389748Y-131968262D01*
X93426058Y-132087960D01*
X93485023Y-132198274D01*
X93564375Y-132294965D01*
X93661066Y-132374317D01*
X93771380Y-132433282D01*
X93891078Y-132469592D01*
X94015560Y-132481852D01*
X94329250Y-132478780D01*
X94488000Y-132320030D01*
X94488000Y-131572000D01*
X93539310Y-131572000D01*
X93380560Y-131730750D01*
X93377488Y-131843780D01*
X91705414Y-131843780D01*
X91707232Y-131540250D01*
X91694972Y-131415768D01*
X91658662Y-131296070D01*
X91599697Y-131185756D01*
X91520345Y-131089065D01*
X91423654Y-131009713D01*
X91313340Y-130950748D01*
X91276392Y-130939540D01*
X91313340Y-130928332D01*
X91423654Y-130869367D01*
X91520345Y-130790015D01*
X91599697Y-130693324D01*
X91658662Y-130583010D01*
X91694972Y-130463312D01*
X91707232Y-130338830D01*
X91707232Y-128741170D01*
X91694972Y-128616688D01*
X91658662Y-128496990D01*
X91599697Y-128386676D01*
X91520345Y-128289985D01*
X91423654Y-128210633D01*
X91407512Y-128202005D01*
X91407512Y-127500380D01*
X91395252Y-127375898D01*
X91358942Y-127256200D01*
X91299977Y-127145886D01*
X91220625Y-127049195D01*
X91160681Y-127000000D01*
X91220625Y-126950805D01*
X91299977Y-126854114D01*
X91358942Y-126743800D01*
X91395252Y-126624102D01*
X91407512Y-126499620D01*
X91407512Y-125702060D01*
X91395252Y-125577578D01*
X91358942Y-125457880D01*
X91299977Y-125347566D01*
X91220625Y-125250875D01*
X91123934Y-125171523D01*
X91013620Y-125112558D01*
X91009437Y-125111289D01*
X90942550Y-125029788D01*
X90942547Y-125029785D01*
X90909943Y-124990057D01*
X90870215Y-124957453D01*
X88404261Y-122491500D01*
X88364307Y-122359789D01*
X88320382Y-122277611D01*
X88358848Y-122281400D01*
X88358858Y-122281400D01*
X88409999Y-122286437D01*
X88461141Y-122281400D01*
X90838771Y-122281400D01*
X90945825Y-122441618D01*
X91208382Y-122704175D01*
X91517118Y-122910466D01*
X91860166Y-123052561D01*
X92224344Y-123125000D01*
X92595656Y-123125000D01*
X92959834Y-123052561D01*
X93302882Y-122910466D01*
X93611618Y-122704175D01*
X93874175Y-122441618D01*
X94080466Y-122132882D01*
X94222561Y-121789834D01*
X94295000Y-121425656D01*
X94295000Y-121054344D01*
X94222561Y-120690166D01*
X94080466Y-120347118D01*
X93874175Y-120038382D01*
X93611618Y-119775825D01*
X93302882Y-119569534D01*
X92959834Y-119427439D01*
X92595656Y-119355000D01*
X92224344Y-119355000D01*
X91860166Y-119427439D01*
X91517118Y-119569534D01*
X91208382Y-119775825D01*
X90945825Y-120038382D01*
X90838771Y-120198600D01*
X88841362Y-120198600D01*
X87168072Y-118525311D01*
X87168072Y-118190000D01*
X88541928Y-118190000D01*
X88554188Y-118314482D01*
X88590498Y-118434180D01*
X88649463Y-118544494D01*
X88728815Y-118641185D01*
X88825506Y-118720537D01*
X88935820Y-118779502D01*
X89055518Y-118815812D01*
X89180000Y-118828072D01*
X89344250Y-118825000D01*
X89503000Y-118666250D01*
X89503000Y-117917000D01*
X89757000Y-117917000D01*
X89757000Y-118666250D01*
X89915750Y-118825000D01*
X90080000Y-118828072D01*
X90204482Y-118815812D01*
X90324180Y-118779502D01*
X90434494Y-118720537D01*
X90531185Y-118641185D01*
X90610537Y-118544494D01*
X90669502Y-118434180D01*
X90705812Y-118314482D01*
X90718072Y-118190000D01*
X90715000Y-118075750D01*
X90556250Y-117917000D01*
X89757000Y-117917000D01*
X89503000Y-117917000D01*
X88703750Y-117917000D01*
X88545000Y-118075750D01*
X88541928Y-118190000D01*
X87168072Y-118190000D01*
X87168072Y-117876897D01*
X87180000Y-117878072D01*
X88080000Y-117878072D01*
X88204482Y-117865812D01*
X88324180Y-117829502D01*
X88434494Y-117770537D01*
X88531185Y-117691185D01*
X88610537Y-117594494D01*
X88619143Y-117578393D01*
X88703750Y-117663000D01*
X89503000Y-117663000D01*
X89503000Y-117643000D01*
X89757000Y-117643000D01*
X89757000Y-117663000D01*
X90556250Y-117663000D01*
X90715000Y-117504250D01*
X90718072Y-117390000D01*
X90705812Y-117265518D01*
X90669502Y-117145820D01*
X90610537Y-117035506D01*
X90531185Y-116938815D01*
X90434494Y-116859463D01*
X90398082Y-116840000D01*
X90434494Y-116820537D01*
X90531185Y-116741185D01*
X90610537Y-116644494D01*
X90669502Y-116534180D01*
X90676898Y-116509800D01*
X91244808Y-116509800D01*
X91252363Y-116523934D01*
X91331715Y-116620625D01*
X91428406Y-116699977D01*
X91538720Y-116758942D01*
X91658418Y-116795252D01*
X91782900Y-116807512D01*
X92580460Y-116807512D01*
X92704942Y-116795252D01*
X92824640Y-116758942D01*
X92934954Y-116699977D01*
X93031645Y-116620625D01*
X93080840Y-116560681D01*
X93130035Y-116620625D01*
X93226726Y-116699977D01*
X93337040Y-116758942D01*
X93456738Y-116795252D01*
X93581220Y-116807512D01*
X93694250Y-116804440D01*
X93853000Y-116645690D01*
X93853000Y-115697000D01*
X93833000Y-115697000D01*
X93833000Y-115443000D01*
X93853000Y-115443000D01*
X93853000Y-114494310D01*
X93694250Y-114335560D01*
X93581220Y-114332488D01*
X93456738Y-114344748D01*
X93337040Y-114381058D01*
X93226726Y-114440023D01*
X93130035Y-114519375D01*
X93121480Y-114529799D01*
X93121480Y-114070201D01*
X93130035Y-114080625D01*
X93226726Y-114159977D01*
X93337040Y-114218942D01*
X93456738Y-114255252D01*
X93581220Y-114267512D01*
X94378780Y-114267512D01*
X94503262Y-114255252D01*
X94622960Y-114218942D01*
X94733274Y-114159977D01*
X94829965Y-114080625D01*
X94869000Y-114033061D01*
X94869000Y-114566939D01*
X94829965Y-114519375D01*
X94733274Y-114440023D01*
X94622960Y-114381058D01*
X94503262Y-114344748D01*
X94378780Y-114332488D01*
X94265750Y-114335560D01*
X94107000Y-114494310D01*
X94107000Y-115443000D01*
X94127000Y-115443000D01*
X94127000Y-115697000D01*
X94107000Y-115697000D01*
X94107000Y-116645690D01*
X94265750Y-116804440D01*
X94378780Y-116807512D01*
X94503262Y-116795252D01*
X94622960Y-116758942D01*
X94733274Y-116699977D01*
X94829965Y-116620625D01*
X94869000Y-116573061D01*
X94869000Y-128609828D01*
X94015560Y-128609828D01*
X93891078Y-128622088D01*
X93771380Y-128658398D01*
X93661066Y-128717363D01*
X93564375Y-128796715D01*
X93485023Y-128893406D01*
X93426058Y-129003720D01*
X93389748Y-129123418D01*
X93377488Y-129247900D01*
X93377488Y-130045460D01*
X93389748Y-130169942D01*
X93426058Y-130289640D01*
X93485023Y-130399954D01*
X93564375Y-130496645D01*
X93624319Y-130545840D01*
X93564375Y-130595035D01*
X93485023Y-130691726D01*
X93426058Y-130802040D01*
X93389748Y-130921738D01*
X93377488Y-131046220D01*
X93380560Y-131159250D01*
X93539310Y-131318000D01*
X94488000Y-131318000D01*
X94488000Y-131298000D01*
X94742000Y-131298000D01*
X94742000Y-131318000D01*
X94762000Y-131318000D01*
X94762000Y-131572000D01*
X94742000Y-131572000D01*
X94742000Y-132320030D01*
X94869000Y-132447030D01*
X94869000Y-134340000D01*
X75470045Y-134340000D01*
X75700558Y-134185976D01*
X76185976Y-133700558D01*
X76561925Y-133137910D01*
X88632768Y-133137910D01*
X88645028Y-133262392D01*
X88681338Y-133382090D01*
X88740303Y-133492404D01*
X88819655Y-133589095D01*
X88916346Y-133668447D01*
X89026660Y-133727412D01*
X89146358Y-133763722D01*
X89270840Y-133775982D01*
X89884250Y-133772910D01*
X90043000Y-133614160D01*
X90043000Y-132466080D01*
X90297000Y-132466080D01*
X90297000Y-133614160D01*
X90455750Y-133772910D01*
X91069160Y-133775982D01*
X91193642Y-133763722D01*
X91313340Y-133727412D01*
X91423654Y-133668447D01*
X91520345Y-133589095D01*
X91599697Y-133492404D01*
X91658662Y-133382090D01*
X91694972Y-133262392D01*
X91707232Y-133137910D01*
X91704160Y-132624830D01*
X91545410Y-132466080D01*
X90297000Y-132466080D01*
X90043000Y-132466080D01*
X88794590Y-132466080D01*
X88635840Y-132624830D01*
X88632768Y-133137910D01*
X76561925Y-133137910D01*
X76567367Y-133129766D01*
X76830073Y-132495537D01*
X76964000Y-131822242D01*
X76964000Y-131135758D01*
X76943293Y-131031653D01*
X79967952Y-131031653D01*
X80123962Y-131347214D01*
X80498745Y-131538020D01*
X80903551Y-131652044D01*
X81322824Y-131684902D01*
X81740451Y-131635334D01*
X82140383Y-131505243D01*
X82436038Y-131347214D01*
X82592048Y-131031653D01*
X81280000Y-129719605D01*
X79967952Y-131031653D01*
X76943293Y-131031653D01*
X76830073Y-130462463D01*
X76567367Y-129828234D01*
X76403390Y-129582824D01*
X79135098Y-129582824D01*
X79184666Y-130000451D01*
X79314757Y-130400383D01*
X79472786Y-130696038D01*
X79788347Y-130852048D01*
X81100395Y-129540000D01*
X81459605Y-129540000D01*
X82771653Y-130852048D01*
X83087214Y-130696038D01*
X83278020Y-130321255D01*
X83392044Y-129916449D01*
X83424902Y-129497176D01*
X83375334Y-129079549D01*
X83245243Y-128679617D01*
X83087214Y-128383962D01*
X82771653Y-128227952D01*
X81459605Y-129540000D01*
X81100395Y-129540000D01*
X79788347Y-128227952D01*
X79472786Y-128383962D01*
X79281980Y-128758745D01*
X79167956Y-129163551D01*
X79135098Y-129582824D01*
X76403390Y-129582824D01*
X76185976Y-129257442D01*
X75700558Y-128772024D01*
X75129766Y-128390633D01*
X74495537Y-128127927D01*
X74095463Y-128048347D01*
X79967952Y-128048347D01*
X81280000Y-129360395D01*
X82592048Y-128048347D01*
X82436038Y-127732786D01*
X82061255Y-127541980D01*
X81656449Y-127427956D01*
X81237176Y-127395098D01*
X80819549Y-127444666D01*
X80419617Y-127574757D01*
X80123962Y-127732786D01*
X79967952Y-128048347D01*
X74095463Y-128048347D01*
X73822242Y-127994000D01*
X73135758Y-127994000D01*
X72462463Y-128127927D01*
X71828234Y-128390633D01*
X71257442Y-128772024D01*
X70772024Y-129257442D01*
X70660000Y-129425098D01*
X70660000Y-121054344D01*
X78525000Y-121054344D01*
X78525000Y-121425656D01*
X78597439Y-121789834D01*
X78739534Y-122132882D01*
X78945825Y-122441618D01*
X79208382Y-122704175D01*
X79517118Y-122910466D01*
X79860166Y-123052561D01*
X80224344Y-123125000D01*
X80595656Y-123125000D01*
X80959834Y-123052561D01*
X81302882Y-122910466D01*
X81611618Y-122704175D01*
X81874175Y-122441618D01*
X82080466Y-122132882D01*
X82222561Y-121789834D01*
X82295000Y-121425656D01*
X82295000Y-121054344D01*
X82222561Y-120690166D01*
X82080466Y-120347118D01*
X81874175Y-120038382D01*
X81611618Y-119775825D01*
X81451400Y-119668771D01*
X81451400Y-119648072D01*
X82530000Y-119648072D01*
X82654482Y-119635812D01*
X82774180Y-119599502D01*
X82884494Y-119540537D01*
X82981185Y-119461185D01*
X83060537Y-119364494D01*
X83119502Y-119254180D01*
X83155812Y-119134482D01*
X83168072Y-119010000D01*
X83168072Y-117210000D01*
X83155812Y-117085518D01*
X83119502Y-116965820D01*
X83060537Y-116855506D01*
X82981185Y-116758815D01*
X82884494Y-116679463D01*
X82774180Y-116620498D01*
X82654482Y-116584188D01*
X82530000Y-116571928D01*
X82321400Y-116571928D01*
X82321400Y-116131361D01*
X82759690Y-115693072D01*
X83175000Y-115693072D01*
X83348254Y-115676008D01*
X83514850Y-115625472D01*
X83668386Y-115543405D01*
X83802962Y-115432962D01*
X83913405Y-115298386D01*
X83995472Y-115144850D01*
X84046008Y-114978254D01*
X84063072Y-114805000D01*
X84063072Y-114055000D01*
X84046008Y-113881746D01*
X83995472Y-113715150D01*
X83913405Y-113561614D01*
X83802962Y-113427038D01*
X83668386Y-113316595D01*
X83514850Y-113234528D01*
X83348254Y-113183992D01*
X83175000Y-113166928D01*
X81925000Y-113166928D01*
X81751746Y-113183992D01*
X81585150Y-113234528D01*
X81431614Y-113316595D01*
X81297038Y-113427038D01*
X81186595Y-113561614D01*
X81104528Y-113715150D01*
X81053992Y-113881746D01*
X81036928Y-114055000D01*
X81036928Y-114470311D01*
X80579786Y-114927453D01*
X80540058Y-114960057D01*
X80507454Y-114999785D01*
X80507450Y-114999789D01*
X80409919Y-115118631D01*
X80313218Y-115299545D01*
X80253670Y-115495851D01*
X80233563Y-115700000D01*
X80238601Y-115751151D01*
X80238601Y-116571928D01*
X80030000Y-116571928D01*
X79905518Y-116584188D01*
X79785820Y-116620498D01*
X79675506Y-116679463D01*
X79578815Y-116758815D01*
X79499463Y-116855506D01*
X79440498Y-116965820D01*
X79404188Y-117085518D01*
X79391928Y-117210000D01*
X79391928Y-118748627D01*
X79383670Y-118775850D01*
X79371915Y-118895196D01*
X79363563Y-118980000D01*
X79368601Y-119031151D01*
X79368601Y-119668770D01*
X79208382Y-119775825D01*
X78945825Y-120038382D01*
X78739534Y-120347118D01*
X78597439Y-120690166D01*
X78525000Y-121054344D01*
X70660000Y-121054344D01*
X70660000Y-109032824D01*
X78215098Y-109032824D01*
X78264666Y-109450451D01*
X78394757Y-109850383D01*
X78552786Y-110146038D01*
X78868347Y-110302048D01*
X80180395Y-108990000D01*
X78868347Y-107677952D01*
X78552786Y-107833962D01*
X78361980Y-108208745D01*
X78247956Y-108613551D01*
X78215098Y-109032824D01*
X70660000Y-109032824D01*
X70660000Y-107498347D01*
X79047952Y-107498347D01*
X80360000Y-108810395D01*
X81672048Y-107498347D01*
X81516038Y-107182786D01*
X81141255Y-106991980D01*
X80736449Y-106877956D01*
X80317176Y-106845098D01*
X79899549Y-106894666D01*
X79499617Y-107024757D01*
X79203962Y-107182786D01*
X79047952Y-107498347D01*
X70660000Y-107498347D01*
X70660000Y-101830000D01*
X79141928Y-101830000D01*
X79154188Y-101954482D01*
X79190498Y-102074180D01*
X79249463Y-102184494D01*
X79328815Y-102281185D01*
X79425506Y-102360537D01*
X79535820Y-102419502D01*
X79655518Y-102455812D01*
X79780000Y-102468072D01*
X80994250Y-102465000D01*
X81153000Y-102306250D01*
X81153000Y-100457000D01*
X79303750Y-100457000D01*
X79145000Y-100615750D01*
X79141928Y-101830000D01*
X70660000Y-101830000D01*
X70660000Y-98830000D01*
X79141928Y-98830000D01*
X79145000Y-100044250D01*
X79303750Y-100203000D01*
X81153000Y-100203000D01*
X81153000Y-98353750D01*
X80994250Y-98195000D01*
X79780000Y-98191928D01*
X79655518Y-98204188D01*
X79535820Y-98240498D01*
X79425506Y-98299463D01*
X79328815Y-98378815D01*
X79249463Y-98475506D01*
X79190498Y-98585820D01*
X79154188Y-98705518D01*
X79141928Y-98830000D01*
X70660000Y-98830000D01*
X70660000Y-92300000D01*
X77426928Y-92300000D01*
X77439188Y-92424482D01*
X77475498Y-92544180D01*
X77534463Y-92654494D01*
X77613815Y-92751185D01*
X77710506Y-92830537D01*
X77820820Y-92889502D01*
X77940518Y-92925812D01*
X78065000Y-92938072D01*
X78454250Y-92935000D01*
X78613000Y-92776250D01*
X78613000Y-91727000D01*
X78867000Y-91727000D01*
X78867000Y-92776250D01*
X79025750Y-92935000D01*
X79415000Y-92938072D01*
X79539482Y-92925812D01*
X79659180Y-92889502D01*
X79769494Y-92830537D01*
X79866185Y-92751185D01*
X79945537Y-92654494D01*
X80004502Y-92544180D01*
X80040812Y-92424482D01*
X80053072Y-92300000D01*
X80050000Y-91885750D01*
X79891250Y-91727000D01*
X78867000Y-91727000D01*
X78613000Y-91727000D01*
X77588750Y-91727000D01*
X77430000Y-91885750D01*
X77426928Y-92300000D01*
X70660000Y-92300000D01*
X70660000Y-90900000D01*
X77426928Y-90900000D01*
X77430000Y-91314250D01*
X77588750Y-91473000D01*
X78613000Y-91473000D01*
X78613000Y-90423750D01*
X78867000Y-90423750D01*
X78867000Y-91473000D01*
X79891250Y-91473000D01*
X80050000Y-91314250D01*
X80053072Y-90900000D01*
X80040812Y-90775518D01*
X80004502Y-90655820D01*
X79945537Y-90545506D01*
X79866185Y-90448815D01*
X79769494Y-90369463D01*
X79659180Y-90310498D01*
X79539482Y-90274188D01*
X79415000Y-90261928D01*
X79025750Y-90265000D01*
X78867000Y-90423750D01*
X78613000Y-90423750D01*
X78454250Y-90265000D01*
X78065000Y-90261928D01*
X77940518Y-90274188D01*
X77820820Y-90310498D01*
X77710506Y-90369463D01*
X77613815Y-90448815D01*
X77534463Y-90545506D01*
X77475498Y-90655820D01*
X77439188Y-90775518D01*
X77426928Y-90900000D01*
X70660000Y-90900000D01*
X70660000Y-82179160D01*
X75398098Y-82179160D01*
X75410358Y-82303642D01*
X75446668Y-82423340D01*
X75505633Y-82533654D01*
X75584985Y-82630345D01*
X75681676Y-82709697D01*
X75791990Y-82768662D01*
X75911688Y-82804972D01*
X76036170Y-82817232D01*
X76549250Y-82814160D01*
X76708000Y-82655410D01*
X76708000Y-81407000D01*
X75559920Y-81407000D01*
X75401170Y-81565750D01*
X75398098Y-82179160D01*
X70660000Y-82179160D01*
X70660000Y-80380840D01*
X75398098Y-80380840D01*
X75401170Y-80994250D01*
X75559920Y-81153000D01*
X76708000Y-81153000D01*
X76708000Y-79904590D01*
X76701330Y-79897920D01*
X76708000Y-79891250D01*
X76708000Y-78867000D01*
X75658750Y-78867000D01*
X75500000Y-79025750D01*
X75496928Y-79415000D01*
X75509188Y-79539482D01*
X75545498Y-79659180D01*
X75604463Y-79769494D01*
X75675166Y-79855646D01*
X75584985Y-79929655D01*
X75505633Y-80026346D01*
X75446668Y-80136660D01*
X75410358Y-80256358D01*
X75398098Y-80380840D01*
X70660000Y-80380840D01*
X70660000Y-78065000D01*
X75496928Y-78065000D01*
X75500000Y-78454250D01*
X75658750Y-78613000D01*
X76708000Y-78613000D01*
X76708000Y-77588750D01*
X76962000Y-77588750D01*
X76962000Y-78613000D01*
X78011250Y-78613000D01*
X78170000Y-78454250D01*
X78173072Y-78065000D01*
X78160812Y-77940518D01*
X78124502Y-77820820D01*
X78065537Y-77710506D01*
X77986185Y-77613815D01*
X77889494Y-77534463D01*
X77779180Y-77475498D01*
X77659482Y-77439188D01*
X77535000Y-77426928D01*
X77120750Y-77430000D01*
X76962000Y-77588750D01*
X76708000Y-77588750D01*
X76549250Y-77430000D01*
X76135000Y-77426928D01*
X76010518Y-77439188D01*
X75890820Y-77475498D01*
X75780506Y-77534463D01*
X75683815Y-77613815D01*
X75604463Y-77710506D01*
X75545498Y-77820820D01*
X75509188Y-77940518D01*
X75496928Y-78065000D01*
X70660000Y-78065000D01*
X70660000Y-75532902D01*
X70772024Y-75700558D01*
X71257442Y-76185976D01*
X71828234Y-76567367D01*
X72462463Y-76830073D01*
X73135758Y-76964000D01*
X73822242Y-76964000D01*
X74495537Y-76830073D01*
X75129766Y-76567367D01*
X75700558Y-76185976D01*
X76185976Y-75700558D01*
X76567367Y-75129766D01*
X76830073Y-74495537D01*
X76964000Y-73822242D01*
X76964000Y-73135758D01*
X76830073Y-72462463D01*
X76567367Y-71828234D01*
X76185976Y-71257442D01*
X75700558Y-70772024D01*
X75532902Y-70660000D01*
X94869000Y-70660000D01*
X94869000Y-76047600D01*
G37*
%TD.AperFunction*%
D36*
X94107000Y-86708000D02*
X94127000Y-86708000D01*
X94127000Y-86962000D01*
X94107000Y-86962000D01*
X94107000Y-88011250D01*
X94265750Y-88170000D01*
X94655000Y-88173072D01*
X94779482Y-88160812D01*
X94869000Y-88133657D01*
X94869000Y-88330887D01*
X94744851Y-88264528D01*
X94578255Y-88213992D01*
X94405001Y-88196928D01*
X93554999Y-88196928D01*
X93497400Y-88202601D01*
X93497400Y-88171554D01*
X93694250Y-88170000D01*
X93853000Y-88011250D01*
X93853000Y-86962000D01*
X93833000Y-86962000D01*
X93833000Y-86708000D01*
X93853000Y-86708000D01*
X93853000Y-86688000D01*
X94107000Y-86688000D01*
X94107000Y-86708000D01*
%TA.AperFunction,Conductor*%
D37*
G36*
X94107000Y-86708000D02*
G01*
X94127000Y-86708000D01*
X94127000Y-86962000D01*
X94107000Y-86962000D01*
X94107000Y-88011250D01*
X94265750Y-88170000D01*
X94655000Y-88173072D01*
X94779482Y-88160812D01*
X94869000Y-88133657D01*
X94869000Y-88330887D01*
X94744851Y-88264528D01*
X94578255Y-88213992D01*
X94405001Y-88196928D01*
X93554999Y-88196928D01*
X93497400Y-88202601D01*
X93497400Y-88171554D01*
X93694250Y-88170000D01*
X93853000Y-88011250D01*
X93853000Y-86962000D01*
X93833000Y-86962000D01*
X93833000Y-86708000D01*
X93853000Y-86708000D01*
X93853000Y-86688000D01*
X94107000Y-86688000D01*
X94107000Y-86708000D01*
G37*
%TD.AperFunction*%
D36*
X93416414Y-79361808D02*
X93512068Y-79440309D01*
X93657683Y-79518142D01*
X93815684Y-79566071D01*
X93980000Y-79582254D01*
X94144315Y-79566071D01*
X94302317Y-79518142D01*
X94332516Y-79502000D01*
X94869000Y-79502000D01*
X94869000Y-83218524D01*
X94794070Y-83220560D01*
X94635320Y-83379310D01*
X94635320Y-84328000D01*
X94655320Y-84328000D01*
X94655320Y-84582000D01*
X94635320Y-84582000D01*
X94635320Y-84602000D01*
X94381320Y-84602000D01*
X94381320Y-84582000D01*
X94361320Y-84582000D01*
X94361320Y-84328000D01*
X94381320Y-84328000D01*
X94381320Y-83379310D01*
X94222570Y-83220560D01*
X94109540Y-83217488D01*
X93985058Y-83229748D01*
X93865360Y-83266058D01*
X93755046Y-83325023D01*
X93658355Y-83404375D01*
X93609160Y-83464319D01*
X93559965Y-83404375D01*
X93463274Y-83325023D01*
X93352960Y-83266058D01*
X93233262Y-83229748D01*
X93108780Y-83217488D01*
X92311220Y-83217488D01*
X92186738Y-83229748D01*
X92067040Y-83266058D01*
X91956726Y-83325023D01*
X91860035Y-83404375D01*
X91780683Y-83501066D01*
X91721718Y-83611380D01*
X91720806Y-83614385D01*
X91704160Y-83612746D01*
X91662997Y-83616800D01*
X91662990Y-83616800D01*
X91539844Y-83628929D01*
X91381843Y-83676858D01*
X91236228Y-83754691D01*
X91156074Y-83820472D01*
X91117062Y-83852488D01*
X90829308Y-83852488D01*
X90934851Y-83820472D01*
X91088387Y-83738405D01*
X91222962Y-83627962D01*
X91333405Y-83493387D01*
X91415472Y-83339851D01*
X91466008Y-83173255D01*
X91483072Y-83000001D01*
X91483072Y-82099999D01*
X91466008Y-81926745D01*
X91415472Y-81760149D01*
X91333405Y-81606613D01*
X91222962Y-81472038D01*
X91088387Y-81361595D01*
X90934851Y-81279528D01*
X90768255Y-81228992D01*
X90595001Y-81211928D01*
X89744999Y-81211928D01*
X89571745Y-81228992D01*
X89439501Y-81269107D01*
X89335619Y-81165226D01*
X89370518Y-81175812D01*
X89495000Y-81188072D01*
X89884250Y-81185000D01*
X90043000Y-81026250D01*
X90043000Y-79977000D01*
X90297000Y-79977000D01*
X90297000Y-81026250D01*
X90455750Y-81185000D01*
X90845000Y-81188072D01*
X90969482Y-81175812D01*
X91089180Y-81139502D01*
X91199494Y-81080537D01*
X91296185Y-81001185D01*
X91375537Y-80904494D01*
X91434502Y-80794180D01*
X91470812Y-80674482D01*
X91483072Y-80550000D01*
X91480000Y-80135750D01*
X91321250Y-79977000D01*
X90297000Y-79977000D01*
X90043000Y-79977000D01*
X89018750Y-79977000D01*
X88860000Y-80135750D01*
X88856928Y-80550000D01*
X88869188Y-80674482D01*
X88879775Y-80709381D01*
X88468200Y-80297807D01*
X88468200Y-79722193D01*
X88858279Y-79332115D01*
X88860000Y-79564250D01*
X89018750Y-79723000D01*
X90043000Y-79723000D01*
X90043000Y-79703000D01*
X90297000Y-79703000D01*
X90297000Y-79723000D01*
X91321250Y-79723000D01*
X91480000Y-79564250D01*
X91483072Y-79150000D01*
X91470812Y-79025518D01*
X91445841Y-78943200D01*
X92997807Y-78943200D01*
X93416414Y-79361808D01*
%TA.AperFunction,Conductor*%
D37*
G36*
X93416414Y-79361808D02*
G01*
X93512068Y-79440309D01*
X93657683Y-79518142D01*
X93815684Y-79566071D01*
X93980000Y-79582254D01*
X94144315Y-79566071D01*
X94302317Y-79518142D01*
X94332516Y-79502000D01*
X94869000Y-79502000D01*
X94869000Y-83218524D01*
X94794070Y-83220560D01*
X94635320Y-83379310D01*
X94635320Y-84328000D01*
X94655320Y-84328000D01*
X94655320Y-84582000D01*
X94635320Y-84582000D01*
X94635320Y-84602000D01*
X94381320Y-84602000D01*
X94381320Y-84582000D01*
X94361320Y-84582000D01*
X94361320Y-84328000D01*
X94381320Y-84328000D01*
X94381320Y-83379310D01*
X94222570Y-83220560D01*
X94109540Y-83217488D01*
X93985058Y-83229748D01*
X93865360Y-83266058D01*
X93755046Y-83325023D01*
X93658355Y-83404375D01*
X93609160Y-83464319D01*
X93559965Y-83404375D01*
X93463274Y-83325023D01*
X93352960Y-83266058D01*
X93233262Y-83229748D01*
X93108780Y-83217488D01*
X92311220Y-83217488D01*
X92186738Y-83229748D01*
X92067040Y-83266058D01*
X91956726Y-83325023D01*
X91860035Y-83404375D01*
X91780683Y-83501066D01*
X91721718Y-83611380D01*
X91720806Y-83614385D01*
X91704160Y-83612746D01*
X91662997Y-83616800D01*
X91662990Y-83616800D01*
X91539844Y-83628929D01*
X91381843Y-83676858D01*
X91236228Y-83754691D01*
X91156074Y-83820472D01*
X91117062Y-83852488D01*
X90829308Y-83852488D01*
X90934851Y-83820472D01*
X91088387Y-83738405D01*
X91222962Y-83627962D01*
X91333405Y-83493387D01*
X91415472Y-83339851D01*
X91466008Y-83173255D01*
X91483072Y-83000001D01*
X91483072Y-82099999D01*
X91466008Y-81926745D01*
X91415472Y-81760149D01*
X91333405Y-81606613D01*
X91222962Y-81472038D01*
X91088387Y-81361595D01*
X90934851Y-81279528D01*
X90768255Y-81228992D01*
X90595001Y-81211928D01*
X89744999Y-81211928D01*
X89571745Y-81228992D01*
X89439501Y-81269107D01*
X89335619Y-81165226D01*
X89370518Y-81175812D01*
X89495000Y-81188072D01*
X89884250Y-81185000D01*
X90043000Y-81026250D01*
X90043000Y-79977000D01*
X90297000Y-79977000D01*
X90297000Y-81026250D01*
X90455750Y-81185000D01*
X90845000Y-81188072D01*
X90969482Y-81175812D01*
X91089180Y-81139502D01*
X91199494Y-81080537D01*
X91296185Y-81001185D01*
X91375537Y-80904494D01*
X91434502Y-80794180D01*
X91470812Y-80674482D01*
X91483072Y-80550000D01*
X91480000Y-80135750D01*
X91321250Y-79977000D01*
X90297000Y-79977000D01*
X90043000Y-79977000D01*
X89018750Y-79977000D01*
X88860000Y-80135750D01*
X88856928Y-80550000D01*
X88869188Y-80674482D01*
X88879775Y-80709381D01*
X88468200Y-80297807D01*
X88468200Y-79722193D01*
X88858279Y-79332115D01*
X88860000Y-79564250D01*
X89018750Y-79723000D01*
X90043000Y-79723000D01*
X90043000Y-79703000D01*
X90297000Y-79703000D01*
X90297000Y-79723000D01*
X91321250Y-79723000D01*
X91480000Y-79564250D01*
X91483072Y-79150000D01*
X91470812Y-79025518D01*
X91445841Y-78943200D01*
X92997807Y-78943200D01*
X93416414Y-79361808D01*
G37*
%TD.AperFunction*%
%TD*%
M02*
