%TF.GenerationSoftware,KiCad,Pcbnew,5.1.9+dfsg1-1*%
%TF.CreationDate,2021-08-27T09:59:16+02:00*%
%TF.ProjectId,ws2812b_ctrl_RF,77733238-3132-4625-9f63-74726c5f5246,rev?*%
%TF.SameCoordinates,Original*%
%TF.FileFunction,Copper,L2,Bot*%
%TF.FilePolarity,Positive*%
%FSLAX46Y46*%
G04 Gerber Fmt 4.6, Leading zero omitted, Abs format (unit mm)*
G04 Created by KiCad (PCBNEW 5.1.9+dfsg1-1) date 2021-08-27 09:59:16*
%MOMM*%
%LPD*%
G01*
G04 APERTURE LIST*
%TA.AperFunction,ComponentPad*%
%ADD10C,2.000000*%
%TD*%
%TA.AperFunction,ComponentPad*%
%ADD11C,1.879600*%
%TD*%
%TA.AperFunction,ComponentPad*%
%ADD12C,1.700000*%
%TD*%
%TA.AperFunction,SMDPad,CuDef*%
%ADD13R,1.700000X3.300000*%
%TD*%
%TA.AperFunction,ComponentPad*%
%ADD14O,1.700000X1.950000*%
%TD*%
%TA.AperFunction,ComponentPad*%
%ADD15O,1.950000X1.700000*%
%TD*%
%TA.AperFunction,SMDPad,CuDef*%
%ADD16R,0.797560X1.198880*%
%TD*%
%TA.AperFunction,SMDPad,CuDef*%
%ADD17R,0.800000X0.900000*%
%TD*%
%TA.AperFunction,ComponentPad*%
%ADD18C,3.600000*%
%TD*%
%TA.AperFunction,ConnectorPad*%
%ADD19C,5.700000*%
%TD*%
%TA.AperFunction,ComponentPad*%
%ADD20C,3.000000*%
%TD*%
%TA.AperFunction,ComponentPad*%
%ADD21R,3.000000X3.000000*%
%TD*%
%TA.AperFunction,SMDPad,CuDef*%
%ADD22R,1.597660X1.798320*%
%TD*%
%TA.AperFunction,SMDPad,CuDef*%
%ADD23R,1.798320X1.597660*%
%TD*%
%TA.AperFunction,SMDPad,CuDef*%
%ADD24R,2.500000X1.800000*%
%TD*%
%TA.AperFunction,ComponentPad*%
%ADD25C,2.500000*%
%TD*%
%TA.AperFunction,ComponentPad*%
%ADD26R,1.524000X1.524000*%
%TD*%
%TA.AperFunction,ComponentPad*%
%ADD27C,1.524000*%
%TD*%
%TA.AperFunction,SMDPad,CuDef*%
%ADD28R,0.900000X0.800000*%
%TD*%
%TA.AperFunction,SMDPad,CuDef*%
%ADD29R,1.198880X0.797560*%
%TD*%
%TA.AperFunction,SMDPad,CuDef*%
%ADD30R,3.800000X2.000000*%
%TD*%
%TA.AperFunction,SMDPad,CuDef*%
%ADD31R,1.500000X2.000000*%
%TD*%
%TA.AperFunction,ViaPad*%
%ADD32C,1.200000*%
%TD*%
%TA.AperFunction,ViaPad*%
%ADD33C,0.800000*%
%TD*%
%TA.AperFunction,Conductor*%
%ADD34C,0.406400*%
%TD*%
%TA.AperFunction,Conductor*%
%ADD35C,3.048000*%
%TD*%
%TA.AperFunction,Conductor*%
%ADD36C,0.609600*%
%TD*%
%TA.AperFunction,Conductor*%
%ADD37C,0.812800*%
%TD*%
%TA.AperFunction,Conductor*%
%ADD38C,2.540000*%
%TD*%
%TA.AperFunction,Conductor*%
%ADD39C,1.270000*%
%TD*%
%TA.AperFunction,Conductor*%
%ADD40C,0.250000*%
%TD*%
%TA.AperFunction,Conductor*%
%ADD41C,0.304800*%
%TD*%
%TA.AperFunction,Conductor*%
%ADD42C,0.254000*%
%TD*%
%TA.AperFunction,Conductor*%
%ADD43C,0.100000*%
%TD*%
G04 APERTURE END LIST*
D10*
%TO.P,J3,1*%
%TO.N,/(CLK&~MOSI~&PWM)||(CLK&MOSI)*%
X97028000Y-128778000D03*
%TD*%
D11*
%TO.P,B1,24*%
%TO.N,N/C*%
X111760000Y-74930000D03*
%TO.P,B1,23*%
%TO.N,GND*%
X111760000Y-77470000D03*
%TO.P,B1,22*%
%TO.N,/~RST*%
X111760000Y-80010000D03*
%TO.P,B1,21*%
%TO.N,+5V*%
X111760000Y-82550000D03*
%TO.P,B1,20*%
%TO.N,/ExtADC*%
X111760000Y-85090000D03*
%TO.P,B1,19*%
%TO.N,/Vsup*%
X111760000Y-87630000D03*
%TO.P,B1,18*%
%TO.N,/nRFCE*%
X111760000Y-90170000D03*
%TO.P,B1,17*%
%TO.N,/nRFIRQ*%
X111760000Y-92710000D03*
%TO.P,B1,16*%
%TO.N,/SCK*%
X111760000Y-95250000D03*
%TO.P,B1,15*%
%TO.N,/MISO*%
X111760000Y-97790000D03*
%TO.P,B1,14*%
%TO.N,/MOSI*%
X111760000Y-100330000D03*
%TO.P,B1,13*%
%TO.N,/~SS*%
X111760000Y-102870000D03*
%TO.P,B1,12*%
%TO.N,/V33CTL*%
X96520000Y-102870000D03*
%TO.P,B1,11*%
%TO.N,/RLYCTL*%
X96520000Y-100330000D03*
%TO.P,B1,10*%
%TO.N,/Vsup*%
X96520000Y-97790000D03*
%TO.P,B1,9*%
%TO.N,/ExtPWM*%
X96520000Y-95250000D03*
%TO.P,B1,8*%
%TO.N,/DBGCTL*%
X96520000Y-92710000D03*
%TO.P,B1,7*%
%TO.N,/ExtIC*%
X96520000Y-90170000D03*
%TO.P,B1,6*%
%TO.N,/PWM*%
X96520000Y-87630000D03*
%TO.P,B1,5*%
%TO.N,/INT0*%
X96520000Y-85090000D03*
%TO.P,B1,4*%
%TO.N,GND*%
X96520000Y-82550000D03*
%TO.P,B1,3*%
%TO.N,N/C*%
X96520000Y-80010000D03*
%TO.P,B1,2*%
%TO.N,/RX*%
X96520000Y-77470000D03*
%TO.P,B1,1*%
%TO.N,/TX*%
X96520000Y-74930000D03*
%TD*%
%TO.P,ISP1,1*%
%TO.N,/MISO*%
%TA.AperFunction,ComponentPad*%
G36*
G01*
X127088000Y-90078000D02*
X127088000Y-91278000D01*
G75*
G02*
X126838000Y-91528000I-250000J0D01*
G01*
X125638000Y-91528000D01*
G75*
G02*
X125388000Y-91278000I0J250000D01*
G01*
X125388000Y-90078000D01*
G75*
G02*
X125638000Y-89828000I250000J0D01*
G01*
X126838000Y-89828000D01*
G75*
G02*
X127088000Y-90078000I0J-250000D01*
G01*
G37*
%TD.AperFunction*%
D12*
%TO.P,ISP1,3*%
%TO.N,/SCK*%
X126238000Y-88138000D03*
%TO.P,ISP1,5*%
%TO.N,/~RST*%
X126238000Y-85598000D03*
%TO.P,ISP1,2*%
%TO.N,+5V*%
X123698000Y-90678000D03*
%TO.P,ISP1,4*%
%TO.N,/MOSI*%
X123698000Y-88138000D03*
%TO.P,ISP1,6*%
%TO.N,GND*%
X123698000Y-85598000D03*
%TD*%
%TO.P,C8,2*%
%TO.N,GND*%
%TA.AperFunction,SMDPad,CuDef*%
G36*
G01*
X84215000Y-81117000D02*
X84215000Y-82967000D01*
G75*
G02*
X83965000Y-83217000I-250000J0D01*
G01*
X82965000Y-83217000D01*
G75*
G02*
X82715000Y-82967000I0J250000D01*
G01*
X82715000Y-81117000D01*
G75*
G02*
X82965000Y-80867000I250000J0D01*
G01*
X83965000Y-80867000D01*
G75*
G02*
X84215000Y-81117000I0J-250000D01*
G01*
G37*
%TD.AperFunction*%
%TO.P,C8,1*%
%TO.N,Net-(C8-Pad1)*%
%TA.AperFunction,SMDPad,CuDef*%
G36*
G01*
X87465000Y-81117000D02*
X87465000Y-82967000D01*
G75*
G02*
X87215000Y-83217000I-250000J0D01*
G01*
X86215000Y-83217000D01*
G75*
G02*
X85965000Y-82967000I0J250000D01*
G01*
X85965000Y-81117000D01*
G75*
G02*
X86215000Y-80867000I250000J0D01*
G01*
X87215000Y-80867000D01*
G75*
G02*
X87465000Y-81117000I0J-250000D01*
G01*
G37*
%TD.AperFunction*%
%TD*%
%TO.P,C11,2*%
%TO.N,GND*%
%TA.AperFunction,SMDPad,CuDef*%
G36*
G01*
X94397000Y-91682000D02*
X92547000Y-91682000D01*
G75*
G02*
X92297000Y-91432000I0J250000D01*
G01*
X92297000Y-90432000D01*
G75*
G02*
X92547000Y-90182000I250000J0D01*
G01*
X94397000Y-90182000D01*
G75*
G02*
X94647000Y-90432000I0J-250000D01*
G01*
X94647000Y-91432000D01*
G75*
G02*
X94397000Y-91682000I-250000J0D01*
G01*
G37*
%TD.AperFunction*%
%TO.P,C11,1*%
%TO.N,Net-(C11-Pad1)*%
%TA.AperFunction,SMDPad,CuDef*%
G36*
G01*
X94397000Y-94932000D02*
X92547000Y-94932000D01*
G75*
G02*
X92297000Y-94682000I0J250000D01*
G01*
X92297000Y-93682000D01*
G75*
G02*
X92547000Y-93432000I250000J0D01*
G01*
X94397000Y-93432000D01*
G75*
G02*
X94647000Y-93682000I0J-250000D01*
G01*
X94647000Y-94682000D01*
G75*
G02*
X94397000Y-94932000I-250000J0D01*
G01*
G37*
%TD.AperFunction*%
%TD*%
%TO.P,C9,2*%
%TO.N,GND*%
%TA.AperFunction,SMDPad,CuDef*%
G36*
G01*
X90007000Y-81494000D02*
X91857000Y-81494000D01*
G75*
G02*
X92107000Y-81744000I0J-250000D01*
G01*
X92107000Y-82744000D01*
G75*
G02*
X91857000Y-82994000I-250000J0D01*
G01*
X90007000Y-82994000D01*
G75*
G02*
X89757000Y-82744000I0J250000D01*
G01*
X89757000Y-81744000D01*
G75*
G02*
X90007000Y-81494000I250000J0D01*
G01*
G37*
%TD.AperFunction*%
%TO.P,C9,1*%
%TO.N,/3.3V*%
%TA.AperFunction,SMDPad,CuDef*%
G36*
G01*
X90007000Y-78244000D02*
X91857000Y-78244000D01*
G75*
G02*
X92107000Y-78494000I0J-250000D01*
G01*
X92107000Y-79494000D01*
G75*
G02*
X91857000Y-79744000I-250000J0D01*
G01*
X90007000Y-79744000D01*
G75*
G02*
X89757000Y-79494000I0J250000D01*
G01*
X89757000Y-78494000D01*
G75*
G02*
X90007000Y-78244000I250000J0D01*
G01*
G37*
%TD.AperFunction*%
%TD*%
D13*
%TO.P,D2,2*%
%TO.N,GND*%
X81788000Y-88138000D03*
%TO.P,D2,1*%
%TO.N,Net-(D2-Pad1)*%
X81788000Y-93638000D03*
%TD*%
%TO.P,C5,2*%
%TO.N,GND*%
%TA.AperFunction,SMDPad,CuDef*%
G36*
G01*
X80631000Y-82967000D02*
X80631000Y-81117000D01*
G75*
G02*
X80881000Y-80867000I250000J0D01*
G01*
X81881000Y-80867000D01*
G75*
G02*
X82131000Y-81117000I0J-250000D01*
G01*
X82131000Y-82967000D01*
G75*
G02*
X81881000Y-83217000I-250000J0D01*
G01*
X80881000Y-83217000D01*
G75*
G02*
X80631000Y-82967000I0J250000D01*
G01*
G37*
%TD.AperFunction*%
%TO.P,C5,1*%
%TO.N,+5V*%
%TA.AperFunction,SMDPad,CuDef*%
G36*
G01*
X77381000Y-82967000D02*
X77381000Y-81117000D01*
G75*
G02*
X77631000Y-80867000I250000J0D01*
G01*
X78631000Y-80867000D01*
G75*
G02*
X78881000Y-81117000I0J-250000D01*
G01*
X78881000Y-82967000D01*
G75*
G02*
X78631000Y-83217000I-250000J0D01*
G01*
X77631000Y-83217000D01*
G75*
G02*
X77381000Y-82967000I0J250000D01*
G01*
G37*
%TD.AperFunction*%
%TD*%
%TO.P,J2,1*%
%TO.N,GND*%
%TA.AperFunction,ComponentPad*%
G36*
G01*
X125564000Y-73189000D02*
X125564000Y-74639000D01*
G75*
G02*
X125314000Y-74889000I-250000J0D01*
G01*
X124114000Y-74889000D01*
G75*
G02*
X123864000Y-74639000I0J250000D01*
G01*
X123864000Y-73189000D01*
G75*
G02*
X124114000Y-72939000I250000J0D01*
G01*
X125314000Y-72939000D01*
G75*
G02*
X125564000Y-73189000I0J-250000D01*
G01*
G37*
%TD.AperFunction*%
D14*
%TO.P,J2,2*%
%TO.N,/ExtADC*%
X122214000Y-73914000D03*
%TO.P,J2,3*%
%TO.N,/ExtPWM*%
X119714000Y-73914000D03*
%TO.P,J2,4*%
%TO.N,/ExtIC*%
X117214000Y-73914000D03*
%TD*%
%TO.P,J1,1*%
%TO.N,/INT0*%
%TA.AperFunction,ComponentPad*%
G36*
G01*
X73189000Y-80938000D02*
X74639000Y-80938000D01*
G75*
G02*
X74889000Y-81188000I0J-250000D01*
G01*
X74889000Y-82388000D01*
G75*
G02*
X74639000Y-82638000I-250000J0D01*
G01*
X73189000Y-82638000D01*
G75*
G02*
X72939000Y-82388000I0J250000D01*
G01*
X72939000Y-81188000D01*
G75*
G02*
X73189000Y-80938000I250000J0D01*
G01*
G37*
%TD.AperFunction*%
D15*
%TO.P,J1,2*%
%TO.N,+5V*%
X73914000Y-84288000D03*
%TO.P,J1,3*%
%TO.N,GND*%
X73914000Y-86788000D03*
%TD*%
D11*
%TO.P,RS485,1*%
%TO.N,GND*%
X80518000Y-74422000D03*
%TO.P,RS485,2*%
%TO.N,/RX*%
X83058000Y-74422000D03*
%TO.P,RS485,3*%
%TO.N,/TX*%
X85598000Y-74422000D03*
%TO.P,RS485,4*%
%TO.N,+5V*%
X88138000Y-74422000D03*
%TD*%
D16*
%TO.P,R16,1*%
%TO.N,/V33CTL*%
X90698320Y-100076000D03*
%TO.P,R16,2*%
%TO.N,Net-(Q4-Pad1)*%
X88900000Y-100076000D03*
%TD*%
%TO.P,R14,2*%
%TO.N,+5V*%
X85577680Y-100076000D03*
%TO.P,R14,1*%
%TO.N,Net-(Q4-Pad1)*%
X87376000Y-100076000D03*
%TD*%
%TO.P,R13,2*%
%TO.N,/Vsup*%
X108204000Y-84836000D03*
%TO.P,R13,1*%
%TO.N,GND*%
X106405680Y-84836000D03*
%TD*%
D17*
%TO.P,Q4,3*%
%TO.N,Net-(C8-Pad1)*%
X86614000Y-96266000D03*
%TO.P,Q4,2*%
%TO.N,+5V*%
X85664000Y-98266000D03*
%TO.P,Q4,1*%
%TO.N,Net-(Q4-Pad1)*%
X87564000Y-98266000D03*
%TD*%
%TO.P,F1,2*%
%TO.N,Net-(D2-Pad1)*%
%TA.AperFunction,SMDPad,CuDef*%
G36*
G01*
X78029000Y-92636000D02*
X78029000Y-89736000D01*
G75*
G02*
X78279000Y-89486000I250000J0D01*
G01*
X79079000Y-89486000D01*
G75*
G02*
X79329000Y-89736000I0J-250000D01*
G01*
X79329000Y-92636000D01*
G75*
G02*
X79079000Y-92886000I-250000J0D01*
G01*
X78279000Y-92886000D01*
G75*
G02*
X78029000Y-92636000I0J250000D01*
G01*
G37*
%TD.AperFunction*%
%TO.P,F1,1*%
%TO.N,VCC*%
%TA.AperFunction,SMDPad,CuDef*%
G36*
G01*
X73579000Y-92636000D02*
X73579000Y-89736000D01*
G75*
G02*
X73829000Y-89486000I250000J0D01*
G01*
X74629000Y-89486000D01*
G75*
G02*
X74879000Y-89736000I0J-250000D01*
G01*
X74879000Y-92636000D01*
G75*
G02*
X74629000Y-92886000I-250000J0D01*
G01*
X73829000Y-92886000D01*
G75*
G02*
X73579000Y-92636000I0J250000D01*
G01*
G37*
%TD.AperFunction*%
%TD*%
D16*
%TO.P,R9,2*%
%TO.N,Net-(D1-Pad2)*%
X86126320Y-115062000D03*
%TO.P,R9,1*%
%TO.N,Net-(R9-Pad1)*%
X84328000Y-115062000D03*
%TD*%
D18*
%TO.P,H4,1*%
%TO.N,N/C*%
X73479000Y-131479000D03*
D19*
X73479000Y-131479000D03*
%TD*%
D18*
%TO.P,H3,1*%
%TO.N,N/C*%
X131479000Y-131479000D03*
D19*
X131479000Y-131479000D03*
%TD*%
D18*
%TO.P,H2,1*%
%TO.N,N/C*%
X131479000Y-73479000D03*
D19*
X131479000Y-73479000D03*
%TD*%
D18*
%TO.P,H1,1*%
%TO.N,N/C*%
X73479000Y-73479000D03*
D19*
X73479000Y-73479000D03*
%TD*%
D20*
%TO.P,WS2812B1,2*%
%TO.N,GND*%
X81280000Y-129540000D03*
D21*
%TO.P,WS2812B1,1*%
%TO.N,Net-(K1-Pad1)*%
X86360000Y-129540000D03*
%TD*%
D22*
%TO.P,C12,2*%
%TO.N,GND*%
X80777080Y-77978000D03*
%TO.P,C12,1*%
%TO.N,+5V*%
X77978000Y-77978000D03*
%TD*%
D20*
%TO.P,SUPPLY1,2*%
%TO.N,VCC*%
X74168000Y-95504000D03*
D21*
%TO.P,SUPPLY1,1*%
%TO.N,GND*%
X74168000Y-100584000D03*
%TD*%
D16*
%TO.P,R8,1*%
%TO.N,Net-(Q2-Pad1)*%
X92181680Y-113030000D03*
%TO.P,R8,2*%
%TO.N,/RLYCTL*%
X93980000Y-113030000D03*
%TD*%
D23*
%TO.P,C4,2*%
%TO.N,GND*%
X100965000Y-129799080D03*
%TO.P,C4,1*%
%TO.N,+5V*%
X100965000Y-127000000D03*
%TD*%
%TO.P,C6,1*%
%TO.N,+5V*%
X105410000Y-81409540D03*
%TO.P,C6,2*%
%TO.N,GND*%
X105410000Y-78610460D03*
%TD*%
%TO.P,C7,2*%
%TO.N,Net-(C7-Pad2)*%
X90170000Y-129540000D03*
%TO.P,C7,1*%
%TO.N,GND*%
X90170000Y-132339080D03*
%TD*%
%TO.P,C10,1*%
%TO.N,/3.3V*%
X127635000Y-105915460D03*
%TO.P,C10,2*%
%TO.N,GND*%
X127635000Y-108714540D03*
%TD*%
D24*
%TO.P,D1,1*%
%TO.N,VCC*%
X81280000Y-118110000D03*
%TO.P,D1,2*%
%TO.N,Net-(D1-Pad2)*%
X85280000Y-118110000D03*
%TD*%
%TO.P,FB1,2*%
%TO.N,+5V*%
%TA.AperFunction,SMDPad,CuDef*%
G36*
G01*
X81983000Y-99197000D02*
X84133000Y-99197000D01*
G75*
G02*
X84383000Y-99447000I0J-250000D01*
G01*
X84383000Y-100197000D01*
G75*
G02*
X84133000Y-100447000I-250000J0D01*
G01*
X81983000Y-100447000D01*
G75*
G02*
X81733000Y-100197000I0J250000D01*
G01*
X81733000Y-99447000D01*
G75*
G02*
X81983000Y-99197000I250000J0D01*
G01*
G37*
%TD.AperFunction*%
%TO.P,FB1,1*%
%TO.N,Net-(D2-Pad1)*%
%TA.AperFunction,SMDPad,CuDef*%
G36*
G01*
X81983000Y-96397000D02*
X84133000Y-96397000D01*
G75*
G02*
X84383000Y-96647000I0J-250000D01*
G01*
X84383000Y-97397000D01*
G75*
G02*
X84133000Y-97647000I-250000J0D01*
G01*
X81983000Y-97647000D01*
G75*
G02*
X81733000Y-97397000I0J250000D01*
G01*
X81733000Y-96647000D01*
G75*
G02*
X81983000Y-96397000I250000J0D01*
G01*
G37*
%TD.AperFunction*%
%TD*%
D25*
%TO.P,K1,2*%
%TO.N,Net-(D1-Pad2)*%
X92410000Y-121240000D03*
D20*
%TO.P,K1,3*%
%TO.N,VCC*%
X92410000Y-109040000D03*
%TO.P,K1,4*%
%TO.N,GND*%
X80360000Y-108990000D03*
D25*
%TO.P,K1,5*%
%TO.N,VCC*%
X80410000Y-121240000D03*
D20*
%TO.P,K1,1*%
%TO.N,Net-(K1-Pad1)*%
X86360000Y-123190000D03*
%TD*%
D26*
%TO.P,nRF24L1,1*%
%TO.N,GND*%
X127635000Y-100330000D03*
D27*
%TO.P,nRF24L1,2*%
%TO.N,/3.3V*%
X127635000Y-102870000D03*
%TO.P,nRF24L1,3*%
%TO.N,/nRFCE*%
X125095000Y-100330000D03*
%TO.P,nRF24L1,4*%
%TO.N,/~SS*%
X125095000Y-102870000D03*
%TO.P,nRF24L1,5*%
%TO.N,/SCK*%
X122555000Y-100330000D03*
%TO.P,nRF24L1,6*%
%TO.N,/MOSI*%
X122555000Y-102870000D03*
%TO.P,nRF24L1,7*%
%TO.N,/MISO*%
X120015000Y-100330000D03*
%TO.P,nRF24L1,8*%
%TO.N,/nRFIRQ*%
X120015000Y-102870000D03*
%TD*%
D28*
%TO.P,Q2,1*%
%TO.N,Net-(Q2-Pad1)*%
X89630000Y-115890000D03*
%TO.P,Q2,2*%
%TO.N,GND*%
X89630000Y-117790000D03*
%TO.P,Q2,3*%
%TO.N,Net-(D1-Pad2)*%
X87630000Y-116840000D03*
%TD*%
D16*
%TO.P,R17,2*%
%TO.N,/Vsup*%
X108204000Y-88138000D03*
%TO.P,R17,1*%
%TO.N,VCC*%
X106405680Y-88138000D03*
%TD*%
D29*
%TO.P,R2,1*%
%TO.N,/(CLK&~MOSI~&PWM)||(CLK&MOSI)*%
X94615000Y-129646680D03*
%TO.P,R2,2*%
%TO.N,GND*%
X94615000Y-131445000D03*
%TD*%
%TO.P,R4,2*%
%TO.N,Net-(K1-Pad1)*%
X90170000Y-126100840D03*
%TO.P,R4,1*%
%TO.N,Net-(C7-Pad2)*%
X90170000Y-127899160D03*
%TD*%
D16*
%TO.P,R5,2*%
%TO.N,Net-(C11-Pad1)*%
X91069160Y-85090000D03*
%TO.P,R5,1*%
%TO.N,/3.3V*%
X89270840Y-85090000D03*
%TD*%
%TO.P,R6,1*%
%TO.N,Net-(C11-Pad1)*%
X92710000Y-84455000D03*
%TO.P,R6,2*%
%TO.N,GND*%
X94508320Y-84455000D03*
%TD*%
%TO.P,R7,1*%
%TO.N,Net-(Q2-Pad1)*%
X92181680Y-115570000D03*
%TO.P,R7,2*%
%TO.N,GND*%
X93980000Y-115570000D03*
%TD*%
%TO.P,U1,1*%
%TO.N,/SCK*%
%TA.AperFunction,SMDPad,CuDef*%
G36*
G01*
X103355000Y-109645000D02*
X103655000Y-109645000D01*
G75*
G02*
X103805000Y-109795000I0J-150000D01*
G01*
X103805000Y-111445000D01*
G75*
G02*
X103655000Y-111595000I-150000J0D01*
G01*
X103355000Y-111595000D01*
G75*
G02*
X103205000Y-111445000I0J150000D01*
G01*
X103205000Y-109795000D01*
G75*
G02*
X103355000Y-109645000I150000J0D01*
G01*
G37*
%TD.AperFunction*%
%TO.P,U1,2*%
%TO.N,/~SS*%
%TA.AperFunction,SMDPad,CuDef*%
G36*
G01*
X104625000Y-109645000D02*
X104925000Y-109645000D01*
G75*
G02*
X105075000Y-109795000I0J-150000D01*
G01*
X105075000Y-111445000D01*
G75*
G02*
X104925000Y-111595000I-150000J0D01*
G01*
X104625000Y-111595000D01*
G75*
G02*
X104475000Y-111445000I0J150000D01*
G01*
X104475000Y-109795000D01*
G75*
G02*
X104625000Y-109645000I150000J0D01*
G01*
G37*
%TD.AperFunction*%
%TO.P,U1,3*%
%TO.N,/CLK*%
%TA.AperFunction,SMDPad,CuDef*%
G36*
G01*
X105895000Y-109645000D02*
X106195000Y-109645000D01*
G75*
G02*
X106345000Y-109795000I0J-150000D01*
G01*
X106345000Y-111445000D01*
G75*
G02*
X106195000Y-111595000I-150000J0D01*
G01*
X105895000Y-111595000D01*
G75*
G02*
X105745000Y-111445000I0J150000D01*
G01*
X105745000Y-109795000D01*
G75*
G02*
X105895000Y-109645000I150000J0D01*
G01*
G37*
%TD.AperFunction*%
%TO.P,U1,4*%
%TO.N,/~MOSI~&PWM*%
%TA.AperFunction,SMDPad,CuDef*%
G36*
G01*
X107165000Y-109645000D02*
X107465000Y-109645000D01*
G75*
G02*
X107615000Y-109795000I0J-150000D01*
G01*
X107615000Y-111445000D01*
G75*
G02*
X107465000Y-111595000I-150000J0D01*
G01*
X107165000Y-111595000D01*
G75*
G02*
X107015000Y-111445000I0J150000D01*
G01*
X107015000Y-109795000D01*
G75*
G02*
X107165000Y-109645000I150000J0D01*
G01*
G37*
%TD.AperFunction*%
%TO.P,U1,5*%
%TO.N,/~MOSI*%
%TA.AperFunction,SMDPad,CuDef*%
G36*
G01*
X108435000Y-109645000D02*
X108735000Y-109645000D01*
G75*
G02*
X108885000Y-109795000I0J-150000D01*
G01*
X108885000Y-111445000D01*
G75*
G02*
X108735000Y-111595000I-150000J0D01*
G01*
X108435000Y-111595000D01*
G75*
G02*
X108285000Y-111445000I0J150000D01*
G01*
X108285000Y-109795000D01*
G75*
G02*
X108435000Y-109645000I150000J0D01*
G01*
G37*
%TD.AperFunction*%
%TO.P,U1,6*%
%TO.N,/PWM*%
%TA.AperFunction,SMDPad,CuDef*%
G36*
G01*
X109705000Y-109645000D02*
X110005000Y-109645000D01*
G75*
G02*
X110155000Y-109795000I0J-150000D01*
G01*
X110155000Y-111445000D01*
G75*
G02*
X110005000Y-111595000I-150000J0D01*
G01*
X109705000Y-111595000D01*
G75*
G02*
X109555000Y-111445000I0J150000D01*
G01*
X109555000Y-109795000D01*
G75*
G02*
X109705000Y-109645000I150000J0D01*
G01*
G37*
%TD.AperFunction*%
%TO.P,U1,7*%
%TO.N,GND*%
%TA.AperFunction,SMDPad,CuDef*%
G36*
G01*
X110975000Y-109645000D02*
X111275000Y-109645000D01*
G75*
G02*
X111425000Y-109795000I0J-150000D01*
G01*
X111425000Y-111445000D01*
G75*
G02*
X111275000Y-111595000I-150000J0D01*
G01*
X110975000Y-111595000D01*
G75*
G02*
X110825000Y-111445000I0J150000D01*
G01*
X110825000Y-109795000D01*
G75*
G02*
X110975000Y-109645000I150000J0D01*
G01*
G37*
%TD.AperFunction*%
%TO.P,U1,8*%
%TO.N,/MOSI*%
%TA.AperFunction,SMDPad,CuDef*%
G36*
G01*
X110975000Y-114595000D02*
X111275000Y-114595000D01*
G75*
G02*
X111425000Y-114745000I0J-150000D01*
G01*
X111425000Y-116395000D01*
G75*
G02*
X111275000Y-116545000I-150000J0D01*
G01*
X110975000Y-116545000D01*
G75*
G02*
X110825000Y-116395000I0J150000D01*
G01*
X110825000Y-114745000D01*
G75*
G02*
X110975000Y-114595000I150000J0D01*
G01*
G37*
%TD.AperFunction*%
%TO.P,U1,9*%
%TO.N,/CLK*%
%TA.AperFunction,SMDPad,CuDef*%
G36*
G01*
X109705000Y-114595000D02*
X110005000Y-114595000D01*
G75*
G02*
X110155000Y-114745000I0J-150000D01*
G01*
X110155000Y-116395000D01*
G75*
G02*
X110005000Y-116545000I-150000J0D01*
G01*
X109705000Y-116545000D01*
G75*
G02*
X109555000Y-116395000I0J150000D01*
G01*
X109555000Y-114745000D01*
G75*
G02*
X109705000Y-114595000I150000J0D01*
G01*
G37*
%TD.AperFunction*%
%TO.P,U1,10*%
%TO.N,/CLK&MOSI*%
%TA.AperFunction,SMDPad,CuDef*%
G36*
G01*
X108435000Y-114595000D02*
X108735000Y-114595000D01*
G75*
G02*
X108885000Y-114745000I0J-150000D01*
G01*
X108885000Y-116395000D01*
G75*
G02*
X108735000Y-116545000I-150000J0D01*
G01*
X108435000Y-116545000D01*
G75*
G02*
X108285000Y-116395000I0J150000D01*
G01*
X108285000Y-114745000D01*
G75*
G02*
X108435000Y-114595000I150000J0D01*
G01*
G37*
%TD.AperFunction*%
%TO.P,U1,11*%
%TO.N,/CLK&~MOSI~&PWM*%
%TA.AperFunction,SMDPad,CuDef*%
G36*
G01*
X107165000Y-114595000D02*
X107465000Y-114595000D01*
G75*
G02*
X107615000Y-114745000I0J-150000D01*
G01*
X107615000Y-116395000D01*
G75*
G02*
X107465000Y-116545000I-150000J0D01*
G01*
X107165000Y-116545000D01*
G75*
G02*
X107015000Y-116395000I0J150000D01*
G01*
X107015000Y-114745000D01*
G75*
G02*
X107165000Y-114595000I150000J0D01*
G01*
G37*
%TD.AperFunction*%
%TO.P,U1,12*%
%TO.N,/CLK*%
%TA.AperFunction,SMDPad,CuDef*%
G36*
G01*
X105895000Y-114595000D02*
X106195000Y-114595000D01*
G75*
G02*
X106345000Y-114745000I0J-150000D01*
G01*
X106345000Y-116395000D01*
G75*
G02*
X106195000Y-116545000I-150000J0D01*
G01*
X105895000Y-116545000D01*
G75*
G02*
X105745000Y-116395000I0J150000D01*
G01*
X105745000Y-114745000D01*
G75*
G02*
X105895000Y-114595000I150000J0D01*
G01*
G37*
%TD.AperFunction*%
%TO.P,U1,13*%
%TO.N,/~MOSI~&PWM*%
%TA.AperFunction,SMDPad,CuDef*%
G36*
G01*
X104625000Y-114595000D02*
X104925000Y-114595000D01*
G75*
G02*
X105075000Y-114745000I0J-150000D01*
G01*
X105075000Y-116395000D01*
G75*
G02*
X104925000Y-116545000I-150000J0D01*
G01*
X104625000Y-116545000D01*
G75*
G02*
X104475000Y-116395000I0J150000D01*
G01*
X104475000Y-114745000D01*
G75*
G02*
X104625000Y-114595000I150000J0D01*
G01*
G37*
%TD.AperFunction*%
%TO.P,U1,14*%
%TO.N,+5V*%
%TA.AperFunction,SMDPad,CuDef*%
G36*
G01*
X103355000Y-114595000D02*
X103655000Y-114595000D01*
G75*
G02*
X103805000Y-114745000I0J-150000D01*
G01*
X103805000Y-116395000D01*
G75*
G02*
X103655000Y-116545000I-150000J0D01*
G01*
X103355000Y-116545000D01*
G75*
G02*
X103205000Y-116395000I0J150000D01*
G01*
X103205000Y-114745000D01*
G75*
G02*
X103355000Y-114595000I150000J0D01*
G01*
G37*
%TD.AperFunction*%
%TD*%
%TO.P,U2,14*%
%TO.N,+5V*%
%TA.AperFunction,SMDPad,CuDef*%
G36*
G01*
X103355000Y-126025000D02*
X103655000Y-126025000D01*
G75*
G02*
X103805000Y-126175000I0J-150000D01*
G01*
X103805000Y-127825000D01*
G75*
G02*
X103655000Y-127975000I-150000J0D01*
G01*
X103355000Y-127975000D01*
G75*
G02*
X103205000Y-127825000I0J150000D01*
G01*
X103205000Y-126175000D01*
G75*
G02*
X103355000Y-126025000I150000J0D01*
G01*
G37*
%TD.AperFunction*%
%TO.P,U2,13*%
%TO.N,N/C*%
%TA.AperFunction,SMDPad,CuDef*%
G36*
G01*
X104625000Y-126025000D02*
X104925000Y-126025000D01*
G75*
G02*
X105075000Y-126175000I0J-150000D01*
G01*
X105075000Y-127825000D01*
G75*
G02*
X104925000Y-127975000I-150000J0D01*
G01*
X104625000Y-127975000D01*
G75*
G02*
X104475000Y-127825000I0J150000D01*
G01*
X104475000Y-126175000D01*
G75*
G02*
X104625000Y-126025000I150000J0D01*
G01*
G37*
%TD.AperFunction*%
%TO.P,U2,12*%
%TA.AperFunction,SMDPad,CuDef*%
G36*
G01*
X105895000Y-126025000D02*
X106195000Y-126025000D01*
G75*
G02*
X106345000Y-126175000I0J-150000D01*
G01*
X106345000Y-127825000D01*
G75*
G02*
X106195000Y-127975000I-150000J0D01*
G01*
X105895000Y-127975000D01*
G75*
G02*
X105745000Y-127825000I0J150000D01*
G01*
X105745000Y-126175000D01*
G75*
G02*
X105895000Y-126025000I150000J0D01*
G01*
G37*
%TD.AperFunction*%
%TO.P,U2,11*%
%TA.AperFunction,SMDPad,CuDef*%
G36*
G01*
X107165000Y-126025000D02*
X107465000Y-126025000D01*
G75*
G02*
X107615000Y-126175000I0J-150000D01*
G01*
X107615000Y-127825000D01*
G75*
G02*
X107465000Y-127975000I-150000J0D01*
G01*
X107165000Y-127975000D01*
G75*
G02*
X107015000Y-127825000I0J150000D01*
G01*
X107015000Y-126175000D01*
G75*
G02*
X107165000Y-126025000I150000J0D01*
G01*
G37*
%TD.AperFunction*%
%TO.P,U2,10*%
%TO.N,/~MOSI*%
%TA.AperFunction,SMDPad,CuDef*%
G36*
G01*
X108435000Y-126025000D02*
X108735000Y-126025000D01*
G75*
G02*
X108885000Y-126175000I0J-150000D01*
G01*
X108885000Y-127825000D01*
G75*
G02*
X108735000Y-127975000I-150000J0D01*
G01*
X108435000Y-127975000D01*
G75*
G02*
X108285000Y-127825000I0J150000D01*
G01*
X108285000Y-126175000D01*
G75*
G02*
X108435000Y-126025000I150000J0D01*
G01*
G37*
%TD.AperFunction*%
%TO.P,U2,9*%
%TO.N,/MOSI*%
%TA.AperFunction,SMDPad,CuDef*%
G36*
G01*
X109705000Y-126025000D02*
X110005000Y-126025000D01*
G75*
G02*
X110155000Y-126175000I0J-150000D01*
G01*
X110155000Y-127825000D01*
G75*
G02*
X110005000Y-127975000I-150000J0D01*
G01*
X109705000Y-127975000D01*
G75*
G02*
X109555000Y-127825000I0J150000D01*
G01*
X109555000Y-126175000D01*
G75*
G02*
X109705000Y-126025000I150000J0D01*
G01*
G37*
%TD.AperFunction*%
%TO.P,U2,8*%
%TA.AperFunction,SMDPad,CuDef*%
G36*
G01*
X110975000Y-126025000D02*
X111275000Y-126025000D01*
G75*
G02*
X111425000Y-126175000I0J-150000D01*
G01*
X111425000Y-127825000D01*
G75*
G02*
X111275000Y-127975000I-150000J0D01*
G01*
X110975000Y-127975000D01*
G75*
G02*
X110825000Y-127825000I0J150000D01*
G01*
X110825000Y-126175000D01*
G75*
G02*
X110975000Y-126025000I150000J0D01*
G01*
G37*
%TD.AperFunction*%
%TO.P,U2,7*%
%TO.N,GND*%
%TA.AperFunction,SMDPad,CuDef*%
G36*
G01*
X110975000Y-121075000D02*
X111275000Y-121075000D01*
G75*
G02*
X111425000Y-121225000I0J-150000D01*
G01*
X111425000Y-122875000D01*
G75*
G02*
X111275000Y-123025000I-150000J0D01*
G01*
X110975000Y-123025000D01*
G75*
G02*
X110825000Y-122875000I0J150000D01*
G01*
X110825000Y-121225000D01*
G75*
G02*
X110975000Y-121075000I150000J0D01*
G01*
G37*
%TD.AperFunction*%
%TO.P,U2,6*%
%TO.N,/CLK&MOSI*%
%TA.AperFunction,SMDPad,CuDef*%
G36*
G01*
X109705000Y-121075000D02*
X110005000Y-121075000D01*
G75*
G02*
X110155000Y-121225000I0J-150000D01*
G01*
X110155000Y-122875000D01*
G75*
G02*
X110005000Y-123025000I-150000J0D01*
G01*
X109705000Y-123025000D01*
G75*
G02*
X109555000Y-122875000I0J150000D01*
G01*
X109555000Y-121225000D01*
G75*
G02*
X109705000Y-121075000I150000J0D01*
G01*
G37*
%TD.AperFunction*%
%TO.P,U2,5*%
%TO.N,/CLK&~MOSI~&PWM*%
%TA.AperFunction,SMDPad,CuDef*%
G36*
G01*
X108435000Y-121075000D02*
X108735000Y-121075000D01*
G75*
G02*
X108885000Y-121225000I0J-150000D01*
G01*
X108885000Y-122875000D01*
G75*
G02*
X108735000Y-123025000I-150000J0D01*
G01*
X108435000Y-123025000D01*
G75*
G02*
X108285000Y-122875000I0J150000D01*
G01*
X108285000Y-121225000D01*
G75*
G02*
X108435000Y-121075000I150000J0D01*
G01*
G37*
%TD.AperFunction*%
%TO.P,U2,4*%
%TO.N,Net-(U2-Pad2)*%
%TA.AperFunction,SMDPad,CuDef*%
G36*
G01*
X107165000Y-121075000D02*
X107465000Y-121075000D01*
G75*
G02*
X107615000Y-121225000I0J-150000D01*
G01*
X107615000Y-122875000D01*
G75*
G02*
X107465000Y-123025000I-150000J0D01*
G01*
X107165000Y-123025000D01*
G75*
G02*
X107015000Y-122875000I0J150000D01*
G01*
X107015000Y-121225000D01*
G75*
G02*
X107165000Y-121075000I150000J0D01*
G01*
G37*
%TD.AperFunction*%
%TO.P,U2,3*%
%TA.AperFunction,SMDPad,CuDef*%
G36*
G01*
X105895000Y-121075000D02*
X106195000Y-121075000D01*
G75*
G02*
X106345000Y-121225000I0J-150000D01*
G01*
X106345000Y-122875000D01*
G75*
G02*
X106195000Y-123025000I-150000J0D01*
G01*
X105895000Y-123025000D01*
G75*
G02*
X105745000Y-122875000I0J150000D01*
G01*
X105745000Y-121225000D01*
G75*
G02*
X105895000Y-121075000I150000J0D01*
G01*
G37*
%TD.AperFunction*%
%TO.P,U2,2*%
%TA.AperFunction,SMDPad,CuDef*%
G36*
G01*
X104625000Y-121075000D02*
X104925000Y-121075000D01*
G75*
G02*
X105075000Y-121225000I0J-150000D01*
G01*
X105075000Y-122875000D01*
G75*
G02*
X104925000Y-123025000I-150000J0D01*
G01*
X104625000Y-123025000D01*
G75*
G02*
X104475000Y-122875000I0J150000D01*
G01*
X104475000Y-121225000D01*
G75*
G02*
X104625000Y-121075000I150000J0D01*
G01*
G37*
%TD.AperFunction*%
%TO.P,U2,1*%
%TO.N,/(CLK&~MOSI~&PWM)||(CLK&MOSI)*%
%TA.AperFunction,SMDPad,CuDef*%
G36*
G01*
X103355000Y-121075000D02*
X103655000Y-121075000D01*
G75*
G02*
X103805000Y-121225000I0J-150000D01*
G01*
X103805000Y-122875000D01*
G75*
G02*
X103655000Y-123025000I-150000J0D01*
G01*
X103355000Y-123025000D01*
G75*
G02*
X103205000Y-122875000I0J150000D01*
G01*
X103205000Y-121225000D01*
G75*
G02*
X103355000Y-121075000I150000J0D01*
G01*
G37*
%TD.AperFunction*%
%TD*%
D30*
%TO.P,U3,2*%
%TO.N,/3.3V*%
X87376000Y-87782000D03*
D31*
X87376000Y-94082000D03*
%TO.P,U3,3*%
%TO.N,Net-(C8-Pad1)*%
X85076000Y-94082000D03*
%TO.P,U3,1*%
%TO.N,Net-(C11-Pad1)*%
X89676000Y-94082000D03*
%TD*%
D32*
%TO.N,GND*%
X113030000Y-118745000D03*
X113030000Y-110490000D03*
D33*
X102870000Y-124206000D03*
X100330000Y-131445000D03*
X128524000Y-111506000D03*
%TO.N,/PWM*%
X100838000Y-108966000D03*
X103124000Y-106680000D03*
X109220000Y-106680000D03*
D32*
%TO.N,/MOSI*%
X114935000Y-114300000D03*
%TO.N,+5V*%
X102870000Y-81280000D03*
X100965000Y-115570000D03*
X100965000Y-124460000D03*
D33*
X92075000Y-101473000D03*
%TO.N,/3.3V*%
X94488000Y-78994000D03*
X98425000Y-78740000D03*
%TO.N,VCC*%
X97790000Y-110236000D03*
X80518000Y-115062000D03*
%TO.N,Net-(R9-Pad1)*%
X83318000Y-115062000D03*
%TD*%
D34*
%TO.N,/TX*%
X87045799Y-75869799D02*
X85598000Y-74422000D01*
X95580201Y-75869799D02*
X87045799Y-75869799D01*
X96520000Y-74930000D02*
X95580201Y-75869799D01*
%TO.N,/RX*%
X86106000Y-77470000D02*
X83058000Y-74422000D01*
X96520000Y-77470000D02*
X86106000Y-77470000D01*
D35*
%TO.N,GND*%
X76200000Y-113150000D02*
X80360000Y-108990000D01*
X81280000Y-129540000D02*
X80010000Y-129540000D01*
X80010000Y-129540000D02*
X76200000Y-125730000D01*
X76200000Y-125730000D02*
X76200000Y-113150000D01*
D36*
X89630000Y-117790000D02*
X93030000Y-117790000D01*
X93980000Y-116840000D02*
X93980000Y-115570000D01*
X93030000Y-117790000D02*
X93980000Y-116840000D01*
D37*
X90170000Y-132339080D02*
X82809080Y-132339080D01*
X82809080Y-132339080D02*
X81280000Y-130810000D01*
X81280000Y-130810000D02*
X81280000Y-129540000D01*
X105410000Y-78610460D02*
X102999540Y-78610460D01*
X99060000Y-82550000D02*
X96520000Y-82550000D01*
X102999540Y-78610460D02*
X99060000Y-82550000D01*
D34*
X127635000Y-108714540D02*
X126870460Y-108714540D01*
X125650000Y-109935000D02*
X124460000Y-109935000D01*
X126870460Y-108714540D02*
X125650000Y-109935000D01*
D37*
X94615000Y-119375000D02*
X93030000Y-117790000D01*
X92710000Y-131445000D02*
X92710000Y-127000000D01*
X92710000Y-127000000D02*
X94615000Y-125095000D01*
X94615000Y-125095000D02*
X94615000Y-119375000D01*
X91815920Y-132339080D02*
X92710000Y-131445000D01*
X90170000Y-132339080D02*
X91815920Y-132339080D01*
X94615000Y-131445000D02*
X92710000Y-131445000D01*
X94615000Y-131445000D02*
X100330000Y-131445000D01*
X100330000Y-131445000D02*
X100965000Y-130810000D01*
X100965000Y-130810000D02*
X100965000Y-129799080D01*
D34*
X111125000Y-122050000D02*
X112265000Y-122050000D01*
X112265000Y-122050000D02*
X113030000Y-121285000D01*
X113030000Y-121285000D02*
X113030000Y-118745000D01*
X112900000Y-110620000D02*
X113030000Y-110490000D01*
X111125000Y-110620000D02*
X112900000Y-110620000D01*
X113585000Y-109935000D02*
X113030000Y-110490000D01*
X124460000Y-109935000D02*
X113585000Y-109935000D01*
D38*
X74676000Y-103306000D02*
X80360000Y-108990000D01*
D37*
X81352000Y-109982000D02*
X80360000Y-108990000D01*
D34*
X101346000Y-84836000D02*
X99060000Y-82550000D01*
X106405680Y-84836000D02*
X101346000Y-84836000D01*
X100483463Y-123456799D02*
X99060000Y-124880262D01*
X102120799Y-123456799D02*
X100483463Y-123456799D01*
X102870000Y-124206000D02*
X102120799Y-123456799D01*
X99060000Y-124880262D02*
X99060000Y-129286000D01*
X99573080Y-129799080D02*
X100965000Y-129799080D01*
X99060000Y-129286000D02*
X99573080Y-129799080D01*
D36*
X94508320Y-84455000D02*
X94508320Y-83545680D01*
X95504000Y-82550000D02*
X96520000Y-82550000D01*
X94508320Y-83545680D02*
X95504000Y-82550000D01*
D38*
X74168000Y-102798000D02*
X74676000Y-103306000D01*
X74168000Y-100584000D02*
X74168000Y-102798000D01*
D39*
X71628000Y-98044000D02*
X74168000Y-100584000D01*
X71628000Y-87884000D02*
X71628000Y-98044000D01*
X72724000Y-86788000D02*
X71628000Y-87884000D01*
X73914000Y-86788000D02*
X72724000Y-86788000D01*
D34*
X127635000Y-110617000D02*
X128524000Y-111506000D01*
X127635000Y-108714540D02*
X127635000Y-110617000D01*
D36*
X106550460Y-77470000D02*
X105410000Y-78610460D01*
X111760000Y-77470000D02*
X106550460Y-77470000D01*
X76635000Y-86788000D02*
X81381000Y-82042000D01*
X73914000Y-86788000D02*
X76635000Y-86788000D01*
D34*
X93674000Y-82244000D02*
X94508320Y-83078320D01*
X94508320Y-83078320D02*
X94508320Y-83545680D01*
X90932000Y-82244000D02*
X93674000Y-82244000D01*
X94508320Y-84455000D02*
X94508320Y-85831680D01*
X93472000Y-86868000D02*
X93472000Y-90932000D01*
X94508320Y-85831680D02*
X93472000Y-86868000D01*
X81381000Y-82042000D02*
X83465000Y-82042000D01*
X81788000Y-85344000D02*
X81788000Y-88138000D01*
X83465000Y-83667000D02*
X81788000Y-85344000D01*
X83465000Y-82042000D02*
X83465000Y-83667000D01*
X81381000Y-78581920D02*
X80777080Y-77978000D01*
X81381000Y-82042000D02*
X81381000Y-78581920D01*
X80518000Y-77718920D02*
X80777080Y-77978000D01*
X80518000Y-74422000D02*
X80518000Y-77718920D01*
%TO.N,/PWM*%
X100838000Y-108966000D02*
X103124000Y-106680000D01*
X109855000Y-107315000D02*
X109220000Y-106680000D01*
X109855000Y-110620000D02*
X109855000Y-107315000D01*
%TO.N,/~SS*%
X111760000Y-102870000D02*
X113030000Y-102870000D01*
X113030000Y-102870000D02*
X115570000Y-105410000D01*
X115570000Y-105410000D02*
X124460000Y-105410000D01*
X125095000Y-104775000D02*
X125095000Y-102870000D01*
X124460000Y-105410000D02*
X125095000Y-104775000D01*
X104775000Y-110620000D02*
X104775000Y-107950000D01*
X104775000Y-107950000D02*
X109855000Y-102870000D01*
X109855000Y-102870000D02*
X111760000Y-102870000D01*
D40*
%TO.N,/MOSI*%
X109855000Y-127000000D02*
X111125000Y-127000000D01*
D34*
X111760000Y-100330000D02*
X113030000Y-100330000D01*
X113030000Y-100330000D02*
X114935000Y-102235000D01*
X114935000Y-102235000D02*
X114935000Y-103505000D01*
X114935000Y-103505000D02*
X116205000Y-104775000D01*
X116205000Y-104775000D02*
X121920000Y-104775000D01*
X122555000Y-104140000D02*
X122555000Y-102870000D01*
X121920000Y-104775000D02*
X122555000Y-104140000D01*
X111125000Y-115570000D02*
X113665000Y-115570000D01*
X113665000Y-115570000D02*
X114935000Y-114300000D01*
X111125000Y-127000000D02*
X114300000Y-127000000D01*
X114935000Y-126365000D02*
X114935000Y-114300000D01*
X114300000Y-127000000D02*
X114935000Y-126365000D01*
%TO.N,/MISO*%
X116205000Y-100330000D02*
X120015000Y-100330000D01*
X113665000Y-97790000D02*
X116205000Y-100330000D01*
X111760000Y-97790000D02*
X113665000Y-97790000D01*
%TO.N,/SCK*%
X111760000Y-95250000D02*
X113030000Y-95250000D01*
X113030000Y-95250000D02*
X116205000Y-98425000D01*
X116205000Y-98425000D02*
X121920000Y-98425000D01*
X122555000Y-99060000D02*
X122555000Y-100330000D01*
X121920000Y-98425000D02*
X122555000Y-99060000D01*
X103505000Y-110620000D02*
X103505000Y-107823000D01*
X103505000Y-107823000D02*
X109474000Y-101854000D01*
X109474000Y-97536000D02*
X111760000Y-95250000D01*
X109474000Y-101854000D02*
X109474000Y-97536000D01*
D36*
%TO.N,/RLYCTL*%
X96266000Y-100076000D02*
X96520000Y-100330000D01*
D34*
X98298000Y-100838000D02*
X97790000Y-100330000D01*
X98298000Y-107696000D02*
X98298000Y-100838000D01*
X97790000Y-100330000D02*
X96520000Y-100330000D01*
X93980000Y-112014000D02*
X98298000Y-107696000D01*
X93980000Y-113030000D02*
X93980000Y-112014000D01*
%TO.N,/nRFCE*%
X113665000Y-90170000D02*
X111760000Y-90170000D01*
X114300000Y-90805000D02*
X113665000Y-90170000D01*
X116840000Y-96520000D02*
X114300000Y-93980000D01*
X123190000Y-96520000D02*
X116840000Y-96520000D01*
X114300000Y-93980000D02*
X114300000Y-90805000D01*
X125095000Y-98425000D02*
X123190000Y-96520000D01*
X125095000Y-100330000D02*
X125095000Y-98425000D01*
D36*
%TO.N,/~RST*%
X120650000Y-80010000D02*
X126238000Y-85598000D01*
X111760000Y-80010000D02*
X120650000Y-80010000D01*
D37*
%TO.N,+5V*%
X102870000Y-81280000D02*
X105280460Y-81280000D01*
D41*
X103505000Y-115570000D02*
X100965000Y-115570000D01*
D34*
X103505000Y-127000000D02*
X100965000Y-127000000D01*
X100965000Y-127000000D02*
X100965000Y-124460000D01*
D37*
X85632000Y-98298000D02*
X85664000Y-98266000D01*
X85577680Y-98352320D02*
X85664000Y-98266000D01*
X85577680Y-100076000D02*
X85577680Y-98352320D01*
X85577680Y-100076000D02*
X85577680Y-101579680D01*
X85577680Y-101579680D02*
X86106000Y-102108000D01*
X86106000Y-102108000D02*
X91440000Y-102108000D01*
X91440000Y-102108000D02*
X92075000Y-101473000D01*
X75885000Y-84288000D02*
X73914000Y-84288000D01*
X78131000Y-82042000D02*
X75885000Y-84288000D01*
D36*
X105440460Y-81440000D02*
X105410000Y-81409540D01*
X106550460Y-82550000D02*
X105410000Y-81409540D01*
X111760000Y-82550000D02*
X106550460Y-82550000D01*
D37*
X85323680Y-99822000D02*
X85577680Y-100076000D01*
X83058000Y-99822000D02*
X85323680Y-99822000D01*
D36*
X111760000Y-82550000D02*
X113538000Y-82550000D01*
X121666000Y-90678000D02*
X123698000Y-90678000D01*
X113538000Y-82550000D02*
X121666000Y-90678000D01*
X88138000Y-74422000D02*
X88138000Y-73152000D01*
X79824591Y-72977399D02*
X78131000Y-74670990D01*
X87963399Y-72977399D02*
X79824591Y-72977399D01*
X88138000Y-73152000D02*
X87963399Y-72977399D01*
X78131000Y-77825000D02*
X77978000Y-77978000D01*
X78131000Y-74670990D02*
X78131000Y-77825000D01*
X78131000Y-78131000D02*
X77978000Y-77978000D01*
X78131000Y-82042000D02*
X78131000Y-78131000D01*
D37*
%TO.N,Net-(C7-Pad2)*%
X90170000Y-129540000D02*
X90170000Y-127899160D01*
%TO.N,Net-(D1-Pad2)*%
X88410000Y-121240000D02*
X85280000Y-118110000D01*
X92410000Y-121240000D02*
X88410000Y-121240000D01*
D36*
X86550000Y-116840000D02*
X85280000Y-118110000D01*
X87630000Y-116840000D02*
X86550000Y-116840000D01*
D34*
X86126320Y-116416320D02*
X86550000Y-116840000D01*
X86126320Y-115062000D02*
X86126320Y-116416320D01*
D35*
%TO.N,Net-(K1-Pad1)*%
X86360000Y-129540000D02*
X86360000Y-123190000D01*
D37*
X90170000Y-126100840D02*
X90170000Y-125730000D01*
X90170000Y-125730000D02*
X87630000Y-123190000D01*
X87630000Y-123190000D02*
X86360000Y-123190000D01*
D34*
%TO.N,/(CLK&~MOSI~&PWM)||(CLK&MOSI)*%
X94721680Y-129540000D02*
X94615000Y-129646680D01*
D37*
X95483680Y-128778000D02*
X94615000Y-129646680D01*
X97028000Y-128778000D02*
X95483680Y-128778000D01*
X97028000Y-128778000D02*
X97028000Y-124968000D01*
X99946000Y-122050000D02*
X100835000Y-122050000D01*
X97028000Y-124968000D02*
X99946000Y-122050000D01*
D36*
X103505000Y-122050000D02*
X100835000Y-122050000D01*
D34*
%TO.N,Net-(C11-Pad1)*%
X91704160Y-84455000D02*
X91069160Y-85090000D01*
X92710000Y-84455000D02*
X91704160Y-84455000D01*
D37*
X93372000Y-94082000D02*
X93472000Y-94182000D01*
X89676000Y-94082000D02*
X93372000Y-94082000D01*
D34*
X91069160Y-85090000D02*
X91069160Y-90540840D01*
X89676000Y-91934000D02*
X89676000Y-94082000D01*
X91069160Y-90540840D02*
X89676000Y-91934000D01*
D41*
%TO.N,/~MOSI~&PWM*%
X104775000Y-114300000D02*
X104775000Y-115570000D01*
X107315000Y-111760000D02*
X104775000Y-114300000D01*
X107315000Y-110620000D02*
X107315000Y-111760000D01*
%TO.N,/CLK*%
X106045000Y-114300000D02*
X106045000Y-115570000D01*
X106680000Y-113665000D02*
X106045000Y-114300000D01*
X109220000Y-113665000D02*
X106680000Y-113665000D01*
X109855000Y-114300000D02*
X109220000Y-113665000D01*
X109855000Y-115570000D02*
X109855000Y-114300000D01*
X106045000Y-117475000D02*
X106045000Y-115570000D01*
X105410000Y-118110000D02*
X106045000Y-117475000D01*
X100965000Y-118110000D02*
X105410000Y-118110000D01*
X99695000Y-116840000D02*
X100965000Y-118110000D01*
X99695000Y-114300000D02*
X99695000Y-116840000D01*
X100965000Y-113030000D02*
X99695000Y-114300000D01*
X104696092Y-113030000D02*
X100965000Y-113030000D01*
X106045000Y-111681092D02*
X104696092Y-113030000D01*
X106045000Y-110620000D02*
X106045000Y-111681092D01*
D40*
%TO.N,/CLK&~MOSI~&PWM*%
X107315000Y-119805000D02*
X107315000Y-115570000D01*
X108585000Y-121075000D02*
X107315000Y-119805000D01*
X108585000Y-122050000D02*
X108585000Y-121075000D01*
%TO.N,/CLK&MOSI*%
X108585000Y-119805000D02*
X108585000Y-115570000D01*
X109855000Y-121075000D02*
X108585000Y-119805000D01*
X109855000Y-122050000D02*
X109855000Y-121075000D01*
%TO.N,/~MOSI*%
X108585000Y-110996768D02*
X108585000Y-110620000D01*
X108585000Y-127000000D02*
X108585000Y-126025000D01*
X108585000Y-124966768D02*
X108585000Y-127000000D01*
X109091768Y-124460000D02*
X108585000Y-124966768D01*
X109855000Y-124460000D02*
X109091768Y-124460000D01*
X110499990Y-123815010D02*
X109855000Y-124460000D01*
X110499990Y-113674990D02*
X110499990Y-123815010D01*
X108585000Y-111760000D02*
X110499990Y-113674990D01*
X108585000Y-110620000D02*
X108585000Y-111760000D01*
%TO.N,Net-(U2-Pad2)*%
X107315000Y-122050000D02*
X106045000Y-122050000D01*
X104775000Y-122050000D02*
X106045000Y-122050000D01*
D36*
%TO.N,Net-(Q2-Pad1)*%
X89950000Y-115570000D02*
X89630000Y-115890000D01*
X92181680Y-115570000D02*
X89950000Y-115570000D01*
X92181680Y-113030000D02*
X92181680Y-115570000D01*
D34*
%TO.N,/3.3V*%
X127635000Y-105915460D02*
X127635000Y-102870000D01*
X128905000Y-102870000D02*
X127635000Y-102870000D01*
X113665000Y-73660000D02*
X113665000Y-74295000D01*
X113030000Y-73025000D02*
X113665000Y-73660000D01*
X129540000Y-102235000D02*
X128905000Y-102870000D01*
X109855000Y-73025000D02*
X113030000Y-73025000D01*
X106680000Y-76200000D02*
X109855000Y-73025000D01*
X129540000Y-82727262D02*
X129540000Y-102235000D01*
X100965000Y-76200000D02*
X106680000Y-76200000D01*
X113665000Y-74295000D02*
X115062000Y-75692000D01*
X122504738Y-75692000D02*
X129540000Y-82727262D01*
X115062000Y-75692000D02*
X122504738Y-75692000D01*
D36*
X90932000Y-78994000D02*
X89154000Y-78994000D01*
X89154000Y-78994000D02*
X88392000Y-79756000D01*
X88392000Y-84211160D02*
X89270840Y-85090000D01*
X88392000Y-79756000D02*
X88392000Y-84211160D01*
X90932000Y-78994000D02*
X94488000Y-78994000D01*
D42*
X94742000Y-78740000D02*
X98425000Y-78740000D01*
D34*
X98425000Y-78740000D02*
X100965000Y-76200000D01*
D37*
X87376000Y-94082000D02*
X87376000Y-87782000D01*
X89270840Y-85887160D02*
X87376000Y-87782000D01*
X89270840Y-85090000D02*
X89270840Y-85887160D01*
%TO.N,VCC*%
X80410000Y-118980000D02*
X81280000Y-118110000D01*
X80410000Y-121240000D02*
X80410000Y-118980000D01*
D34*
X81280000Y-118110000D02*
X81280000Y-117856000D01*
D37*
X80518000Y-117348000D02*
X81280000Y-118110000D01*
X80518000Y-115062000D02*
X80518000Y-117348000D01*
X80518000Y-113030000D02*
X81723841Y-111824159D01*
X80518000Y-115062000D02*
X80518000Y-113030000D01*
D35*
X87196000Y-109040000D02*
X92410000Y-109040000D01*
X78994000Y-100838000D02*
X87196000Y-109040000D01*
X78994000Y-97700680D02*
X78994000Y-100838000D01*
D37*
X84411841Y-111824159D02*
X87196000Y-109040000D01*
X81723841Y-111824159D02*
X84411841Y-111824159D01*
D35*
X77895660Y-96602340D02*
X78994000Y-97700680D01*
D34*
X99314000Y-108712000D02*
X97790000Y-110236000D01*
X97790000Y-110236000D02*
X97790000Y-110236000D01*
X102898590Y-91645090D02*
X102898590Y-105127410D01*
X102898590Y-105127410D02*
X99314000Y-108712000D01*
X106405680Y-88138000D02*
X102898590Y-91645090D01*
D35*
X76797320Y-95504000D02*
X77895660Y-96602340D01*
X74168000Y-95504000D02*
X76797320Y-95504000D01*
D38*
X74168000Y-95504000D02*
X74168000Y-93726000D01*
D39*
X74168000Y-91247000D02*
X74229000Y-91186000D01*
X74168000Y-93726000D02*
X74168000Y-91247000D01*
D34*
%TO.N,Net-(R9-Pad1)*%
X84328000Y-115062000D02*
X83318000Y-115062000D01*
%TO.N,/Vsup*%
X98806000Y-94013698D02*
X106205698Y-86614000D01*
X106205698Y-86614000D02*
X108204000Y-86614000D01*
X108204000Y-86614000D02*
X108204000Y-88138000D01*
X108204000Y-84836000D02*
X108204000Y-86614000D01*
X98806000Y-95504000D02*
X96520000Y-97790000D01*
X98806000Y-94013698D02*
X98806000Y-95504000D01*
D36*
X111252000Y-88138000D02*
X111760000Y-87630000D01*
X108204000Y-88138000D02*
X111252000Y-88138000D01*
%TO.N,/V33CTL*%
X95250000Y-102870000D02*
X96520000Y-102870000D01*
X92456000Y-100076000D02*
X95250000Y-102870000D01*
X90698320Y-100076000D02*
X92456000Y-100076000D01*
D37*
%TO.N,Net-(C8-Pad1)*%
X85076000Y-94082000D02*
X85076000Y-95490000D01*
X85852000Y-96266000D02*
X86614000Y-96266000D01*
X85076000Y-95490000D02*
X85852000Y-96266000D01*
X84074000Y-93080000D02*
X85076000Y-94082000D01*
X84836000Y-85598000D02*
X84074000Y-86360000D01*
X85598000Y-85598000D02*
X84836000Y-85598000D01*
X84074000Y-86360000D02*
X84074000Y-93080000D01*
X86715000Y-84481000D02*
X85598000Y-85598000D01*
X86715000Y-82042000D02*
X86715000Y-84481000D01*
%TO.N,Net-(Q4-Pad1)*%
X88900000Y-100076000D02*
X87376000Y-100076000D01*
X87564000Y-99888000D02*
X87376000Y-100076000D01*
X87564000Y-98266000D02*
X87564000Y-99888000D01*
%TO.N,Net-(D2-Pad1)*%
X81131000Y-93638000D02*
X78679000Y-91186000D01*
X81788000Y-93638000D02*
X81131000Y-93638000D01*
X81788000Y-95752000D02*
X83058000Y-97022000D01*
X81788000Y-93638000D02*
X81788000Y-95752000D01*
%TD*%
D42*
%TO.N,GND*%
X129257442Y-70772024D02*
X128772024Y-71257442D01*
X128390633Y-71828234D01*
X128127927Y-72462463D01*
X127994000Y-73135758D01*
X127994000Y-73822242D01*
X128127927Y-74495537D01*
X128390633Y-75129766D01*
X128772024Y-75700558D01*
X129257442Y-76185976D01*
X129828234Y-76567367D01*
X130462463Y-76830073D01*
X131135758Y-76964000D01*
X131822242Y-76964000D01*
X132495537Y-76830073D01*
X133129766Y-76567367D01*
X133700558Y-76185976D01*
X134185976Y-75700558D01*
X134340001Y-75470043D01*
X134340000Y-129487955D01*
X134185976Y-129257442D01*
X133700558Y-128772024D01*
X133129766Y-128390633D01*
X132495537Y-128127927D01*
X131822242Y-127994000D01*
X131135758Y-127994000D01*
X130462463Y-128127927D01*
X129828234Y-128390633D01*
X129257442Y-128772024D01*
X128772024Y-129257442D01*
X128390633Y-129828234D01*
X128127927Y-130462463D01*
X127994000Y-131135758D01*
X127994000Y-131822242D01*
X128127927Y-132495537D01*
X128390633Y-133129766D01*
X128772024Y-133700558D01*
X129257442Y-134185976D01*
X129487955Y-134340000D01*
X113411000Y-134340000D01*
X113411000Y-127838200D01*
X114258837Y-127838200D01*
X114300000Y-127842254D01*
X114341163Y-127838200D01*
X114341170Y-127838200D01*
X114464316Y-127826071D01*
X114622317Y-127778142D01*
X114767932Y-127700309D01*
X114895564Y-127595564D01*
X114921811Y-127563583D01*
X115498588Y-126986806D01*
X115530564Y-126960564D01*
X115635309Y-126832932D01*
X115713142Y-126687317D01*
X115761071Y-126529316D01*
X115773200Y-126406170D01*
X115773200Y-126406163D01*
X115777254Y-126365000D01*
X115773200Y-126323837D01*
X115773200Y-115208354D01*
X115894287Y-115087267D01*
X116029443Y-114884992D01*
X116122540Y-114660236D01*
X116170000Y-114421637D01*
X116170000Y-114178363D01*
X116122540Y-113939764D01*
X116029443Y-113715008D01*
X115894287Y-113512733D01*
X115722267Y-113340713D01*
X115519992Y-113205557D01*
X115295236Y-113112460D01*
X115056637Y-113065000D01*
X114813363Y-113065000D01*
X114574764Y-113112460D01*
X114350008Y-113205557D01*
X114147733Y-113340713D01*
X113975713Y-113512733D01*
X113840557Y-113715008D01*
X113747460Y-113939764D01*
X113700000Y-114178363D01*
X113700000Y-114349607D01*
X113411000Y-114638607D01*
X113411000Y-109513370D01*
X126097768Y-109513370D01*
X126110028Y-109637852D01*
X126146338Y-109757550D01*
X126205303Y-109867864D01*
X126284655Y-109964555D01*
X126381346Y-110043907D01*
X126491660Y-110102872D01*
X126611358Y-110139182D01*
X126735840Y-110151442D01*
X127349250Y-110148370D01*
X127508000Y-109989620D01*
X127508000Y-108841540D01*
X127762000Y-108841540D01*
X127762000Y-109989620D01*
X127920750Y-110148370D01*
X128534160Y-110151442D01*
X128658642Y-110139182D01*
X128778340Y-110102872D01*
X128888654Y-110043907D01*
X128985345Y-109964555D01*
X129064697Y-109867864D01*
X129123662Y-109757550D01*
X129159972Y-109637852D01*
X129172232Y-109513370D01*
X129169160Y-109000290D01*
X129010410Y-108841540D01*
X127762000Y-108841540D01*
X127508000Y-108841540D01*
X126259590Y-108841540D01*
X126100840Y-109000290D01*
X126097768Y-109513370D01*
X113411000Y-109513370D01*
X113411000Y-104436394D01*
X114948194Y-105973588D01*
X114974436Y-106005564D01*
X115102068Y-106110309D01*
X115247683Y-106188142D01*
X115405684Y-106236071D01*
X115528830Y-106248200D01*
X115528839Y-106248200D01*
X115569999Y-106252254D01*
X115611159Y-106248200D01*
X124418837Y-106248200D01*
X124460000Y-106252254D01*
X124501163Y-106248200D01*
X124501170Y-106248200D01*
X124624316Y-106236071D01*
X124782317Y-106188142D01*
X124927932Y-106110309D01*
X125055564Y-106005564D01*
X125081811Y-105973583D01*
X125658588Y-105396806D01*
X125690564Y-105370564D01*
X125795309Y-105242932D01*
X125873142Y-105097317D01*
X125921071Y-104939316D01*
X125933200Y-104816170D01*
X125933200Y-104816163D01*
X125937254Y-104775000D01*
X125933200Y-104733837D01*
X125933200Y-103990089D01*
X125985535Y-103955120D01*
X126180120Y-103760535D01*
X126333005Y-103531727D01*
X126365000Y-103454485D01*
X126396995Y-103531727D01*
X126549880Y-103760535D01*
X126744465Y-103955120D01*
X126796801Y-103990090D01*
X126796800Y-104478558D01*
X126735840Y-104478558D01*
X126611358Y-104490818D01*
X126491660Y-104527128D01*
X126381346Y-104586093D01*
X126284655Y-104665445D01*
X126205303Y-104762136D01*
X126146338Y-104872450D01*
X126110028Y-104992148D01*
X126097768Y-105116630D01*
X126097768Y-106714290D01*
X126110028Y-106838772D01*
X126146338Y-106958470D01*
X126205303Y-107068784D01*
X126284655Y-107165475D01*
X126381346Y-107244827D01*
X126491660Y-107303792D01*
X126528608Y-107315000D01*
X126491660Y-107326208D01*
X126381346Y-107385173D01*
X126284655Y-107464525D01*
X126205303Y-107561216D01*
X126146338Y-107671530D01*
X126110028Y-107791228D01*
X126097768Y-107915710D01*
X126100840Y-108428790D01*
X126259590Y-108587540D01*
X127508000Y-108587540D01*
X127508000Y-108567540D01*
X127762000Y-108567540D01*
X127762000Y-108587540D01*
X129010410Y-108587540D01*
X129169160Y-108428790D01*
X129172232Y-107915710D01*
X129159972Y-107791228D01*
X129123662Y-107671530D01*
X129064697Y-107561216D01*
X128985345Y-107464525D01*
X128888654Y-107385173D01*
X128778340Y-107326208D01*
X128741392Y-107315000D01*
X128778340Y-107303792D01*
X128888654Y-107244827D01*
X128985345Y-107165475D01*
X129064697Y-107068784D01*
X129123662Y-106958470D01*
X129159972Y-106838772D01*
X129172232Y-106714290D01*
X129172232Y-105116630D01*
X129159972Y-104992148D01*
X129123662Y-104872450D01*
X129064697Y-104762136D01*
X128985345Y-104665445D01*
X128888654Y-104586093D01*
X128778340Y-104527128D01*
X128658642Y-104490818D01*
X128534160Y-104478558D01*
X128473200Y-104478558D01*
X128473200Y-103990089D01*
X128525535Y-103955120D01*
X128720120Y-103760535D01*
X128755089Y-103708200D01*
X128863837Y-103708200D01*
X128905000Y-103712254D01*
X128946163Y-103708200D01*
X128946170Y-103708200D01*
X129069316Y-103696071D01*
X129227317Y-103648142D01*
X129372932Y-103570309D01*
X129500564Y-103465564D01*
X129526811Y-103433583D01*
X130103587Y-102856807D01*
X130135564Y-102830564D01*
X130240309Y-102702932D01*
X130318142Y-102557317D01*
X130366071Y-102399316D01*
X130378200Y-102276170D01*
X130378200Y-102276163D01*
X130382254Y-102235000D01*
X130378200Y-102193837D01*
X130378200Y-82768425D01*
X130382254Y-82727262D01*
X130378200Y-82686099D01*
X130378200Y-82686092D01*
X130366071Y-82562946D01*
X130318142Y-82404945D01*
X130240309Y-82259330D01*
X130135564Y-82131698D01*
X130103589Y-82105457D01*
X123171989Y-75173858D01*
X123263945Y-75098392D01*
X123274498Y-75133180D01*
X123333463Y-75243494D01*
X123412815Y-75340185D01*
X123509506Y-75419537D01*
X123619820Y-75478502D01*
X123739518Y-75514812D01*
X123864000Y-75527072D01*
X124428250Y-75524000D01*
X124587000Y-75365250D01*
X124587000Y-74041000D01*
X124841000Y-74041000D01*
X124841000Y-75365250D01*
X124999750Y-75524000D01*
X125564000Y-75527072D01*
X125688482Y-75514812D01*
X125808180Y-75478502D01*
X125918494Y-75419537D01*
X126015185Y-75340185D01*
X126094537Y-75243494D01*
X126153502Y-75133180D01*
X126189812Y-75013482D01*
X126202072Y-74889000D01*
X126199000Y-74199750D01*
X126040250Y-74041000D01*
X124841000Y-74041000D01*
X124587000Y-74041000D01*
X124567000Y-74041000D01*
X124567000Y-73787000D01*
X124587000Y-73787000D01*
X124587000Y-72462750D01*
X124841000Y-72462750D01*
X124841000Y-73787000D01*
X126040250Y-73787000D01*
X126199000Y-73628250D01*
X126202072Y-72939000D01*
X126189812Y-72814518D01*
X126153502Y-72694820D01*
X126094537Y-72584506D01*
X126015185Y-72487815D01*
X125918494Y-72408463D01*
X125808180Y-72349498D01*
X125688482Y-72313188D01*
X125564000Y-72300928D01*
X124999750Y-72304000D01*
X124841000Y-72462750D01*
X124587000Y-72462750D01*
X124428250Y-72304000D01*
X123864000Y-72300928D01*
X123739518Y-72313188D01*
X123619820Y-72349498D01*
X123509506Y-72408463D01*
X123412815Y-72487815D01*
X123333463Y-72584506D01*
X123274498Y-72694820D01*
X123263945Y-72729608D01*
X123043014Y-72548294D01*
X122785034Y-72410401D01*
X122505111Y-72325487D01*
X122214000Y-72296815D01*
X121922890Y-72325487D01*
X121642967Y-72410401D01*
X121384987Y-72548294D01*
X121158866Y-72733866D01*
X120973294Y-72959986D01*
X120964000Y-72977374D01*
X120954706Y-72959986D01*
X120769134Y-72733866D01*
X120543014Y-72548294D01*
X120285034Y-72410401D01*
X120005111Y-72325487D01*
X119714000Y-72296815D01*
X119422890Y-72325487D01*
X119142967Y-72410401D01*
X118884987Y-72548294D01*
X118658866Y-72733866D01*
X118473294Y-72959986D01*
X118464000Y-72977374D01*
X118454706Y-72959986D01*
X118269134Y-72733866D01*
X118043014Y-72548294D01*
X117785034Y-72410401D01*
X117505111Y-72325487D01*
X117214000Y-72296815D01*
X116922890Y-72325487D01*
X116642967Y-72410401D01*
X116384987Y-72548294D01*
X116158866Y-72733866D01*
X115973294Y-72959986D01*
X115835401Y-73217966D01*
X115750487Y-73497889D01*
X115729000Y-73716050D01*
X115729000Y-74111949D01*
X115750487Y-74330110D01*
X115835401Y-74610033D01*
X115965697Y-74853800D01*
X115409194Y-74853800D01*
X114503200Y-73947807D01*
X114503200Y-73701163D01*
X114507254Y-73660000D01*
X114503200Y-73618837D01*
X114503200Y-73618830D01*
X114491071Y-73495684D01*
X114443142Y-73337683D01*
X114365309Y-73192068D01*
X114260564Y-73064436D01*
X114228588Y-73038194D01*
X113651811Y-72461417D01*
X113625564Y-72429436D01*
X113497932Y-72324691D01*
X113411000Y-72278225D01*
X113411000Y-70660000D01*
X129425098Y-70660000D01*
X129257442Y-70772024D01*
%TA.AperFunction,Conductor*%
D43*
G36*
X129257442Y-70772024D02*
G01*
X128772024Y-71257442D01*
X128390633Y-71828234D01*
X128127927Y-72462463D01*
X127994000Y-73135758D01*
X127994000Y-73822242D01*
X128127927Y-74495537D01*
X128390633Y-75129766D01*
X128772024Y-75700558D01*
X129257442Y-76185976D01*
X129828234Y-76567367D01*
X130462463Y-76830073D01*
X131135758Y-76964000D01*
X131822242Y-76964000D01*
X132495537Y-76830073D01*
X133129766Y-76567367D01*
X133700558Y-76185976D01*
X134185976Y-75700558D01*
X134340001Y-75470043D01*
X134340000Y-129487955D01*
X134185976Y-129257442D01*
X133700558Y-128772024D01*
X133129766Y-128390633D01*
X132495537Y-128127927D01*
X131822242Y-127994000D01*
X131135758Y-127994000D01*
X130462463Y-128127927D01*
X129828234Y-128390633D01*
X129257442Y-128772024D01*
X128772024Y-129257442D01*
X128390633Y-129828234D01*
X128127927Y-130462463D01*
X127994000Y-131135758D01*
X127994000Y-131822242D01*
X128127927Y-132495537D01*
X128390633Y-133129766D01*
X128772024Y-133700558D01*
X129257442Y-134185976D01*
X129487955Y-134340000D01*
X113411000Y-134340000D01*
X113411000Y-127838200D01*
X114258837Y-127838200D01*
X114300000Y-127842254D01*
X114341163Y-127838200D01*
X114341170Y-127838200D01*
X114464316Y-127826071D01*
X114622317Y-127778142D01*
X114767932Y-127700309D01*
X114895564Y-127595564D01*
X114921811Y-127563583D01*
X115498588Y-126986806D01*
X115530564Y-126960564D01*
X115635309Y-126832932D01*
X115713142Y-126687317D01*
X115761071Y-126529316D01*
X115773200Y-126406170D01*
X115773200Y-126406163D01*
X115777254Y-126365000D01*
X115773200Y-126323837D01*
X115773200Y-115208354D01*
X115894287Y-115087267D01*
X116029443Y-114884992D01*
X116122540Y-114660236D01*
X116170000Y-114421637D01*
X116170000Y-114178363D01*
X116122540Y-113939764D01*
X116029443Y-113715008D01*
X115894287Y-113512733D01*
X115722267Y-113340713D01*
X115519992Y-113205557D01*
X115295236Y-113112460D01*
X115056637Y-113065000D01*
X114813363Y-113065000D01*
X114574764Y-113112460D01*
X114350008Y-113205557D01*
X114147733Y-113340713D01*
X113975713Y-113512733D01*
X113840557Y-113715008D01*
X113747460Y-113939764D01*
X113700000Y-114178363D01*
X113700000Y-114349607D01*
X113411000Y-114638607D01*
X113411000Y-109513370D01*
X126097768Y-109513370D01*
X126110028Y-109637852D01*
X126146338Y-109757550D01*
X126205303Y-109867864D01*
X126284655Y-109964555D01*
X126381346Y-110043907D01*
X126491660Y-110102872D01*
X126611358Y-110139182D01*
X126735840Y-110151442D01*
X127349250Y-110148370D01*
X127508000Y-109989620D01*
X127508000Y-108841540D01*
X127762000Y-108841540D01*
X127762000Y-109989620D01*
X127920750Y-110148370D01*
X128534160Y-110151442D01*
X128658642Y-110139182D01*
X128778340Y-110102872D01*
X128888654Y-110043907D01*
X128985345Y-109964555D01*
X129064697Y-109867864D01*
X129123662Y-109757550D01*
X129159972Y-109637852D01*
X129172232Y-109513370D01*
X129169160Y-109000290D01*
X129010410Y-108841540D01*
X127762000Y-108841540D01*
X127508000Y-108841540D01*
X126259590Y-108841540D01*
X126100840Y-109000290D01*
X126097768Y-109513370D01*
X113411000Y-109513370D01*
X113411000Y-104436394D01*
X114948194Y-105973588D01*
X114974436Y-106005564D01*
X115102068Y-106110309D01*
X115247683Y-106188142D01*
X115405684Y-106236071D01*
X115528830Y-106248200D01*
X115528839Y-106248200D01*
X115569999Y-106252254D01*
X115611159Y-106248200D01*
X124418837Y-106248200D01*
X124460000Y-106252254D01*
X124501163Y-106248200D01*
X124501170Y-106248200D01*
X124624316Y-106236071D01*
X124782317Y-106188142D01*
X124927932Y-106110309D01*
X125055564Y-106005564D01*
X125081811Y-105973583D01*
X125658588Y-105396806D01*
X125690564Y-105370564D01*
X125795309Y-105242932D01*
X125873142Y-105097317D01*
X125921071Y-104939316D01*
X125933200Y-104816170D01*
X125933200Y-104816163D01*
X125937254Y-104775000D01*
X125933200Y-104733837D01*
X125933200Y-103990089D01*
X125985535Y-103955120D01*
X126180120Y-103760535D01*
X126333005Y-103531727D01*
X126365000Y-103454485D01*
X126396995Y-103531727D01*
X126549880Y-103760535D01*
X126744465Y-103955120D01*
X126796801Y-103990090D01*
X126796800Y-104478558D01*
X126735840Y-104478558D01*
X126611358Y-104490818D01*
X126491660Y-104527128D01*
X126381346Y-104586093D01*
X126284655Y-104665445D01*
X126205303Y-104762136D01*
X126146338Y-104872450D01*
X126110028Y-104992148D01*
X126097768Y-105116630D01*
X126097768Y-106714290D01*
X126110028Y-106838772D01*
X126146338Y-106958470D01*
X126205303Y-107068784D01*
X126284655Y-107165475D01*
X126381346Y-107244827D01*
X126491660Y-107303792D01*
X126528608Y-107315000D01*
X126491660Y-107326208D01*
X126381346Y-107385173D01*
X126284655Y-107464525D01*
X126205303Y-107561216D01*
X126146338Y-107671530D01*
X126110028Y-107791228D01*
X126097768Y-107915710D01*
X126100840Y-108428790D01*
X126259590Y-108587540D01*
X127508000Y-108587540D01*
X127508000Y-108567540D01*
X127762000Y-108567540D01*
X127762000Y-108587540D01*
X129010410Y-108587540D01*
X129169160Y-108428790D01*
X129172232Y-107915710D01*
X129159972Y-107791228D01*
X129123662Y-107671530D01*
X129064697Y-107561216D01*
X128985345Y-107464525D01*
X128888654Y-107385173D01*
X128778340Y-107326208D01*
X128741392Y-107315000D01*
X128778340Y-107303792D01*
X128888654Y-107244827D01*
X128985345Y-107165475D01*
X129064697Y-107068784D01*
X129123662Y-106958470D01*
X129159972Y-106838772D01*
X129172232Y-106714290D01*
X129172232Y-105116630D01*
X129159972Y-104992148D01*
X129123662Y-104872450D01*
X129064697Y-104762136D01*
X128985345Y-104665445D01*
X128888654Y-104586093D01*
X128778340Y-104527128D01*
X128658642Y-104490818D01*
X128534160Y-104478558D01*
X128473200Y-104478558D01*
X128473200Y-103990089D01*
X128525535Y-103955120D01*
X128720120Y-103760535D01*
X128755089Y-103708200D01*
X128863837Y-103708200D01*
X128905000Y-103712254D01*
X128946163Y-103708200D01*
X128946170Y-103708200D01*
X129069316Y-103696071D01*
X129227317Y-103648142D01*
X129372932Y-103570309D01*
X129500564Y-103465564D01*
X129526811Y-103433583D01*
X130103587Y-102856807D01*
X130135564Y-102830564D01*
X130240309Y-102702932D01*
X130318142Y-102557317D01*
X130366071Y-102399316D01*
X130378200Y-102276170D01*
X130378200Y-102276163D01*
X130382254Y-102235000D01*
X130378200Y-102193837D01*
X130378200Y-82768425D01*
X130382254Y-82727262D01*
X130378200Y-82686099D01*
X130378200Y-82686092D01*
X130366071Y-82562946D01*
X130318142Y-82404945D01*
X130240309Y-82259330D01*
X130135564Y-82131698D01*
X130103589Y-82105457D01*
X123171989Y-75173858D01*
X123263945Y-75098392D01*
X123274498Y-75133180D01*
X123333463Y-75243494D01*
X123412815Y-75340185D01*
X123509506Y-75419537D01*
X123619820Y-75478502D01*
X123739518Y-75514812D01*
X123864000Y-75527072D01*
X124428250Y-75524000D01*
X124587000Y-75365250D01*
X124587000Y-74041000D01*
X124841000Y-74041000D01*
X124841000Y-75365250D01*
X124999750Y-75524000D01*
X125564000Y-75527072D01*
X125688482Y-75514812D01*
X125808180Y-75478502D01*
X125918494Y-75419537D01*
X126015185Y-75340185D01*
X126094537Y-75243494D01*
X126153502Y-75133180D01*
X126189812Y-75013482D01*
X126202072Y-74889000D01*
X126199000Y-74199750D01*
X126040250Y-74041000D01*
X124841000Y-74041000D01*
X124587000Y-74041000D01*
X124567000Y-74041000D01*
X124567000Y-73787000D01*
X124587000Y-73787000D01*
X124587000Y-72462750D01*
X124841000Y-72462750D01*
X124841000Y-73787000D01*
X126040250Y-73787000D01*
X126199000Y-73628250D01*
X126202072Y-72939000D01*
X126189812Y-72814518D01*
X126153502Y-72694820D01*
X126094537Y-72584506D01*
X126015185Y-72487815D01*
X125918494Y-72408463D01*
X125808180Y-72349498D01*
X125688482Y-72313188D01*
X125564000Y-72300928D01*
X124999750Y-72304000D01*
X124841000Y-72462750D01*
X124587000Y-72462750D01*
X124428250Y-72304000D01*
X123864000Y-72300928D01*
X123739518Y-72313188D01*
X123619820Y-72349498D01*
X123509506Y-72408463D01*
X123412815Y-72487815D01*
X123333463Y-72584506D01*
X123274498Y-72694820D01*
X123263945Y-72729608D01*
X123043014Y-72548294D01*
X122785034Y-72410401D01*
X122505111Y-72325487D01*
X122214000Y-72296815D01*
X121922890Y-72325487D01*
X121642967Y-72410401D01*
X121384987Y-72548294D01*
X121158866Y-72733866D01*
X120973294Y-72959986D01*
X120964000Y-72977374D01*
X120954706Y-72959986D01*
X120769134Y-72733866D01*
X120543014Y-72548294D01*
X120285034Y-72410401D01*
X120005111Y-72325487D01*
X119714000Y-72296815D01*
X119422890Y-72325487D01*
X119142967Y-72410401D01*
X118884987Y-72548294D01*
X118658866Y-72733866D01*
X118473294Y-72959986D01*
X118464000Y-72977374D01*
X118454706Y-72959986D01*
X118269134Y-72733866D01*
X118043014Y-72548294D01*
X117785034Y-72410401D01*
X117505111Y-72325487D01*
X117214000Y-72296815D01*
X116922890Y-72325487D01*
X116642967Y-72410401D01*
X116384987Y-72548294D01*
X116158866Y-72733866D01*
X115973294Y-72959986D01*
X115835401Y-73217966D01*
X115750487Y-73497889D01*
X115729000Y-73716050D01*
X115729000Y-74111949D01*
X115750487Y-74330110D01*
X115835401Y-74610033D01*
X115965697Y-74853800D01*
X115409194Y-74853800D01*
X114503200Y-73947807D01*
X114503200Y-73701163D01*
X114507254Y-73660000D01*
X114503200Y-73618837D01*
X114503200Y-73618830D01*
X114491071Y-73495684D01*
X114443142Y-73337683D01*
X114365309Y-73192068D01*
X114260564Y-73064436D01*
X114228588Y-73038194D01*
X113651811Y-72461417D01*
X113625564Y-72429436D01*
X113497932Y-72324691D01*
X113411000Y-72278225D01*
X113411000Y-70660000D01*
X129425098Y-70660000D01*
X129257442Y-70772024D01*
G37*
%TD.AperFunction*%
D42*
X114440191Y-76255585D02*
X114466436Y-76287564D01*
X114594068Y-76392309D01*
X114739683Y-76470142D01*
X114897684Y-76518071D01*
X115020830Y-76530200D01*
X115020839Y-76530200D01*
X115061999Y-76534254D01*
X115103159Y-76530200D01*
X122157545Y-76530200D01*
X128701800Y-83074456D01*
X128701801Y-99010901D01*
X128641180Y-98978498D01*
X128521482Y-98942188D01*
X128397000Y-98929928D01*
X127920750Y-98933000D01*
X127762000Y-99091750D01*
X127762000Y-100203000D01*
X127782000Y-100203000D01*
X127782000Y-100457000D01*
X127762000Y-100457000D01*
X127762000Y-100477000D01*
X127508000Y-100477000D01*
X127508000Y-100457000D01*
X127488000Y-100457000D01*
X127488000Y-100203000D01*
X127508000Y-100203000D01*
X127508000Y-99091750D01*
X127349250Y-98933000D01*
X126873000Y-98929928D01*
X126748518Y-98942188D01*
X126628820Y-98978498D01*
X126518506Y-99037463D01*
X126421815Y-99116815D01*
X126342463Y-99213506D01*
X126283498Y-99323820D01*
X126247188Y-99443518D01*
X126238920Y-99527465D01*
X126180120Y-99439465D01*
X125985535Y-99244880D01*
X125933200Y-99209911D01*
X125933200Y-98466163D01*
X125937254Y-98425000D01*
X125933200Y-98383837D01*
X125933200Y-98383830D01*
X125921071Y-98260684D01*
X125873142Y-98102683D01*
X125795309Y-97957068D01*
X125690564Y-97829436D01*
X125658586Y-97803192D01*
X123811811Y-95956418D01*
X123785564Y-95924436D01*
X123657932Y-95819691D01*
X123512317Y-95741858D01*
X123354316Y-95693929D01*
X123231170Y-95681800D01*
X123231163Y-95681800D01*
X123190000Y-95677746D01*
X123148837Y-95681800D01*
X117187194Y-95681800D01*
X115138200Y-93632807D01*
X115138200Y-90846163D01*
X115142254Y-90805000D01*
X115138200Y-90763837D01*
X115138200Y-90763830D01*
X115126071Y-90640684D01*
X115078142Y-90482683D01*
X115000309Y-90337068D01*
X114895564Y-90209436D01*
X114863587Y-90183193D01*
X114286811Y-89606417D01*
X114260564Y-89574436D01*
X114132932Y-89469691D01*
X113987317Y-89391858D01*
X113829316Y-89343929D01*
X113706170Y-89331800D01*
X113706163Y-89331800D01*
X113665000Y-89327746D01*
X113623837Y-89331800D01*
X113411000Y-89331800D01*
X113411000Y-83752076D01*
X120968818Y-91309896D01*
X120998246Y-91345754D01*
X121034104Y-91375182D01*
X121034106Y-91375184D01*
X121141348Y-91463196D01*
X121304614Y-91550463D01*
X121481767Y-91604202D01*
X121619833Y-91617800D01*
X121619843Y-91617800D01*
X121666000Y-91622346D01*
X121712157Y-91617800D01*
X122539960Y-91617800D01*
X122544525Y-91624632D01*
X122751368Y-91831475D01*
X122994589Y-91993990D01*
X123264842Y-92105932D01*
X123551740Y-92163000D01*
X123844260Y-92163000D01*
X124131158Y-92105932D01*
X124401411Y-91993990D01*
X124644632Y-91831475D01*
X124831715Y-91644392D01*
X124899595Y-91771386D01*
X125010038Y-91905962D01*
X125144614Y-92016405D01*
X125298150Y-92098472D01*
X125464746Y-92149008D01*
X125638000Y-92166072D01*
X126838000Y-92166072D01*
X127011254Y-92149008D01*
X127177850Y-92098472D01*
X127331386Y-92016405D01*
X127465962Y-91905962D01*
X127576405Y-91771386D01*
X127658472Y-91617850D01*
X127709008Y-91451254D01*
X127726072Y-91278000D01*
X127726072Y-90078000D01*
X127709008Y-89904746D01*
X127658472Y-89738150D01*
X127576405Y-89584614D01*
X127465962Y-89450038D01*
X127331386Y-89339595D01*
X127204392Y-89271715D01*
X127391475Y-89084632D01*
X127553990Y-88841411D01*
X127665932Y-88571158D01*
X127723000Y-88284260D01*
X127723000Y-87991740D01*
X127665932Y-87704842D01*
X127553990Y-87434589D01*
X127391475Y-87191368D01*
X127184632Y-86984525D01*
X127010240Y-86868000D01*
X127184632Y-86751475D01*
X127391475Y-86544632D01*
X127553990Y-86301411D01*
X127665932Y-86031158D01*
X127723000Y-85744260D01*
X127723000Y-85451740D01*
X127665932Y-85164842D01*
X127553990Y-84894589D01*
X127391475Y-84651368D01*
X127184632Y-84444525D01*
X126941411Y-84282010D01*
X126671158Y-84170068D01*
X126384260Y-84113000D01*
X126091740Y-84113000D01*
X126083681Y-84114603D01*
X121347191Y-79378115D01*
X121317754Y-79342246D01*
X121174651Y-79224804D01*
X121011386Y-79137537D01*
X120834233Y-79083798D01*
X120696167Y-79070200D01*
X120696157Y-79070200D01*
X120650000Y-79065654D01*
X120603843Y-79070200D01*
X113411000Y-79070200D01*
X113411000Y-75226393D01*
X114440191Y-76255585D01*
%TA.AperFunction,Conductor*%
D43*
G36*
X114440191Y-76255585D02*
G01*
X114466436Y-76287564D01*
X114594068Y-76392309D01*
X114739683Y-76470142D01*
X114897684Y-76518071D01*
X115020830Y-76530200D01*
X115020839Y-76530200D01*
X115061999Y-76534254D01*
X115103159Y-76530200D01*
X122157545Y-76530200D01*
X128701800Y-83074456D01*
X128701801Y-99010901D01*
X128641180Y-98978498D01*
X128521482Y-98942188D01*
X128397000Y-98929928D01*
X127920750Y-98933000D01*
X127762000Y-99091750D01*
X127762000Y-100203000D01*
X127782000Y-100203000D01*
X127782000Y-100457000D01*
X127762000Y-100457000D01*
X127762000Y-100477000D01*
X127508000Y-100477000D01*
X127508000Y-100457000D01*
X127488000Y-100457000D01*
X127488000Y-100203000D01*
X127508000Y-100203000D01*
X127508000Y-99091750D01*
X127349250Y-98933000D01*
X126873000Y-98929928D01*
X126748518Y-98942188D01*
X126628820Y-98978498D01*
X126518506Y-99037463D01*
X126421815Y-99116815D01*
X126342463Y-99213506D01*
X126283498Y-99323820D01*
X126247188Y-99443518D01*
X126238920Y-99527465D01*
X126180120Y-99439465D01*
X125985535Y-99244880D01*
X125933200Y-99209911D01*
X125933200Y-98466163D01*
X125937254Y-98425000D01*
X125933200Y-98383837D01*
X125933200Y-98383830D01*
X125921071Y-98260684D01*
X125873142Y-98102683D01*
X125795309Y-97957068D01*
X125690564Y-97829436D01*
X125658586Y-97803192D01*
X123811811Y-95956418D01*
X123785564Y-95924436D01*
X123657932Y-95819691D01*
X123512317Y-95741858D01*
X123354316Y-95693929D01*
X123231170Y-95681800D01*
X123231163Y-95681800D01*
X123190000Y-95677746D01*
X123148837Y-95681800D01*
X117187194Y-95681800D01*
X115138200Y-93632807D01*
X115138200Y-90846163D01*
X115142254Y-90805000D01*
X115138200Y-90763837D01*
X115138200Y-90763830D01*
X115126071Y-90640684D01*
X115078142Y-90482683D01*
X115000309Y-90337068D01*
X114895564Y-90209436D01*
X114863587Y-90183193D01*
X114286811Y-89606417D01*
X114260564Y-89574436D01*
X114132932Y-89469691D01*
X113987317Y-89391858D01*
X113829316Y-89343929D01*
X113706170Y-89331800D01*
X113706163Y-89331800D01*
X113665000Y-89327746D01*
X113623837Y-89331800D01*
X113411000Y-89331800D01*
X113411000Y-83752076D01*
X120968818Y-91309896D01*
X120998246Y-91345754D01*
X121034104Y-91375182D01*
X121034106Y-91375184D01*
X121141348Y-91463196D01*
X121304614Y-91550463D01*
X121481767Y-91604202D01*
X121619833Y-91617800D01*
X121619843Y-91617800D01*
X121666000Y-91622346D01*
X121712157Y-91617800D01*
X122539960Y-91617800D01*
X122544525Y-91624632D01*
X122751368Y-91831475D01*
X122994589Y-91993990D01*
X123264842Y-92105932D01*
X123551740Y-92163000D01*
X123844260Y-92163000D01*
X124131158Y-92105932D01*
X124401411Y-91993990D01*
X124644632Y-91831475D01*
X124831715Y-91644392D01*
X124899595Y-91771386D01*
X125010038Y-91905962D01*
X125144614Y-92016405D01*
X125298150Y-92098472D01*
X125464746Y-92149008D01*
X125638000Y-92166072D01*
X126838000Y-92166072D01*
X127011254Y-92149008D01*
X127177850Y-92098472D01*
X127331386Y-92016405D01*
X127465962Y-91905962D01*
X127576405Y-91771386D01*
X127658472Y-91617850D01*
X127709008Y-91451254D01*
X127726072Y-91278000D01*
X127726072Y-90078000D01*
X127709008Y-89904746D01*
X127658472Y-89738150D01*
X127576405Y-89584614D01*
X127465962Y-89450038D01*
X127331386Y-89339595D01*
X127204392Y-89271715D01*
X127391475Y-89084632D01*
X127553990Y-88841411D01*
X127665932Y-88571158D01*
X127723000Y-88284260D01*
X127723000Y-87991740D01*
X127665932Y-87704842D01*
X127553990Y-87434589D01*
X127391475Y-87191368D01*
X127184632Y-86984525D01*
X127010240Y-86868000D01*
X127184632Y-86751475D01*
X127391475Y-86544632D01*
X127553990Y-86301411D01*
X127665932Y-86031158D01*
X127723000Y-85744260D01*
X127723000Y-85451740D01*
X127665932Y-85164842D01*
X127553990Y-84894589D01*
X127391475Y-84651368D01*
X127184632Y-84444525D01*
X126941411Y-84282010D01*
X126671158Y-84170068D01*
X126384260Y-84113000D01*
X126091740Y-84113000D01*
X126083681Y-84114603D01*
X121347191Y-79378115D01*
X121317754Y-79342246D01*
X121174651Y-79224804D01*
X121011386Y-79137537D01*
X120834233Y-79083798D01*
X120696167Y-79070200D01*
X120696157Y-79070200D01*
X120650000Y-79065654D01*
X120603843Y-79070200D01*
X113411000Y-79070200D01*
X113411000Y-75226393D01*
X114440191Y-76255585D01*
G37*
%TD.AperFunction*%
D42*
X123445072Y-84134150D02*
X123339981Y-84149401D01*
X123064253Y-84247081D01*
X122926843Y-84320528D01*
X122849208Y-84569603D01*
X123698000Y-85418395D01*
X123712143Y-85404253D01*
X123891748Y-85583858D01*
X123877605Y-85598000D01*
X124726397Y-86446792D01*
X124968689Y-86371271D01*
X125084525Y-86544632D01*
X125291368Y-86751475D01*
X125465760Y-86868000D01*
X125291368Y-86984525D01*
X125084525Y-87191368D01*
X124968000Y-87365760D01*
X124851475Y-87191368D01*
X124644632Y-86984525D01*
X124471271Y-86868689D01*
X124546792Y-86626397D01*
X123698000Y-85777605D01*
X122849208Y-86626397D01*
X122924729Y-86868689D01*
X122751368Y-86984525D01*
X122544525Y-87191368D01*
X122382010Y-87434589D01*
X122270068Y-87704842D01*
X122213000Y-87991740D01*
X122213000Y-88284260D01*
X122270068Y-88571158D01*
X122382010Y-88841411D01*
X122544525Y-89084632D01*
X122751368Y-89291475D01*
X122925760Y-89408000D01*
X122751368Y-89524525D01*
X122544525Y-89731368D01*
X122539960Y-89738200D01*
X122055278Y-89738200D01*
X117983608Y-85666531D01*
X122207389Y-85666531D01*
X122249401Y-85956019D01*
X122347081Y-86231747D01*
X122420528Y-86369157D01*
X122669603Y-86446792D01*
X123518395Y-85598000D01*
X122669603Y-84749208D01*
X122420528Y-84826843D01*
X122294629Y-85090883D01*
X122222661Y-85374411D01*
X122207389Y-85666531D01*
X117983608Y-85666531D01*
X114235191Y-81918115D01*
X114205754Y-81882246D01*
X114062651Y-81764804D01*
X113899386Y-81677537D01*
X113722233Y-81623798D01*
X113584167Y-81610200D01*
X113584157Y-81610200D01*
X113538000Y-81605654D01*
X113491843Y-81610200D01*
X113411000Y-81610200D01*
X113411000Y-80949800D01*
X120260724Y-80949800D01*
X123445072Y-84134150D01*
%TA.AperFunction,Conductor*%
D43*
G36*
X123445072Y-84134150D02*
G01*
X123339981Y-84149401D01*
X123064253Y-84247081D01*
X122926843Y-84320528D01*
X122849208Y-84569603D01*
X123698000Y-85418395D01*
X123712143Y-85404253D01*
X123891748Y-85583858D01*
X123877605Y-85598000D01*
X124726397Y-86446792D01*
X124968689Y-86371271D01*
X125084525Y-86544632D01*
X125291368Y-86751475D01*
X125465760Y-86868000D01*
X125291368Y-86984525D01*
X125084525Y-87191368D01*
X124968000Y-87365760D01*
X124851475Y-87191368D01*
X124644632Y-86984525D01*
X124471271Y-86868689D01*
X124546792Y-86626397D01*
X123698000Y-85777605D01*
X122849208Y-86626397D01*
X122924729Y-86868689D01*
X122751368Y-86984525D01*
X122544525Y-87191368D01*
X122382010Y-87434589D01*
X122270068Y-87704842D01*
X122213000Y-87991740D01*
X122213000Y-88284260D01*
X122270068Y-88571158D01*
X122382010Y-88841411D01*
X122544525Y-89084632D01*
X122751368Y-89291475D01*
X122925760Y-89408000D01*
X122751368Y-89524525D01*
X122544525Y-89731368D01*
X122539960Y-89738200D01*
X122055278Y-89738200D01*
X117983608Y-85666531D01*
X122207389Y-85666531D01*
X122249401Y-85956019D01*
X122347081Y-86231747D01*
X122420528Y-86369157D01*
X122669603Y-86446792D01*
X123518395Y-85598000D01*
X122669603Y-84749208D01*
X122420528Y-84826843D01*
X122294629Y-85090883D01*
X122222661Y-85374411D01*
X122207389Y-85666531D01*
X117983608Y-85666531D01*
X114235191Y-81918115D01*
X114205754Y-81882246D01*
X114062651Y-81764804D01*
X113899386Y-81677537D01*
X113722233Y-81623798D01*
X113584167Y-81610200D01*
X113584157Y-81610200D01*
X113538000Y-81605654D01*
X113491843Y-81610200D01*
X113411000Y-81610200D01*
X113411000Y-80949800D01*
X120260724Y-80949800D01*
X123445072Y-84134150D01*
G37*
%TD.AperFunction*%
%TD*%
D42*
%TO.N,GND*%
X110536773Y-73926123D02*
X110364430Y-74184052D01*
X110245718Y-74470648D01*
X110185200Y-74774896D01*
X110185200Y-75085104D01*
X110245718Y-75389352D01*
X110364430Y-75675948D01*
X110536773Y-75933877D01*
X110756123Y-76153227D01*
X110892714Y-76244495D01*
X110847129Y-76377524D01*
X111760000Y-77290395D01*
X112672871Y-76377524D01*
X112627286Y-76244495D01*
X112763877Y-76153227D01*
X112903000Y-76014104D01*
X112903000Y-76574442D01*
X112852476Y-76557129D01*
X111939605Y-77470000D01*
X112852476Y-78382871D01*
X112903000Y-78365558D01*
X112903000Y-78925896D01*
X112763877Y-78786773D01*
X112627286Y-78695505D01*
X112672871Y-78562476D01*
X111760000Y-77649605D01*
X110847129Y-78562476D01*
X110892714Y-78695505D01*
X110756123Y-78786773D01*
X110536773Y-79006123D01*
X110364430Y-79264052D01*
X110245718Y-79550648D01*
X110185200Y-79854896D01*
X110185200Y-80165104D01*
X110245718Y-80469352D01*
X110364430Y-80755948D01*
X110536773Y-81013877D01*
X110756123Y-81233227D01*
X110826124Y-81280000D01*
X110756123Y-81326773D01*
X110536773Y-81546123D01*
X110493958Y-81610200D01*
X106947232Y-81610200D01*
X106947232Y-80610710D01*
X106934972Y-80486228D01*
X106898662Y-80366530D01*
X106839697Y-80256216D01*
X106760345Y-80159525D01*
X106663654Y-80080173D01*
X106553340Y-80021208D01*
X106516392Y-80010000D01*
X106553340Y-79998792D01*
X106663654Y-79939827D01*
X106760345Y-79860475D01*
X106839697Y-79763784D01*
X106898662Y-79653470D01*
X106934972Y-79533772D01*
X106947232Y-79409290D01*
X106944160Y-78896210D01*
X106785410Y-78737460D01*
X105537000Y-78737460D01*
X105537000Y-78757460D01*
X105283000Y-78757460D01*
X105283000Y-78737460D01*
X104034590Y-78737460D01*
X103875840Y-78896210D01*
X103872768Y-79409290D01*
X103885028Y-79533772D01*
X103921338Y-79653470D01*
X103980303Y-79763784D01*
X104059655Y-79860475D01*
X104156346Y-79939827D01*
X104266660Y-79998792D01*
X104303608Y-80010000D01*
X104266660Y-80021208D01*
X104156346Y-80080173D01*
X104059655Y-80159525D01*
X103994760Y-80238600D01*
X103534376Y-80238600D01*
X103454992Y-80185557D01*
X103230236Y-80092460D01*
X102991637Y-80045000D01*
X102748363Y-80045000D01*
X102509764Y-80092460D01*
X102285008Y-80185557D01*
X102082733Y-80320713D01*
X101910713Y-80492733D01*
X101775557Y-80695008D01*
X101682460Y-80919764D01*
X101635000Y-81158363D01*
X101635000Y-81401637D01*
X101682460Y-81640236D01*
X101775557Y-81864992D01*
X101910713Y-82067267D01*
X102082733Y-82239287D01*
X102285008Y-82374443D01*
X102509764Y-82467540D01*
X102748363Y-82515000D01*
X102991637Y-82515000D01*
X103230236Y-82467540D01*
X103454992Y-82374443D01*
X103534376Y-82321400D01*
X103883900Y-82321400D01*
X103885028Y-82332852D01*
X103921338Y-82452550D01*
X103980303Y-82562864D01*
X104059655Y-82659555D01*
X104156346Y-82738907D01*
X104266660Y-82797872D01*
X104386358Y-82834182D01*
X104510840Y-82846442D01*
X105517825Y-82846442D01*
X105853273Y-83181890D01*
X105882706Y-83217754D01*
X105965654Y-83285828D01*
X106025808Y-83335196D01*
X106099111Y-83374377D01*
X106189074Y-83422463D01*
X106366227Y-83476202D01*
X106504293Y-83489800D01*
X106504303Y-83489800D01*
X106550460Y-83494346D01*
X106596617Y-83489800D01*
X110493958Y-83489800D01*
X110536773Y-83553877D01*
X110756123Y-83773227D01*
X110826124Y-83820000D01*
X110756123Y-83866773D01*
X110536773Y-84086123D01*
X110364430Y-84344052D01*
X110245718Y-84630648D01*
X110185200Y-84934896D01*
X110185200Y-85245104D01*
X110245718Y-85549352D01*
X110364430Y-85835948D01*
X110536773Y-86093877D01*
X110756123Y-86313227D01*
X110826124Y-86360000D01*
X110756123Y-86406773D01*
X110536773Y-86626123D01*
X110364430Y-86884052D01*
X110245718Y-87170648D01*
X110240238Y-87198200D01*
X109140872Y-87198200D01*
X109133317Y-87184066D01*
X109053965Y-87087375D01*
X109042200Y-87077720D01*
X109042200Y-86655170D01*
X109046255Y-86614000D01*
X109042200Y-86572830D01*
X109042200Y-85896280D01*
X109053965Y-85886625D01*
X109133317Y-85789934D01*
X109192282Y-85679620D01*
X109228592Y-85559922D01*
X109240852Y-85435440D01*
X109240852Y-84236560D01*
X109228592Y-84112078D01*
X109192282Y-83992380D01*
X109133317Y-83882066D01*
X109053965Y-83785375D01*
X108957274Y-83706023D01*
X108846960Y-83647058D01*
X108727262Y-83610748D01*
X108602780Y-83598488D01*
X107805220Y-83598488D01*
X107680738Y-83610748D01*
X107561040Y-83647058D01*
X107450726Y-83706023D01*
X107354035Y-83785375D01*
X107304840Y-83845319D01*
X107255645Y-83785375D01*
X107158954Y-83706023D01*
X107048640Y-83647058D01*
X106928942Y-83610748D01*
X106804460Y-83598488D01*
X106691430Y-83601560D01*
X106532680Y-83760310D01*
X106532680Y-84709000D01*
X106552680Y-84709000D01*
X106552680Y-84963000D01*
X106532680Y-84963000D01*
X106532680Y-84983000D01*
X106278680Y-84983000D01*
X106278680Y-84963000D01*
X105530650Y-84963000D01*
X105371900Y-85121750D01*
X105368828Y-85435440D01*
X105381088Y-85559922D01*
X105417398Y-85679620D01*
X105476363Y-85789934D01*
X105555715Y-85886625D01*
X105652406Y-85965977D01*
X105665516Y-85972985D01*
X105610134Y-86018436D01*
X105583892Y-86050412D01*
X98242418Y-93391887D01*
X98210436Y-93418134D01*
X98105691Y-93545767D01*
X98027858Y-93691382D01*
X97979929Y-93849383D01*
X97967800Y-93972529D01*
X97967800Y-93972535D01*
X97963746Y-94013698D01*
X97967800Y-94054861D01*
X97967800Y-94630147D01*
X97915570Y-94504052D01*
X97743227Y-94246123D01*
X97523877Y-94026773D01*
X97453876Y-93980000D01*
X97523877Y-93933227D01*
X97743227Y-93713877D01*
X97915570Y-93455948D01*
X98034282Y-93169352D01*
X98094800Y-92865104D01*
X98094800Y-92554896D01*
X98034282Y-92250648D01*
X97915570Y-91964052D01*
X97743227Y-91706123D01*
X97523877Y-91486773D01*
X97453876Y-91440000D01*
X97523877Y-91393227D01*
X97743227Y-91173877D01*
X97915570Y-90915948D01*
X98034282Y-90629352D01*
X98094800Y-90325104D01*
X98094800Y-90014896D01*
X98034282Y-89710648D01*
X97915570Y-89424052D01*
X97743227Y-89166123D01*
X97523877Y-88946773D01*
X97453876Y-88900000D01*
X97523877Y-88853227D01*
X97743227Y-88633877D01*
X97915570Y-88375948D01*
X98034282Y-88089352D01*
X98094800Y-87785104D01*
X98094800Y-87474896D01*
X98034282Y-87170648D01*
X97915570Y-86884052D01*
X97743227Y-86626123D01*
X97523877Y-86406773D01*
X97453876Y-86360000D01*
X97523877Y-86313227D01*
X97743227Y-86093877D01*
X97915570Y-85835948D01*
X98034282Y-85549352D01*
X98094800Y-85245104D01*
X98094800Y-84934896D01*
X98034282Y-84630648D01*
X97915570Y-84344052D01*
X97843746Y-84236560D01*
X105368828Y-84236560D01*
X105371900Y-84550250D01*
X105530650Y-84709000D01*
X106278680Y-84709000D01*
X106278680Y-83760310D01*
X106119930Y-83601560D01*
X106006900Y-83598488D01*
X105882418Y-83610748D01*
X105762720Y-83647058D01*
X105652406Y-83706023D01*
X105555715Y-83785375D01*
X105476363Y-83882066D01*
X105417398Y-83992380D01*
X105381088Y-84112078D01*
X105368828Y-84236560D01*
X97843746Y-84236560D01*
X97743227Y-84086123D01*
X97523877Y-83866773D01*
X97387286Y-83775505D01*
X97432871Y-83642476D01*
X96520000Y-82729605D01*
X96505858Y-82743748D01*
X96326253Y-82564143D01*
X96340395Y-82550000D01*
X96699605Y-82550000D01*
X97612476Y-83462871D01*
X97870723Y-83374377D01*
X98005597Y-83095024D01*
X98083381Y-82794725D01*
X98101084Y-82485023D01*
X98058027Y-82177816D01*
X97955865Y-81884914D01*
X97870723Y-81725623D01*
X97612476Y-81637129D01*
X96699605Y-82550000D01*
X96340395Y-82550000D01*
X95427524Y-81637129D01*
X95377000Y-81654442D01*
X95377000Y-81094104D01*
X95516123Y-81233227D01*
X95652714Y-81324495D01*
X95607129Y-81457524D01*
X96520000Y-82370395D01*
X97432871Y-81457524D01*
X97387286Y-81324495D01*
X97523877Y-81233227D01*
X97743227Y-81013877D01*
X97915570Y-80755948D01*
X98034282Y-80469352D01*
X98094800Y-80165104D01*
X98094800Y-79854896D01*
X98066318Y-79711705D01*
X98123102Y-79735226D01*
X98323061Y-79775000D01*
X98526939Y-79775000D01*
X98726898Y-79735226D01*
X98915256Y-79657205D01*
X99084774Y-79543937D01*
X99228937Y-79399774D01*
X99342205Y-79230256D01*
X99420226Y-79041898D01*
X99447969Y-78902424D01*
X100538763Y-77811630D01*
X103872768Y-77811630D01*
X103875840Y-78324710D01*
X104034590Y-78483460D01*
X105283000Y-78483460D01*
X105283000Y-77335380D01*
X105537000Y-77335380D01*
X105537000Y-78483460D01*
X106785410Y-78483460D01*
X106944160Y-78324710D01*
X106947232Y-77811630D01*
X106934972Y-77687148D01*
X106898662Y-77567450D01*
X106881305Y-77534977D01*
X110178916Y-77534977D01*
X110221973Y-77842184D01*
X110324135Y-78135086D01*
X110409277Y-78294377D01*
X110667524Y-78382871D01*
X111580395Y-77470000D01*
X110667524Y-76557129D01*
X110409277Y-76645623D01*
X110274403Y-76924976D01*
X110196619Y-77225275D01*
X110178916Y-77534977D01*
X106881305Y-77534977D01*
X106839697Y-77457136D01*
X106760345Y-77360445D01*
X106663654Y-77281093D01*
X106553340Y-77222128D01*
X106433642Y-77185818D01*
X106309160Y-77173558D01*
X105695750Y-77176630D01*
X105537000Y-77335380D01*
X105283000Y-77335380D01*
X105124250Y-77176630D01*
X104510840Y-77173558D01*
X104386358Y-77185818D01*
X104266660Y-77222128D01*
X104156346Y-77281093D01*
X104059655Y-77360445D01*
X103980303Y-77457136D01*
X103921338Y-77567450D01*
X103885028Y-77687148D01*
X103872768Y-77811630D01*
X100538763Y-77811630D01*
X101312194Y-77038200D01*
X106638837Y-77038200D01*
X106680000Y-77042254D01*
X106721163Y-77038200D01*
X106721170Y-77038200D01*
X106844316Y-77026071D01*
X107002317Y-76978142D01*
X107147932Y-76900309D01*
X107275564Y-76795564D01*
X107301811Y-76763582D01*
X110202194Y-73863200D01*
X110599696Y-73863200D01*
X110536773Y-73926123D01*
%TA.AperFunction,Conductor*%
D43*
G36*
X110536773Y-73926123D02*
G01*
X110364430Y-74184052D01*
X110245718Y-74470648D01*
X110185200Y-74774896D01*
X110185200Y-75085104D01*
X110245718Y-75389352D01*
X110364430Y-75675948D01*
X110536773Y-75933877D01*
X110756123Y-76153227D01*
X110892714Y-76244495D01*
X110847129Y-76377524D01*
X111760000Y-77290395D01*
X112672871Y-76377524D01*
X112627286Y-76244495D01*
X112763877Y-76153227D01*
X112903000Y-76014104D01*
X112903000Y-76574442D01*
X112852476Y-76557129D01*
X111939605Y-77470000D01*
X112852476Y-78382871D01*
X112903000Y-78365558D01*
X112903000Y-78925896D01*
X112763877Y-78786773D01*
X112627286Y-78695505D01*
X112672871Y-78562476D01*
X111760000Y-77649605D01*
X110847129Y-78562476D01*
X110892714Y-78695505D01*
X110756123Y-78786773D01*
X110536773Y-79006123D01*
X110364430Y-79264052D01*
X110245718Y-79550648D01*
X110185200Y-79854896D01*
X110185200Y-80165104D01*
X110245718Y-80469352D01*
X110364430Y-80755948D01*
X110536773Y-81013877D01*
X110756123Y-81233227D01*
X110826124Y-81280000D01*
X110756123Y-81326773D01*
X110536773Y-81546123D01*
X110493958Y-81610200D01*
X106947232Y-81610200D01*
X106947232Y-80610710D01*
X106934972Y-80486228D01*
X106898662Y-80366530D01*
X106839697Y-80256216D01*
X106760345Y-80159525D01*
X106663654Y-80080173D01*
X106553340Y-80021208D01*
X106516392Y-80010000D01*
X106553340Y-79998792D01*
X106663654Y-79939827D01*
X106760345Y-79860475D01*
X106839697Y-79763784D01*
X106898662Y-79653470D01*
X106934972Y-79533772D01*
X106947232Y-79409290D01*
X106944160Y-78896210D01*
X106785410Y-78737460D01*
X105537000Y-78737460D01*
X105537000Y-78757460D01*
X105283000Y-78757460D01*
X105283000Y-78737460D01*
X104034590Y-78737460D01*
X103875840Y-78896210D01*
X103872768Y-79409290D01*
X103885028Y-79533772D01*
X103921338Y-79653470D01*
X103980303Y-79763784D01*
X104059655Y-79860475D01*
X104156346Y-79939827D01*
X104266660Y-79998792D01*
X104303608Y-80010000D01*
X104266660Y-80021208D01*
X104156346Y-80080173D01*
X104059655Y-80159525D01*
X103994760Y-80238600D01*
X103534376Y-80238600D01*
X103454992Y-80185557D01*
X103230236Y-80092460D01*
X102991637Y-80045000D01*
X102748363Y-80045000D01*
X102509764Y-80092460D01*
X102285008Y-80185557D01*
X102082733Y-80320713D01*
X101910713Y-80492733D01*
X101775557Y-80695008D01*
X101682460Y-80919764D01*
X101635000Y-81158363D01*
X101635000Y-81401637D01*
X101682460Y-81640236D01*
X101775557Y-81864992D01*
X101910713Y-82067267D01*
X102082733Y-82239287D01*
X102285008Y-82374443D01*
X102509764Y-82467540D01*
X102748363Y-82515000D01*
X102991637Y-82515000D01*
X103230236Y-82467540D01*
X103454992Y-82374443D01*
X103534376Y-82321400D01*
X103883900Y-82321400D01*
X103885028Y-82332852D01*
X103921338Y-82452550D01*
X103980303Y-82562864D01*
X104059655Y-82659555D01*
X104156346Y-82738907D01*
X104266660Y-82797872D01*
X104386358Y-82834182D01*
X104510840Y-82846442D01*
X105517825Y-82846442D01*
X105853273Y-83181890D01*
X105882706Y-83217754D01*
X105965654Y-83285828D01*
X106025808Y-83335196D01*
X106099111Y-83374377D01*
X106189074Y-83422463D01*
X106366227Y-83476202D01*
X106504293Y-83489800D01*
X106504303Y-83489800D01*
X106550460Y-83494346D01*
X106596617Y-83489800D01*
X110493958Y-83489800D01*
X110536773Y-83553877D01*
X110756123Y-83773227D01*
X110826124Y-83820000D01*
X110756123Y-83866773D01*
X110536773Y-84086123D01*
X110364430Y-84344052D01*
X110245718Y-84630648D01*
X110185200Y-84934896D01*
X110185200Y-85245104D01*
X110245718Y-85549352D01*
X110364430Y-85835948D01*
X110536773Y-86093877D01*
X110756123Y-86313227D01*
X110826124Y-86360000D01*
X110756123Y-86406773D01*
X110536773Y-86626123D01*
X110364430Y-86884052D01*
X110245718Y-87170648D01*
X110240238Y-87198200D01*
X109140872Y-87198200D01*
X109133317Y-87184066D01*
X109053965Y-87087375D01*
X109042200Y-87077720D01*
X109042200Y-86655170D01*
X109046255Y-86614000D01*
X109042200Y-86572830D01*
X109042200Y-85896280D01*
X109053965Y-85886625D01*
X109133317Y-85789934D01*
X109192282Y-85679620D01*
X109228592Y-85559922D01*
X109240852Y-85435440D01*
X109240852Y-84236560D01*
X109228592Y-84112078D01*
X109192282Y-83992380D01*
X109133317Y-83882066D01*
X109053965Y-83785375D01*
X108957274Y-83706023D01*
X108846960Y-83647058D01*
X108727262Y-83610748D01*
X108602780Y-83598488D01*
X107805220Y-83598488D01*
X107680738Y-83610748D01*
X107561040Y-83647058D01*
X107450726Y-83706023D01*
X107354035Y-83785375D01*
X107304840Y-83845319D01*
X107255645Y-83785375D01*
X107158954Y-83706023D01*
X107048640Y-83647058D01*
X106928942Y-83610748D01*
X106804460Y-83598488D01*
X106691430Y-83601560D01*
X106532680Y-83760310D01*
X106532680Y-84709000D01*
X106552680Y-84709000D01*
X106552680Y-84963000D01*
X106532680Y-84963000D01*
X106532680Y-84983000D01*
X106278680Y-84983000D01*
X106278680Y-84963000D01*
X105530650Y-84963000D01*
X105371900Y-85121750D01*
X105368828Y-85435440D01*
X105381088Y-85559922D01*
X105417398Y-85679620D01*
X105476363Y-85789934D01*
X105555715Y-85886625D01*
X105652406Y-85965977D01*
X105665516Y-85972985D01*
X105610134Y-86018436D01*
X105583892Y-86050412D01*
X98242418Y-93391887D01*
X98210436Y-93418134D01*
X98105691Y-93545767D01*
X98027858Y-93691382D01*
X97979929Y-93849383D01*
X97967800Y-93972529D01*
X97967800Y-93972535D01*
X97963746Y-94013698D01*
X97967800Y-94054861D01*
X97967800Y-94630147D01*
X97915570Y-94504052D01*
X97743227Y-94246123D01*
X97523877Y-94026773D01*
X97453876Y-93980000D01*
X97523877Y-93933227D01*
X97743227Y-93713877D01*
X97915570Y-93455948D01*
X98034282Y-93169352D01*
X98094800Y-92865104D01*
X98094800Y-92554896D01*
X98034282Y-92250648D01*
X97915570Y-91964052D01*
X97743227Y-91706123D01*
X97523877Y-91486773D01*
X97453876Y-91440000D01*
X97523877Y-91393227D01*
X97743227Y-91173877D01*
X97915570Y-90915948D01*
X98034282Y-90629352D01*
X98094800Y-90325104D01*
X98094800Y-90014896D01*
X98034282Y-89710648D01*
X97915570Y-89424052D01*
X97743227Y-89166123D01*
X97523877Y-88946773D01*
X97453876Y-88900000D01*
X97523877Y-88853227D01*
X97743227Y-88633877D01*
X97915570Y-88375948D01*
X98034282Y-88089352D01*
X98094800Y-87785104D01*
X98094800Y-87474896D01*
X98034282Y-87170648D01*
X97915570Y-86884052D01*
X97743227Y-86626123D01*
X97523877Y-86406773D01*
X97453876Y-86360000D01*
X97523877Y-86313227D01*
X97743227Y-86093877D01*
X97915570Y-85835948D01*
X98034282Y-85549352D01*
X98094800Y-85245104D01*
X98094800Y-84934896D01*
X98034282Y-84630648D01*
X97915570Y-84344052D01*
X97843746Y-84236560D01*
X105368828Y-84236560D01*
X105371900Y-84550250D01*
X105530650Y-84709000D01*
X106278680Y-84709000D01*
X106278680Y-83760310D01*
X106119930Y-83601560D01*
X106006900Y-83598488D01*
X105882418Y-83610748D01*
X105762720Y-83647058D01*
X105652406Y-83706023D01*
X105555715Y-83785375D01*
X105476363Y-83882066D01*
X105417398Y-83992380D01*
X105381088Y-84112078D01*
X105368828Y-84236560D01*
X97843746Y-84236560D01*
X97743227Y-84086123D01*
X97523877Y-83866773D01*
X97387286Y-83775505D01*
X97432871Y-83642476D01*
X96520000Y-82729605D01*
X96505858Y-82743748D01*
X96326253Y-82564143D01*
X96340395Y-82550000D01*
X96699605Y-82550000D01*
X97612476Y-83462871D01*
X97870723Y-83374377D01*
X98005597Y-83095024D01*
X98083381Y-82794725D01*
X98101084Y-82485023D01*
X98058027Y-82177816D01*
X97955865Y-81884914D01*
X97870723Y-81725623D01*
X97612476Y-81637129D01*
X96699605Y-82550000D01*
X96340395Y-82550000D01*
X95427524Y-81637129D01*
X95377000Y-81654442D01*
X95377000Y-81094104D01*
X95516123Y-81233227D01*
X95652714Y-81324495D01*
X95607129Y-81457524D01*
X96520000Y-82370395D01*
X97432871Y-81457524D01*
X97387286Y-81324495D01*
X97523877Y-81233227D01*
X97743227Y-81013877D01*
X97915570Y-80755948D01*
X98034282Y-80469352D01*
X98094800Y-80165104D01*
X98094800Y-79854896D01*
X98066318Y-79711705D01*
X98123102Y-79735226D01*
X98323061Y-79775000D01*
X98526939Y-79775000D01*
X98726898Y-79735226D01*
X98915256Y-79657205D01*
X99084774Y-79543937D01*
X99228937Y-79399774D01*
X99342205Y-79230256D01*
X99420226Y-79041898D01*
X99447969Y-78902424D01*
X100538763Y-77811630D01*
X103872768Y-77811630D01*
X103875840Y-78324710D01*
X104034590Y-78483460D01*
X105283000Y-78483460D01*
X105283000Y-77335380D01*
X105537000Y-77335380D01*
X105537000Y-78483460D01*
X106785410Y-78483460D01*
X106944160Y-78324710D01*
X106947232Y-77811630D01*
X106934972Y-77687148D01*
X106898662Y-77567450D01*
X106881305Y-77534977D01*
X110178916Y-77534977D01*
X110221973Y-77842184D01*
X110324135Y-78135086D01*
X110409277Y-78294377D01*
X110667524Y-78382871D01*
X111580395Y-77470000D01*
X110667524Y-76557129D01*
X110409277Y-76645623D01*
X110274403Y-76924976D01*
X110196619Y-77225275D01*
X110178916Y-77534977D01*
X106881305Y-77534977D01*
X106839697Y-77457136D01*
X106760345Y-77360445D01*
X106663654Y-77281093D01*
X106553340Y-77222128D01*
X106433642Y-77185818D01*
X106309160Y-77173558D01*
X105695750Y-77176630D01*
X105537000Y-77335380D01*
X105283000Y-77335380D01*
X105124250Y-77176630D01*
X104510840Y-77173558D01*
X104386358Y-77185818D01*
X104266660Y-77222128D01*
X104156346Y-77281093D01*
X104059655Y-77360445D01*
X103980303Y-77457136D01*
X103921338Y-77567450D01*
X103885028Y-77687148D01*
X103872768Y-77811630D01*
X100538763Y-77811630D01*
X101312194Y-77038200D01*
X106638837Y-77038200D01*
X106680000Y-77042254D01*
X106721163Y-77038200D01*
X106721170Y-77038200D01*
X106844316Y-77026071D01*
X107002317Y-76978142D01*
X107147932Y-76900309D01*
X107275564Y-76795564D01*
X107301811Y-76763582D01*
X110202194Y-73863200D01*
X110599696Y-73863200D01*
X110536773Y-73926123D01*
G37*
%TD.AperFunction*%
%TD*%
D42*
%TO.N,GND*%
X94869000Y-75031599D02*
X89590048Y-75031599D01*
X89652282Y-74881352D01*
X89712800Y-74577104D01*
X89712800Y-74266896D01*
X89652282Y-73962648D01*
X89533570Y-73676052D01*
X89361227Y-73418123D01*
X89141877Y-73198773D01*
X89081699Y-73158564D01*
X89082346Y-73151999D01*
X89077800Y-73105842D01*
X89077800Y-73105833D01*
X89064202Y-72967767D01*
X89010463Y-72790614D01*
X88923196Y-72627349D01*
X88805754Y-72484246D01*
X88769889Y-72454812D01*
X88660589Y-72345513D01*
X88631153Y-72309645D01*
X88488050Y-72192203D01*
X88324785Y-72104936D01*
X88147632Y-72051197D01*
X88009566Y-72037599D01*
X88009556Y-72037599D01*
X87963399Y-72033053D01*
X87917242Y-72037599D01*
X79870747Y-72037599D01*
X79824590Y-72033053D01*
X79778433Y-72037599D01*
X79778424Y-72037599D01*
X79640358Y-72051197D01*
X79463205Y-72104936D01*
X79299940Y-72192203D01*
X79299938Y-72192204D01*
X79299939Y-72192204D01*
X79193524Y-72279537D01*
X79156837Y-72309645D01*
X79127409Y-72345503D01*
X77499115Y-73973799D01*
X77463246Y-74003236D01*
X77345804Y-74146339D01*
X77258537Y-74309605D01*
X77204798Y-74486758D01*
X77191200Y-74624824D01*
X77191200Y-74624833D01*
X77186654Y-74670990D01*
X77191200Y-74717148D01*
X77191201Y-76440768D01*
X77179170Y-76440768D01*
X77054688Y-76453028D01*
X76934990Y-76489338D01*
X76824676Y-76548303D01*
X76727985Y-76627655D01*
X76648633Y-76724346D01*
X76589668Y-76834660D01*
X76553358Y-76954358D01*
X76541098Y-77078840D01*
X76541098Y-78877160D01*
X76553358Y-79001642D01*
X76589668Y-79121340D01*
X76648633Y-79231654D01*
X76727985Y-79328345D01*
X76824676Y-79407697D01*
X76934990Y-79466662D01*
X77054688Y-79502972D01*
X77179170Y-79515232D01*
X77191201Y-79515232D01*
X77191200Y-80349952D01*
X77137614Y-80378595D01*
X77003038Y-80489038D01*
X76892595Y-80623614D01*
X76810528Y-80777150D01*
X76759992Y-80943746D01*
X76742928Y-81117000D01*
X76742928Y-81957310D01*
X75453639Y-83246600D01*
X75105405Y-83246600D01*
X75094134Y-83232866D01*
X75030663Y-83180777D01*
X75132386Y-83126405D01*
X75266962Y-83015962D01*
X75377405Y-82881386D01*
X75459472Y-82727850D01*
X75510008Y-82561254D01*
X75527072Y-82388000D01*
X75527072Y-81188000D01*
X75510008Y-81014746D01*
X75459472Y-80848150D01*
X75377405Y-80694614D01*
X75266962Y-80560038D01*
X75132386Y-80449595D01*
X74978850Y-80367528D01*
X74812254Y-80316992D01*
X74639000Y-80299928D01*
X73189000Y-80299928D01*
X73015746Y-80316992D01*
X72849150Y-80367528D01*
X72695614Y-80449595D01*
X72561038Y-80560038D01*
X72450595Y-80694614D01*
X72368528Y-80848150D01*
X72317992Y-81014746D01*
X72300928Y-81188000D01*
X72300928Y-82388000D01*
X72317992Y-82561254D01*
X72368528Y-82727850D01*
X72450595Y-82881386D01*
X72561038Y-83015962D01*
X72695614Y-83126405D01*
X72797337Y-83180777D01*
X72733866Y-83232866D01*
X72548294Y-83458986D01*
X72410401Y-83716966D01*
X72325487Y-83996889D01*
X72296815Y-84288000D01*
X72325487Y-84579111D01*
X72410401Y-84859034D01*
X72548294Y-85117014D01*
X72733866Y-85343134D01*
X72959986Y-85528706D01*
X72985722Y-85542462D01*
X72779571Y-85698951D01*
X72586504Y-85916807D01*
X72439648Y-86168142D01*
X72347524Y-86431110D01*
X72468845Y-86661000D01*
X73787000Y-86661000D01*
X73787000Y-86641000D01*
X74041000Y-86641000D01*
X74041000Y-86661000D01*
X75359155Y-86661000D01*
X75450453Y-86488000D01*
X80299928Y-86488000D01*
X80303000Y-87852250D01*
X80461750Y-88011000D01*
X81661000Y-88011000D01*
X81661000Y-86011750D01*
X81502250Y-85853000D01*
X80938000Y-85849928D01*
X80813518Y-85862188D01*
X80693820Y-85898498D01*
X80583506Y-85957463D01*
X80486815Y-86036815D01*
X80407463Y-86133506D01*
X80348498Y-86243820D01*
X80312188Y-86363518D01*
X80299928Y-86488000D01*
X75450453Y-86488000D01*
X75480476Y-86431110D01*
X75388352Y-86168142D01*
X75241496Y-85916807D01*
X75048429Y-85698951D01*
X74842278Y-85542462D01*
X74868014Y-85528706D01*
X75094134Y-85343134D01*
X75105405Y-85329400D01*
X75833859Y-85329400D01*
X75885000Y-85334437D01*
X75936141Y-85329400D01*
X75936152Y-85329400D01*
X76089150Y-85314331D01*
X76285454Y-85254783D01*
X76466370Y-85158081D01*
X76624943Y-85027943D01*
X76657552Y-84988209D01*
X77790690Y-83855072D01*
X78631000Y-83855072D01*
X78804254Y-83838008D01*
X78970850Y-83787472D01*
X79124386Y-83705405D01*
X79258962Y-83594962D01*
X79369405Y-83460386D01*
X79451472Y-83306850D01*
X79478727Y-83217000D01*
X79992928Y-83217000D01*
X80005188Y-83341482D01*
X80041498Y-83461180D01*
X80100463Y-83571494D01*
X80179815Y-83668185D01*
X80276506Y-83747537D01*
X80386820Y-83806502D01*
X80506518Y-83842812D01*
X80631000Y-83855072D01*
X81095250Y-83852000D01*
X81254000Y-83693250D01*
X81254000Y-82169000D01*
X81508000Y-82169000D01*
X81508000Y-83693250D01*
X81666750Y-83852000D01*
X82131000Y-83855072D01*
X82255482Y-83842812D01*
X82375180Y-83806502D01*
X82423000Y-83780941D01*
X82470820Y-83806502D01*
X82590518Y-83842812D01*
X82715000Y-83855072D01*
X83179250Y-83852000D01*
X83338000Y-83693250D01*
X83338000Y-82169000D01*
X83592000Y-82169000D01*
X83592000Y-83693250D01*
X83750750Y-83852000D01*
X84215000Y-83855072D01*
X84339482Y-83842812D01*
X84459180Y-83806502D01*
X84569494Y-83747537D01*
X84666185Y-83668185D01*
X84745537Y-83571494D01*
X84804502Y-83461180D01*
X84840812Y-83341482D01*
X84853072Y-83217000D01*
X84850000Y-82327750D01*
X84691250Y-82169000D01*
X83592000Y-82169000D01*
X83338000Y-82169000D01*
X81508000Y-82169000D01*
X81254000Y-82169000D01*
X80154750Y-82169000D01*
X79996000Y-82327750D01*
X79992928Y-83217000D01*
X79478727Y-83217000D01*
X79502008Y-83140254D01*
X79519072Y-82967000D01*
X79519072Y-81117000D01*
X79502008Y-80943746D01*
X79478728Y-80867000D01*
X79992928Y-80867000D01*
X79996000Y-81756250D01*
X80154750Y-81915000D01*
X81254000Y-81915000D01*
X81254000Y-80390750D01*
X81508000Y-80390750D01*
X81508000Y-81915000D01*
X83338000Y-81915000D01*
X83338000Y-80390750D01*
X83592000Y-80390750D01*
X83592000Y-81915000D01*
X84691250Y-81915000D01*
X84850000Y-81756250D01*
X84853072Y-80867000D01*
X84840812Y-80742518D01*
X84804502Y-80622820D01*
X84745537Y-80512506D01*
X84666185Y-80415815D01*
X84569494Y-80336463D01*
X84459180Y-80277498D01*
X84339482Y-80241188D01*
X84215000Y-80228928D01*
X83750750Y-80232000D01*
X83592000Y-80390750D01*
X83338000Y-80390750D01*
X83179250Y-80232000D01*
X82715000Y-80228928D01*
X82590518Y-80241188D01*
X82470820Y-80277498D01*
X82423000Y-80303059D01*
X82375180Y-80277498D01*
X82255482Y-80241188D01*
X82131000Y-80228928D01*
X81666750Y-80232000D01*
X81508000Y-80390750D01*
X81254000Y-80390750D01*
X81095250Y-80232000D01*
X80631000Y-80228928D01*
X80506518Y-80241188D01*
X80386820Y-80277498D01*
X80276506Y-80336463D01*
X80179815Y-80415815D01*
X80100463Y-80512506D01*
X80041498Y-80622820D01*
X80005188Y-80742518D01*
X79992928Y-80867000D01*
X79478728Y-80867000D01*
X79451472Y-80777150D01*
X79369405Y-80623614D01*
X79258962Y-80489038D01*
X79124386Y-80378595D01*
X79070800Y-80349953D01*
X79070800Y-79440048D01*
X79131324Y-79407697D01*
X79228015Y-79328345D01*
X79307367Y-79231654D01*
X79366332Y-79121340D01*
X79377540Y-79084392D01*
X79388748Y-79121340D01*
X79447713Y-79231654D01*
X79527065Y-79328345D01*
X79623756Y-79407697D01*
X79734070Y-79466662D01*
X79853768Y-79502972D01*
X79978250Y-79515232D01*
X80491330Y-79512160D01*
X80650080Y-79353410D01*
X80650080Y-78105000D01*
X80904080Y-78105000D01*
X80904080Y-79353410D01*
X81062830Y-79512160D01*
X81575910Y-79515232D01*
X81700392Y-79502972D01*
X81820090Y-79466662D01*
X81930404Y-79407697D01*
X82027095Y-79328345D01*
X82106447Y-79231654D01*
X82165412Y-79121340D01*
X82201722Y-79001642D01*
X82213982Y-78877160D01*
X82210910Y-78263750D01*
X82052160Y-78105000D01*
X80904080Y-78105000D01*
X80650080Y-78105000D01*
X80630080Y-78105000D01*
X80630080Y-77851000D01*
X80650080Y-77851000D01*
X80650080Y-76602590D01*
X80904080Y-76602590D01*
X80904080Y-77851000D01*
X82052160Y-77851000D01*
X82210910Y-77692250D01*
X82213982Y-77078840D01*
X82201722Y-76954358D01*
X82165412Y-76834660D01*
X82106447Y-76724346D01*
X82027095Y-76627655D01*
X81930404Y-76548303D01*
X81820090Y-76489338D01*
X81700392Y-76453028D01*
X81575910Y-76440768D01*
X81062830Y-76443840D01*
X80904080Y-76602590D01*
X80650080Y-76602590D01*
X80491330Y-76443840D01*
X79978250Y-76440768D01*
X79853768Y-76453028D01*
X79734070Y-76489338D01*
X79623756Y-76548303D01*
X79527065Y-76627655D01*
X79447713Y-76724346D01*
X79388748Y-76834660D01*
X79377540Y-76871608D01*
X79366332Y-76834660D01*
X79307367Y-76724346D01*
X79228015Y-76627655D01*
X79131324Y-76548303D01*
X79070800Y-76515952D01*
X79070800Y-75514476D01*
X79605129Y-75514476D01*
X79693623Y-75772723D01*
X79972976Y-75907597D01*
X80273275Y-75985381D01*
X80582977Y-76003084D01*
X80890184Y-75960027D01*
X81183086Y-75857865D01*
X81342377Y-75772723D01*
X81430871Y-75514476D01*
X80518000Y-74601605D01*
X79605129Y-75514476D01*
X79070800Y-75514476D01*
X79070800Y-75060266D01*
X79072268Y-75058798D01*
X79082135Y-75087086D01*
X79167277Y-75246377D01*
X79425524Y-75334871D01*
X80338395Y-74422000D01*
X80324253Y-74407858D01*
X80503858Y-74228253D01*
X80518000Y-74242395D01*
X80532143Y-74228253D01*
X80711748Y-74407858D01*
X80697605Y-74422000D01*
X81610476Y-75334871D01*
X81743505Y-75289286D01*
X81834773Y-75425877D01*
X82054123Y-75645227D01*
X82312052Y-75817570D01*
X82598648Y-75936282D01*
X82902896Y-75996800D01*
X83213104Y-75996800D01*
X83408534Y-75957927D01*
X85484194Y-78033588D01*
X85510436Y-78065564D01*
X85638068Y-78170309D01*
X85783683Y-78248142D01*
X85941684Y-78296071D01*
X86064830Y-78308200D01*
X86064837Y-78308200D01*
X86106000Y-78312254D01*
X86147163Y-78308200D01*
X88508235Y-78308200D01*
X88486246Y-78326246D01*
X88456817Y-78362105D01*
X87760114Y-79058810D01*
X87724246Y-79088246D01*
X87606804Y-79231349D01*
X87519537Y-79394615D01*
X87465798Y-79571768D01*
X87452200Y-79709834D01*
X87452200Y-79709843D01*
X87447654Y-79756000D01*
X87452200Y-79802157D01*
X87452200Y-80265390D01*
X87388254Y-80245992D01*
X87215000Y-80228928D01*
X86215000Y-80228928D01*
X86041746Y-80245992D01*
X85875150Y-80296528D01*
X85721614Y-80378595D01*
X85587038Y-80489038D01*
X85476595Y-80623614D01*
X85394528Y-80777150D01*
X85343992Y-80943746D01*
X85326928Y-81117000D01*
X85326928Y-82967000D01*
X85343992Y-83140254D01*
X85394528Y-83306850D01*
X85476595Y-83460386D01*
X85587038Y-83594962D01*
X85673601Y-83666002D01*
X85673601Y-84049637D01*
X85166639Y-84556600D01*
X84887144Y-84556600D01*
X84836000Y-84551563D01*
X84784856Y-84556600D01*
X84784848Y-84556600D01*
X84631850Y-84571669D01*
X84435546Y-84631217D01*
X84334645Y-84685150D01*
X84254630Y-84727919D01*
X84135789Y-84825449D01*
X84135785Y-84825453D01*
X84096057Y-84858057D01*
X84063452Y-84897786D01*
X83373790Y-85587449D01*
X83334057Y-85620057D01*
X83203919Y-85778630D01*
X83107217Y-85959547D01*
X83084856Y-86033262D01*
X82992494Y-85957463D01*
X82882180Y-85898498D01*
X82762482Y-85862188D01*
X82638000Y-85849928D01*
X82073750Y-85853000D01*
X81915000Y-86011750D01*
X81915000Y-88011000D01*
X81935000Y-88011000D01*
X81935000Y-88265000D01*
X81915000Y-88265000D01*
X81915000Y-90264250D01*
X82073750Y-90423000D01*
X82638000Y-90426072D01*
X82762482Y-90413812D01*
X82882180Y-90377502D01*
X82992494Y-90318537D01*
X83032601Y-90285622D01*
X83032601Y-91490378D01*
X82992494Y-91457463D01*
X82882180Y-91398498D01*
X82762482Y-91362188D01*
X82638000Y-91349928D01*
X80938000Y-91349928D01*
X80813518Y-91362188D01*
X80693820Y-91398498D01*
X80583506Y-91457463D01*
X80495472Y-91529710D01*
X79967072Y-91001311D01*
X79967072Y-89788000D01*
X80299928Y-89788000D01*
X80312188Y-89912482D01*
X80348498Y-90032180D01*
X80407463Y-90142494D01*
X80486815Y-90239185D01*
X80583506Y-90318537D01*
X80693820Y-90377502D01*
X80813518Y-90413812D01*
X80938000Y-90426072D01*
X81502250Y-90423000D01*
X81661000Y-90264250D01*
X81661000Y-88265000D01*
X80461750Y-88265000D01*
X80303000Y-88423750D01*
X80299928Y-89788000D01*
X79967072Y-89788000D01*
X79967072Y-89736000D01*
X79950008Y-89562746D01*
X79899472Y-89396150D01*
X79817405Y-89242614D01*
X79706962Y-89108038D01*
X79572386Y-88997595D01*
X79418850Y-88915528D01*
X79252254Y-88864992D01*
X79079000Y-88847928D01*
X78279000Y-88847928D01*
X78105746Y-88864992D01*
X77939150Y-88915528D01*
X77785614Y-88997595D01*
X77651038Y-89108038D01*
X77540595Y-89242614D01*
X77458528Y-89396150D01*
X77407992Y-89562746D01*
X77390928Y-89736000D01*
X77390928Y-92636000D01*
X77407992Y-92809254D01*
X77458528Y-92975850D01*
X77540595Y-93129386D01*
X77651038Y-93263962D01*
X77785614Y-93374405D01*
X77939150Y-93456472D01*
X78105746Y-93507008D01*
X78279000Y-93524072D01*
X79079000Y-93524072D01*
X79252254Y-93507008D01*
X79418850Y-93456472D01*
X79456556Y-93436318D01*
X80299928Y-94279690D01*
X80299928Y-95288000D01*
X80312188Y-95412482D01*
X80348498Y-95532180D01*
X80407463Y-95642494D01*
X80486815Y-95739185D01*
X80583506Y-95818537D01*
X80693820Y-95877502D01*
X80755775Y-95896296D01*
X80758823Y-95927238D01*
X80761670Y-95956149D01*
X80821218Y-96152455D01*
X80917919Y-96333369D01*
X81015450Y-96452211D01*
X81015454Y-96452215D01*
X81048058Y-96491943D01*
X81087786Y-96524547D01*
X81105267Y-96542028D01*
X81094928Y-96647000D01*
X81094928Y-97188986D01*
X80998307Y-96870469D01*
X80797828Y-96495400D01*
X80528030Y-96166650D01*
X80445642Y-96099036D01*
X78398964Y-94052358D01*
X78331350Y-93969970D01*
X78002600Y-93700172D01*
X77627531Y-93499693D01*
X77220558Y-93376239D01*
X76903381Y-93345000D01*
X76903378Y-93345000D01*
X76797320Y-93334554D01*
X76691262Y-93345000D01*
X76043144Y-93345000D01*
X75936506Y-92993461D01*
X75759613Y-92662518D01*
X75521556Y-92372444D01*
X75517072Y-92368764D01*
X75517072Y-89736000D01*
X75500008Y-89562746D01*
X75449472Y-89396150D01*
X75367405Y-89242614D01*
X75256962Y-89108038D01*
X75122386Y-88997595D01*
X74968850Y-88915528D01*
X74802254Y-88864992D01*
X74629000Y-88847928D01*
X73829000Y-88847928D01*
X73655746Y-88864992D01*
X73489150Y-88915528D01*
X73335614Y-88997595D01*
X73201038Y-89108038D01*
X73090595Y-89242614D01*
X73008528Y-89396150D01*
X72957992Y-89562746D01*
X72940928Y-89736000D01*
X72940928Y-90917104D01*
X72916377Y-90998037D01*
X72891857Y-91247000D01*
X72898001Y-91309382D01*
X72898001Y-92303872D01*
X72814445Y-92372444D01*
X72576388Y-92662518D01*
X72399495Y-92993461D01*
X72290565Y-93352555D01*
X72263000Y-93632418D01*
X72263000Y-94487999D01*
X72163693Y-94673789D01*
X72040239Y-95080762D01*
X71998554Y-95504000D01*
X72040239Y-95927238D01*
X72163693Y-96334211D01*
X72364172Y-96709280D01*
X72633970Y-97038030D01*
X72962720Y-97307828D01*
X73337789Y-97508307D01*
X73744762Y-97631761D01*
X74061939Y-97663000D01*
X75903034Y-97663000D01*
X76835000Y-98594966D01*
X76835000Y-100731942D01*
X76824554Y-100838000D01*
X76835000Y-100944058D01*
X76835000Y-100944061D01*
X76866239Y-101261238D01*
X76946746Y-101526631D01*
X76989694Y-101668211D01*
X77190172Y-102043279D01*
X77392361Y-102289647D01*
X77459971Y-102372030D01*
X77542354Y-102439640D01*
X84932976Y-109830263D01*
X83980480Y-110782759D01*
X81774985Y-110782759D01*
X81723841Y-110777722D01*
X81672697Y-110782759D01*
X81672689Y-110782759D01*
X81519691Y-110797828D01*
X81508588Y-110801196D01*
X81516038Y-110797214D01*
X81672048Y-110481653D01*
X80360000Y-109169605D01*
X79047952Y-110481653D01*
X79203962Y-110797214D01*
X79578745Y-110988020D01*
X79983551Y-111102044D01*
X80402824Y-111134902D01*
X80820451Y-111085334D01*
X81088961Y-110997992D01*
X81023630Y-111051608D01*
X81023626Y-111051612D01*
X80983898Y-111084216D01*
X80951293Y-111123945D01*
X79817786Y-112257453D01*
X79778058Y-112290057D01*
X79745454Y-112329785D01*
X79745450Y-112329789D01*
X79647919Y-112448631D01*
X79551218Y-112629545D01*
X79531593Y-112694240D01*
X79491670Y-112825850D01*
X79487759Y-112865559D01*
X79471563Y-113030000D01*
X79476601Y-113081151D01*
X79476600Y-115010848D01*
X79476600Y-115010849D01*
X79476601Y-116898278D01*
X79440498Y-116965820D01*
X79404188Y-117085518D01*
X79391928Y-117210000D01*
X79391928Y-118748627D01*
X79383670Y-118775850D01*
X79373161Y-118882551D01*
X79363563Y-118980000D01*
X79368601Y-119031151D01*
X79368601Y-119668770D01*
X79208382Y-119775825D01*
X78945825Y-120038382D01*
X78739534Y-120347118D01*
X78597439Y-120690166D01*
X78525000Y-121054344D01*
X78525000Y-121425656D01*
X78597439Y-121789834D01*
X78739534Y-122132882D01*
X78945825Y-122441618D01*
X79208382Y-122704175D01*
X79517118Y-122910466D01*
X79860166Y-123052561D01*
X80224344Y-123125000D01*
X80595656Y-123125000D01*
X80959834Y-123052561D01*
X81302882Y-122910466D01*
X81611618Y-122704175D01*
X81874175Y-122441618D01*
X82080466Y-122132882D01*
X82222561Y-121789834D01*
X82295000Y-121425656D01*
X82295000Y-121054344D01*
X82222561Y-120690166D01*
X82080466Y-120347118D01*
X81874175Y-120038382D01*
X81611618Y-119775825D01*
X81451400Y-119668771D01*
X81451400Y-119648072D01*
X82530000Y-119648072D01*
X82654482Y-119635812D01*
X82774180Y-119599502D01*
X82884494Y-119540537D01*
X82981185Y-119461185D01*
X83060537Y-119364494D01*
X83119502Y-119254180D01*
X83155812Y-119134482D01*
X83168072Y-119010000D01*
X83168072Y-117210000D01*
X83155812Y-117085518D01*
X83119502Y-116965820D01*
X83060537Y-116855506D01*
X82981185Y-116758815D01*
X82884494Y-116679463D01*
X82774180Y-116620498D01*
X82654482Y-116584188D01*
X82530000Y-116571928D01*
X81559400Y-116571928D01*
X81559400Y-113461361D01*
X82155203Y-112865559D01*
X84360700Y-112865559D01*
X84411841Y-112870596D01*
X84462982Y-112865559D01*
X84462993Y-112865559D01*
X84615991Y-112850490D01*
X84812295Y-112790942D01*
X84993211Y-112694240D01*
X85151784Y-112564102D01*
X85184393Y-112524368D01*
X86594942Y-111113820D01*
X86772762Y-111167761D01*
X87089939Y-111199000D01*
X87089942Y-111199000D01*
X87196000Y-111209446D01*
X87302058Y-111199000D01*
X92516061Y-111199000D01*
X92833238Y-111167761D01*
X93240211Y-111044307D01*
X93615280Y-110843828D01*
X93944030Y-110574030D01*
X94213828Y-110245280D01*
X94414307Y-109870211D01*
X94537761Y-109463238D01*
X94579446Y-109040000D01*
X94537761Y-108616762D01*
X94414307Y-108209789D01*
X94213828Y-107834720D01*
X93944030Y-107505970D01*
X93615280Y-107236172D01*
X93240211Y-107035693D01*
X92833238Y-106912239D01*
X92516061Y-106881000D01*
X88090287Y-106881000D01*
X82294358Y-101085072D01*
X84133000Y-101085072D01*
X84306254Y-101068008D01*
X84472850Y-101017472D01*
X84536281Y-100983568D01*
X84536281Y-101528529D01*
X84531243Y-101579680D01*
X84536281Y-101630831D01*
X84536281Y-101630832D01*
X84543837Y-101707544D01*
X84551350Y-101783829D01*
X84610898Y-101980135D01*
X84707599Y-102161049D01*
X84805130Y-102279891D01*
X84805134Y-102279895D01*
X84837738Y-102319623D01*
X84877466Y-102352227D01*
X85333448Y-102808209D01*
X85366057Y-102847943D01*
X85524630Y-102978081D01*
X85705546Y-103074783D01*
X85901850Y-103134331D01*
X86054848Y-103149400D01*
X86054858Y-103149400D01*
X86105999Y-103154437D01*
X86157141Y-103149400D01*
X91388859Y-103149400D01*
X91440000Y-103154437D01*
X91491141Y-103149400D01*
X91491152Y-103149400D01*
X91644150Y-103134331D01*
X91840454Y-103074783D01*
X92021370Y-102978081D01*
X92179943Y-102847943D01*
X92212552Y-102808209D01*
X92847551Y-102173210D01*
X92945081Y-102054370D01*
X93000887Y-101949964D01*
X94552818Y-103501896D01*
X94582246Y-103537754D01*
X94618104Y-103567182D01*
X94618106Y-103567184D01*
X94725348Y-103655196D01*
X94869000Y-103731979D01*
X94869000Y-109939607D01*
X93416413Y-111392194D01*
X93384437Y-111418436D01*
X93358195Y-111450412D01*
X93358192Y-111450415D01*
X93279691Y-111546069D01*
X93201858Y-111691684D01*
X93153929Y-111849685D01*
X93142134Y-111969446D01*
X93130035Y-111979375D01*
X93080840Y-112039319D01*
X93031645Y-111979375D01*
X92934954Y-111900023D01*
X92824640Y-111841058D01*
X92704942Y-111804748D01*
X92580460Y-111792488D01*
X91782900Y-111792488D01*
X91658418Y-111804748D01*
X91538720Y-111841058D01*
X91428406Y-111900023D01*
X91331715Y-111979375D01*
X91252363Y-112076066D01*
X91193398Y-112186380D01*
X91157088Y-112306078D01*
X91144828Y-112430560D01*
X91144828Y-113629440D01*
X91157088Y-113753922D01*
X91193398Y-113873620D01*
X91241880Y-113964323D01*
X91241881Y-114630200D01*
X89996156Y-114630200D01*
X89949999Y-114625654D01*
X89903842Y-114630200D01*
X89903833Y-114630200D01*
X89765767Y-114643798D01*
X89588614Y-114697537D01*
X89425349Y-114784804D01*
X89343558Y-114851928D01*
X89180000Y-114851928D01*
X89055518Y-114864188D01*
X88935820Y-114900498D01*
X88825506Y-114959463D01*
X88728815Y-115038815D01*
X88649463Y-115135506D01*
X88590498Y-115245820D01*
X88554188Y-115365518D01*
X88541928Y-115490000D01*
X88541928Y-116001905D01*
X88531185Y-115988815D01*
X88434494Y-115909463D01*
X88324180Y-115850498D01*
X88204482Y-115814188D01*
X88080000Y-115801928D01*
X87180000Y-115801928D01*
X87145011Y-115805374D01*
X87150912Y-115785922D01*
X87163172Y-115661440D01*
X87163172Y-114462560D01*
X87150912Y-114338078D01*
X87114602Y-114218380D01*
X87055637Y-114108066D01*
X86976285Y-114011375D01*
X86879594Y-113932023D01*
X86769280Y-113873058D01*
X86649582Y-113836748D01*
X86525100Y-113824488D01*
X85727540Y-113824488D01*
X85603058Y-113836748D01*
X85483360Y-113873058D01*
X85373046Y-113932023D01*
X85276355Y-114011375D01*
X85227160Y-114071319D01*
X85177965Y-114011375D01*
X85081274Y-113932023D01*
X84970960Y-113873058D01*
X84851262Y-113836748D01*
X84726780Y-113824488D01*
X83929220Y-113824488D01*
X83804738Y-113836748D01*
X83685040Y-113873058D01*
X83574726Y-113932023D01*
X83478035Y-114011375D01*
X83458859Y-114034742D01*
X83419939Y-114027000D01*
X83216061Y-114027000D01*
X83016102Y-114066774D01*
X82827744Y-114144795D01*
X82658226Y-114258063D01*
X82514063Y-114402226D01*
X82400795Y-114571744D01*
X82322774Y-114760102D01*
X82283000Y-114960061D01*
X82283000Y-115163939D01*
X82322774Y-115363898D01*
X82400795Y-115552256D01*
X82514063Y-115721774D01*
X82658226Y-115865937D01*
X82827744Y-115979205D01*
X83016102Y-116057226D01*
X83216061Y-116097000D01*
X83419939Y-116097000D01*
X83458859Y-116089258D01*
X83478035Y-116112625D01*
X83574726Y-116191977D01*
X83685040Y-116250942D01*
X83804738Y-116287252D01*
X83929220Y-116299512D01*
X84726780Y-116299512D01*
X84851262Y-116287252D01*
X84970960Y-116250942D01*
X85081274Y-116191977D01*
X85177965Y-116112625D01*
X85227160Y-116052681D01*
X85276355Y-116112625D01*
X85288121Y-116122281D01*
X85288121Y-116375148D01*
X85284066Y-116416320D01*
X85299391Y-116571928D01*
X84030000Y-116571928D01*
X83905518Y-116584188D01*
X83785820Y-116620498D01*
X83675506Y-116679463D01*
X83578815Y-116758815D01*
X83499463Y-116855506D01*
X83440498Y-116965820D01*
X83404188Y-117085518D01*
X83391928Y-117210000D01*
X83391928Y-119010000D01*
X83404188Y-119134482D01*
X83440498Y-119254180D01*
X83499463Y-119364494D01*
X83578815Y-119461185D01*
X83675506Y-119540537D01*
X83785820Y-119599502D01*
X83905518Y-119635812D01*
X84030000Y-119648072D01*
X85345311Y-119648072D01*
X86756881Y-121059643D01*
X86360000Y-121020554D01*
X85936763Y-121062239D01*
X85529790Y-121185693D01*
X85154721Y-121386172D01*
X84825971Y-121655970D01*
X84556173Y-121984720D01*
X84355694Y-122359789D01*
X84232240Y-122766762D01*
X84201001Y-123083939D01*
X84201000Y-129646060D01*
X84221928Y-129858547D01*
X84221928Y-131040000D01*
X84234188Y-131164482D01*
X84270498Y-131284180D01*
X84329463Y-131394494D01*
X84408815Y-131491185D01*
X84505506Y-131570537D01*
X84615820Y-131629502D01*
X84735518Y-131665812D01*
X84860000Y-131678072D01*
X86041452Y-131678072D01*
X86360000Y-131709446D01*
X86678547Y-131678072D01*
X87860000Y-131678072D01*
X87984482Y-131665812D01*
X88104180Y-131629502D01*
X88214494Y-131570537D01*
X88311185Y-131491185D01*
X88390537Y-131394494D01*
X88449502Y-131284180D01*
X88485812Y-131164482D01*
X88498072Y-131040000D01*
X88498072Y-129858548D01*
X88519000Y-129646061D01*
X88519000Y-125551762D01*
X88932488Y-125965250D01*
X88932488Y-126499620D01*
X88944748Y-126624102D01*
X88981058Y-126743800D01*
X89040023Y-126854114D01*
X89119375Y-126950805D01*
X89179319Y-127000000D01*
X89119375Y-127049195D01*
X89040023Y-127145886D01*
X88981058Y-127256200D01*
X88944748Y-127375898D01*
X88932488Y-127500380D01*
X88932488Y-128202005D01*
X88916346Y-128210633D01*
X88819655Y-128289985D01*
X88740303Y-128386676D01*
X88681338Y-128496990D01*
X88645028Y-128616688D01*
X88632768Y-128741170D01*
X88632768Y-130338830D01*
X88645028Y-130463312D01*
X88681338Y-130583010D01*
X88740303Y-130693324D01*
X88819655Y-130790015D01*
X88916346Y-130869367D01*
X89026660Y-130928332D01*
X89063608Y-130939540D01*
X89026660Y-130950748D01*
X88916346Y-131009713D01*
X88819655Y-131089065D01*
X88740303Y-131185756D01*
X88681338Y-131296070D01*
X88645028Y-131415768D01*
X88632768Y-131540250D01*
X88635840Y-132053330D01*
X88794590Y-132212080D01*
X90043000Y-132212080D01*
X90043000Y-132192080D01*
X90297000Y-132192080D01*
X90297000Y-132212080D01*
X91545410Y-132212080D01*
X91704160Y-132053330D01*
X91705414Y-131843780D01*
X93377488Y-131843780D01*
X93389748Y-131968262D01*
X93426058Y-132087960D01*
X93485023Y-132198274D01*
X93564375Y-132294965D01*
X93661066Y-132374317D01*
X93771380Y-132433282D01*
X93891078Y-132469592D01*
X94015560Y-132481852D01*
X94329250Y-132478780D01*
X94488000Y-132320030D01*
X94488000Y-131572000D01*
X93539310Y-131572000D01*
X93380560Y-131730750D01*
X93377488Y-131843780D01*
X91705414Y-131843780D01*
X91707232Y-131540250D01*
X91694972Y-131415768D01*
X91658662Y-131296070D01*
X91599697Y-131185756D01*
X91520345Y-131089065D01*
X91423654Y-131009713D01*
X91313340Y-130950748D01*
X91276392Y-130939540D01*
X91313340Y-130928332D01*
X91423654Y-130869367D01*
X91520345Y-130790015D01*
X91599697Y-130693324D01*
X91658662Y-130583010D01*
X91694972Y-130463312D01*
X91707232Y-130338830D01*
X91707232Y-128741170D01*
X91694972Y-128616688D01*
X91658662Y-128496990D01*
X91599697Y-128386676D01*
X91520345Y-128289985D01*
X91423654Y-128210633D01*
X91407512Y-128202005D01*
X91407512Y-127500380D01*
X91395252Y-127375898D01*
X91358942Y-127256200D01*
X91299977Y-127145886D01*
X91220625Y-127049195D01*
X91160681Y-127000000D01*
X91220625Y-126950805D01*
X91299977Y-126854114D01*
X91358942Y-126743800D01*
X91395252Y-126624102D01*
X91407512Y-126499620D01*
X91407512Y-125702060D01*
X91395252Y-125577578D01*
X91358942Y-125457880D01*
X91299977Y-125347566D01*
X91220625Y-125250875D01*
X91123934Y-125171523D01*
X91013620Y-125112558D01*
X91009437Y-125111289D01*
X90942550Y-125029788D01*
X90942547Y-125029785D01*
X90909943Y-124990057D01*
X90870215Y-124957453D01*
X88404261Y-122491500D01*
X88364307Y-122359789D01*
X88320382Y-122277611D01*
X88358848Y-122281400D01*
X88358858Y-122281400D01*
X88409999Y-122286437D01*
X88461141Y-122281400D01*
X90838771Y-122281400D01*
X90945825Y-122441618D01*
X91208382Y-122704175D01*
X91517118Y-122910466D01*
X91860166Y-123052561D01*
X92224344Y-123125000D01*
X92595656Y-123125000D01*
X92959834Y-123052561D01*
X93302882Y-122910466D01*
X93611618Y-122704175D01*
X93874175Y-122441618D01*
X94080466Y-122132882D01*
X94222561Y-121789834D01*
X94295000Y-121425656D01*
X94295000Y-121054344D01*
X94222561Y-120690166D01*
X94080466Y-120347118D01*
X93874175Y-120038382D01*
X93611618Y-119775825D01*
X93302882Y-119569534D01*
X92959834Y-119427439D01*
X92595656Y-119355000D01*
X92224344Y-119355000D01*
X91860166Y-119427439D01*
X91517118Y-119569534D01*
X91208382Y-119775825D01*
X90945825Y-120038382D01*
X90838771Y-120198600D01*
X88841362Y-120198600D01*
X87168072Y-118525311D01*
X87168072Y-118190000D01*
X88541928Y-118190000D01*
X88554188Y-118314482D01*
X88590498Y-118434180D01*
X88649463Y-118544494D01*
X88728815Y-118641185D01*
X88825506Y-118720537D01*
X88935820Y-118779502D01*
X89055518Y-118815812D01*
X89180000Y-118828072D01*
X89344250Y-118825000D01*
X89503000Y-118666250D01*
X89503000Y-117917000D01*
X89757000Y-117917000D01*
X89757000Y-118666250D01*
X89915750Y-118825000D01*
X90080000Y-118828072D01*
X90204482Y-118815812D01*
X90324180Y-118779502D01*
X90434494Y-118720537D01*
X90531185Y-118641185D01*
X90610537Y-118544494D01*
X90669502Y-118434180D01*
X90705812Y-118314482D01*
X90718072Y-118190000D01*
X90715000Y-118075750D01*
X90556250Y-117917000D01*
X89757000Y-117917000D01*
X89503000Y-117917000D01*
X88703750Y-117917000D01*
X88545000Y-118075750D01*
X88541928Y-118190000D01*
X87168072Y-118190000D01*
X87168072Y-117876897D01*
X87180000Y-117878072D01*
X88080000Y-117878072D01*
X88204482Y-117865812D01*
X88324180Y-117829502D01*
X88434494Y-117770537D01*
X88531185Y-117691185D01*
X88610537Y-117594494D01*
X88619143Y-117578393D01*
X88703750Y-117663000D01*
X89503000Y-117663000D01*
X89503000Y-117643000D01*
X89757000Y-117643000D01*
X89757000Y-117663000D01*
X90556250Y-117663000D01*
X90715000Y-117504250D01*
X90718072Y-117390000D01*
X90705812Y-117265518D01*
X90669502Y-117145820D01*
X90610537Y-117035506D01*
X90531185Y-116938815D01*
X90434494Y-116859463D01*
X90398082Y-116840000D01*
X90434494Y-116820537D01*
X90531185Y-116741185D01*
X90610537Y-116644494D01*
X90669502Y-116534180D01*
X90676898Y-116509800D01*
X91244808Y-116509800D01*
X91252363Y-116523934D01*
X91331715Y-116620625D01*
X91428406Y-116699977D01*
X91538720Y-116758942D01*
X91658418Y-116795252D01*
X91782900Y-116807512D01*
X92580460Y-116807512D01*
X92704942Y-116795252D01*
X92824640Y-116758942D01*
X92934954Y-116699977D01*
X93031645Y-116620625D01*
X93080840Y-116560681D01*
X93130035Y-116620625D01*
X93226726Y-116699977D01*
X93337040Y-116758942D01*
X93456738Y-116795252D01*
X93581220Y-116807512D01*
X93694250Y-116804440D01*
X93853000Y-116645690D01*
X93853000Y-115697000D01*
X93833000Y-115697000D01*
X93833000Y-115443000D01*
X93853000Y-115443000D01*
X93853000Y-114494310D01*
X93694250Y-114335560D01*
X93581220Y-114332488D01*
X93456738Y-114344748D01*
X93337040Y-114381058D01*
X93226726Y-114440023D01*
X93130035Y-114519375D01*
X93121480Y-114529799D01*
X93121480Y-114070201D01*
X93130035Y-114080625D01*
X93226726Y-114159977D01*
X93337040Y-114218942D01*
X93456738Y-114255252D01*
X93581220Y-114267512D01*
X94378780Y-114267512D01*
X94503262Y-114255252D01*
X94622960Y-114218942D01*
X94733274Y-114159977D01*
X94829965Y-114080625D01*
X94869000Y-114033061D01*
X94869000Y-114566939D01*
X94829965Y-114519375D01*
X94733274Y-114440023D01*
X94622960Y-114381058D01*
X94503262Y-114344748D01*
X94378780Y-114332488D01*
X94265750Y-114335560D01*
X94107000Y-114494310D01*
X94107000Y-115443000D01*
X94127000Y-115443000D01*
X94127000Y-115697000D01*
X94107000Y-115697000D01*
X94107000Y-116645690D01*
X94265750Y-116804440D01*
X94378780Y-116807512D01*
X94503262Y-116795252D01*
X94622960Y-116758942D01*
X94733274Y-116699977D01*
X94829965Y-116620625D01*
X94869000Y-116573061D01*
X94869000Y-127935256D01*
X94783468Y-128005450D01*
X94783465Y-128005453D01*
X94743737Y-128038057D01*
X94711132Y-128077786D01*
X94179091Y-128609828D01*
X94015560Y-128609828D01*
X93891078Y-128622088D01*
X93771380Y-128658398D01*
X93661066Y-128717363D01*
X93564375Y-128796715D01*
X93485023Y-128893406D01*
X93426058Y-129003720D01*
X93389748Y-129123418D01*
X93377488Y-129247900D01*
X93377488Y-130045460D01*
X93389748Y-130169942D01*
X93426058Y-130289640D01*
X93485023Y-130399954D01*
X93564375Y-130496645D01*
X93624319Y-130545840D01*
X93564375Y-130595035D01*
X93485023Y-130691726D01*
X93426058Y-130802040D01*
X93389748Y-130921738D01*
X93377488Y-131046220D01*
X93380560Y-131159250D01*
X93539310Y-131318000D01*
X94488000Y-131318000D01*
X94488000Y-131298000D01*
X94742000Y-131298000D01*
X94742000Y-131318000D01*
X94762000Y-131318000D01*
X94762000Y-131572000D01*
X94742000Y-131572000D01*
X94742000Y-132320030D01*
X94869000Y-132447030D01*
X94869000Y-134340000D01*
X75470045Y-134340000D01*
X75700558Y-134185976D01*
X76185976Y-133700558D01*
X76561925Y-133137910D01*
X88632768Y-133137910D01*
X88645028Y-133262392D01*
X88681338Y-133382090D01*
X88740303Y-133492404D01*
X88819655Y-133589095D01*
X88916346Y-133668447D01*
X89026660Y-133727412D01*
X89146358Y-133763722D01*
X89270840Y-133775982D01*
X89884250Y-133772910D01*
X90043000Y-133614160D01*
X90043000Y-132466080D01*
X90297000Y-132466080D01*
X90297000Y-133614160D01*
X90455750Y-133772910D01*
X91069160Y-133775982D01*
X91193642Y-133763722D01*
X91313340Y-133727412D01*
X91423654Y-133668447D01*
X91520345Y-133589095D01*
X91599697Y-133492404D01*
X91658662Y-133382090D01*
X91694972Y-133262392D01*
X91707232Y-133137910D01*
X91704160Y-132624830D01*
X91545410Y-132466080D01*
X90297000Y-132466080D01*
X90043000Y-132466080D01*
X88794590Y-132466080D01*
X88635840Y-132624830D01*
X88632768Y-133137910D01*
X76561925Y-133137910D01*
X76567367Y-133129766D01*
X76830073Y-132495537D01*
X76964000Y-131822242D01*
X76964000Y-131135758D01*
X76943293Y-131031653D01*
X79967952Y-131031653D01*
X80123962Y-131347214D01*
X80498745Y-131538020D01*
X80903551Y-131652044D01*
X81322824Y-131684902D01*
X81740451Y-131635334D01*
X82140383Y-131505243D01*
X82436038Y-131347214D01*
X82592048Y-131031653D01*
X81280000Y-129719605D01*
X79967952Y-131031653D01*
X76943293Y-131031653D01*
X76830073Y-130462463D01*
X76567367Y-129828234D01*
X76403390Y-129582824D01*
X79135098Y-129582824D01*
X79184666Y-130000451D01*
X79314757Y-130400383D01*
X79472786Y-130696038D01*
X79788347Y-130852048D01*
X81100395Y-129540000D01*
X81459605Y-129540000D01*
X82771653Y-130852048D01*
X83087214Y-130696038D01*
X83278020Y-130321255D01*
X83392044Y-129916449D01*
X83424902Y-129497176D01*
X83375334Y-129079549D01*
X83245243Y-128679617D01*
X83087214Y-128383962D01*
X82771653Y-128227952D01*
X81459605Y-129540000D01*
X81100395Y-129540000D01*
X79788347Y-128227952D01*
X79472786Y-128383962D01*
X79281980Y-128758745D01*
X79167956Y-129163551D01*
X79135098Y-129582824D01*
X76403390Y-129582824D01*
X76185976Y-129257442D01*
X75700558Y-128772024D01*
X75129766Y-128390633D01*
X74495537Y-128127927D01*
X74095463Y-128048347D01*
X79967952Y-128048347D01*
X81280000Y-129360395D01*
X82592048Y-128048347D01*
X82436038Y-127732786D01*
X82061255Y-127541980D01*
X81656449Y-127427956D01*
X81237176Y-127395098D01*
X80819549Y-127444666D01*
X80419617Y-127574757D01*
X80123962Y-127732786D01*
X79967952Y-128048347D01*
X74095463Y-128048347D01*
X73822242Y-127994000D01*
X73135758Y-127994000D01*
X72462463Y-128127927D01*
X71828234Y-128390633D01*
X71257442Y-128772024D01*
X70772024Y-129257442D01*
X70660000Y-129425098D01*
X70660000Y-109032824D01*
X78215098Y-109032824D01*
X78264666Y-109450451D01*
X78394757Y-109850383D01*
X78552786Y-110146038D01*
X78868347Y-110302048D01*
X80180395Y-108990000D01*
X80539605Y-108990000D01*
X81851653Y-110302048D01*
X82167214Y-110146038D01*
X82358020Y-109771255D01*
X82472044Y-109366449D01*
X82504902Y-108947176D01*
X82455334Y-108529549D01*
X82325243Y-108129617D01*
X82167214Y-107833962D01*
X81851653Y-107677952D01*
X80539605Y-108990000D01*
X80180395Y-108990000D01*
X78868347Y-107677952D01*
X78552786Y-107833962D01*
X78361980Y-108208745D01*
X78247956Y-108613551D01*
X78215098Y-109032824D01*
X70660000Y-109032824D01*
X70660000Y-107498347D01*
X79047952Y-107498347D01*
X80360000Y-108810395D01*
X81672048Y-107498347D01*
X81516038Y-107182786D01*
X81141255Y-106991980D01*
X80736449Y-106877956D01*
X80317176Y-106845098D01*
X79899549Y-106894666D01*
X79499617Y-107024757D01*
X79203962Y-107182786D01*
X79047952Y-107498347D01*
X70660000Y-107498347D01*
X70660000Y-102084000D01*
X72029928Y-102084000D01*
X72042188Y-102208482D01*
X72078498Y-102328180D01*
X72137463Y-102438494D01*
X72216815Y-102535185D01*
X72313506Y-102614537D01*
X72423820Y-102673502D01*
X72543518Y-102709812D01*
X72668000Y-102722072D01*
X73882250Y-102719000D01*
X74041000Y-102560250D01*
X74041000Y-100711000D01*
X74295000Y-100711000D01*
X74295000Y-102560250D01*
X74453750Y-102719000D01*
X75668000Y-102722072D01*
X75792482Y-102709812D01*
X75912180Y-102673502D01*
X76022494Y-102614537D01*
X76119185Y-102535185D01*
X76198537Y-102438494D01*
X76257502Y-102328180D01*
X76293812Y-102208482D01*
X76306072Y-102084000D01*
X76303000Y-100869750D01*
X76144250Y-100711000D01*
X74295000Y-100711000D01*
X74041000Y-100711000D01*
X72191750Y-100711000D01*
X72033000Y-100869750D01*
X72029928Y-102084000D01*
X70660000Y-102084000D01*
X70660000Y-99084000D01*
X72029928Y-99084000D01*
X72033000Y-100298250D01*
X72191750Y-100457000D01*
X74041000Y-100457000D01*
X74041000Y-98607750D01*
X74295000Y-98607750D01*
X74295000Y-100457000D01*
X76144250Y-100457000D01*
X76303000Y-100298250D01*
X76306072Y-99084000D01*
X76293812Y-98959518D01*
X76257502Y-98839820D01*
X76198537Y-98729506D01*
X76119185Y-98632815D01*
X76022494Y-98553463D01*
X75912180Y-98494498D01*
X75792482Y-98458188D01*
X75668000Y-98445928D01*
X74453750Y-98449000D01*
X74295000Y-98607750D01*
X74041000Y-98607750D01*
X73882250Y-98449000D01*
X72668000Y-98445928D01*
X72543518Y-98458188D01*
X72423820Y-98494498D01*
X72313506Y-98553463D01*
X72216815Y-98632815D01*
X72137463Y-98729506D01*
X72078498Y-98839820D01*
X72042188Y-98959518D01*
X72029928Y-99084000D01*
X70660000Y-99084000D01*
X70660000Y-87144890D01*
X72347524Y-87144890D01*
X72439648Y-87407858D01*
X72586504Y-87659193D01*
X72779571Y-87877049D01*
X73011430Y-88053053D01*
X73273170Y-88180442D01*
X73554733Y-88254320D01*
X73787000Y-88114165D01*
X73787000Y-86915000D01*
X74041000Y-86915000D01*
X74041000Y-88114165D01*
X74273267Y-88254320D01*
X74554830Y-88180442D01*
X74816570Y-88053053D01*
X75048429Y-87877049D01*
X75241496Y-87659193D01*
X75388352Y-87407858D01*
X75480476Y-87144890D01*
X75359155Y-86915000D01*
X74041000Y-86915000D01*
X73787000Y-86915000D01*
X72468845Y-86915000D01*
X72347524Y-87144890D01*
X70660000Y-87144890D01*
X70660000Y-75532902D01*
X70772024Y-75700558D01*
X71257442Y-76185976D01*
X71828234Y-76567367D01*
X72462463Y-76830073D01*
X73135758Y-76964000D01*
X73822242Y-76964000D01*
X74495537Y-76830073D01*
X75129766Y-76567367D01*
X75700558Y-76185976D01*
X76185976Y-75700558D01*
X76567367Y-75129766D01*
X76830073Y-74495537D01*
X76964000Y-73822242D01*
X76964000Y-73135758D01*
X76830073Y-72462463D01*
X76567367Y-71828234D01*
X76185976Y-71257442D01*
X75700558Y-70772024D01*
X75532902Y-70660000D01*
X94869000Y-70660000D01*
X94869000Y-75031599D01*
%TA.AperFunction,Conductor*%
D43*
G36*
X94869000Y-75031599D02*
G01*
X89590048Y-75031599D01*
X89652282Y-74881352D01*
X89712800Y-74577104D01*
X89712800Y-74266896D01*
X89652282Y-73962648D01*
X89533570Y-73676052D01*
X89361227Y-73418123D01*
X89141877Y-73198773D01*
X89081699Y-73158564D01*
X89082346Y-73151999D01*
X89077800Y-73105842D01*
X89077800Y-73105833D01*
X89064202Y-72967767D01*
X89010463Y-72790614D01*
X88923196Y-72627349D01*
X88805754Y-72484246D01*
X88769889Y-72454812D01*
X88660589Y-72345513D01*
X88631153Y-72309645D01*
X88488050Y-72192203D01*
X88324785Y-72104936D01*
X88147632Y-72051197D01*
X88009566Y-72037599D01*
X88009556Y-72037599D01*
X87963399Y-72033053D01*
X87917242Y-72037599D01*
X79870747Y-72037599D01*
X79824590Y-72033053D01*
X79778433Y-72037599D01*
X79778424Y-72037599D01*
X79640358Y-72051197D01*
X79463205Y-72104936D01*
X79299940Y-72192203D01*
X79299938Y-72192204D01*
X79299939Y-72192204D01*
X79193524Y-72279537D01*
X79156837Y-72309645D01*
X79127409Y-72345503D01*
X77499115Y-73973799D01*
X77463246Y-74003236D01*
X77345804Y-74146339D01*
X77258537Y-74309605D01*
X77204798Y-74486758D01*
X77191200Y-74624824D01*
X77191200Y-74624833D01*
X77186654Y-74670990D01*
X77191200Y-74717148D01*
X77191201Y-76440768D01*
X77179170Y-76440768D01*
X77054688Y-76453028D01*
X76934990Y-76489338D01*
X76824676Y-76548303D01*
X76727985Y-76627655D01*
X76648633Y-76724346D01*
X76589668Y-76834660D01*
X76553358Y-76954358D01*
X76541098Y-77078840D01*
X76541098Y-78877160D01*
X76553358Y-79001642D01*
X76589668Y-79121340D01*
X76648633Y-79231654D01*
X76727985Y-79328345D01*
X76824676Y-79407697D01*
X76934990Y-79466662D01*
X77054688Y-79502972D01*
X77179170Y-79515232D01*
X77191201Y-79515232D01*
X77191200Y-80349952D01*
X77137614Y-80378595D01*
X77003038Y-80489038D01*
X76892595Y-80623614D01*
X76810528Y-80777150D01*
X76759992Y-80943746D01*
X76742928Y-81117000D01*
X76742928Y-81957310D01*
X75453639Y-83246600D01*
X75105405Y-83246600D01*
X75094134Y-83232866D01*
X75030663Y-83180777D01*
X75132386Y-83126405D01*
X75266962Y-83015962D01*
X75377405Y-82881386D01*
X75459472Y-82727850D01*
X75510008Y-82561254D01*
X75527072Y-82388000D01*
X75527072Y-81188000D01*
X75510008Y-81014746D01*
X75459472Y-80848150D01*
X75377405Y-80694614D01*
X75266962Y-80560038D01*
X75132386Y-80449595D01*
X74978850Y-80367528D01*
X74812254Y-80316992D01*
X74639000Y-80299928D01*
X73189000Y-80299928D01*
X73015746Y-80316992D01*
X72849150Y-80367528D01*
X72695614Y-80449595D01*
X72561038Y-80560038D01*
X72450595Y-80694614D01*
X72368528Y-80848150D01*
X72317992Y-81014746D01*
X72300928Y-81188000D01*
X72300928Y-82388000D01*
X72317992Y-82561254D01*
X72368528Y-82727850D01*
X72450595Y-82881386D01*
X72561038Y-83015962D01*
X72695614Y-83126405D01*
X72797337Y-83180777D01*
X72733866Y-83232866D01*
X72548294Y-83458986D01*
X72410401Y-83716966D01*
X72325487Y-83996889D01*
X72296815Y-84288000D01*
X72325487Y-84579111D01*
X72410401Y-84859034D01*
X72548294Y-85117014D01*
X72733866Y-85343134D01*
X72959986Y-85528706D01*
X72985722Y-85542462D01*
X72779571Y-85698951D01*
X72586504Y-85916807D01*
X72439648Y-86168142D01*
X72347524Y-86431110D01*
X72468845Y-86661000D01*
X73787000Y-86661000D01*
X73787000Y-86641000D01*
X74041000Y-86641000D01*
X74041000Y-86661000D01*
X75359155Y-86661000D01*
X75450453Y-86488000D01*
X80299928Y-86488000D01*
X80303000Y-87852250D01*
X80461750Y-88011000D01*
X81661000Y-88011000D01*
X81661000Y-86011750D01*
X81502250Y-85853000D01*
X80938000Y-85849928D01*
X80813518Y-85862188D01*
X80693820Y-85898498D01*
X80583506Y-85957463D01*
X80486815Y-86036815D01*
X80407463Y-86133506D01*
X80348498Y-86243820D01*
X80312188Y-86363518D01*
X80299928Y-86488000D01*
X75450453Y-86488000D01*
X75480476Y-86431110D01*
X75388352Y-86168142D01*
X75241496Y-85916807D01*
X75048429Y-85698951D01*
X74842278Y-85542462D01*
X74868014Y-85528706D01*
X75094134Y-85343134D01*
X75105405Y-85329400D01*
X75833859Y-85329400D01*
X75885000Y-85334437D01*
X75936141Y-85329400D01*
X75936152Y-85329400D01*
X76089150Y-85314331D01*
X76285454Y-85254783D01*
X76466370Y-85158081D01*
X76624943Y-85027943D01*
X76657552Y-84988209D01*
X77790690Y-83855072D01*
X78631000Y-83855072D01*
X78804254Y-83838008D01*
X78970850Y-83787472D01*
X79124386Y-83705405D01*
X79258962Y-83594962D01*
X79369405Y-83460386D01*
X79451472Y-83306850D01*
X79478727Y-83217000D01*
X79992928Y-83217000D01*
X80005188Y-83341482D01*
X80041498Y-83461180D01*
X80100463Y-83571494D01*
X80179815Y-83668185D01*
X80276506Y-83747537D01*
X80386820Y-83806502D01*
X80506518Y-83842812D01*
X80631000Y-83855072D01*
X81095250Y-83852000D01*
X81254000Y-83693250D01*
X81254000Y-82169000D01*
X81508000Y-82169000D01*
X81508000Y-83693250D01*
X81666750Y-83852000D01*
X82131000Y-83855072D01*
X82255482Y-83842812D01*
X82375180Y-83806502D01*
X82423000Y-83780941D01*
X82470820Y-83806502D01*
X82590518Y-83842812D01*
X82715000Y-83855072D01*
X83179250Y-83852000D01*
X83338000Y-83693250D01*
X83338000Y-82169000D01*
X83592000Y-82169000D01*
X83592000Y-83693250D01*
X83750750Y-83852000D01*
X84215000Y-83855072D01*
X84339482Y-83842812D01*
X84459180Y-83806502D01*
X84569494Y-83747537D01*
X84666185Y-83668185D01*
X84745537Y-83571494D01*
X84804502Y-83461180D01*
X84840812Y-83341482D01*
X84853072Y-83217000D01*
X84850000Y-82327750D01*
X84691250Y-82169000D01*
X83592000Y-82169000D01*
X83338000Y-82169000D01*
X81508000Y-82169000D01*
X81254000Y-82169000D01*
X80154750Y-82169000D01*
X79996000Y-82327750D01*
X79992928Y-83217000D01*
X79478727Y-83217000D01*
X79502008Y-83140254D01*
X79519072Y-82967000D01*
X79519072Y-81117000D01*
X79502008Y-80943746D01*
X79478728Y-80867000D01*
X79992928Y-80867000D01*
X79996000Y-81756250D01*
X80154750Y-81915000D01*
X81254000Y-81915000D01*
X81254000Y-80390750D01*
X81508000Y-80390750D01*
X81508000Y-81915000D01*
X83338000Y-81915000D01*
X83338000Y-80390750D01*
X83592000Y-80390750D01*
X83592000Y-81915000D01*
X84691250Y-81915000D01*
X84850000Y-81756250D01*
X84853072Y-80867000D01*
X84840812Y-80742518D01*
X84804502Y-80622820D01*
X84745537Y-80512506D01*
X84666185Y-80415815D01*
X84569494Y-80336463D01*
X84459180Y-80277498D01*
X84339482Y-80241188D01*
X84215000Y-80228928D01*
X83750750Y-80232000D01*
X83592000Y-80390750D01*
X83338000Y-80390750D01*
X83179250Y-80232000D01*
X82715000Y-80228928D01*
X82590518Y-80241188D01*
X82470820Y-80277498D01*
X82423000Y-80303059D01*
X82375180Y-80277498D01*
X82255482Y-80241188D01*
X82131000Y-80228928D01*
X81666750Y-80232000D01*
X81508000Y-80390750D01*
X81254000Y-80390750D01*
X81095250Y-80232000D01*
X80631000Y-80228928D01*
X80506518Y-80241188D01*
X80386820Y-80277498D01*
X80276506Y-80336463D01*
X80179815Y-80415815D01*
X80100463Y-80512506D01*
X80041498Y-80622820D01*
X80005188Y-80742518D01*
X79992928Y-80867000D01*
X79478728Y-80867000D01*
X79451472Y-80777150D01*
X79369405Y-80623614D01*
X79258962Y-80489038D01*
X79124386Y-80378595D01*
X79070800Y-80349953D01*
X79070800Y-79440048D01*
X79131324Y-79407697D01*
X79228015Y-79328345D01*
X79307367Y-79231654D01*
X79366332Y-79121340D01*
X79377540Y-79084392D01*
X79388748Y-79121340D01*
X79447713Y-79231654D01*
X79527065Y-79328345D01*
X79623756Y-79407697D01*
X79734070Y-79466662D01*
X79853768Y-79502972D01*
X79978250Y-79515232D01*
X80491330Y-79512160D01*
X80650080Y-79353410D01*
X80650080Y-78105000D01*
X80904080Y-78105000D01*
X80904080Y-79353410D01*
X81062830Y-79512160D01*
X81575910Y-79515232D01*
X81700392Y-79502972D01*
X81820090Y-79466662D01*
X81930404Y-79407697D01*
X82027095Y-79328345D01*
X82106447Y-79231654D01*
X82165412Y-79121340D01*
X82201722Y-79001642D01*
X82213982Y-78877160D01*
X82210910Y-78263750D01*
X82052160Y-78105000D01*
X80904080Y-78105000D01*
X80650080Y-78105000D01*
X80630080Y-78105000D01*
X80630080Y-77851000D01*
X80650080Y-77851000D01*
X80650080Y-76602590D01*
X80904080Y-76602590D01*
X80904080Y-77851000D01*
X82052160Y-77851000D01*
X82210910Y-77692250D01*
X82213982Y-77078840D01*
X82201722Y-76954358D01*
X82165412Y-76834660D01*
X82106447Y-76724346D01*
X82027095Y-76627655D01*
X81930404Y-76548303D01*
X81820090Y-76489338D01*
X81700392Y-76453028D01*
X81575910Y-76440768D01*
X81062830Y-76443840D01*
X80904080Y-76602590D01*
X80650080Y-76602590D01*
X80491330Y-76443840D01*
X79978250Y-76440768D01*
X79853768Y-76453028D01*
X79734070Y-76489338D01*
X79623756Y-76548303D01*
X79527065Y-76627655D01*
X79447713Y-76724346D01*
X79388748Y-76834660D01*
X79377540Y-76871608D01*
X79366332Y-76834660D01*
X79307367Y-76724346D01*
X79228015Y-76627655D01*
X79131324Y-76548303D01*
X79070800Y-76515952D01*
X79070800Y-75514476D01*
X79605129Y-75514476D01*
X79693623Y-75772723D01*
X79972976Y-75907597D01*
X80273275Y-75985381D01*
X80582977Y-76003084D01*
X80890184Y-75960027D01*
X81183086Y-75857865D01*
X81342377Y-75772723D01*
X81430871Y-75514476D01*
X80518000Y-74601605D01*
X79605129Y-75514476D01*
X79070800Y-75514476D01*
X79070800Y-75060266D01*
X79072268Y-75058798D01*
X79082135Y-75087086D01*
X79167277Y-75246377D01*
X79425524Y-75334871D01*
X80338395Y-74422000D01*
X80324253Y-74407858D01*
X80503858Y-74228253D01*
X80518000Y-74242395D01*
X80532143Y-74228253D01*
X80711748Y-74407858D01*
X80697605Y-74422000D01*
X81610476Y-75334871D01*
X81743505Y-75289286D01*
X81834773Y-75425877D01*
X82054123Y-75645227D01*
X82312052Y-75817570D01*
X82598648Y-75936282D01*
X82902896Y-75996800D01*
X83213104Y-75996800D01*
X83408534Y-75957927D01*
X85484194Y-78033588D01*
X85510436Y-78065564D01*
X85638068Y-78170309D01*
X85783683Y-78248142D01*
X85941684Y-78296071D01*
X86064830Y-78308200D01*
X86064837Y-78308200D01*
X86106000Y-78312254D01*
X86147163Y-78308200D01*
X88508235Y-78308200D01*
X88486246Y-78326246D01*
X88456817Y-78362105D01*
X87760114Y-79058810D01*
X87724246Y-79088246D01*
X87606804Y-79231349D01*
X87519537Y-79394615D01*
X87465798Y-79571768D01*
X87452200Y-79709834D01*
X87452200Y-79709843D01*
X87447654Y-79756000D01*
X87452200Y-79802157D01*
X87452200Y-80265390D01*
X87388254Y-80245992D01*
X87215000Y-80228928D01*
X86215000Y-80228928D01*
X86041746Y-80245992D01*
X85875150Y-80296528D01*
X85721614Y-80378595D01*
X85587038Y-80489038D01*
X85476595Y-80623614D01*
X85394528Y-80777150D01*
X85343992Y-80943746D01*
X85326928Y-81117000D01*
X85326928Y-82967000D01*
X85343992Y-83140254D01*
X85394528Y-83306850D01*
X85476595Y-83460386D01*
X85587038Y-83594962D01*
X85673601Y-83666002D01*
X85673601Y-84049637D01*
X85166639Y-84556600D01*
X84887144Y-84556600D01*
X84836000Y-84551563D01*
X84784856Y-84556600D01*
X84784848Y-84556600D01*
X84631850Y-84571669D01*
X84435546Y-84631217D01*
X84334645Y-84685150D01*
X84254630Y-84727919D01*
X84135789Y-84825449D01*
X84135785Y-84825453D01*
X84096057Y-84858057D01*
X84063452Y-84897786D01*
X83373790Y-85587449D01*
X83334057Y-85620057D01*
X83203919Y-85778630D01*
X83107217Y-85959547D01*
X83084856Y-86033262D01*
X82992494Y-85957463D01*
X82882180Y-85898498D01*
X82762482Y-85862188D01*
X82638000Y-85849928D01*
X82073750Y-85853000D01*
X81915000Y-86011750D01*
X81915000Y-88011000D01*
X81935000Y-88011000D01*
X81935000Y-88265000D01*
X81915000Y-88265000D01*
X81915000Y-90264250D01*
X82073750Y-90423000D01*
X82638000Y-90426072D01*
X82762482Y-90413812D01*
X82882180Y-90377502D01*
X82992494Y-90318537D01*
X83032601Y-90285622D01*
X83032601Y-91490378D01*
X82992494Y-91457463D01*
X82882180Y-91398498D01*
X82762482Y-91362188D01*
X82638000Y-91349928D01*
X80938000Y-91349928D01*
X80813518Y-91362188D01*
X80693820Y-91398498D01*
X80583506Y-91457463D01*
X80495472Y-91529710D01*
X79967072Y-91001311D01*
X79967072Y-89788000D01*
X80299928Y-89788000D01*
X80312188Y-89912482D01*
X80348498Y-90032180D01*
X80407463Y-90142494D01*
X80486815Y-90239185D01*
X80583506Y-90318537D01*
X80693820Y-90377502D01*
X80813518Y-90413812D01*
X80938000Y-90426072D01*
X81502250Y-90423000D01*
X81661000Y-90264250D01*
X81661000Y-88265000D01*
X80461750Y-88265000D01*
X80303000Y-88423750D01*
X80299928Y-89788000D01*
X79967072Y-89788000D01*
X79967072Y-89736000D01*
X79950008Y-89562746D01*
X79899472Y-89396150D01*
X79817405Y-89242614D01*
X79706962Y-89108038D01*
X79572386Y-88997595D01*
X79418850Y-88915528D01*
X79252254Y-88864992D01*
X79079000Y-88847928D01*
X78279000Y-88847928D01*
X78105746Y-88864992D01*
X77939150Y-88915528D01*
X77785614Y-88997595D01*
X77651038Y-89108038D01*
X77540595Y-89242614D01*
X77458528Y-89396150D01*
X77407992Y-89562746D01*
X77390928Y-89736000D01*
X77390928Y-92636000D01*
X77407992Y-92809254D01*
X77458528Y-92975850D01*
X77540595Y-93129386D01*
X77651038Y-93263962D01*
X77785614Y-93374405D01*
X77939150Y-93456472D01*
X78105746Y-93507008D01*
X78279000Y-93524072D01*
X79079000Y-93524072D01*
X79252254Y-93507008D01*
X79418850Y-93456472D01*
X79456556Y-93436318D01*
X80299928Y-94279690D01*
X80299928Y-95288000D01*
X80312188Y-95412482D01*
X80348498Y-95532180D01*
X80407463Y-95642494D01*
X80486815Y-95739185D01*
X80583506Y-95818537D01*
X80693820Y-95877502D01*
X80755775Y-95896296D01*
X80758823Y-95927238D01*
X80761670Y-95956149D01*
X80821218Y-96152455D01*
X80917919Y-96333369D01*
X81015450Y-96452211D01*
X81015454Y-96452215D01*
X81048058Y-96491943D01*
X81087786Y-96524547D01*
X81105267Y-96542028D01*
X81094928Y-96647000D01*
X81094928Y-97188986D01*
X80998307Y-96870469D01*
X80797828Y-96495400D01*
X80528030Y-96166650D01*
X80445642Y-96099036D01*
X78398964Y-94052358D01*
X78331350Y-93969970D01*
X78002600Y-93700172D01*
X77627531Y-93499693D01*
X77220558Y-93376239D01*
X76903381Y-93345000D01*
X76903378Y-93345000D01*
X76797320Y-93334554D01*
X76691262Y-93345000D01*
X76043144Y-93345000D01*
X75936506Y-92993461D01*
X75759613Y-92662518D01*
X75521556Y-92372444D01*
X75517072Y-92368764D01*
X75517072Y-89736000D01*
X75500008Y-89562746D01*
X75449472Y-89396150D01*
X75367405Y-89242614D01*
X75256962Y-89108038D01*
X75122386Y-88997595D01*
X74968850Y-88915528D01*
X74802254Y-88864992D01*
X74629000Y-88847928D01*
X73829000Y-88847928D01*
X73655746Y-88864992D01*
X73489150Y-88915528D01*
X73335614Y-88997595D01*
X73201038Y-89108038D01*
X73090595Y-89242614D01*
X73008528Y-89396150D01*
X72957992Y-89562746D01*
X72940928Y-89736000D01*
X72940928Y-90917104D01*
X72916377Y-90998037D01*
X72891857Y-91247000D01*
X72898001Y-91309382D01*
X72898001Y-92303872D01*
X72814445Y-92372444D01*
X72576388Y-92662518D01*
X72399495Y-92993461D01*
X72290565Y-93352555D01*
X72263000Y-93632418D01*
X72263000Y-94487999D01*
X72163693Y-94673789D01*
X72040239Y-95080762D01*
X71998554Y-95504000D01*
X72040239Y-95927238D01*
X72163693Y-96334211D01*
X72364172Y-96709280D01*
X72633970Y-97038030D01*
X72962720Y-97307828D01*
X73337789Y-97508307D01*
X73744762Y-97631761D01*
X74061939Y-97663000D01*
X75903034Y-97663000D01*
X76835000Y-98594966D01*
X76835000Y-100731942D01*
X76824554Y-100838000D01*
X76835000Y-100944058D01*
X76835000Y-100944061D01*
X76866239Y-101261238D01*
X76946746Y-101526631D01*
X76989694Y-101668211D01*
X77190172Y-102043279D01*
X77392361Y-102289647D01*
X77459971Y-102372030D01*
X77542354Y-102439640D01*
X84932976Y-109830263D01*
X83980480Y-110782759D01*
X81774985Y-110782759D01*
X81723841Y-110777722D01*
X81672697Y-110782759D01*
X81672689Y-110782759D01*
X81519691Y-110797828D01*
X81508588Y-110801196D01*
X81516038Y-110797214D01*
X81672048Y-110481653D01*
X80360000Y-109169605D01*
X79047952Y-110481653D01*
X79203962Y-110797214D01*
X79578745Y-110988020D01*
X79983551Y-111102044D01*
X80402824Y-111134902D01*
X80820451Y-111085334D01*
X81088961Y-110997992D01*
X81023630Y-111051608D01*
X81023626Y-111051612D01*
X80983898Y-111084216D01*
X80951293Y-111123945D01*
X79817786Y-112257453D01*
X79778058Y-112290057D01*
X79745454Y-112329785D01*
X79745450Y-112329789D01*
X79647919Y-112448631D01*
X79551218Y-112629545D01*
X79531593Y-112694240D01*
X79491670Y-112825850D01*
X79487759Y-112865559D01*
X79471563Y-113030000D01*
X79476601Y-113081151D01*
X79476600Y-115010848D01*
X79476600Y-115010849D01*
X79476601Y-116898278D01*
X79440498Y-116965820D01*
X79404188Y-117085518D01*
X79391928Y-117210000D01*
X79391928Y-118748627D01*
X79383670Y-118775850D01*
X79373161Y-118882551D01*
X79363563Y-118980000D01*
X79368601Y-119031151D01*
X79368601Y-119668770D01*
X79208382Y-119775825D01*
X78945825Y-120038382D01*
X78739534Y-120347118D01*
X78597439Y-120690166D01*
X78525000Y-121054344D01*
X78525000Y-121425656D01*
X78597439Y-121789834D01*
X78739534Y-122132882D01*
X78945825Y-122441618D01*
X79208382Y-122704175D01*
X79517118Y-122910466D01*
X79860166Y-123052561D01*
X80224344Y-123125000D01*
X80595656Y-123125000D01*
X80959834Y-123052561D01*
X81302882Y-122910466D01*
X81611618Y-122704175D01*
X81874175Y-122441618D01*
X82080466Y-122132882D01*
X82222561Y-121789834D01*
X82295000Y-121425656D01*
X82295000Y-121054344D01*
X82222561Y-120690166D01*
X82080466Y-120347118D01*
X81874175Y-120038382D01*
X81611618Y-119775825D01*
X81451400Y-119668771D01*
X81451400Y-119648072D01*
X82530000Y-119648072D01*
X82654482Y-119635812D01*
X82774180Y-119599502D01*
X82884494Y-119540537D01*
X82981185Y-119461185D01*
X83060537Y-119364494D01*
X83119502Y-119254180D01*
X83155812Y-119134482D01*
X83168072Y-119010000D01*
X83168072Y-117210000D01*
X83155812Y-117085518D01*
X83119502Y-116965820D01*
X83060537Y-116855506D01*
X82981185Y-116758815D01*
X82884494Y-116679463D01*
X82774180Y-116620498D01*
X82654482Y-116584188D01*
X82530000Y-116571928D01*
X81559400Y-116571928D01*
X81559400Y-113461361D01*
X82155203Y-112865559D01*
X84360700Y-112865559D01*
X84411841Y-112870596D01*
X84462982Y-112865559D01*
X84462993Y-112865559D01*
X84615991Y-112850490D01*
X84812295Y-112790942D01*
X84993211Y-112694240D01*
X85151784Y-112564102D01*
X85184393Y-112524368D01*
X86594942Y-111113820D01*
X86772762Y-111167761D01*
X87089939Y-111199000D01*
X87089942Y-111199000D01*
X87196000Y-111209446D01*
X87302058Y-111199000D01*
X92516061Y-111199000D01*
X92833238Y-111167761D01*
X93240211Y-111044307D01*
X93615280Y-110843828D01*
X93944030Y-110574030D01*
X94213828Y-110245280D01*
X94414307Y-109870211D01*
X94537761Y-109463238D01*
X94579446Y-109040000D01*
X94537761Y-108616762D01*
X94414307Y-108209789D01*
X94213828Y-107834720D01*
X93944030Y-107505970D01*
X93615280Y-107236172D01*
X93240211Y-107035693D01*
X92833238Y-106912239D01*
X92516061Y-106881000D01*
X88090287Y-106881000D01*
X82294358Y-101085072D01*
X84133000Y-101085072D01*
X84306254Y-101068008D01*
X84472850Y-101017472D01*
X84536281Y-100983568D01*
X84536281Y-101528529D01*
X84531243Y-101579680D01*
X84536281Y-101630831D01*
X84536281Y-101630832D01*
X84543837Y-101707544D01*
X84551350Y-101783829D01*
X84610898Y-101980135D01*
X84707599Y-102161049D01*
X84805130Y-102279891D01*
X84805134Y-102279895D01*
X84837738Y-102319623D01*
X84877466Y-102352227D01*
X85333448Y-102808209D01*
X85366057Y-102847943D01*
X85524630Y-102978081D01*
X85705546Y-103074783D01*
X85901850Y-103134331D01*
X86054848Y-103149400D01*
X86054858Y-103149400D01*
X86105999Y-103154437D01*
X86157141Y-103149400D01*
X91388859Y-103149400D01*
X91440000Y-103154437D01*
X91491141Y-103149400D01*
X91491152Y-103149400D01*
X91644150Y-103134331D01*
X91840454Y-103074783D01*
X92021370Y-102978081D01*
X92179943Y-102847943D01*
X92212552Y-102808209D01*
X92847551Y-102173210D01*
X92945081Y-102054370D01*
X93000887Y-101949964D01*
X94552818Y-103501896D01*
X94582246Y-103537754D01*
X94618104Y-103567182D01*
X94618106Y-103567184D01*
X94725348Y-103655196D01*
X94869000Y-103731979D01*
X94869000Y-109939607D01*
X93416413Y-111392194D01*
X93384437Y-111418436D01*
X93358195Y-111450412D01*
X93358192Y-111450415D01*
X93279691Y-111546069D01*
X93201858Y-111691684D01*
X93153929Y-111849685D01*
X93142134Y-111969446D01*
X93130035Y-111979375D01*
X93080840Y-112039319D01*
X93031645Y-111979375D01*
X92934954Y-111900023D01*
X92824640Y-111841058D01*
X92704942Y-111804748D01*
X92580460Y-111792488D01*
X91782900Y-111792488D01*
X91658418Y-111804748D01*
X91538720Y-111841058D01*
X91428406Y-111900023D01*
X91331715Y-111979375D01*
X91252363Y-112076066D01*
X91193398Y-112186380D01*
X91157088Y-112306078D01*
X91144828Y-112430560D01*
X91144828Y-113629440D01*
X91157088Y-113753922D01*
X91193398Y-113873620D01*
X91241880Y-113964323D01*
X91241881Y-114630200D01*
X89996156Y-114630200D01*
X89949999Y-114625654D01*
X89903842Y-114630200D01*
X89903833Y-114630200D01*
X89765767Y-114643798D01*
X89588614Y-114697537D01*
X89425349Y-114784804D01*
X89343558Y-114851928D01*
X89180000Y-114851928D01*
X89055518Y-114864188D01*
X88935820Y-114900498D01*
X88825506Y-114959463D01*
X88728815Y-115038815D01*
X88649463Y-115135506D01*
X88590498Y-115245820D01*
X88554188Y-115365518D01*
X88541928Y-115490000D01*
X88541928Y-116001905D01*
X88531185Y-115988815D01*
X88434494Y-115909463D01*
X88324180Y-115850498D01*
X88204482Y-115814188D01*
X88080000Y-115801928D01*
X87180000Y-115801928D01*
X87145011Y-115805374D01*
X87150912Y-115785922D01*
X87163172Y-115661440D01*
X87163172Y-114462560D01*
X87150912Y-114338078D01*
X87114602Y-114218380D01*
X87055637Y-114108066D01*
X86976285Y-114011375D01*
X86879594Y-113932023D01*
X86769280Y-113873058D01*
X86649582Y-113836748D01*
X86525100Y-113824488D01*
X85727540Y-113824488D01*
X85603058Y-113836748D01*
X85483360Y-113873058D01*
X85373046Y-113932023D01*
X85276355Y-114011375D01*
X85227160Y-114071319D01*
X85177965Y-114011375D01*
X85081274Y-113932023D01*
X84970960Y-113873058D01*
X84851262Y-113836748D01*
X84726780Y-113824488D01*
X83929220Y-113824488D01*
X83804738Y-113836748D01*
X83685040Y-113873058D01*
X83574726Y-113932023D01*
X83478035Y-114011375D01*
X83458859Y-114034742D01*
X83419939Y-114027000D01*
X83216061Y-114027000D01*
X83016102Y-114066774D01*
X82827744Y-114144795D01*
X82658226Y-114258063D01*
X82514063Y-114402226D01*
X82400795Y-114571744D01*
X82322774Y-114760102D01*
X82283000Y-114960061D01*
X82283000Y-115163939D01*
X82322774Y-115363898D01*
X82400795Y-115552256D01*
X82514063Y-115721774D01*
X82658226Y-115865937D01*
X82827744Y-115979205D01*
X83016102Y-116057226D01*
X83216061Y-116097000D01*
X83419939Y-116097000D01*
X83458859Y-116089258D01*
X83478035Y-116112625D01*
X83574726Y-116191977D01*
X83685040Y-116250942D01*
X83804738Y-116287252D01*
X83929220Y-116299512D01*
X84726780Y-116299512D01*
X84851262Y-116287252D01*
X84970960Y-116250942D01*
X85081274Y-116191977D01*
X85177965Y-116112625D01*
X85227160Y-116052681D01*
X85276355Y-116112625D01*
X85288121Y-116122281D01*
X85288121Y-116375148D01*
X85284066Y-116416320D01*
X85299391Y-116571928D01*
X84030000Y-116571928D01*
X83905518Y-116584188D01*
X83785820Y-116620498D01*
X83675506Y-116679463D01*
X83578815Y-116758815D01*
X83499463Y-116855506D01*
X83440498Y-116965820D01*
X83404188Y-117085518D01*
X83391928Y-117210000D01*
X83391928Y-119010000D01*
X83404188Y-119134482D01*
X83440498Y-119254180D01*
X83499463Y-119364494D01*
X83578815Y-119461185D01*
X83675506Y-119540537D01*
X83785820Y-119599502D01*
X83905518Y-119635812D01*
X84030000Y-119648072D01*
X85345311Y-119648072D01*
X86756881Y-121059643D01*
X86360000Y-121020554D01*
X85936763Y-121062239D01*
X85529790Y-121185693D01*
X85154721Y-121386172D01*
X84825971Y-121655970D01*
X84556173Y-121984720D01*
X84355694Y-122359789D01*
X84232240Y-122766762D01*
X84201001Y-123083939D01*
X84201000Y-129646060D01*
X84221928Y-129858547D01*
X84221928Y-131040000D01*
X84234188Y-131164482D01*
X84270498Y-131284180D01*
X84329463Y-131394494D01*
X84408815Y-131491185D01*
X84505506Y-131570537D01*
X84615820Y-131629502D01*
X84735518Y-131665812D01*
X84860000Y-131678072D01*
X86041452Y-131678072D01*
X86360000Y-131709446D01*
X86678547Y-131678072D01*
X87860000Y-131678072D01*
X87984482Y-131665812D01*
X88104180Y-131629502D01*
X88214494Y-131570537D01*
X88311185Y-131491185D01*
X88390537Y-131394494D01*
X88449502Y-131284180D01*
X88485812Y-131164482D01*
X88498072Y-131040000D01*
X88498072Y-129858548D01*
X88519000Y-129646061D01*
X88519000Y-125551762D01*
X88932488Y-125965250D01*
X88932488Y-126499620D01*
X88944748Y-126624102D01*
X88981058Y-126743800D01*
X89040023Y-126854114D01*
X89119375Y-126950805D01*
X89179319Y-127000000D01*
X89119375Y-127049195D01*
X89040023Y-127145886D01*
X88981058Y-127256200D01*
X88944748Y-127375898D01*
X88932488Y-127500380D01*
X88932488Y-128202005D01*
X88916346Y-128210633D01*
X88819655Y-128289985D01*
X88740303Y-128386676D01*
X88681338Y-128496990D01*
X88645028Y-128616688D01*
X88632768Y-128741170D01*
X88632768Y-130338830D01*
X88645028Y-130463312D01*
X88681338Y-130583010D01*
X88740303Y-130693324D01*
X88819655Y-130790015D01*
X88916346Y-130869367D01*
X89026660Y-130928332D01*
X89063608Y-130939540D01*
X89026660Y-130950748D01*
X88916346Y-131009713D01*
X88819655Y-131089065D01*
X88740303Y-131185756D01*
X88681338Y-131296070D01*
X88645028Y-131415768D01*
X88632768Y-131540250D01*
X88635840Y-132053330D01*
X88794590Y-132212080D01*
X90043000Y-132212080D01*
X90043000Y-132192080D01*
X90297000Y-132192080D01*
X90297000Y-132212080D01*
X91545410Y-132212080D01*
X91704160Y-132053330D01*
X91705414Y-131843780D01*
X93377488Y-131843780D01*
X93389748Y-131968262D01*
X93426058Y-132087960D01*
X93485023Y-132198274D01*
X93564375Y-132294965D01*
X93661066Y-132374317D01*
X93771380Y-132433282D01*
X93891078Y-132469592D01*
X94015560Y-132481852D01*
X94329250Y-132478780D01*
X94488000Y-132320030D01*
X94488000Y-131572000D01*
X93539310Y-131572000D01*
X93380560Y-131730750D01*
X93377488Y-131843780D01*
X91705414Y-131843780D01*
X91707232Y-131540250D01*
X91694972Y-131415768D01*
X91658662Y-131296070D01*
X91599697Y-131185756D01*
X91520345Y-131089065D01*
X91423654Y-131009713D01*
X91313340Y-130950748D01*
X91276392Y-130939540D01*
X91313340Y-130928332D01*
X91423654Y-130869367D01*
X91520345Y-130790015D01*
X91599697Y-130693324D01*
X91658662Y-130583010D01*
X91694972Y-130463312D01*
X91707232Y-130338830D01*
X91707232Y-128741170D01*
X91694972Y-128616688D01*
X91658662Y-128496990D01*
X91599697Y-128386676D01*
X91520345Y-128289985D01*
X91423654Y-128210633D01*
X91407512Y-128202005D01*
X91407512Y-127500380D01*
X91395252Y-127375898D01*
X91358942Y-127256200D01*
X91299977Y-127145886D01*
X91220625Y-127049195D01*
X91160681Y-127000000D01*
X91220625Y-126950805D01*
X91299977Y-126854114D01*
X91358942Y-126743800D01*
X91395252Y-126624102D01*
X91407512Y-126499620D01*
X91407512Y-125702060D01*
X91395252Y-125577578D01*
X91358942Y-125457880D01*
X91299977Y-125347566D01*
X91220625Y-125250875D01*
X91123934Y-125171523D01*
X91013620Y-125112558D01*
X91009437Y-125111289D01*
X90942550Y-125029788D01*
X90942547Y-125029785D01*
X90909943Y-124990057D01*
X90870215Y-124957453D01*
X88404261Y-122491500D01*
X88364307Y-122359789D01*
X88320382Y-122277611D01*
X88358848Y-122281400D01*
X88358858Y-122281400D01*
X88409999Y-122286437D01*
X88461141Y-122281400D01*
X90838771Y-122281400D01*
X90945825Y-122441618D01*
X91208382Y-122704175D01*
X91517118Y-122910466D01*
X91860166Y-123052561D01*
X92224344Y-123125000D01*
X92595656Y-123125000D01*
X92959834Y-123052561D01*
X93302882Y-122910466D01*
X93611618Y-122704175D01*
X93874175Y-122441618D01*
X94080466Y-122132882D01*
X94222561Y-121789834D01*
X94295000Y-121425656D01*
X94295000Y-121054344D01*
X94222561Y-120690166D01*
X94080466Y-120347118D01*
X93874175Y-120038382D01*
X93611618Y-119775825D01*
X93302882Y-119569534D01*
X92959834Y-119427439D01*
X92595656Y-119355000D01*
X92224344Y-119355000D01*
X91860166Y-119427439D01*
X91517118Y-119569534D01*
X91208382Y-119775825D01*
X90945825Y-120038382D01*
X90838771Y-120198600D01*
X88841362Y-120198600D01*
X87168072Y-118525311D01*
X87168072Y-118190000D01*
X88541928Y-118190000D01*
X88554188Y-118314482D01*
X88590498Y-118434180D01*
X88649463Y-118544494D01*
X88728815Y-118641185D01*
X88825506Y-118720537D01*
X88935820Y-118779502D01*
X89055518Y-118815812D01*
X89180000Y-118828072D01*
X89344250Y-118825000D01*
X89503000Y-118666250D01*
X89503000Y-117917000D01*
X89757000Y-117917000D01*
X89757000Y-118666250D01*
X89915750Y-118825000D01*
X90080000Y-118828072D01*
X90204482Y-118815812D01*
X90324180Y-118779502D01*
X90434494Y-118720537D01*
X90531185Y-118641185D01*
X90610537Y-118544494D01*
X90669502Y-118434180D01*
X90705812Y-118314482D01*
X90718072Y-118190000D01*
X90715000Y-118075750D01*
X90556250Y-117917000D01*
X89757000Y-117917000D01*
X89503000Y-117917000D01*
X88703750Y-117917000D01*
X88545000Y-118075750D01*
X88541928Y-118190000D01*
X87168072Y-118190000D01*
X87168072Y-117876897D01*
X87180000Y-117878072D01*
X88080000Y-117878072D01*
X88204482Y-117865812D01*
X88324180Y-117829502D01*
X88434494Y-117770537D01*
X88531185Y-117691185D01*
X88610537Y-117594494D01*
X88619143Y-117578393D01*
X88703750Y-117663000D01*
X89503000Y-117663000D01*
X89503000Y-117643000D01*
X89757000Y-117643000D01*
X89757000Y-117663000D01*
X90556250Y-117663000D01*
X90715000Y-117504250D01*
X90718072Y-117390000D01*
X90705812Y-117265518D01*
X90669502Y-117145820D01*
X90610537Y-117035506D01*
X90531185Y-116938815D01*
X90434494Y-116859463D01*
X90398082Y-116840000D01*
X90434494Y-116820537D01*
X90531185Y-116741185D01*
X90610537Y-116644494D01*
X90669502Y-116534180D01*
X90676898Y-116509800D01*
X91244808Y-116509800D01*
X91252363Y-116523934D01*
X91331715Y-116620625D01*
X91428406Y-116699977D01*
X91538720Y-116758942D01*
X91658418Y-116795252D01*
X91782900Y-116807512D01*
X92580460Y-116807512D01*
X92704942Y-116795252D01*
X92824640Y-116758942D01*
X92934954Y-116699977D01*
X93031645Y-116620625D01*
X93080840Y-116560681D01*
X93130035Y-116620625D01*
X93226726Y-116699977D01*
X93337040Y-116758942D01*
X93456738Y-116795252D01*
X93581220Y-116807512D01*
X93694250Y-116804440D01*
X93853000Y-116645690D01*
X93853000Y-115697000D01*
X93833000Y-115697000D01*
X93833000Y-115443000D01*
X93853000Y-115443000D01*
X93853000Y-114494310D01*
X93694250Y-114335560D01*
X93581220Y-114332488D01*
X93456738Y-114344748D01*
X93337040Y-114381058D01*
X93226726Y-114440023D01*
X93130035Y-114519375D01*
X93121480Y-114529799D01*
X93121480Y-114070201D01*
X93130035Y-114080625D01*
X93226726Y-114159977D01*
X93337040Y-114218942D01*
X93456738Y-114255252D01*
X93581220Y-114267512D01*
X94378780Y-114267512D01*
X94503262Y-114255252D01*
X94622960Y-114218942D01*
X94733274Y-114159977D01*
X94829965Y-114080625D01*
X94869000Y-114033061D01*
X94869000Y-114566939D01*
X94829965Y-114519375D01*
X94733274Y-114440023D01*
X94622960Y-114381058D01*
X94503262Y-114344748D01*
X94378780Y-114332488D01*
X94265750Y-114335560D01*
X94107000Y-114494310D01*
X94107000Y-115443000D01*
X94127000Y-115443000D01*
X94127000Y-115697000D01*
X94107000Y-115697000D01*
X94107000Y-116645690D01*
X94265750Y-116804440D01*
X94378780Y-116807512D01*
X94503262Y-116795252D01*
X94622960Y-116758942D01*
X94733274Y-116699977D01*
X94829965Y-116620625D01*
X94869000Y-116573061D01*
X94869000Y-127935256D01*
X94783468Y-128005450D01*
X94783465Y-128005453D01*
X94743737Y-128038057D01*
X94711132Y-128077786D01*
X94179091Y-128609828D01*
X94015560Y-128609828D01*
X93891078Y-128622088D01*
X93771380Y-128658398D01*
X93661066Y-128717363D01*
X93564375Y-128796715D01*
X93485023Y-128893406D01*
X93426058Y-129003720D01*
X93389748Y-129123418D01*
X93377488Y-129247900D01*
X93377488Y-130045460D01*
X93389748Y-130169942D01*
X93426058Y-130289640D01*
X93485023Y-130399954D01*
X93564375Y-130496645D01*
X93624319Y-130545840D01*
X93564375Y-130595035D01*
X93485023Y-130691726D01*
X93426058Y-130802040D01*
X93389748Y-130921738D01*
X93377488Y-131046220D01*
X93380560Y-131159250D01*
X93539310Y-131318000D01*
X94488000Y-131318000D01*
X94488000Y-131298000D01*
X94742000Y-131298000D01*
X94742000Y-131318000D01*
X94762000Y-131318000D01*
X94762000Y-131572000D01*
X94742000Y-131572000D01*
X94742000Y-132320030D01*
X94869000Y-132447030D01*
X94869000Y-134340000D01*
X75470045Y-134340000D01*
X75700558Y-134185976D01*
X76185976Y-133700558D01*
X76561925Y-133137910D01*
X88632768Y-133137910D01*
X88645028Y-133262392D01*
X88681338Y-133382090D01*
X88740303Y-133492404D01*
X88819655Y-133589095D01*
X88916346Y-133668447D01*
X89026660Y-133727412D01*
X89146358Y-133763722D01*
X89270840Y-133775982D01*
X89884250Y-133772910D01*
X90043000Y-133614160D01*
X90043000Y-132466080D01*
X90297000Y-132466080D01*
X90297000Y-133614160D01*
X90455750Y-133772910D01*
X91069160Y-133775982D01*
X91193642Y-133763722D01*
X91313340Y-133727412D01*
X91423654Y-133668447D01*
X91520345Y-133589095D01*
X91599697Y-133492404D01*
X91658662Y-133382090D01*
X91694972Y-133262392D01*
X91707232Y-133137910D01*
X91704160Y-132624830D01*
X91545410Y-132466080D01*
X90297000Y-132466080D01*
X90043000Y-132466080D01*
X88794590Y-132466080D01*
X88635840Y-132624830D01*
X88632768Y-133137910D01*
X76561925Y-133137910D01*
X76567367Y-133129766D01*
X76830073Y-132495537D01*
X76964000Y-131822242D01*
X76964000Y-131135758D01*
X76943293Y-131031653D01*
X79967952Y-131031653D01*
X80123962Y-131347214D01*
X80498745Y-131538020D01*
X80903551Y-131652044D01*
X81322824Y-131684902D01*
X81740451Y-131635334D01*
X82140383Y-131505243D01*
X82436038Y-131347214D01*
X82592048Y-131031653D01*
X81280000Y-129719605D01*
X79967952Y-131031653D01*
X76943293Y-131031653D01*
X76830073Y-130462463D01*
X76567367Y-129828234D01*
X76403390Y-129582824D01*
X79135098Y-129582824D01*
X79184666Y-130000451D01*
X79314757Y-130400383D01*
X79472786Y-130696038D01*
X79788347Y-130852048D01*
X81100395Y-129540000D01*
X81459605Y-129540000D01*
X82771653Y-130852048D01*
X83087214Y-130696038D01*
X83278020Y-130321255D01*
X83392044Y-129916449D01*
X83424902Y-129497176D01*
X83375334Y-129079549D01*
X83245243Y-128679617D01*
X83087214Y-128383962D01*
X82771653Y-128227952D01*
X81459605Y-129540000D01*
X81100395Y-129540000D01*
X79788347Y-128227952D01*
X79472786Y-128383962D01*
X79281980Y-128758745D01*
X79167956Y-129163551D01*
X79135098Y-129582824D01*
X76403390Y-129582824D01*
X76185976Y-129257442D01*
X75700558Y-128772024D01*
X75129766Y-128390633D01*
X74495537Y-128127927D01*
X74095463Y-128048347D01*
X79967952Y-128048347D01*
X81280000Y-129360395D01*
X82592048Y-128048347D01*
X82436038Y-127732786D01*
X82061255Y-127541980D01*
X81656449Y-127427956D01*
X81237176Y-127395098D01*
X80819549Y-127444666D01*
X80419617Y-127574757D01*
X80123962Y-127732786D01*
X79967952Y-128048347D01*
X74095463Y-128048347D01*
X73822242Y-127994000D01*
X73135758Y-127994000D01*
X72462463Y-128127927D01*
X71828234Y-128390633D01*
X71257442Y-128772024D01*
X70772024Y-129257442D01*
X70660000Y-129425098D01*
X70660000Y-109032824D01*
X78215098Y-109032824D01*
X78264666Y-109450451D01*
X78394757Y-109850383D01*
X78552786Y-110146038D01*
X78868347Y-110302048D01*
X80180395Y-108990000D01*
X80539605Y-108990000D01*
X81851653Y-110302048D01*
X82167214Y-110146038D01*
X82358020Y-109771255D01*
X82472044Y-109366449D01*
X82504902Y-108947176D01*
X82455334Y-108529549D01*
X82325243Y-108129617D01*
X82167214Y-107833962D01*
X81851653Y-107677952D01*
X80539605Y-108990000D01*
X80180395Y-108990000D01*
X78868347Y-107677952D01*
X78552786Y-107833962D01*
X78361980Y-108208745D01*
X78247956Y-108613551D01*
X78215098Y-109032824D01*
X70660000Y-109032824D01*
X70660000Y-107498347D01*
X79047952Y-107498347D01*
X80360000Y-108810395D01*
X81672048Y-107498347D01*
X81516038Y-107182786D01*
X81141255Y-106991980D01*
X80736449Y-106877956D01*
X80317176Y-106845098D01*
X79899549Y-106894666D01*
X79499617Y-107024757D01*
X79203962Y-107182786D01*
X79047952Y-107498347D01*
X70660000Y-107498347D01*
X70660000Y-102084000D01*
X72029928Y-102084000D01*
X72042188Y-102208482D01*
X72078498Y-102328180D01*
X72137463Y-102438494D01*
X72216815Y-102535185D01*
X72313506Y-102614537D01*
X72423820Y-102673502D01*
X72543518Y-102709812D01*
X72668000Y-102722072D01*
X73882250Y-102719000D01*
X74041000Y-102560250D01*
X74041000Y-100711000D01*
X74295000Y-100711000D01*
X74295000Y-102560250D01*
X74453750Y-102719000D01*
X75668000Y-102722072D01*
X75792482Y-102709812D01*
X75912180Y-102673502D01*
X76022494Y-102614537D01*
X76119185Y-102535185D01*
X76198537Y-102438494D01*
X76257502Y-102328180D01*
X76293812Y-102208482D01*
X76306072Y-102084000D01*
X76303000Y-100869750D01*
X76144250Y-100711000D01*
X74295000Y-100711000D01*
X74041000Y-100711000D01*
X72191750Y-100711000D01*
X72033000Y-100869750D01*
X72029928Y-102084000D01*
X70660000Y-102084000D01*
X70660000Y-99084000D01*
X72029928Y-99084000D01*
X72033000Y-100298250D01*
X72191750Y-100457000D01*
X74041000Y-100457000D01*
X74041000Y-98607750D01*
X74295000Y-98607750D01*
X74295000Y-100457000D01*
X76144250Y-100457000D01*
X76303000Y-100298250D01*
X76306072Y-99084000D01*
X76293812Y-98959518D01*
X76257502Y-98839820D01*
X76198537Y-98729506D01*
X76119185Y-98632815D01*
X76022494Y-98553463D01*
X75912180Y-98494498D01*
X75792482Y-98458188D01*
X75668000Y-98445928D01*
X74453750Y-98449000D01*
X74295000Y-98607750D01*
X74041000Y-98607750D01*
X73882250Y-98449000D01*
X72668000Y-98445928D01*
X72543518Y-98458188D01*
X72423820Y-98494498D01*
X72313506Y-98553463D01*
X72216815Y-98632815D01*
X72137463Y-98729506D01*
X72078498Y-98839820D01*
X72042188Y-98959518D01*
X72029928Y-99084000D01*
X70660000Y-99084000D01*
X70660000Y-87144890D01*
X72347524Y-87144890D01*
X72439648Y-87407858D01*
X72586504Y-87659193D01*
X72779571Y-87877049D01*
X73011430Y-88053053D01*
X73273170Y-88180442D01*
X73554733Y-88254320D01*
X73787000Y-88114165D01*
X73787000Y-86915000D01*
X74041000Y-86915000D01*
X74041000Y-88114165D01*
X74273267Y-88254320D01*
X74554830Y-88180442D01*
X74816570Y-88053053D01*
X75048429Y-87877049D01*
X75241496Y-87659193D01*
X75388352Y-87407858D01*
X75480476Y-87144890D01*
X75359155Y-86915000D01*
X74041000Y-86915000D01*
X73787000Y-86915000D01*
X72468845Y-86915000D01*
X72347524Y-87144890D01*
X70660000Y-87144890D01*
X70660000Y-75532902D01*
X70772024Y-75700558D01*
X71257442Y-76185976D01*
X71828234Y-76567367D01*
X72462463Y-76830073D01*
X73135758Y-76964000D01*
X73822242Y-76964000D01*
X74495537Y-76830073D01*
X75129766Y-76567367D01*
X75700558Y-76185976D01*
X76185976Y-75700558D01*
X76567367Y-75129766D01*
X76830073Y-74495537D01*
X76964000Y-73822242D01*
X76964000Y-73135758D01*
X76830073Y-72462463D01*
X76567367Y-71828234D01*
X76185976Y-71257442D01*
X75700558Y-70772024D01*
X75532902Y-70660000D01*
X94869000Y-70660000D01*
X94869000Y-75031599D01*
G37*
%TD.AperFunction*%
D42*
X94186102Y-79989226D02*
X94386061Y-80029000D01*
X94589939Y-80029000D01*
X94789898Y-79989226D01*
X94869000Y-79956460D01*
X94869000Y-83218524D01*
X94794070Y-83220560D01*
X94635320Y-83379310D01*
X94635320Y-84328000D01*
X94655320Y-84328000D01*
X94655320Y-84582000D01*
X94635320Y-84582000D01*
X94635320Y-85530690D01*
X94794070Y-85689440D01*
X94869000Y-85691476D01*
X94869000Y-89585770D01*
X94771482Y-89556188D01*
X94647000Y-89543928D01*
X93757750Y-89547000D01*
X93599000Y-89705750D01*
X93599000Y-90805000D01*
X93619000Y-90805000D01*
X93619000Y-91059000D01*
X93599000Y-91059000D01*
X93599000Y-92158250D01*
X93757750Y-92317000D01*
X94647000Y-92320072D01*
X94771482Y-92307812D01*
X94869000Y-92278230D01*
X94869000Y-92932164D01*
X94736850Y-92861528D01*
X94570254Y-92810992D01*
X94397000Y-92793928D01*
X92547000Y-92793928D01*
X92373746Y-92810992D01*
X92207150Y-92861528D01*
X92053614Y-92943595D01*
X91935412Y-93040600D01*
X91059995Y-93040600D01*
X91051812Y-92957518D01*
X91015502Y-92837820D01*
X90956537Y-92727506D01*
X90877185Y-92630815D01*
X90780494Y-92551463D01*
X90670180Y-92492498D01*
X90550482Y-92456188D01*
X90514200Y-92452615D01*
X90514200Y-92281193D01*
X91632747Y-91162646D01*
X91664724Y-91136404D01*
X91728246Y-91059002D01*
X91820748Y-91059002D01*
X91662000Y-91217750D01*
X91658928Y-91682000D01*
X91671188Y-91806482D01*
X91707498Y-91926180D01*
X91766463Y-92036494D01*
X91845815Y-92133185D01*
X91942506Y-92212537D01*
X92052820Y-92271502D01*
X92172518Y-92307812D01*
X92297000Y-92320072D01*
X93186250Y-92317000D01*
X93345000Y-92158250D01*
X93345000Y-91059000D01*
X93325000Y-91059000D01*
X93325000Y-90805000D01*
X93345000Y-90805000D01*
X93345000Y-89705750D01*
X93186250Y-89547000D01*
X92297000Y-89543928D01*
X92172518Y-89556188D01*
X92052820Y-89592498D01*
X91942506Y-89651463D01*
X91907360Y-89680306D01*
X91907360Y-86150280D01*
X91919125Y-86140625D01*
X91998477Y-86043934D01*
X92057442Y-85933620D01*
X92093752Y-85813922D01*
X92106012Y-85689440D01*
X92106012Y-85655764D01*
X92186738Y-85680252D01*
X92311220Y-85692512D01*
X93108780Y-85692512D01*
X93233262Y-85680252D01*
X93352960Y-85643942D01*
X93463274Y-85584977D01*
X93559965Y-85505625D01*
X93609160Y-85445681D01*
X93658355Y-85505625D01*
X93755046Y-85584977D01*
X93865360Y-85643942D01*
X93985058Y-85680252D01*
X94109540Y-85692512D01*
X94222570Y-85689440D01*
X94381320Y-85530690D01*
X94381320Y-84582000D01*
X94361320Y-84582000D01*
X94361320Y-84328000D01*
X94381320Y-84328000D01*
X94381320Y-83379310D01*
X94222570Y-83220560D01*
X94109540Y-83217488D01*
X93985058Y-83229748D01*
X93865360Y-83266058D01*
X93755046Y-83325023D01*
X93658355Y-83404375D01*
X93609160Y-83464319D01*
X93559965Y-83404375D01*
X93463274Y-83325023D01*
X93352960Y-83266058D01*
X93233262Y-83229748D01*
X93108780Y-83217488D01*
X92702779Y-83217488D01*
X92732812Y-83118482D01*
X92745072Y-82994000D01*
X92742000Y-82529750D01*
X92583250Y-82371000D01*
X91059000Y-82371000D01*
X91059000Y-83470250D01*
X91217750Y-83629000D01*
X91535986Y-83630099D01*
X91381843Y-83676858D01*
X91236228Y-83754691D01*
X91117062Y-83852488D01*
X90670380Y-83852488D01*
X90545898Y-83864748D01*
X90426200Y-83901058D01*
X90315886Y-83960023D01*
X90219195Y-84039375D01*
X90170000Y-84099319D01*
X90120805Y-84039375D01*
X90024114Y-83960023D01*
X89913800Y-83901058D01*
X89794102Y-83864748D01*
X89669620Y-83852488D01*
X89362405Y-83852488D01*
X89331800Y-83821883D01*
X89331800Y-83466510D01*
X89402506Y-83524537D01*
X89512820Y-83583502D01*
X89632518Y-83619812D01*
X89757000Y-83632072D01*
X90646250Y-83629000D01*
X90805000Y-83470250D01*
X90805000Y-82371000D01*
X90785000Y-82371000D01*
X90785000Y-82117000D01*
X90805000Y-82117000D01*
X90805000Y-81017750D01*
X91059000Y-81017750D01*
X91059000Y-82117000D01*
X92583250Y-82117000D01*
X92742000Y-81958250D01*
X92745072Y-81494000D01*
X92732812Y-81369518D01*
X92696502Y-81249820D01*
X92637537Y-81139506D01*
X92558185Y-81042815D01*
X92461494Y-80963463D01*
X92351180Y-80904498D01*
X92231482Y-80868188D01*
X92107000Y-80855928D01*
X91217750Y-80859000D01*
X91059000Y-81017750D01*
X90805000Y-81017750D01*
X90646250Y-80859000D01*
X89757000Y-80855928D01*
X89632518Y-80868188D01*
X89512820Y-80904498D01*
X89402506Y-80963463D01*
X89331800Y-81021490D01*
X89331800Y-80145277D01*
X89368255Y-80108822D01*
X89379038Y-80121962D01*
X89513614Y-80232405D01*
X89667150Y-80314472D01*
X89833746Y-80365008D01*
X90007000Y-80382072D01*
X91857000Y-80382072D01*
X92030254Y-80365008D01*
X92196850Y-80314472D01*
X92350386Y-80232405D01*
X92484962Y-80121962D01*
X92595405Y-79987386D01*
X92624047Y-79933800D01*
X94052293Y-79933800D01*
X94186102Y-79989226D01*
%TA.AperFunction,Conductor*%
D43*
G36*
X94186102Y-79989226D02*
G01*
X94386061Y-80029000D01*
X94589939Y-80029000D01*
X94789898Y-79989226D01*
X94869000Y-79956460D01*
X94869000Y-83218524D01*
X94794070Y-83220560D01*
X94635320Y-83379310D01*
X94635320Y-84328000D01*
X94655320Y-84328000D01*
X94655320Y-84582000D01*
X94635320Y-84582000D01*
X94635320Y-85530690D01*
X94794070Y-85689440D01*
X94869000Y-85691476D01*
X94869000Y-89585770D01*
X94771482Y-89556188D01*
X94647000Y-89543928D01*
X93757750Y-89547000D01*
X93599000Y-89705750D01*
X93599000Y-90805000D01*
X93619000Y-90805000D01*
X93619000Y-91059000D01*
X93599000Y-91059000D01*
X93599000Y-92158250D01*
X93757750Y-92317000D01*
X94647000Y-92320072D01*
X94771482Y-92307812D01*
X94869000Y-92278230D01*
X94869000Y-92932164D01*
X94736850Y-92861528D01*
X94570254Y-92810992D01*
X94397000Y-92793928D01*
X92547000Y-92793928D01*
X92373746Y-92810992D01*
X92207150Y-92861528D01*
X92053614Y-92943595D01*
X91935412Y-93040600D01*
X91059995Y-93040600D01*
X91051812Y-92957518D01*
X91015502Y-92837820D01*
X90956537Y-92727506D01*
X90877185Y-92630815D01*
X90780494Y-92551463D01*
X90670180Y-92492498D01*
X90550482Y-92456188D01*
X90514200Y-92452615D01*
X90514200Y-92281193D01*
X91632747Y-91162646D01*
X91664724Y-91136404D01*
X91728246Y-91059002D01*
X91820748Y-91059002D01*
X91662000Y-91217750D01*
X91658928Y-91682000D01*
X91671188Y-91806482D01*
X91707498Y-91926180D01*
X91766463Y-92036494D01*
X91845815Y-92133185D01*
X91942506Y-92212537D01*
X92052820Y-92271502D01*
X92172518Y-92307812D01*
X92297000Y-92320072D01*
X93186250Y-92317000D01*
X93345000Y-92158250D01*
X93345000Y-91059000D01*
X93325000Y-91059000D01*
X93325000Y-90805000D01*
X93345000Y-90805000D01*
X93345000Y-89705750D01*
X93186250Y-89547000D01*
X92297000Y-89543928D01*
X92172518Y-89556188D01*
X92052820Y-89592498D01*
X91942506Y-89651463D01*
X91907360Y-89680306D01*
X91907360Y-86150280D01*
X91919125Y-86140625D01*
X91998477Y-86043934D01*
X92057442Y-85933620D01*
X92093752Y-85813922D01*
X92106012Y-85689440D01*
X92106012Y-85655764D01*
X92186738Y-85680252D01*
X92311220Y-85692512D01*
X93108780Y-85692512D01*
X93233262Y-85680252D01*
X93352960Y-85643942D01*
X93463274Y-85584977D01*
X93559965Y-85505625D01*
X93609160Y-85445681D01*
X93658355Y-85505625D01*
X93755046Y-85584977D01*
X93865360Y-85643942D01*
X93985058Y-85680252D01*
X94109540Y-85692512D01*
X94222570Y-85689440D01*
X94381320Y-85530690D01*
X94381320Y-84582000D01*
X94361320Y-84582000D01*
X94361320Y-84328000D01*
X94381320Y-84328000D01*
X94381320Y-83379310D01*
X94222570Y-83220560D01*
X94109540Y-83217488D01*
X93985058Y-83229748D01*
X93865360Y-83266058D01*
X93755046Y-83325023D01*
X93658355Y-83404375D01*
X93609160Y-83464319D01*
X93559965Y-83404375D01*
X93463274Y-83325023D01*
X93352960Y-83266058D01*
X93233262Y-83229748D01*
X93108780Y-83217488D01*
X92702779Y-83217488D01*
X92732812Y-83118482D01*
X92745072Y-82994000D01*
X92742000Y-82529750D01*
X92583250Y-82371000D01*
X91059000Y-82371000D01*
X91059000Y-83470250D01*
X91217750Y-83629000D01*
X91535986Y-83630099D01*
X91381843Y-83676858D01*
X91236228Y-83754691D01*
X91117062Y-83852488D01*
X90670380Y-83852488D01*
X90545898Y-83864748D01*
X90426200Y-83901058D01*
X90315886Y-83960023D01*
X90219195Y-84039375D01*
X90170000Y-84099319D01*
X90120805Y-84039375D01*
X90024114Y-83960023D01*
X89913800Y-83901058D01*
X89794102Y-83864748D01*
X89669620Y-83852488D01*
X89362405Y-83852488D01*
X89331800Y-83821883D01*
X89331800Y-83466510D01*
X89402506Y-83524537D01*
X89512820Y-83583502D01*
X89632518Y-83619812D01*
X89757000Y-83632072D01*
X90646250Y-83629000D01*
X90805000Y-83470250D01*
X90805000Y-82371000D01*
X90785000Y-82371000D01*
X90785000Y-82117000D01*
X90805000Y-82117000D01*
X90805000Y-81017750D01*
X91059000Y-81017750D01*
X91059000Y-82117000D01*
X92583250Y-82117000D01*
X92742000Y-81958250D01*
X92745072Y-81494000D01*
X92732812Y-81369518D01*
X92696502Y-81249820D01*
X92637537Y-81139506D01*
X92558185Y-81042815D01*
X92461494Y-80963463D01*
X92351180Y-80904498D01*
X92231482Y-80868188D01*
X92107000Y-80855928D01*
X91217750Y-80859000D01*
X91059000Y-81017750D01*
X90805000Y-81017750D01*
X90646250Y-80859000D01*
X89757000Y-80855928D01*
X89632518Y-80868188D01*
X89512820Y-80904498D01*
X89402506Y-80963463D01*
X89331800Y-81021490D01*
X89331800Y-80145277D01*
X89368255Y-80108822D01*
X89379038Y-80121962D01*
X89513614Y-80232405D01*
X89667150Y-80314472D01*
X89833746Y-80365008D01*
X90007000Y-80382072D01*
X91857000Y-80382072D01*
X92030254Y-80365008D01*
X92196850Y-80314472D01*
X92350386Y-80232405D01*
X92484962Y-80121962D01*
X92595405Y-79987386D01*
X92624047Y-79933800D01*
X94052293Y-79933800D01*
X94186102Y-79989226D01*
G37*
%TD.AperFunction*%
%TD*%
M02*
